<svg width="1280" height="720" viewBox="0 0 1280 720" fill="none" xmlns="http://www.w3.org/2000/svg">
<g clip-path="url(#clip0_2610_3209)">
<rect width="1280" height="720" fill="#FEF750"/>
<path d="M-107.42 199.209L-157.767 324.523L-32.5344 374.814L17.8119 249.501L-107.42 199.209Z" fill="url(#paint0_linear_2610_3209)"/>
<path d="M-69.476 251.221L-119.822 376.534L5.40995 426.826L55.7562 301.512L-69.476 251.221Z" fill="url(#paint1_linear_2610_3209)"/>
<path d="M-27.5121 298.967L-77.8584 424.281L47.3738 474.572L97.7201 349.259L-27.5121 298.967Z" fill="url(#paint2_linear_2610_3209)"/>
<path d="M26.7398 333.513L-23.6064 458.827L101.626 509.118L151.972 383.804L26.7398 333.513Z" fill="url(#paint3_linear_2610_3209)"/>
<path d="M81.0396 368.168L30.6934 493.482L155.926 543.773L206.272 418.459L81.0396 368.168Z" fill="url(#paint4_linear_2610_3209)"/>
<path d="M138.497 395.15L88.1504 520.463L213.383 570.755L263.729 445.441L138.497 395.15Z" fill="url(#paint5_linear_2610_3209)"/>
<path d="M201.249 409.527L150.902 534.841L276.135 585.132L326.481 459.818L201.249 409.527Z" fill="url(#paint6_linear_2610_3209)"/>
<path d="M264.004 423.895L213.657 549.209L338.889 599.5L389.236 474.186L264.004 423.895Z" fill="url(#paint7_linear_2610_3209)"/>
<path d="M327.551 429.041L277.205 554.355L402.437 604.646L452.784 479.332L327.551 429.041Z" fill="url(#paint8_linear_2610_3209)"/>
<path d="M392.01 426.486L341.664 551.8L466.896 602.091L517.243 476.778L392.01 426.486Z" fill="url(#paint9_linear_2610_3209)"/>
<path d="M456.284 423.938L405.938 549.252L531.17 599.544L581.516 474.23L456.284 423.938Z" fill="url(#paint10_linear_2610_3209)"/>
<path d="M519.242 412.537L468.896 537.851L594.128 588.143L644.474 462.829L519.242 412.537Z" fill="url(#paint11_linear_2610_3209)"/>
<path d="M581.793 397.002L531.446 522.316L656.679 572.607L707.025 447.294L581.793 397.002Z" fill="url(#paint12_linear_2610_3209)"/>
<path d="M644.221 381.318L593.875 506.632L719.107 556.924L769.453 431.61L644.221 381.318Z" fill="url(#paint13_linear_2610_3209)"/>
<path d="M703.848 357.159L653.502 482.473L778.734 532.764L829.08 407.45L703.848 357.159Z" fill="url(#paint14_linear_2610_3209)"/>
<path d="M762.564 330.929L712.218 456.242L837.45 506.534L887.796 381.22L762.564 330.929Z" fill="url(#paint15_linear_2610_3209)"/>
<path d="M811.936 290.09L761.59 415.404L886.822 465.695L937.168 340.381L811.936 290.09Z" fill="url(#paint16_linear_2610_3209)"/>
<path d="M859.839 247.186L809.493 372.5L934.725 422.791L985.072 297.478L859.839 247.186Z" fill="url(#paint17_linear_2610_3209)"/>
<path d="M885.138 188.064L834.792 313.378L960.024 363.669L1010.37 238.356L885.138 188.064Z" fill="url(#paint18_linear_2610_3209)"/>
<path d="M891.391 125.265L841.045 250.579L966.277 300.87L1016.62 175.556L891.391 125.265Z" fill="url(#paint19_linear_2610_3209)"/>
<path d="M875.868 65.009L825.521 190.323L950.754 240.614L1001.1 115.3L875.868 65.009Z" fill="url(#paint20_linear_2610_3209)"/>
<path d="M836.785 16.0007L786.438 141.315L911.671 191.606L962.017 66.2922L836.785 16.0007Z" fill="url(#paint21_linear_2610_3209)"/>
<path d="M777.579 -9.4433L727.232 115.87L852.465 166.162L902.811 40.8482L777.579 -9.4433Z" fill="url(#paint22_linear_2610_3209)"/>
<path d="M713.541 -10.1801L663.194 115.134L788.427 165.425L838.773 40.1114L713.541 -10.1801Z" fill="url(#paint23_linear_2610_3209)"/>
<path d="M651.908 4.98563L601.562 130.299L726.794 180.591L777.14 55.2771L651.908 4.98563Z" fill="url(#paint24_linear_2610_3209)"/>
<path d="M591.67 27.6538L541.323 152.968L666.555 203.259L716.902 77.9453L591.67 27.6538Z" fill="url(#paint25_linear_2610_3209)"/>
<path d="M536.132 58.1838L485.786 183.498L611.018 233.789L661.365 108.475L536.132 58.1838Z" fill="url(#paint26_linear_2610_3209)"/>
<path d="M488.237 101.293L437.891 226.606L563.123 276.898L613.469 151.584L488.237 101.293Z" fill="url(#paint27_linear_2610_3209)"/>
<path d="M442.41 145.901L392.063 271.215L517.296 321.506L567.642 196.192L442.41 145.901Z" fill="url(#paint28_linear_2610_3209)"/>
<path d="M413.641 203.537L363.295 328.85L488.527 379.142L538.873 253.828L413.641 203.537Z" fill="url(#paint29_linear_2610_3209)"/>
<path d="M384.867 261.168L334.521 386.482L459.753 436.773L510.099 311.46L384.867 261.168Z" fill="url(#paint30_linear_2610_3209)"/>
<path d="M376.71 324.347L326.363 449.661L451.595 499.952L501.942 374.638L376.71 324.347Z" fill="url(#paint31_linear_2610_3209)"/>
<path d="M372.665 388.612L322.318 513.925L447.551 564.217L497.897 438.903L372.665 388.612Z" fill="url(#paint32_linear_2610_3209)"/>
<path d="M381.884 451.216L331.538 576.53L456.77 626.822L507.117 501.508L381.884 451.216Z" fill="url(#paint33_linear_2610_3209)"/>
<path d="M401.635 512.505L351.289 637.819L476.521 688.11L526.868 562.796L401.635 512.505Z" fill="url(#paint34_linear_2610_3209)"/>
<path d="M427.16 570.665L376.813 695.979L502.046 746.271L552.392 620.957L427.16 570.665Z" fill="url(#paint35_linear_2610_3209)"/>
<path d="M467.993 620.378L417.646 745.691L542.879 795.983L593.225 670.669L467.993 620.378Z" fill="url(#paint36_linear_2610_3209)"/>
<path d="M508.754 670.244L458.408 795.558L583.64 845.85L633.987 720.536L508.754 670.244Z" fill="url(#paint37_linear_2610_3209)"/>
<path d="M-25.7148 148.889L-153.133 193.643L-108.391 320.964L19.0267 276.21L-25.7148 148.889Z" fill="url(#paint38_linear_2610_3209)"/>
<path d="M37.5421 159.091L-89.876 203.845L-45.1345 331.166L82.2835 286.412L37.5421 159.091Z" fill="url(#paint39_linear_2610_3209)"/>
<path d="M101.382 166.828L-26.0361 211.582L18.7053 338.903L146.123 294.149L101.382 166.828Z" fill="url(#paint40_linear_2610_3209)"/>
<path d="M162.517 146.876L35.0986 191.63L79.8401 318.95L207.258 274.196L162.517 146.876Z" fill="url(#paint41_linear_2610_3209)"/>
<path d="M213.859 110.178L86.4414 154.932L131.183 282.253L258.601 237.499L213.859 110.178Z" fill="url(#paint42_linear_2610_3209)"/>
<path d="M248.935 58.7829L121.517 103.537L166.258 230.858L293.676 186.104L248.935 58.7829Z" fill="url(#paint43_linear_2610_3209)"/>
<path d="M260.022 -2.91264L132.604 41.8414L177.345 169.162L304.763 124.408L260.022 -2.91264Z" fill="url(#paint44_linear_2610_3209)"/>
<path d="M240.123 -64.2046L112.705 -19.4505L157.447 107.87L284.865 63.1161L240.123 -64.2046Z" fill="url(#paint45_linear_2610_3209)"/>
<path d="M198.46 -112.844L71.042 -68.0896L115.783 59.231L243.202 14.477L198.46 -112.844Z" fill="url(#paint46_linear_2610_3209)"/>
<path d="M146.427 -149.189L19.0088 -104.435L63.7503 22.8853L191.168 -21.8687L146.427 -149.189Z" fill="url(#paint47_linear_2610_3209)"/>
<path d="M1008.73 386.668H1126.37C1129.55 386.668 1132.14 389.249 1132.14 392.433C1132.14 395.618 1129.55 398.199 1126.37 398.199H1008.73C1005.54 398.199 1002.96 395.618 1002.96 392.433C1002.96 389.249 1005.54 386.668 1008.73 386.668Z" fill="#696969"/>
<path d="M1009.75 375H1033.41V380.459H1009.75V375Z" fill="#009FE3"/>
<path d="M1040.68 375H1064.34V380.459H1040.68V375Z" fill="#C7D302"/>
<path d="M1071.21 375H1094.86V380.459H1071.21V375Z" fill="#F07E16"/>
<path d="M1101.6 375H1125.25V380.459H1101.6V375Z" fill="#DF2815"/>
<path d="M1101.6 404.203H1125.25V444.187H1101.6V404.203Z" fill="#DF2815"/>
<path d="M1071.21 404.203H1094.9V469.16H1071.21V404.203Z" fill="#F07E16"/>
<path d="M1040.68 404.203H1064.34V501.502H1040.68V404.203Z" fill="#C7D302"/>
<path d="M1009.75 404.203H1033.41V522.791H1009.75V404.203Z" fill="#009FE3"/>
<path d="M935.414 649.036C933.082 649.036 930.967 648.779 929.069 648.265C927.171 647.751 925.461 647.069 923.939 646.219C922.417 645.369 921.073 644.371 919.907 643.224C918.74 642.078 917.702 640.872 916.793 639.607H916.081C916.2 640.951 916.319 642.236 916.437 643.462C916.516 644.489 916.595 645.547 916.674 646.634C916.754 647.721 916.793 648.581 916.793 649.214V677.027H906V582.735H914.777L916.319 591.512H916.793C917.702 590.128 918.73 588.833 919.877 587.628C921.023 586.422 922.358 585.374 923.88 584.484C925.402 583.595 927.112 582.883 929.009 582.35C930.907 581.816 933.042 581.549 935.414 581.549C939.131 581.549 942.511 582.26 945.555 583.684C948.599 585.107 951.199 587.232 953.354 590.059C955.508 592.886 957.179 596.395 958.365 600.585C959.551 604.776 960.144 609.639 960.144 615.174C960.144 620.748 959.551 625.641 958.365 629.851C957.179 634.062 955.508 637.59 953.354 640.437C951.199 643.284 948.599 645.428 945.555 646.872C942.511 648.315 939.131 649.036 935.414 649.036ZM933.339 590.504C930.334 590.504 927.794 590.958 925.718 591.868C923.643 592.777 921.962 594.161 920.678 596.019C919.393 597.877 918.444 600.19 917.831 602.957C917.218 605.725 916.872 608.987 916.793 612.742V615.174C916.793 619.167 917.06 622.715 917.594 625.819C918.127 628.922 919.037 631.532 920.322 633.647C921.607 635.762 923.316 637.363 925.451 638.45C927.586 639.538 930.255 640.081 933.457 640.081C938.795 640.081 942.718 637.927 945.229 633.617C947.739 629.308 948.995 623.12 948.995 615.055C948.995 606.832 947.739 600.684 945.229 596.612C942.718 592.54 938.755 590.504 933.339 590.504Z" fill="#696969"/>
<path d="M967.438 582.735H978.647L991.397 619.088C991.95 620.669 992.514 622.33 993.087 624.069C993.661 625.809 994.194 627.548 994.688 629.288C995.183 631.028 995.608 632.708 995.963 634.329C996.319 635.95 996.576 637.452 996.734 638.836H997.09C997.288 637.848 997.604 636.503 998.039 634.803C998.474 633.103 998.958 631.294 999.492 629.377C1000.03 627.459 1000.58 625.572 1001.15 623.713C1001.73 621.855 1002.23 620.274 1002.66 618.969L1014.47 582.735H1025.62L999.877 656.33C998.77 659.533 997.574 662.409 996.289 664.959C995.005 667.509 993.512 669.673 991.812 671.452C990.112 673.232 988.116 674.606 985.822 675.574C983.529 676.543 980.801 677.027 977.639 677.027C975.583 677.027 973.804 676.918 972.301 676.701C970.799 676.483 969.514 676.256 968.447 676.019V667.42C969.277 667.618 970.325 667.786 971.59 667.924C972.855 668.062 974.179 668.132 975.563 668.132C977.461 668.132 979.102 667.904 980.485 667.45C981.869 666.995 983.075 666.333 984.103 665.463C985.131 664.593 986.01 663.526 986.742 662.261C987.473 660.995 988.135 659.552 988.728 657.931L992.109 648.443L967.438 582.735Z" fill="#696969"/>
<path d="M1056.21 640.2C1056.93 640.2 1057.73 640.16 1058.62 640.081C1059.51 640.002 1060.37 639.903 1061.2 639.785C1062.03 639.666 1062.79 639.528 1063.48 639.369C1064.17 639.211 1064.69 639.073 1065.05 638.954V647.138C1064.54 647.375 1063.88 647.613 1063.09 647.85C1062.3 648.087 1061.43 648.295 1060.48 648.472C1059.54 648.65 1058.55 648.789 1057.52 648.888C1056.49 648.987 1055.48 649.036 1054.49 649.036C1052.04 649.036 1049.77 648.72 1047.67 648.087C1045.58 647.455 1043.77 646.367 1042.25 644.825C1040.73 643.283 1039.53 641.198 1038.66 638.569C1037.79 635.94 1037.36 632.629 1037.36 628.636V590.86H1028.16V586.056L1037.36 581.43L1041.98 567.791H1048.21V582.735H1064.58V590.86H1048.21V628.636C1048.21 632.471 1048.83 635.357 1050.08 637.294C1051.32 639.231 1053.37 640.2 1056.21 640.2Z" fill="#009FE3"/>
<path d="M1103.42 649.036C1099.07 649.036 1095.1 648.305 1091.5 646.842C1087.9 645.379 1084.81 643.244 1082.22 640.437C1079.63 637.63 1077.62 634.151 1076.2 630C1074.78 625.848 1074.07 621.104 1074.07 615.767C1074.07 610.39 1074.72 605.586 1076.02 601.356C1077.33 597.126 1079.17 593.538 1081.54 590.593C1083.91 587.647 1086.75 585.404 1090.05 583.862C1093.35 582.32 1097 581.549 1100.99 581.549C1104.9 581.549 1108.42 582.251 1111.54 583.654C1114.67 585.058 1117.32 587.034 1119.49 589.584C1121.67 592.135 1123.34 595.199 1124.5 598.777C1125.67 602.355 1126.25 606.318 1126.25 610.667V617.368H1085.21C1085.41 624.998 1087.02 630.612 1090.05 634.21C1093.07 637.808 1097.57 639.607 1103.54 639.607C1105.56 639.607 1107.42 639.508 1109.14 639.31C1110.86 639.113 1112.52 638.826 1114.12 638.45C1115.73 638.075 1117.28 637.6 1118.78 637.027C1120.28 636.454 1121.8 635.811 1123.35 635.1V644.707C1121.77 645.458 1120.21 646.11 1118.69 646.664C1117.17 647.217 1115.61 647.672 1114.01 648.028C1112.41 648.384 1110.74 648.641 1109.02 648.799C1107.3 648.957 1105.44 649.036 1103.42 649.036ZM1100.75 590.504C1096.24 590.504 1092.68 592.046 1090.05 595.129C1087.42 598.213 1085.89 602.7 1085.45 608.591H1114.63C1114.63 605.903 1114.36 603.442 1113.83 601.208C1113.29 598.974 1112.46 597.067 1111.34 595.485C1110.21 593.904 1108.78 592.678 1107.04 591.809C1105.3 590.939 1103.2 590.504 1100.75 590.504Z" fill="#009FE3"/>
<path d="M1181.64 630C1181.64 633.163 1181.07 635.93 1179.92 638.302C1178.77 640.674 1177.12 642.661 1174.97 644.262C1172.81 645.863 1170.22 647.059 1167.17 647.85C1164.13 648.641 1160.71 649.036 1156.91 649.036C1152.6 649.036 1148.91 648.69 1145.82 647.998C1142.74 647.306 1140.03 646.288 1137.7 644.944V635.1C1138.92 635.732 1140.29 636.355 1141.79 636.968C1143.29 637.581 1144.87 638.124 1146.53 638.599C1148.19 639.073 1149.9 639.459 1151.66 639.755C1153.42 640.052 1155.17 640.2 1156.91 640.2C1159.48 640.2 1161.67 639.982 1163.46 639.547C1165.26 639.113 1166.73 638.49 1167.85 637.68C1168.98 636.869 1169.8 635.88 1170.31 634.714C1170.83 633.548 1171.09 632.253 1171.09 630.83C1171.09 629.604 1170.89 628.497 1170.49 627.509C1170.1 626.521 1169.38 625.542 1168.33 624.574C1167.28 623.605 1165.85 622.626 1164.03 621.638C1162.21 620.65 1159.88 619.543 1157.03 618.317C1154.18 617.091 1151.62 615.886 1149.35 614.7C1147.08 613.513 1145.15 612.189 1143.57 610.726C1141.99 609.263 1140.77 607.573 1139.92 605.656C1139.07 603.738 1138.65 601.455 1138.65 598.806C1138.65 596.039 1139.19 593.578 1140.28 591.423C1141.36 589.268 1142.9 587.46 1144.87 585.997C1146.85 584.534 1149.22 583.427 1151.99 582.676C1154.76 581.925 1157.84 581.549 1161.24 581.549C1165.08 581.549 1168.58 581.964 1171.77 582.794C1174.95 583.625 1177.96 584.712 1180.81 586.056L1177.07 594.774C1174.5 593.627 1171.87 592.629 1169.16 591.779C1166.45 590.929 1163.69 590.504 1160.88 590.504C1156.85 590.504 1153.87 591.166 1151.93 592.49C1149.99 593.815 1149.02 595.703 1149.02 598.154C1149.02 599.538 1149.25 600.743 1149.71 601.771C1150.16 602.799 1150.94 603.768 1152.05 604.677C1153.16 605.586 1154.64 606.506 1156.5 607.435C1158.35 608.364 1160.67 609.402 1163.43 610.548C1166.28 611.734 1168.82 612.92 1171.06 614.106C1173.29 615.292 1175.2 616.627 1176.78 618.109C1178.36 619.592 1179.57 621.282 1180.4 623.18C1181.23 625.077 1181.64 627.351 1181.64 630Z" fill="#009FE3"/>
<path d="M1217.16 640.2C1217.88 640.2 1218.68 640.16 1219.57 640.081C1220.46 640.002 1221.31 639.903 1222.15 639.785C1222.98 639.666 1223.74 639.528 1224.43 639.369C1225.12 639.211 1225.64 639.073 1226 638.954V647.138C1225.49 647.375 1224.83 647.613 1224.04 647.85C1223.25 648.087 1222.38 648.295 1221.43 648.472C1220.48 648.65 1219.5 648.789 1218.47 648.888C1217.44 648.987 1216.43 649.036 1215.44 649.036C1212.99 649.036 1210.72 648.72 1208.62 648.087C1206.53 647.455 1204.72 646.367 1203.2 644.825C1201.68 643.283 1200.48 641.198 1199.61 638.569C1198.74 635.94 1198.31 632.629 1198.31 628.636V590.86H1189.11V586.056L1198.31 581.43L1202.93 567.791H1209.16V582.735H1225.53V590.86H1209.16V628.636C1209.16 632.471 1209.78 635.357 1211.03 637.294C1212.27 639.231 1214.32 640.2 1217.16 640.2Z" fill="#009FE3"/>
</g>
<defs>
<linearGradient id="paint0_linear_2610_3209" x1="-91.7167" y1="345.576" x2="-68.1819" y2="143.576" gradientUnits="userSpaceOnUse">
<stop stop-color="#21D789" stop-opacity="0.11"/>
<stop offset="0.145" stop-color="#21D789" stop-opacity="0.6"/>
<stop offset="0.355" stop-color="#07C3F2" stop-opacity="0.810309"/>
<stop offset="0.685" stop-color="#FEF750"/>
<stop offset="0.93" stop-color="#07C3F2" stop-opacity="0.2"/>
</linearGradient>
<linearGradient id="paint1_linear_2610_3209" x1="-53.7723" y1="397.587" x2="-30.2375" y2="195.587" gradientUnits="userSpaceOnUse">
<stop stop-color="#21D789" stop-opacity="0.11"/>
<stop offset="0.145" stop-color="#21D789" stop-opacity="0.6"/>
<stop offset="0.355" stop-color="#07C3F2" stop-opacity="0.810309"/>
<stop offset="0.685" stop-color="#FEF750"/>
<stop offset="0.93" stop-color="#07C3F2" stop-opacity="0.2"/>
</linearGradient>
<linearGradient id="paint2_linear_2610_3209" x1="-11.8085" y1="445.334" x2="11.7264" y2="243.334" gradientUnits="userSpaceOnUse">
<stop stop-color="#21D789" stop-opacity="0.11"/>
<stop offset="0.145" stop-color="#21D789" stop-opacity="0.6"/>
<stop offset="0.355" stop-color="#07C3F2" stop-opacity="0.810309"/>
<stop offset="0.685" stop-color="#FEF750"/>
<stop offset="0.93" stop-color="#07C3F2" stop-opacity="0.2"/>
</linearGradient>
<linearGradient id="paint3_linear_2610_3209" x1="42.4435" y1="479.879" x2="65.9783" y2="277.879" gradientUnits="userSpaceOnUse">
<stop stop-color="#21D789" stop-opacity="0.11"/>
<stop offset="0.145" stop-color="#21D789" stop-opacity="0.6"/>
<stop offset="0.355" stop-color="#07C3F2" stop-opacity="0.810309"/>
<stop offset="0.685" stop-color="#FEF750"/>
<stop offset="0.93" stop-color="#07C3F2" stop-opacity="0.2"/>
</linearGradient>
<linearGradient id="paint4_linear_2610_3209" x1="96.7433" y1="514.534" x2="120.278" y2="312.534" gradientUnits="userSpaceOnUse">
<stop stop-color="#21D789" stop-opacity="0.11"/>
<stop offset="0.145" stop-color="#21D789" stop-opacity="0.6"/>
<stop offset="0.355" stop-color="#07C3F2" stop-opacity="0.810309"/>
<stop offset="0.685" stop-color="#FEF750"/>
<stop offset="0.93" stop-color="#07C3F2" stop-opacity="0.2"/>
</linearGradient>
<linearGradient id="paint5_linear_2610_3209" x1="154.2" y1="541.516" x2="177.735" y2="339.516" gradientUnits="userSpaceOnUse">
<stop stop-color="#21D789" stop-opacity="0.11"/>
<stop offset="0.145" stop-color="#21D789" stop-opacity="0.6"/>
<stop offset="0.355" stop-color="#07C3F2" stop-opacity="0.810309"/>
<stop offset="0.685" stop-color="#FEF750"/>
<stop offset="0.93" stop-color="#07C3F2" stop-opacity="0.2"/>
</linearGradient>
<linearGradient id="paint6_linear_2610_3209" x1="216.952" y1="555.894" x2="240.487" y2="353.894" gradientUnits="userSpaceOnUse">
<stop stop-color="#21D789" stop-opacity="0.11"/>
<stop offset="0.145" stop-color="#21D789" stop-opacity="0.6"/>
<stop offset="0.355" stop-color="#07C3F2" stop-opacity="0.810309"/>
<stop offset="0.685" stop-color="#FEF750"/>
<stop offset="0.93" stop-color="#07C3F2" stop-opacity="0.2"/>
</linearGradient>
<linearGradient id="paint7_linear_2610_3209" x1="279.707" y1="570.261" x2="303.242" y2="368.261" gradientUnits="userSpaceOnUse">
<stop stop-color="#21D789" stop-opacity="0.11"/>
<stop offset="0.145" stop-color="#21D789" stop-opacity="0.6"/>
<stop offset="0.355" stop-color="#07C3F2" stop-opacity="0.810309"/>
<stop offset="0.685" stop-color="#FEF750"/>
<stop offset="0.93" stop-color="#07C3F2" stop-opacity="0.2"/>
</linearGradient>
<linearGradient id="paint8_linear_2610_3209" x1="343.255" y1="575.407" x2="366.79" y2="373.407" gradientUnits="userSpaceOnUse">
<stop stop-color="#21D789" stop-opacity="0.11"/>
<stop offset="0.145" stop-color="#21D789" stop-opacity="0.6"/>
<stop offset="0.355" stop-color="#07C3F2" stop-opacity="0.810309"/>
<stop offset="0.685" stop-color="#FEF750"/>
<stop offset="0.93" stop-color="#07C3F2" stop-opacity="0.2"/>
</linearGradient>
<linearGradient id="paint9_linear_2610_3209" x1="407.714" y1="572.853" x2="431.249" y2="370.853" gradientUnits="userSpaceOnUse">
<stop stop-color="#21D789" stop-opacity="0.11"/>
<stop offset="0.145" stop-color="#21D789" stop-opacity="0.6"/>
<stop offset="0.355" stop-color="#07C3F2" stop-opacity="0.810309"/>
<stop offset="0.685" stop-color="#FEF750"/>
<stop offset="0.93" stop-color="#07C3F2" stop-opacity="0.2"/>
</linearGradient>
<linearGradient id="paint10_linear_2610_3209" x1="471.987" y1="570.305" x2="495.522" y2="368.305" gradientUnits="userSpaceOnUse">
<stop stop-color="#21D789" stop-opacity="0.11"/>
<stop offset="0.145" stop-color="#21D789" stop-opacity="0.6"/>
<stop offset="0.355" stop-color="#07C3F2" stop-opacity="0.810309"/>
<stop offset="0.685" stop-color="#FEF750"/>
<stop offset="0.93" stop-color="#07C3F2" stop-opacity="0.2"/>
</linearGradient>
<linearGradient id="paint11_linear_2610_3209" x1="534.945" y1="558.904" x2="558.48" y2="356.904" gradientUnits="userSpaceOnUse">
<stop stop-color="#21D789" stop-opacity="0.11"/>
<stop offset="0.145" stop-color="#21D789" stop-opacity="0.6"/>
<stop offset="0.355" stop-color="#07C3F2" stop-opacity="0.810309"/>
<stop offset="0.685" stop-color="#FEF750"/>
<stop offset="0.93" stop-color="#07C3F2" stop-opacity="0.2"/>
</linearGradient>
<linearGradient id="paint12_linear_2610_3209" x1="597.496" y1="543.369" x2="621.031" y2="341.369" gradientUnits="userSpaceOnUse">
<stop stop-color="#21D789" stop-opacity="0.11"/>
<stop offset="0.145" stop-color="#21D789" stop-opacity="0.6"/>
<stop offset="0.355" stop-color="#07C3F2" stop-opacity="0.810309"/>
<stop offset="0.685" stop-color="#FEF750"/>
<stop offset="0.93" stop-color="#07C3F2" stop-opacity="0.2"/>
</linearGradient>
<linearGradient id="paint13_linear_2610_3209" x1="659.925" y1="527.685" x2="683.46" y2="325.685" gradientUnits="userSpaceOnUse">
<stop stop-color="#21D789" stop-opacity="0.11"/>
<stop offset="0.145" stop-color="#21D789" stop-opacity="0.6"/>
<stop offset="0.355" stop-color="#07C3F2" stop-opacity="0.810309"/>
<stop offset="0.685" stop-color="#FEF750"/>
<stop offset="0.93" stop-color="#07C3F2" stop-opacity="0.2"/>
</linearGradient>
<linearGradient id="paint14_linear_2610_3209" x1="719.552" y1="503.525" x2="743.087" y2="301.525" gradientUnits="userSpaceOnUse">
<stop stop-color="#21D789" stop-opacity="0.11"/>
<stop offset="0.145" stop-color="#21D789" stop-opacity="0.6"/>
<stop offset="0.355" stop-color="#07C3F2" stop-opacity="0.810309"/>
<stop offset="0.685" stop-color="#FEF750"/>
<stop offset="0.93" stop-color="#07C3F2" stop-opacity="0.2"/>
</linearGradient>
<linearGradient id="paint15_linear_2610_3209" x1="778.268" y1="477.295" x2="801.803" y2="275.295" gradientUnits="userSpaceOnUse">
<stop stop-color="#21D789" stop-opacity="0.11"/>
<stop offset="0.145" stop-color="#21D789" stop-opacity="0.6"/>
<stop offset="0.355" stop-color="#07C3F2" stop-opacity="0.810309"/>
<stop offset="0.685" stop-color="#FEF750"/>
<stop offset="0.93" stop-color="#07C3F2" stop-opacity="0.2"/>
</linearGradient>
<linearGradient id="paint16_linear_2610_3209" x1="827.64" y1="436.456" x2="851.175" y2="234.456" gradientUnits="userSpaceOnUse">
<stop stop-color="#21D789" stop-opacity="0.11"/>
<stop offset="0.145" stop-color="#21D789" stop-opacity="0.6"/>
<stop offset="0.355" stop-color="#07C3F2" stop-opacity="0.810309"/>
<stop offset="0.685" stop-color="#FEF750"/>
<stop offset="0.93" stop-color="#07C3F2" stop-opacity="0.2"/>
</linearGradient>
<linearGradient id="paint17_linear_2610_3209" x1="875.543" y1="393.553" x2="899.078" y2="191.553" gradientUnits="userSpaceOnUse">
<stop stop-color="#21D789" stop-opacity="0.11"/>
<stop offset="0.145" stop-color="#21D789" stop-opacity="0.6"/>
<stop offset="0.355" stop-color="#07C3F2" stop-opacity="0.810309"/>
<stop offset="0.685" stop-color="#FEF750"/>
<stop offset="0.93" stop-color="#07C3F2" stop-opacity="0.2"/>
</linearGradient>
<linearGradient id="paint18_linear_2610_3209" x1="900.842" y1="334.431" x2="924.377" y2="132.431" gradientUnits="userSpaceOnUse">
<stop stop-color="#21D789" stop-opacity="0.11"/>
<stop offset="0.145" stop-color="#21D789" stop-opacity="0.6"/>
<stop offset="0.355" stop-color="#07C3F2" stop-opacity="0.810309"/>
<stop offset="0.685" stop-color="#FEF750"/>
<stop offset="0.93" stop-color="#07C3F2" stop-opacity="0.2"/>
</linearGradient>
<linearGradient id="paint19_linear_2610_3209" x1="907.095" y1="271.631" x2="930.63" y2="69.6315" gradientUnits="userSpaceOnUse">
<stop stop-color="#21D789" stop-opacity="0.11"/>
<stop offset="0.145" stop-color="#21D789" stop-opacity="0.6"/>
<stop offset="0.355" stop-color="#07C3F2" stop-opacity="0.810309"/>
<stop offset="0.685" stop-color="#FEF750"/>
<stop offset="0.93" stop-color="#07C3F2" stop-opacity="0.2"/>
</linearGradient>
<linearGradient id="paint20_linear_2610_3209" x1="891.571" y1="211.376" x2="915.106" y2="9.37559" gradientUnits="userSpaceOnUse">
<stop stop-color="#21D789" stop-opacity="0.11"/>
<stop offset="0.145" stop-color="#21D789" stop-opacity="0.6"/>
<stop offset="0.355" stop-color="#07C3F2" stop-opacity="0.810309"/>
<stop offset="0.685" stop-color="#FEF750"/>
<stop offset="0.93" stop-color="#07C3F2" stop-opacity="0.2"/>
</linearGradient>
<linearGradient id="paint21_linear_2610_3209" x1="852.488" y1="162.367" x2="876.023" y2="-39.6327" gradientUnits="userSpaceOnUse">
<stop stop-color="#21D789" stop-opacity="0.11"/>
<stop offset="0.145" stop-color="#21D789" stop-opacity="0.6"/>
<stop offset="0.355" stop-color="#07C3F2" stop-opacity="0.810309"/>
<stop offset="0.685" stop-color="#FEF750"/>
<stop offset="0.93" stop-color="#07C3F2" stop-opacity="0.2"/>
</linearGradient>
<linearGradient id="paint22_linear_2610_3209" x1="793.282" y1="136.923" x2="816.817" y2="-65.0767" gradientUnits="userSpaceOnUse">
<stop stop-color="#21D789" stop-opacity="0.11"/>
<stop offset="0.145" stop-color="#21D789" stop-opacity="0.6"/>
<stop offset="0.355" stop-color="#07C3F2" stop-opacity="0.810309"/>
<stop offset="0.685" stop-color="#FEF750"/>
<stop offset="0.93" stop-color="#07C3F2" stop-opacity="0.2"/>
</linearGradient>
<linearGradient id="paint23_linear_2610_3209" x1="729.244" y1="136.186" x2="752.779" y2="-65.8135" gradientUnits="userSpaceOnUse">
<stop stop-color="#21D789" stop-opacity="0.11"/>
<stop offset="0.145" stop-color="#21D789" stop-opacity="0.6"/>
<stop offset="0.355" stop-color="#07C3F2" stop-opacity="0.810309"/>
<stop offset="0.685" stop-color="#FEF750"/>
<stop offset="0.93" stop-color="#07C3F2" stop-opacity="0.2"/>
</linearGradient>
<linearGradient id="paint24_linear_2610_3209" x1="667.611" y1="151.352" x2="691.146" y2="-50.6478" gradientUnits="userSpaceOnUse">
<stop stop-color="#21D789" stop-opacity="0.11"/>
<stop offset="0.145" stop-color="#21D789" stop-opacity="0.6"/>
<stop offset="0.355" stop-color="#07C3F2" stop-opacity="0.810309"/>
<stop offset="0.685" stop-color="#FEF750"/>
<stop offset="0.93" stop-color="#07C3F2" stop-opacity="0.2"/>
</linearGradient>
<linearGradient id="paint25_linear_2610_3209" x1="607.373" y1="174.02" x2="630.908" y2="-27.9796" gradientUnits="userSpaceOnUse">
<stop stop-color="#21D789" stop-opacity="0.11"/>
<stop offset="0.145" stop-color="#21D789" stop-opacity="0.6"/>
<stop offset="0.355" stop-color="#07C3F2" stop-opacity="0.810309"/>
<stop offset="0.685" stop-color="#FEF750"/>
<stop offset="0.93" stop-color="#07C3F2" stop-opacity="0.2"/>
</linearGradient>
<linearGradient id="paint26_linear_2610_3209" x1="551.836" y1="204.55" x2="575.371" y2="2.5504" gradientUnits="userSpaceOnUse">
<stop stop-color="#21D789" stop-opacity="0.11"/>
<stop offset="0.145" stop-color="#21D789" stop-opacity="0.6"/>
<stop offset="0.355" stop-color="#07C3F2" stop-opacity="0.810309"/>
<stop offset="0.685" stop-color="#FEF750"/>
<stop offset="0.93" stop-color="#07C3F2" stop-opacity="0.2"/>
</linearGradient>
<linearGradient id="paint27_linear_2610_3209" x1="503.941" y1="247.659" x2="527.475" y2="45.6591" gradientUnits="userSpaceOnUse">
<stop stop-color="#21D789" stop-opacity="0.11"/>
<stop offset="0.145" stop-color="#21D789" stop-opacity="0.6"/>
<stop offset="0.355" stop-color="#07C3F2" stop-opacity="0.810309"/>
<stop offset="0.685" stop-color="#FEF750"/>
<stop offset="0.93" stop-color="#07C3F2" stop-opacity="0.2"/>
</linearGradient>
<linearGradient id="paint28_linear_2610_3209" x1="458.113" y1="292.267" x2="481.648" y2="90.2673" gradientUnits="userSpaceOnUse">
<stop stop-color="#21D789" stop-opacity="0.11"/>
<stop offset="0.145" stop-color="#21D789" stop-opacity="0.6"/>
<stop offset="0.355" stop-color="#07C3F2" stop-opacity="0.810309"/>
<stop offset="0.685" stop-color="#FEF750"/>
<stop offset="0.93" stop-color="#07C3F2" stop-opacity="0.2"/>
</linearGradient>
<linearGradient id="paint29_linear_2610_3209" x1="429.345" y1="349.903" x2="452.88" y2="147.903" gradientUnits="userSpaceOnUse">
<stop stop-color="#21D789" stop-opacity="0.11"/>
<stop offset="0.145" stop-color="#21D789" stop-opacity="0.6"/>
<stop offset="0.355" stop-color="#07C3F2" stop-opacity="0.810309"/>
<stop offset="0.685" stop-color="#FEF750"/>
<stop offset="0.93" stop-color="#07C3F2" stop-opacity="0.2"/>
</linearGradient>
<linearGradient id="paint30_linear_2610_3209" x1="400.57" y1="407.535" x2="424.105" y2="205.535" gradientUnits="userSpaceOnUse">
<stop stop-color="#21D789" stop-opacity="0.11"/>
<stop offset="0.145" stop-color="#21D789" stop-opacity="0.6"/>
<stop offset="0.355" stop-color="#07C3F2" stop-opacity="0.810309"/>
<stop offset="0.685" stop-color="#FEF750"/>
<stop offset="0.93" stop-color="#07C3F2" stop-opacity="0.2"/>
</linearGradient>
<linearGradient id="paint31_linear_2610_3209" x1="392.413" y1="470.714" x2="415.948" y2="268.714" gradientUnits="userSpaceOnUse">
<stop stop-color="#21D789" stop-opacity="0.11"/>
<stop offset="0.145" stop-color="#21D789" stop-opacity="0.6"/>
<stop offset="0.355" stop-color="#07C3F2" stop-opacity="0.810309"/>
<stop offset="0.685" stop-color="#FEF750"/>
<stop offset="0.93" stop-color="#07C3F2" stop-opacity="0.2"/>
</linearGradient>
<linearGradient id="paint32_linear_2610_3209" x1="388.368" y1="534.978" x2="411.903" y2="332.978" gradientUnits="userSpaceOnUse">
<stop stop-color="#21D789" stop-opacity="0.11"/>
<stop offset="0.145" stop-color="#21D789" stop-opacity="0.6"/>
<stop offset="0.355" stop-color="#07C3F2" stop-opacity="0.810309"/>
<stop offset="0.685" stop-color="#FEF750"/>
<stop offset="0.93" stop-color="#07C3F2" stop-opacity="0.2"/>
</linearGradient>
<linearGradient id="paint33_linear_2610_3209" x1="397.588" y1="597.583" x2="421.123" y2="395.583" gradientUnits="userSpaceOnUse">
<stop stop-color="#21D789" stop-opacity="0.11"/>
<stop offset="0.145" stop-color="#21D789" stop-opacity="0.6"/>
<stop offset="0.355" stop-color="#07C3F2" stop-opacity="0.810309"/>
<stop offset="0.685" stop-color="#FEF750"/>
<stop offset="0.93" stop-color="#07C3F2" stop-opacity="0.2"/>
</linearGradient>
<linearGradient id="paint34_linear_2610_3209" x1="417.339" y1="658.871" x2="440.874" y2="456.871" gradientUnits="userSpaceOnUse">
<stop stop-color="#21D789" stop-opacity="0.11"/>
<stop offset="0.145" stop-color="#21D789" stop-opacity="0.6"/>
<stop offset="0.355" stop-color="#07C3F2" stop-opacity="0.810309"/>
<stop offset="0.685" stop-color="#FEF750"/>
<stop offset="0.93" stop-color="#07C3F2" stop-opacity="0.2"/>
</linearGradient>
<linearGradient id="paint35_linear_2610_3209" x1="442.863" y1="717.032" x2="466.398" y2="515.032" gradientUnits="userSpaceOnUse">
<stop stop-color="#21D789" stop-opacity="0.11"/>
<stop offset="0.145" stop-color="#21D789" stop-opacity="0.6"/>
<stop offset="0.355" stop-color="#07C3F2" stop-opacity="0.810309"/>
<stop offset="0.685" stop-color="#FEF750"/>
<stop offset="0.93" stop-color="#07C3F2" stop-opacity="0.2"/>
</linearGradient>
<linearGradient id="paint36_linear_2610_3209" x1="483.696" y1="766.744" x2="507.231" y2="564.744" gradientUnits="userSpaceOnUse">
<stop stop-color="#21D789" stop-opacity="0.11"/>
<stop offset="0.145" stop-color="#21D789" stop-opacity="0.6"/>
<stop offset="0.355" stop-color="#07C3F2" stop-opacity="0.810309"/>
<stop offset="0.685" stop-color="#FEF750"/>
<stop offset="0.93" stop-color="#07C3F2" stop-opacity="0.2"/>
</linearGradient>
<linearGradient id="paint37_linear_2610_3209" x1="524.458" y1="816.611" x2="547.993" y2="614.611" gradientUnits="userSpaceOnUse">
<stop stop-color="#21D789" stop-opacity="0.11"/>
<stop offset="0.145" stop-color="#21D789" stop-opacity="0.6"/>
<stop offset="0.355" stop-color="#07C3F2" stop-opacity="0.810309"/>
<stop offset="0.685" stop-color="#FEF750"/>
<stop offset="0.93" stop-color="#07C3F2" stop-opacity="0.2"/>
</linearGradient>
<linearGradient id="paint38_linear_2610_3209" x1="-125.421" y1="257.187" x2="41.9854" y2="141.719" gradientUnits="userSpaceOnUse">
<stop stop-color="#21D789" stop-opacity="0.11"/>
<stop offset="0.145" stop-color="#21D789" stop-opacity="0.6"/>
<stop offset="0.355" stop-color="#07C3F2" stop-opacity="0.810309"/>
<stop offset="0.685" stop-color="#FEF750"/>
<stop offset="0.93" stop-color="#07C3F2" stop-opacity="0.2"/>
</linearGradient>
<linearGradient id="paint39_linear_2610_3209" x1="-62.1639" y1="267.39" x2="105.242" y2="151.921" gradientUnits="userSpaceOnUse">
<stop stop-color="#21D789" stop-opacity="0.11"/>
<stop offset="0.145" stop-color="#21D789" stop-opacity="0.6"/>
<stop offset="0.355" stop-color="#07C3F2" stop-opacity="0.810309"/>
<stop offset="0.685" stop-color="#FEF750"/>
<stop offset="0.93" stop-color="#07C3F2" stop-opacity="0.2"/>
</linearGradient>
<linearGradient id="paint40_linear_2610_3209" x1="1.67597" y1="275.126" x2="169.082" y2="159.657" gradientUnits="userSpaceOnUse">
<stop stop-color="#21D789" stop-opacity="0.11"/>
<stop offset="0.145" stop-color="#21D789" stop-opacity="0.6"/>
<stop offset="0.355" stop-color="#07C3F2" stop-opacity="0.810309"/>
<stop offset="0.685" stop-color="#FEF750"/>
<stop offset="0.93" stop-color="#07C3F2" stop-opacity="0.2"/>
</linearGradient>
<linearGradient id="paint41_linear_2610_3209" x1="62.8107" y1="255.174" x2="230.217" y2="139.705" gradientUnits="userSpaceOnUse">
<stop stop-color="#21D789" stop-opacity="0.11"/>
<stop offset="0.145" stop-color="#21D789" stop-opacity="0.6"/>
<stop offset="0.355" stop-color="#07C3F2" stop-opacity="0.810309"/>
<stop offset="0.685" stop-color="#FEF750"/>
<stop offset="0.93" stop-color="#07C3F2" stop-opacity="0.2"/>
</linearGradient>
<linearGradient id="paint42_linear_2610_3209" x1="114.154" y1="218.476" x2="281.56" y2="103.007" gradientUnits="userSpaceOnUse">
<stop stop-color="#21D789" stop-opacity="0.11"/>
<stop offset="0.145" stop-color="#21D789" stop-opacity="0.6"/>
<stop offset="0.355" stop-color="#07C3F2" stop-opacity="0.810309"/>
<stop offset="0.685" stop-color="#FEF750"/>
<stop offset="0.93" stop-color="#07C3F2" stop-opacity="0.2"/>
</linearGradient>
<linearGradient id="paint43_linear_2610_3209" x1="149.229" y1="167.081" x2="316.635" y2="51.6123" gradientUnits="userSpaceOnUse">
<stop stop-color="#21D789" stop-opacity="0.11"/>
<stop offset="0.145" stop-color="#21D789" stop-opacity="0.6"/>
<stop offset="0.355" stop-color="#07C3F2" stop-opacity="0.810309"/>
<stop offset="0.685" stop-color="#FEF750"/>
<stop offset="0.93" stop-color="#07C3F2" stop-opacity="0.2"/>
</linearGradient>
<linearGradient id="paint44_linear_2610_3209" x1="160.316" y1="105.385" x2="327.722" y2="-10.0833" gradientUnits="userSpaceOnUse">
<stop stop-color="#21D789" stop-opacity="0.11"/>
<stop offset="0.145" stop-color="#21D789" stop-opacity="0.6"/>
<stop offset="0.355" stop-color="#07C3F2" stop-opacity="0.810309"/>
<stop offset="0.685" stop-color="#FEF750"/>
<stop offset="0.93" stop-color="#07C3F2" stop-opacity="0.2"/>
</linearGradient>
<linearGradient id="paint45_linear_2610_3209" x1="140.417" y1="44.0936" x2="307.823" y2="-71.3752" gradientUnits="userSpaceOnUse">
<stop stop-color="#21D789" stop-opacity="0.11"/>
<stop offset="0.145" stop-color="#21D789" stop-opacity="0.6"/>
<stop offset="0.355" stop-color="#07C3F2" stop-opacity="0.810309"/>
<stop offset="0.685" stop-color="#FEF750"/>
<stop offset="0.93" stop-color="#07C3F2" stop-opacity="0.2"/>
</linearGradient>
<linearGradient id="paint46_linear_2610_3209" x1="98.7541" y1="-4.54549" x2="266.16" y2="-120.014" gradientUnits="userSpaceOnUse">
<stop stop-color="#21D789" stop-opacity="0.11"/>
<stop offset="0.145" stop-color="#21D789" stop-opacity="0.6"/>
<stop offset="0.355" stop-color="#07C3F2" stop-opacity="0.810309"/>
<stop offset="0.685" stop-color="#FEF750"/>
<stop offset="0.93" stop-color="#07C3F2" stop-opacity="0.2"/>
</linearGradient>
<linearGradient id="paint47_linear_2610_3209" x1="46.7209" y1="-40.8912" x2="214.127" y2="-156.36" gradientUnits="userSpaceOnUse">
<stop stop-color="#21D789" stop-opacity="0.11"/>
<stop offset="0.145" stop-color="#21D789" stop-opacity="0.6"/>
<stop offset="0.355" stop-color="#07C3F2" stop-opacity="0.810309"/>
<stop offset="0.685" stop-color="#FEF750"/>
<stop offset="0.93" stop-color="#07C3F2" stop-opacity="0.2"/>
</linearGradient>
<clipPath id="clip0_2610_3209">
<rect width="1280" height="720" fill="white"/>
</clipPath>
</defs>
</svg>
