<svg width="1280" height="720" viewBox="0 0 1280 720" fill="none" xmlns="http://www.w3.org/2000/svg">
<g clip-path="url(#clip0_2608_1891)">
<rect width="1280" height="720" fill="black"/>
<path d="M255.798 557.016L388.727 624.703L216.045 883.485L83.1162 815.798L255.798 557.016Z" stroke="white" stroke-miterlimit="10"/>
<path d="M255.799 557.016L201.788 505.362C201.785 505.358 201.782 505.354 201.782 505.348C201.781 505.343 201.783 505.338 201.786 505.334C201.789 505.33 201.793 505.327 201.798 505.325C201.803 505.324 201.809 505.325 201.813 505.327L334.611 572.947L388.05 624.421C388.064 624.434 388.073 624.452 388.074 624.472C388.076 624.491 388.071 624.511 388.06 624.527C388.048 624.543 388.032 624.554 388.013 624.559C387.994 624.563 387.974 624.561 387.956 624.552L255.799 557.016Z" stroke="white" stroke-miterlimit="10"/>
<path d="M83.1164 815.798L29 764.043L201.682 505.261L255.798 557.016L83.1164 815.798Z" stroke="white" stroke-miterlimit="10"/>
<path d="M842.509 1060.88C680.343 898.715 680.343 635.793 842.509 473.627C1004.67 311.461 1267.6 311.461 1429.76 473.627C1591.93 635.793 1591.93 898.715 1429.76 1060.88C1267.6 1223.05 1004.67 1223.05 842.509 1060.88Z" fill="url(#paint0_linear_2608_1891)"/>
<path d="M930.317 533.775C681.263 606.843 650.521 327.492 312.806 569.418" stroke="white" stroke-width="4" stroke-linecap="round" stroke-linejoin="round" stroke-dasharray="1 14"/>
<path d="M597.399 564.057L617.106 567.191L597.399 570.322L594.384 590.803L591.369 570.322L571.662 567.191L591.369 564.057L594.384 543.576L597.399 564.057Z" fill="white"/>
<path d="M1189.78 473.792H901.699V658.927H1189.78V473.792Z" fill="white"/>
<path d="M1189.17 474.398V658.318H902.308V474.398H1189.17ZM1190.38 473.182H901.091V659.535H1190.38V473.182Z" fill="black"/>
<path d="M1195.51 473.182H1190.38V659.535H1195.51C1196.44 659.535 1197.33 659.165 1197.99 658.505C1198.65 657.846 1199.02 656.953 1199.02 656.021V476.696C1199.02 475.764 1198.65 474.87 1197.99 474.211C1197.33 473.552 1196.44 473.182 1195.51 473.182Z" fill="black"/>
<path d="M1176.35 485.362H916.134V646.197H1176.35V485.362Z" fill="black"/>
<path d="M1168.82 681.089H837.904C834.587 681.089 831.345 680.098 828.595 678.242C825.845 676.387 823.712 673.752 822.47 670.675L817.597 658.607H1190.23L1185.65 669.789C1184.29 673.131 1181.96 675.99 1178.96 678.002C1175.96 680.014 1172.44 681.089 1168.82 681.089Z" fill="black"/>
<mask id="mask0_2608_1891" style="mask-type:alpha" maskUnits="userSpaceOnUse" x="916" y="485" width="261" height="162">
<path d="M1176.35 485.362H916.134V646.197H1176.35V485.362Z" fill="black"/>
</mask>
<g mask="url(#mask0_2608_1891)">
<path d="M897.48 631.461C997.933 631.461 1079.37 550.027 1079.37 449.573C1079.37 349.12 997.933 267.686 897.48 267.686C797.026 267.686 715.592 349.12 715.592 449.573C715.592 550.027 797.026 631.461 897.48 631.461Z" fill="#27282C"/>
</g>
<path d="M914.117 519.011H1179.1" stroke="white" stroke-miterlimit="10"/>
<path d="M959.368 658.321L961.174 663.136C961.412 663.77 961.837 664.317 962.394 664.702C962.95 665.088 963.611 665.295 964.289 665.295H1018.82C1019.35 665.295 1019.86 665.147 1020.3 664.868C1020.74 664.589 1021.09 664.191 1021.31 663.719L1023.88 658.321L959.368 658.321Z" fill="url(#paint1_linear_2608_1891)"/>
<path d="M1163.74 609.315L1172.33 695.389H1239.1L1247.68 609.315H1163.74Z" fill="white" stroke="black" stroke-miterlimit="10"/>
<path d="M1206.65 549.124V609.52" stroke="black" stroke-miterlimit="10"/>
<mask id="path-18-inside-1_2608_1891" fill="white">
<path d="M1206.68 553.527C1208.57 551.644 1210.06 549.407 1211.08 546.946C1212.1 544.484 1212.63 541.846 1212.63 539.181C1212.63 536.516 1212.11 533.877 1211.09 531.415C1210.07 528.953 1208.57 526.716 1206.69 524.831C1204.81 522.947 1202.57 521.452 1200.11 520.433C1197.64 519.414 1195 518.889 1192.34 518.89C1189.68 518.891 1187.04 519.417 1184.58 520.438C1182.11 521.459 1179.88 522.955 1177.99 524.84"/>
</mask>
<path d="M1206.68 553.527C1208.57 551.644 1210.06 549.407 1211.08 546.946C1212.1 544.484 1212.63 541.846 1212.63 539.181C1212.63 536.516 1212.11 533.877 1211.09 531.415C1210.07 528.953 1208.57 526.716 1206.69 524.831C1204.81 522.947 1202.57 521.452 1200.11 520.433C1197.64 519.414 1195 518.889 1192.34 518.89C1189.68 518.891 1187.04 519.417 1184.58 520.438C1182.11 521.459 1179.88 522.955 1177.99 524.84" fill="white"/>
<path d="M1207.39 554.234C1209.37 552.258 1210.94 549.912 1212.01 547.329L1210.16 546.563C1209.19 548.903 1207.77 551.029 1205.97 552.819L1207.39 554.234ZM1212.01 547.329C1213.08 544.746 1213.63 541.977 1213.63 539.181L1211.63 539.181C1211.63 541.714 1211.13 544.223 1210.16 546.563L1212.01 547.329ZM1213.63 539.181C1213.63 536.385 1213.08 533.616 1212.01 531.032L1210.16 531.798C1211.13 534.138 1211.63 536.647 1211.63 539.181L1213.63 539.181ZM1212.01 531.032C1210.94 528.449 1209.37 526.101 1207.4 524.124L1205.98 525.538C1207.77 527.33 1209.19 529.457 1210.16 531.798L1212.01 531.032ZM1207.4 524.124C1205.42 522.147 1203.07 520.579 1200.49 519.509L1199.72 521.357C1202.06 522.326 1204.19 523.747 1205.98 525.538L1207.4 524.124ZM1200.49 519.509C1197.9 518.439 1195.14 517.889 1192.34 517.89L1192.34 519.89C1194.87 519.889 1197.38 520.388 1199.72 521.357L1200.49 519.509ZM1192.34 517.89C1189.54 517.891 1186.77 518.443 1184.19 519.514L1184.96 521.361C1187.3 520.391 1189.81 519.891 1192.34 519.89L1192.34 517.89ZM1184.19 519.514C1181.61 520.585 1179.26 522.155 1177.29 524.133L1178.7 525.547C1180.49 523.754 1182.62 522.332 1184.96 521.361L1184.19 519.514Z" fill="black" mask="url(#path-18-inside-1_2608_1891)"/>
<path d="M1235.07 582.379C1238.88 578.575 1241.02 573.416 1241.02 568.036C1241.02 562.656 1238.88 557.497 1235.07 553.693C1233.19 551.809 1230.95 550.315 1228.49 549.296C1226.03 548.276 1223.39 547.751 1220.73 547.751C1215.35 547.751 1210.19 549.889 1206.39 553.693" fill="black"/>
<path d="M1231.23 533.634C1231.89 531.488 1230.69 529.212 1228.54 528.55C1226.4 527.888 1224.12 529.091 1223.46 531.236C1222.8 533.382 1224 535.658 1226.14 536.32C1228.29 536.982 1230.57 535.779 1231.23 533.634Z" fill="black"/>
<path d="M1206.46 553.309L1225.65 534.116" stroke="black" stroke-miterlimit="10"/>
<path d="M934.342 537.761H1047.97" stroke="url(#paint2_linear_2608_1891)" stroke-linecap="round" stroke-linejoin="round"/>
<path d="M1062.43 537.761H1087.56" stroke="url(#paint3_linear_2608_1891)" stroke-linecap="round" stroke-linejoin="round"/>
<path d="M934.342 556.239H1015.95" stroke="url(#paint4_linear_2608_1891)" stroke-linecap="round" stroke-linejoin="round"/>
<path d="M1034.88 555.551H1120.27" stroke="url(#paint5_linear_2608_1891)" stroke-linecap="round" stroke-linejoin="round"/>
<path d="M934.342 574.029H989.433" stroke="url(#paint6_linear_2608_1891)" stroke-linecap="round" stroke-linejoin="round"/>
<path d="M1005.96 574.374H1062.43" stroke="url(#paint7_linear_2608_1891)" stroke-linecap="round" stroke-linejoin="round"/>
<path d="M1084.12 573.685H1106.85" stroke="url(#paint8_linear_2608_1891)" stroke-linecap="round" stroke-linejoin="round"/>
<path d="M934.342 592.163H958.1" stroke="url(#paint9_linear_2608_1891)" stroke-linecap="round" stroke-linejoin="round"/>
<path d="M942.613 511.802C948.511 511.802 953.292 507.021 953.292 501.123C953.292 495.225 948.511 490.444 942.613 490.444C936.716 490.444 931.935 495.225 931.935 501.123C931.935 507.021 936.716 511.802 942.613 511.802Z" fill="url(#paint10_linear_2608_1891)"/>
<path d="M980.424 511.802C986.322 511.802 991.103 507.021 991.103 501.123C991.103 495.225 986.322 490.444 980.424 490.444C974.526 490.444 969.745 495.225 969.745 501.123C969.745 507.021 974.526 511.802 980.424 511.802Z" stroke="url(#paint11_linear_2608_1891)" stroke-miterlimit="10"/>
<path d="M1018.24 511.802C1024.13 511.802 1028.91 507.021 1028.91 501.123C1028.91 495.225 1024.13 490.444 1018.24 490.444C1012.34 490.444 1007.56 495.225 1007.56 501.123C1007.56 507.021 1012.34 511.802 1018.24 511.802Z" fill="#C7C8CA"/>
<path d="M858.63 211.908L868.069 214.906L858.618 217.908C857.959 218.118 857.358 218.478 856.863 218.959C856.368 219.441 855.992 220.032 855.765 220.685L852.82 229.15L850.212 221.651C849.88 220.696 849.333 219.831 848.613 219.121C847.894 218.411 847.021 217.876 846.061 217.557L838.091 214.906L846.276 212.185C847.164 211.889 847.97 211.388 848.627 210.721C849.284 210.054 849.774 209.241 850.057 208.349L852.82 199.623L855.82 209.097C856.029 209.756 856.393 210.356 856.882 210.845C857.371 211.334 857.97 211.699 858.63 211.908Z" fill="white"/>
<path d="M1001.2 277.63L1023.07 280.976L1001.2 284.322L997.859 306.192L994.513 284.322L972.643 280.976L994.513 277.63L997.859 255.761L1001.2 277.63Z" fill="white"/>
</g>
<defs>
<linearGradient id="paint0_linear_2608_1891" x1="777.797" y1="961.371" x2="1386.3" y2="446.033" gradientUnits="userSpaceOnUse">
<stop offset="0.0372584" stop-color="#03F065"/>
<stop offset="0.999398" stop-color="#45FFDD"/>
</linearGradient>
<linearGradient id="paint1_linear_2608_1891" x1="959.368" y1="661.808" x2="1023.88" y2="661.808" gradientUnits="userSpaceOnUse">
<stop stop-color="#00EF60"/>
<stop offset="1" stop-color="#46FFDE"/>
</linearGradient>
<linearGradient id="paint2_linear_2608_1891" x1="991.154" y1="537.761" x2="991.154" y2="538.761" gradientUnits="userSpaceOnUse">
<stop stop-color="#02F064"/>
<stop offset="1" stop-color="#41FED4"/>
</linearGradient>
<linearGradient id="paint3_linear_2608_1891" x1="1075" y1="537.761" x2="1075" y2="538.761" gradientUnits="userSpaceOnUse">
<stop stop-color="#02F064"/>
<stop offset="1" stop-color="#41FED4"/>
</linearGradient>
<linearGradient id="paint4_linear_2608_1891" x1="975.144" y1="556.239" x2="975.144" y2="557.239" gradientUnits="userSpaceOnUse">
<stop stop-color="#02F064"/>
<stop offset="1" stop-color="#41FED4"/>
</linearGradient>
<linearGradient id="paint5_linear_2608_1891" x1="1077.58" y1="555.551" x2="1077.58" y2="556.551" gradientUnits="userSpaceOnUse">
<stop stop-color="#02F064"/>
<stop offset="1" stop-color="#41FED4"/>
</linearGradient>
<linearGradient id="paint6_linear_2608_1891" x1="961.887" y1="574.029" x2="961.887" y2="575.029" gradientUnits="userSpaceOnUse">
<stop stop-color="#02F064"/>
<stop offset="1" stop-color="#41FED4"/>
</linearGradient>
<linearGradient id="paint7_linear_2608_1891" x1="1034.19" y1="574.374" x2="1034.19" y2="575.374" gradientUnits="userSpaceOnUse">
<stop stop-color="#02F064"/>
<stop offset="1" stop-color="#41FED4"/>
</linearGradient>
<linearGradient id="paint8_linear_2608_1891" x1="1095.48" y1="573.685" x2="1095.48" y2="574.685" gradientUnits="userSpaceOnUse">
<stop stop-color="#02F064"/>
<stop offset="1" stop-color="#41FED4"/>
</linearGradient>
<linearGradient id="paint9_linear_2608_1891" x1="946.221" y1="592.163" x2="946.221" y2="593.163" gradientUnits="userSpaceOnUse">
<stop stop-color="#02F064"/>
<stop offset="1" stop-color="#41FED4"/>
</linearGradient>
<linearGradient id="paint10_linear_2608_1891" x1="931.129" y1="501.965" x2="953.386" y2="500.793" gradientUnits="userSpaceOnUse">
<stop stop-color="#04F067"/>
<stop offset="1" stop-color="#43FFD8"/>
</linearGradient>
<linearGradient id="paint11_linear_2608_1891" x1="980.424" y1="490.444" x2="980.424" y2="511.802" gradientUnits="userSpaceOnUse">
<stop stop-color="#03F064"/>
<stop offset="1" stop-color="#42FED6"/>
</linearGradient>
<clipPath id="clip0_2608_1891">
<rect width="1280" height="720" fill="white"/>
</clipPath>
</defs>
</svg>
