<?xml version="1.0" encoding="UTF-8"?>
<!-- Generated by Pixelmator Pro 3.5.6 -->
<svg width="1280" height="300" viewBox="0 0 1280 300" xmlns="http://www.w3.org/2000/svg">
    <linearGradient id="linearGradient1" x1="684.344861" y1="313.747796" x2="684.344861" y2="-65.252204" gradientUnits="userSpaceOnUse">
        <stop offset="0.000463" stop-color="#353535" stop-opacity="1"/>
        <stop offset="0.998778" stop-color="#313030" stop-opacity="1"/>
    </linearGradient>
    <path id="Rectangle" fill="url(#linearGradient1)" fill-rule="evenodd" stroke="none" d="M 0 300 L 1280 300 L 1280 0 L 0 0 Z"/>
    <g id="Group">
        <linearGradient id="linearGradient2" x1="728.850839" y1="162.839001" x2="1317.149163" y2="162.839001" gradientUnits="userSpaceOnUse">
            <stop offset="0" stop-color="#8453c1" stop-opacity="1"/>
            <stop offset="1" stop-color="#755fe7" stop-opacity="1"/>
        </linearGradient>
        <path id="download-copy-2" fill="url(#linearGradient2)" stroke="none" d="M 774.44397 -30.648315 C 827.390808 -60.699066 900.192749 -75.352844 962.699402 -75.352844 C 1145.807251 -75.352844 1261.996216 9.659241 1261.996216 124.729813 C 1261.996216 216.345047 1181.840576 272.769562 1075.211426 272.769562 C 989.172852 272.769562 925.195374 241.255798 925.195374 199.485077 C 925.195374 159.905167 965.64093 140.846741 1023 162.839005 L 1037.707397 118.126785 C 948.727356 89.546829 875.190063 129.854462 875.190063 199.477432 C 875.190063 269.108063 961.96405 318.944885 1078.152954 318.944885 C 1216.403076 318.944885 1317.14917 242.726547 1317.14917 124.722153 C 1317.14917 -22.582245 1177.428345 -130.321991 962.699402 -130.321991 C 893.574341 -130.321991 815.624817 -112.734344 751.6474 -78.286713 L 774.44397 -30.648315 Z M 1271.55603 356.326324 C 1218.609253 386.369354 1145.807251 401.030853 1083.300537 401.030853 C 900.192749 401.030853 784.003784 316.011047 784.003784 200.948151 C 784.003784 109.332962 864.159424 52.900742 970.788513 52.900742 C 1056.827148 52.900742 1120.804565 84.414551 1120.804565 126.192917 C 1120.804565 165.765167 1080.359131 184.823578 1023 162.839005 L 1008.292542 207.543533 C 1097.272705 236.131165 1170.809937 195.823547 1170.809937 126.192917 C 1170.809937 56.562286 1084.035889 6.725464 967.847046 6.725464 C 829.596924 6.725464 728.85083 82.943802 728.85083 200.948151 C 728.85083 348.260193 868.571716 456 1083.300537 456 C 1152.425659 456 1230.375122 438.412354 1294.352661 403.964722 L 1271.55603 356.318665 Z"/>
    </g>
    <g id="Group-copy">
        <linearGradient id="linearGradient3" x1="-0.031186" y1="284.397849" x2="101.104266" y2="284.397849" gradientUnits="userSpaceOnUse">
            <stop offset="0" stop-color="#8453c1" stop-opacity="1"/>
            <stop offset="1" stop-color="#755fe7" stop-opacity="1"/>
        </linearGradient>
        <path id="path1" fill="url(#linearGradient3)" stroke="none" d="M 7.806811 251.135086 C 16.909002 245.969009 29.424515 243.449844 40.170155 243.449844 C 71.64856 243.449844 91.62281 258.064423 91.62281 277.846436 C 91.62281 293.596161 77.843109 303.296204 59.512314 303.296204 C 44.721249 303.296204 33.722767 297.878632 33.722767 290.697754 C 33.722767 283.893494 40.675835 280.617126 50.536537 284.397858 L 53.064922 276.711304 C 37.768188 271.798065 25.126257 278.727417 25.126257 290.696442 C 25.126257 302.666748 40.043739 311.234314 60.01799 311.234314 C 83.784821 311.234314 101.104263 298.13147 101.104263 277.845123 C 101.104263 252.521744 77.084602 234 40.170155 234 C 28.286739 234 14.886292 237.023529 3.887813 242.94548 L 7.806811 251.135086 Z M 93.266266 317.660614 C 84.164078 322.825378 71.64856 325.345856 60.902924 325.345856 C 29.424515 325.345856 9.450261 310.72995 9.450261 290.94928 C 9.450261 275.199524 23.229967 265.498169 41.560764 265.498169 C 56.35183 265.498169 67.350311 270.915771 67.350311 278.097961 C 67.350311 284.900879 60.397243 288.177246 50.536537 284.397858 L 48.008156 292.083099 C 63.30489 296.99765 75.946815 290.068268 75.946815 278.097961 C 75.946815 266.127625 61.029339 257.560089 41.055088 257.560089 C 17.288261 257.560089 -0.031186 270.662903 -0.031186 290.94928 C -0.031186 316.273956 23.988483 334.795685 60.902924 334.795685 C 72.786346 334.795685 86.186783 331.772186 97.185272 325.85022 L 93.266266 317.659302 Z"/>
        <linearGradient id="linearGradient4" x1="59.968814" y1="-14.602151" x2="161.104266" y2="-14.602151" gradientUnits="userSpaceOnUse">
            <stop offset="0" stop-color="#8453c1" stop-opacity="1"/>
            <stop offset="1" stop-color="#755fe7" stop-opacity="1"/>
        </linearGradient>
        <path id="download-copy-3" fill="url(#linearGradient4)" stroke="none" d="M 67.806808 -47.864929 C 76.909004 -53.031006 89.424515 -55.55014 100.170151 -55.55014 C 131.64856 -55.55014 151.622818 -40.935577 151.622818 -21.153564 C 151.622818 -5.403839 137.843109 4.296204 119.512314 4.296204 C 104.721252 4.296204 93.722771 -1.121368 93.722771 -8.302246 C 93.722771 -15.106506 100.675835 -18.382874 110.536537 -14.602142 L 113.064926 -22.288696 C 97.768188 -27.201935 85.126259 -20.272583 85.126259 -8.303558 C 85.126259 3.666748 100.043739 12.234314 120.01799 12.234314 C 143.784821 12.234314 161.104263 -0.86853 161.104263 -21.154877 C 161.104263 -46.478271 137.084595 -65 100.170151 -65 C 88.286743 -65 74.886292 -61.976471 63.887814 -56.054504 L 67.806808 -47.864929 Z M 153.266266 18.660614 C 144.164078 23.825378 131.64856 26.345856 120.902924 26.345856 C 89.424515 26.345856 69.450264 11.72995 69.450264 -8.05072 C 69.450264 -23.800476 83.229965 -33.501831 101.560768 -33.501831 C 116.35183 -33.501831 127.350311 -28.084229 127.350311 -20.902039 C 127.350311 -14.099121 120.397247 -10.822754 110.536537 -14.602142 L 108.008156 -6.916901 C 123.304886 -2.00235 135.946823 -8.931732 135.946823 -20.902039 C 135.946823 -32.872375 121.029343 -41.439911 101.055092 -41.439911 C 77.288261 -41.439911 59.968815 -28.337097 59.968815 -8.05072 C 59.968815 17.273956 83.988487 35.795685 120.902924 35.795685 C 132.786346 35.795685 146.186783 32.772186 157.185272 26.85022 L 153.266266 18.659302 Z"/>
        <g id="g1"/>
    </g>
</svg>
