<?xml version="1.0" encoding="UTF-8"?>
<!-- Generated by Pixelmator Pro 3.4.3 -->
<svg width="1280" height="300" viewBox="0 0 1280 300" xmlns="http://www.w3.org/2000/svg">
    <radialGradient id="radialGradient1" cx="971.090048" cy="240.482549" r="1053.40061" fx="971.090048" fy="240.482549" gradientUnits="userSpaceOnUse">
        <stop offset="0" stop-color="#00846f" stop-opacity="1"/>
        <stop offset="1" stop-color="#004d40" stop-opacity="1"/>
    </radialGradient>
    <path id="Rectangle" fill="url(#radialGradient1)" fill-rule="evenodd" stroke="none" d="M 0 300 L 1280 300 L 1280 0 L 0 0 Z"/>
    <path id="Ellipse" fill="#fede2a" fill-rule="evenodd" stroke="none" d="M 165 173 C 165 159.745163 154.254837 149 141 149 C 127.745163 149 117 159.745163 117 173 C 117 186.254837 127.745163 197 141 197 C 154.254837 197 165 186.254837 165 173 Z"/>
    <path id="path1" fill="none" stroke="#79ffa0" stroke-width="22" d="M 1546 -21.5 C 1546 -182.490997 1415.490967 -313 1254.5 -313 C 1093.509033 -313 963 -182.490997 963 -21.5 C 963 139.490997 1093.509033 270 1254.5 270 C 1415.490967 270 1546 139.490997 1546 -21.5 Z"/>
    <path id="Ellipse-copy" fill="none" stroke="#79ffa0" stroke-width="22" d="M 1472.835815 -53.056091 C 1468.910034 -183.794006 1367.975342 -286.842773 1247.391846 -283.221985 C 1126.80835 -279.601135 1032.238525 -170.681854 1036.164185 -39.943909 C 1040.089966 90.794022 1141.024658 193.842804 1261.608154 190.22197 C 1382.19165 186.601135 1476.761475 77.681839 1472.835815 -53.056091 Z"/>
    <path id="path2" fill="#ffffff" fill-rule="evenodd" stroke="none" d="M 801 101 C 801 93.820297 795.179688 88 788 88 C 780.820313 88 775 93.820297 775 101 C 775 108.179703 780.820313 114 788 114 C 795.179688 114 801 108.179703 801 101 Z"/>
    <path id="path3" fill="none" stroke="#1bd5b6" stroke-width="30" d="M 387 12 C 387 -12.300537 367.300537 -32 343 -32 C 318.699463 -32 299 -12.300537 299 12 C 299 36.300537 318.699463 56 343 56 C 367.300537 56 387 36.300537 387 12 Z"/>
</svg>
