<?xml version="1.0" encoding="utf-8"?>
<svg viewBox="0 0 1280 300" width="1280" height="300" fill="none" xmlns="http://www.w3.org/2000/svg">
  <path d="M 0 0 L 1280 0 L 1280 300 L 0 300 L 0 0 Z" fill="#26272c"/>
  <path d="M 837.153 98.87 L 839.802 51.325 L 926.905 51.325 C 926.905 51.325 923.318 98.605 923.583 98.87 C 923.583 76.149 905.171 57.73 882.457 57.73" fill="#6516b5" style=""/>
  <path d="M 891.708 40.765 L 891.708 58.364 C 891.708 64.18 887.352 68.936 882.029 68.936 C 876.705 68.936 872.35 64.178 872.35 58.364 L 872.35 40.765 C 872.35 34.949 876.705 30.194 882.029 30.194 C 887.352 30.194 891.708 34.951 891.708 40.765 Z" fill="#fff" style=""/>
  <path d="M 892.247 32.013 C 891.896 32.013 891.559 32.074 891.25 32.179 C 889.603 28.922 886.094 26.673 882.029 26.673 C 877.963 26.673 874.454 28.922 872.807 32.179 C 872.486 32.07 872.15 32.015 871.811 32.013 C 870.164 32.013 868.83 33.278 868.83 34.839 C 868.83 36.398 870.164 37.663 871.811 37.663 L 871.905 37.66 C 872.578 42.393 876.849 46.043 882.029 46.043 C 887.206 46.043 891.482 42.393 892.153 37.66 L 892.247 37.663 C 893.893 37.663 895.227 36.398 895.227 34.839 C 895.227 33.278 893.893 32.013 892.247 32.013" fill="#c7d42f" style=""/>
  <path d="M 878.622 40.616 L 876.637 40.616 C 876.437 40.619 876.244 40.544 876.1 40.407 C 875.957 40.268 875.874 40.079 875.869 39.88 C 875.869 39.473 876.212 39.143 876.637 39.143 L 878.622 39.143 C 879.044 39.143 879.388 39.473 879.388 39.88 C 879.387 39.979 879.365 40.076 879.326 40.166 C 879.286 40.257 879.229 40.339 879.157 40.407 C 879.086 40.475 879.002 40.529 878.91 40.565 C 878.818 40.6 878.72 40.618 878.622 40.616 Z M 887.421 40.616 L 885.435 40.616 C 885.237 40.619 885.043 40.544 884.9 40.407 C 884.756 40.268 884.673 40.079 884.668 39.88 C 884.668 39.473 885.012 39.143 885.435 39.143 L 887.421 39.143 C 887.843 39.143 888.188 39.473 888.188 39.88 C 888.185 39.979 888.165 40.076 888.125 40.166 C 888.085 40.257 888.028 40.339 887.957 40.407 C 887.885 40.475 887.802 40.529 887.709 40.565 C 887.618 40.6 887.52 40.618 887.421 40.616 Z" fill="#000" style=""/>
  <path d="M 880.522 37.094 L 874.735 37.094 C 874.389 37.094 874.11 36.764 874.11 36.357 C 874.11 35.952 874.391 35.622 874.735 35.622 L 880.522 35.622 C 880.869 35.622 881.148 35.952 881.148 36.357 C 881.148 36.764 880.867 37.094 880.522 37.094 Z M 889.321 37.094 L 883.536 37.094 C 883.188 37.094 882.909 36.764 882.909 36.357 C 882.909 35.952 883.19 35.622 883.536 35.622 L 889.321 35.622 C 889.668 35.622 889.948 35.952 889.948 36.357 C 889.948 36.764 889.667 37.094 889.321 37.094 Z" fill="#fff" style=""/>
  <path d="M 883.789 46.707 C 885.847 46.707 887.526 48.383 887.526 50.445 C 887.524 51.436 887.131 52.386 886.429 53.088 C 885.729 53.789 884.779 54.182 883.789 54.183 C 882.798 54.182 881.848 53.789 881.147 53.088 C 880.446 52.386 880.052 51.436 880.051 50.445 C 880.051 48.383 881.728 46.707 883.789 46.707 M 883.789 42.521 C 881.688 42.521 879.674 43.356 878.189 44.842 C 876.703 46.328 875.869 48.344 875.869 50.445 C 875.869 52.547 876.703 54.562 878.189 56.049 C 879.674 57.534 881.688 58.369 883.789 58.369 C 885.889 58.369 887.903 57.534 889.389 56.049 C 890.873 54.562 891.708 52.547 891.708 50.445 C 891.708 48.344 890.873 46.328 889.389 44.842 C 887.903 43.356 885.889 42.521 883.789 42.521" fill="#fefdff" style=""/>
  <path d="M 923.383 89.851 L 942.743 89.851 L 942.743 91.612 L 923.383 91.612 L 923.383 89.851 Z" fill="#4e2582" style=""/>
  <path d="M 909.152 86.896 C 901.105 78.761 901.105 65.566 909.152 57.429 C 911.053 55.495 913.325 53.961 915.825 52.913 C 918.324 51.866 921.009 51.326 923.722 51.326 C 926.436 51.326 929.116 51.866 931.62 52.913 C 934.12 53.961 936.388 55.495 938.293 57.429 L 977.183 96.757 C 985.23 104.892 985.23 118.087 977.183 126.224 C 973.472 129.999 968.44 132.184 963.148 132.321 L 802.912 132.275 C 799.959 132.49 796.997 132.058 794.228 131.015 C 791.459 129.97 788.95 128.335 786.875 126.224 C 778.827 118.089 778.827 104.894 786.875 96.757 L 825.766 57.429 C 827.67 55.495 829.938 53.961 832.439 52.913 C 834.941 51.865 837.625 51.325 840.336 51.325 C 843.048 51.325 845.733 51.865 848.233 52.913 C 850.735 53.961 853.003 55.495 854.906 57.429 C 862.954 65.566 862.954 78.759 854.906 86.896" fill="#c7d42f" style=""/>
  <path d="M 801.599 132.328 C 798.867 132.326 796.164 131.784 793.644 130.73 C 791.124 129.678 788.837 128.136 786.915 126.195 C 778.812 118.03 778.812 104.744 786.915 96.578 L 825.728 57.459 C 827.647 55.511 829.934 53.966 832.457 52.912 C 834.98 51.86 837.688 51.32 840.421 51.325 C 845.97 51.325 851.187 53.504 855.112 57.459 C 863.214 65.624 863.214 78.91 855.112 87.076 L 854.811 86.772 C 862.746 78.773 862.746 65.76 854.811 57.764 C 852.932 55.856 850.691 54.342 848.22 53.31 C 845.749 52.279 843.098 51.75 840.421 51.755 C 834.982 51.755 829.874 53.89 826.029 57.764 L 787.215 96.88 C 779.281 104.879 779.281 117.892 787.215 125.888 C 789.271 127.965 791.75 129.572 794.485 130.6 C 797.219 131.628 800.143 132.053 803.055 131.844 L 962.986 131.889 C 968.207 131.758 973.174 129.607 976.84 125.888 C 984.775 117.892 984.775 104.879 976.84 96.88 L 938.028 57.764 C 930.092 49.766 917.181 49.766 909.246 57.764 C 907.35 59.67 905.844 61.932 904.823 64.421 C 903.801 66.91 903.275 69.576 903.285 72.267 C 903.285 77.747 905.403 82.897 909.246 86.772 L 908.948 87.076 C 907.007 85.13 905.473 82.82 904.428 80.279 C 903.382 77.737 902.849 75.014 902.857 72.267 C 902.849 69.52 903.382 66.797 904.428 64.256 C 905.473 61.715 907.011 59.405 908.948 57.459 C 917.046 49.294 930.227 49.294 938.329 57.459 L 977.142 96.578 C 985.245 104.744 985.245 118.03 977.142 126.195 C 973.393 129.992 968.324 132.187 962.99 132.321 L 803.072 132.275 C 802.579 132.31 802.089 132.328 801.599 132.328 Z" fill="#4e2582" style=""/>
  <path d="M 842.455 116.732 L 842.455 98.467 L 842.432 99.638 C 842.432 76.847 860.801 58.37 883.461 58.37 L 883.059 58.37 C 883.735 58.372 884.403 58.507 885.027 58.767 C 885.649 59.027 886.216 59.408 886.692 59.887 C 887.168 60.366 887.545 60.934 887.802 61.56 C 888.059 62.184 888.19 62.854 888.188 63.529 C 888.191 64.894 887.653 66.204 886.691 67.171 C 885.73 68.138 884.423 68.684 883.059 68.687 L 883.059 68.729 C 883.735 68.731 884.403 68.866 885.027 69.126 C 885.65 69.387 886.216 69.767 886.692 70.247 C 887.169 70.725 887.545 71.294 887.803 71.919 C 888.059 72.544 888.19 73.213 888.188 73.889 C 888.191 75.253 887.653 76.564 886.691 77.53 C 885.73 78.497 884.423 79.042 883.059 79.047 L 883.059 79.156 C 883.735 79.158 884.403 79.292 885.027 79.553 C 885.65 79.812 886.216 80.193 886.692 80.672 C 887.169 81.152 887.545 81.72 887.803 82.345 C 888.059 82.97 888.19 83.639 888.188 84.316 C 888.191 85.679 887.653 86.989 886.691 87.957 C 885.73 88.924 884.423 89.469 883.059 89.473 L 883.076 89.489 L 883.076 130.567" fill="#c7d42f" style=""/>
  <g fill="#4e2582" style="" transform="matrix(0.4645980000495911, 0, 0, 0.4645980000495911, 436.3322948961977, 10.87714243876087)">
    <path d="m869.841 189.399h3.788v30.322h-3.788zm46.776 0h-.86c0-22.987 18.694-41.692 41.667-41.692v.86c-22.5 0-40.807 18.318-40.807 40.832z"/>
    <path d="m893.97 193.189h-.94c0-37.618 30.587-68.224 68.182-68.224v.94c-37.076 0-67.242 30.185-67.242 67.284z"/>
    <path d="m871.205 189.399h-.902c0-48.067 39.084-87.174 87.121-87.174v.902c-47.537 0-86.219 38.705-86.219 86.272zm86.219-64.433v-.91c7.69 0 13.94-4.692 13.94-10.461 0-5.768-6.25-10.461-13.94-10.461v-.909c8.356 0 15.152 5.101 15.152 11.37s-6.796 11.371-15.152 11.371z"/>
    <path d="m957.424 143.917v-.91c7.69 0 13.94-4.692 13.94-10.461 0-5.768-6.25-10.461-13.94-10.461v-.909c8.356 0 15.152 5.101 15.152 11.37s-6.796 11.371-15.152 11.371zm0 22.741v-.909c7.69 0 13.94-4.693 13.94-10.461 0-5.769-6.25-10.461-13.94-10.461v-.91c8.356 0 15.152 5.102 15.152 11.371s-6.796 11.37-15.152 11.37z"/>
  </g>
  <path d="M 923.36 116.732 L 923.36 98.467 L 923.383 99.638 C 923.383 76.847 905.017 58.37 882.356 58.37 L 882.757 58.37 C 882.082 58.372 881.414 58.507 880.791 58.767 C 880.167 59.027 879.602 59.408 879.126 59.887 C 878.649 60.366 878.272 60.934 878.015 61.56 C 877.759 62.184 877.628 62.854 877.629 63.529 C 877.626 64.894 878.164 66.204 879.126 67.171 C 880.088 68.138 881.394 68.684 882.757 68.687 L 882.757 68.729 C 882.082 68.731 881.413 68.866 880.791 69.126 C 880.167 69.387 879.601 69.767 879.125 70.247 C 878.648 70.725 878.271 71.294 878.015 71.919 C 877.758 72.544 877.627 73.213 877.629 73.889 C 877.626 75.253 878.164 76.564 879.126 77.53 C 880.088 78.497 881.394 79.042 882.757 79.047 L 882.757 79.156 C 882.082 79.158 881.413 79.292 880.791 79.553 C 880.167 79.812 879.601 80.193 879.125 80.672 C 878.648 81.152 878.271 81.72 878.015 82.345 C 877.758 82.97 877.627 83.639 877.629 84.316 C 877.626 85.679 878.164 86.989 879.126 87.957 C 880.088 88.924 881.394 89.469 882.757 89.473 L 882.742 89.489 L 882.742 130.567" fill="#c7d42f" style=""/>
  <path d="M 923.17 98.871 L 924.931 98.871 L 924.931 112.959 L 923.17 112.959 L 923.17 98.871 Z M 880.934 90.066 L 882.694 90.066 L 882.694 132.328 L 880.934 132.328 L 880.934 90.066 Z M 900.507 98.871 L 900.108 98.871 C 900.108 88.411 891.602 79.9 881.149 79.9 L 881.149 79.501 C 891.822 79.501 900.507 88.191 900.507 98.871 Z" fill="#4e2582" style=""/>
  <path d="M 912.828 100.632 L 912.391 100.632 C 912.391 83.396 898.374 69.372 881.148 69.372 L 881.148 68.936 C 898.616 68.936 912.828 83.156 912.828 100.632 Z M 881.148 68.936 C 877.266 68.936 874.11 66.566 874.11 63.652 C 874.11 60.74 877.266 58.37 881.148 58.37 L 881.148 58.793 C 877.576 58.793 874.673 60.972 874.673 63.652 C 874.673 66.332 877.576 68.512 881.148 68.512 L 881.148 68.936 Z" fill="#4e2582" style=""/>
  <path d="M 881.148 77.74 C 877.266 77.74 874.11 75.369 874.11 72.457 C 874.11 69.545 877.266 67.175 881.148 67.175 L 881.148 67.597 C 877.576 67.597 874.673 69.777 874.673 72.457 C 874.673 75.137 877.576 77.317 881.148 77.317 L 881.148 77.74 Z M 881.148 88.306 C 877.266 88.306 874.11 85.936 874.11 83.024 C 874.11 80.11 877.266 77.74 881.148 77.74 L 881.148 78.163 C 877.576 78.163 874.673 80.342 874.673 83.024 C 874.673 85.703 877.576 87.883 881.148 87.883 L 881.148 88.306 Z M 923.17 98.871 L 924.931 98.871 L 924.931 112.959 L 923.17 112.959 L 923.17 98.871 Z M 921.627 98.871 L 921.205 98.871 C 921.205 76.771 903.238 58.789 881.148 58.789 L 881.148 58.37 C 903.465 58.37 921.627 76.539 921.627 98.871 Z M 823.074 89.852 L 842.432 89.852 L 842.432 91.613 L 823.074 91.613 L 823.074 89.852 Z" fill="#4e2582" style=""/>
  <path d="M 831.873 132.328 L 933.943 132.328 L 933.943 151.698 L 831.873 151.698 L 831.873 132.328 Z" fill="#6516b5" style=""/>
  <path d="M 861.79 200.226 L 925.488 136.489 C 930.399 131.576 937.706 130.919 941.81 135.025 C 945.907 139.13 945.256 146.441 940.346 151.355 L 876.647 215.091 L 861.79 200.226 Z" fill="#6516b5" style=""/>
  <path d="M 873.907 260.875 L 873.597 260.567 C 880.379 253.802 883.298 247.114 882.27 240.686 C 881.42 235.381 878.039 231.59 876.596 229.97 C 870.348 222.962 874.15 217.101 874.914 216.07 L 860.426 201.62 L 837.46 224.526 L 837.153 224.218 L 860.426 201.003 L 875.502 216.038 L 875.371 216.193 C 875.16 216.439 870.328 222.283 876.924 229.679 C 878.391 231.327 881.833 235.187 882.701 240.618 C 883.753 247.191 880.795 254.006 873.907 260.875 Z" fill="#c7d42f" style=""/>
  <path d="M 875.922 260.875 C 875.698 260.875 875.476 260.831 875.269 260.747 C 875.061 260.66 874.873 260.534 874.714 260.376 L 835.893 221.529 C 835.735 221.371 835.608 221.183 835.522 220.975 C 835.437 220.768 835.393 220.546 835.393 220.322 C 835.393 220.097 835.437 219.875 835.522 219.669 C 835.608 219.461 835.735 219.273 835.893 219.114 C 836.051 218.955 836.239 218.829 836.446 218.744 C 836.654 218.658 836.876 218.614 837.101 218.614 C 837.324 218.614 837.546 218.658 837.754 218.744 C 837.961 218.829 838.149 218.955 838.307 219.114 L 877.13 257.96 C 877.368 258.199 877.531 258.503 877.597 258.834 C 877.663 259.165 877.629 259.51 877.499 259.822 C 877.37 260.133 877.152 260.4 876.87 260.588 C 876.59 260.775 876.26 260.875 875.922 260.875 Z" fill="#c7d42f" style=""/>
  <path d="M 905.784 200.226 L 842.089 136.489 C 837.179 131.576 829.873 130.919 825.769 135.025 C 821.668 139.13 822.321 146.441 827.232 151.355 L 890.93 215.091 L 905.784 200.226 Z" fill="#6516b5" style=""/>
  <path d="M 890.15 260.875 C 883.263 254.007 880.303 247.191 881.356 240.618 C 882.224 235.187 885.666 231.327 887.134 229.679 C 893.729 222.283 888.896 216.436 888.686 216.193 L 888.556 216.038 L 903.628 201.003 L 926.905 224.218 L 926.593 224.526 L 903.628 201.62 L 889.143 216.07 C 889.908 217.101 893.708 222.962 887.462 229.97 C 886.019 231.59 882.637 235.381 881.788 240.686 C 880.76 247.114 883.678 253.802 890.46 260.567 L 890.15 260.875 Z" fill="#c7d42f" style=""/>
  <path d="M 891.655 260.875 C 891.318 260.875 890.988 260.775 890.706 260.588 C 890.426 260.4 890.207 260.133 890.078 259.822 C 889.948 259.51 889.914 259.165 889.98 258.834 C 890.046 258.503 890.209 258.199 890.448 257.96 L 929.27 219.114 C 929.427 218.955 929.618 218.829 929.822 218.744 C 930.031 218.658 930.254 218.614 930.478 218.614 C 930.701 218.614 930.923 218.658 931.128 218.744 C 931.337 218.829 931.528 218.955 931.685 219.114 C 931.844 219.273 931.969 219.461 932.053 219.669 C 932.141 219.875 932.182 220.097 932.182 220.322 C 932.182 220.546 932.141 220.768 932.053 220.975 C 931.969 221.183 931.844 221.371 931.685 221.529 L 892.862 260.376 C 892.704 260.534 892.516 260.661 892.308 260.747 C 892.102 260.833 891.88 260.877 891.655 260.875 Z M 976.231 278.485 L 800.143 278.485 C 799.201 278.485 798.436 277.301 798.436 275.843 C 798.436 274.386 799.201 273.203 800.143 273.203 L 976.231 273.203 C 977.175 273.203 977.941 274.386 977.941 275.843 C 977.941 277.301 977.175 278.485 976.231 278.485 Z" fill="#c7d42f" style=""/>
  <path d="M 977.541 35.451 L 986.55 44.492 L 986.243 44.795 L 977.239 35.756 L 977.541 35.451 Z M 990.838 48.794 L 1000 57.989 L 999.698 58.294 L 990.536 49.098 L 990.838 48.794 Z M 985.909 49.288 L 986.21 49.593 L 977.541 58.292 L 977.239 57.989 L 985.909 49.288 Z M 999.698 35.451 L 1000 35.754 L 991.256 44.529 L 990.955 44.226 L 999.698 35.451 Z M 977.541 215.99 L 986.546 225.029 L 986.243 225.333 L 977.239 216.292 L 977.541 215.99 Z M 990.838 229.33 L 1000 238.526 L 999.698 238.832 L 990.531 229.637 L 990.838 229.33 Z M 985.909 229.827 L 986.21 230.132 L 977.541 238.831 L 977.239 238.528 L 985.909 229.827 Z M 999.698 215.99 L 1000 216.292 L 991.256 225.067 L 990.955 224.764 L 999.698 215.99 Z M 769.755 153.378 L 778.762 162.42 L 778.457 162.722 L 769.452 153.681 L 769.755 153.378 Z M 783.051 166.721 L 792.214 175.915 L 791.909 176.221 L 782.745 167.025 L 783.051 166.721 Z M 778.119 167.216 L 778.422 167.52 L 769.752 176.219 L 769.45 175.917 L 778.119 167.216 Z M 791.907 153.378 L 792.212 153.681 L 783.467 162.456 L 783.165 162.153 L 791.907 153.378 Z" fill="#fff" style=""/>
</svg>