<?xml version="1.0" encoding="UTF-8"?>
<!-- Generated by Pixelmator Pro 3.4.3 -->
<svg width="1280" height="300" viewBox="0 0 1280 300" xmlns="http://www.w3.org/2000/svg">
    <linearGradient id="linearGradient1" x1="0" y1="150" x2="1280" y2="150" gradientUnits="userSpaceOnUse">
        <stop offset="0" stop-color="#fefefe" stop-opacity="1"/>
        <stop offset="1" stop-color="#e8e8e8" stop-opacity="1"/>
    </linearGradient>
    <path id="Rectangle" fill="url(#linearGradient1)" fill-rule="evenodd" stroke="none" d="M 0 300 L 1280 300 L 1280 0 L 0 0 Z"/>
    <path id="npsquiggle1742712000000" fill="#000000" stroke="none" d="M 1013.552063 -17.965576 C 1008.132751 -17.772797 1002.755981 -17.001648 997.486816 -15.65213 C 990.35376 -13.488739 983.392395 -10.725464 976.709045 -7.426758 C 970.839966 -4.89917 965.141968 -1.943207 959.551514 1.398499 C 948.584351 7.396393 938.024048 14.057861 927.892639 21.361969 C 911.441895 33.207581 895.762207 45.545609 880.468567 58.654648 C 866.052795 71.056839 852.065308 83.930603 838.185242 97.039612 C 833.130066 101.75209 828.203552 106.528931 823.27655 111.34845 C 827.77478 104.515366 832.444519 97.725082 837.264038 90.999466 C 849.987549 74.97702 863.310974 59.468948 875.927612 43.296814 C 879.333374 38.862854 882.846191 34.514313 886.187866 30.016144 L 890.9646 23.54718 C 892.164124 21.897827 893.213745 20.376953 894.370361 18.7276 C 895.5271 17.078247 895.741272 16.478455 896.405273 15.386017 C 897.497681 12.922699 898.590149 10.459351 899.639709 7.931671 L 899.618286 7.931671 C 901.117737 3.240662 900.625 -1.857605 898.247375 -6.162781 C 895.548462 -10.446777 890.835815 -13.038574 885.781006 -13.017181 C 881.17572 -12.738739 876.655823 -11.517792 872.52179 -9.461456 C 852.515503 -1.664368 836.55719 13.243805 819.33551 25.689331 C 810.788818 31.836945 802.113831 37.963196 793.352722 43.896423 C 787.869141 47.516479 782.385559 51.179138 776.901978 54.542221 C 779.044006 50.750839 781.293152 47.023727 783.820618 43.575073 C 785.512817 41.433075 787.269287 39.398132 789.304199 37.384705 L 789.282776 37.384705 C 793.545349 32.972107 793.545349 25.989258 789.282776 21.57666 C 787.205017 19.456024 784.377563 18.2565 781.400146 18.2565 C 778.444153 18.2565 775.595215 19.456024 773.538879 21.57666 C 764.970825 31.387329 757.281189 41.968933 750.619202 53.171341 L 744.535767 62.660675 C 740.787231 67.265961 739.095032 73.220932 739.86615 79.111374 C 744.36438 95.562088 764.263672 88.922043 775.081116 84.594925 C 784.013306 80.396622 792.688293 75.641373 801.021118 70.328888 C 805.690735 67.587082 810.338806 64.845306 815.008606 61.996597 C 807.447327 70.393021 800.099915 78.87558 793.074341 87.764999 C 784.184937 98.732132 776.238098 110.748825 768.462402 122.594421 L 768.440979 122.594421 C 761.565186 133.218857 755.267822 144.185989 749.569824 155.49585 C 745.414368 163.506805 741.751404 171.79686 738.602722 180.278839 C 735.839478 187.240234 735.175476 194.866241 736.696289 202.213135 C 739.737976 212.665894 749.33429 219.841721 760.215881 219.820313 C 769.919067 219.820313 777.758911 213.779602 784.827759 208.039429 C 788.512085 205.083466 791.789185 201.742096 795.237793 198.614258 L 810.638916 184.519836 C 820.171021 175.866241 829.617004 167.019577 839.042175 158.258453 C 864.382324 134.674728 890.600342 112.205261 917.742371 90.87088 C 921.469543 88.022018 925.260925 85.387329 929.030884 82.538589 C 913.180054 98.989304 897.928589 116.489578 882.527466 133.582962 C 866.076721 152.175537 848.469543 170.42598 832.789856 189.8992 C 823.943176 200.866364 815.204041 211.833496 806.571777 222.800629 C 801.088196 229.484039 796.311462 236.295166 791.277527 243.149643 C 787.0578 248.633194 783.266602 254.930527 779.325012 260.864319 C 772.684937 270.78186 766.665649 281.256592 761.010986 291.837677 L 761.03241 291.816284 C 753.856628 305.139709 747.537903 318.912781 742.118469 333.049988 C 738.005798 342.946167 735.006836 353.249268 733.186279 363.809509 C 732.308044 369.014618 731.708313 374.284241 731.429871 379.553406 C 731.451294 387.200256 733.336243 394.718781 736.913452 401.487671 C 740.512024 407.335358 745.460144 412.219025 751.329163 415.753723 C 754.777832 417.29599 758.290588 418.773987 761.803894 420.187683 C 766.002258 421.365784 770.371948 421.729919 774.699036 421.280121 C 794.170105 420.294769 809.528503 407.292633 822.358948 393.862244 C 826.750061 389.192688 831.291138 384.544617 835.639587 379.832031 C 872.161316 339.969208 908.724609 300.254456 946.12262 261.337555 C 966.40741 240.281738 987.078308 219.653656 1008.136292 199.433533 C 1028.378296 180.241028 1049.755493 162.483597 1071.520874 145.026077 C 1078.268433 139.8638 1085.015381 134.765778 1091.869873 129.775177 C 1098.724365 124.784241 1105.257446 120.114777 1112.154663 115.573837 L 1105.685669 122.000015 C 1088.249634 140.314072 1070.856323 158.69278 1053.977295 177.499237 C 1017.005981 218.775742 979.565247 260.114716 945.846802 304.158752 C 929.053345 325.06485 913.909363 347.192169 900.479004 370.389343 C 897.073181 376.430023 893.731445 382.512939 890.454468 388.532257 C 887.155762 394.572937 884.157166 401.491577 880.858215 407.895844 C 877.066833 415.992859 873.768005 424.303772 870.983398 432.807678 C 868.005981 442.296997 866.635132 452.235962 866.934998 462.19632 C 866.934998 473.442047 871.176208 484.280334 878.823425 492.527069 C 888.934021 501.930298 903.328369 505.207825 916.501526 501.073792 C 925.30542 497.796448 933.359131 492.784241 940.1922 486.315247 C 943.747986 483.509216 946.87561 480.06073 950.17395 476.933411 L 966.281982 461.425354 C 975.492676 452.53595 984.639282 443.646515 993.699829 434.714355 C 1012.46405 416.785797 1031.335205 399.071136 1050.849609 382.084656 C 1065.437012 369.361145 1080.345093 356.916199 1095.039429 344.256805 C 1104.914307 335.752899 1114.789063 327.31369 1124.877808 319.023621 C 1106.713379 336.823853 1089.941406 355.994965 1074.711914 376.365295 C 1069.485352 382.941223 1064.666016 389.83844 1060.27478 396.992859 C 1056.119263 404.190063 1052.62793 411.751343 1049.864746 419.591187 C 1048.943604 422.247314 1048.258179 424.967651 1047.829834 427.75238 C 1046.865967 432.486267 1047.444214 437.412781 1049.479126 441.804047 C 1052.542236 448.187469 1058.860962 452.385681 1065.929932 452.771179 C 1072.977417 452.856873 1079.917358 451.164673 1086.107788 447.82312 C 1093.840698 443.903259 1101.294556 439.469452 1108.427612 434.563843 C 1130.361816 420.919098 1151.867798 407.145996 1174.230347 394.807983 C 1185.19751 388.83197 1196.164673 383.176758 1207.131836 378.357269 C 1209.809326 377.264832 1212.615356 376.215271 1215.186157 375.401306 L 1215.186157 375.379883 C 1219.105957 377.114929 1223.647217 376.429474 1226.860107 373.623444 C 1230.07312 370.796021 1231.358276 366.383484 1230.158691 362.292206 C 1228.980713 357.237 1225.317871 353.102814 1220.455566 351.325043 C 1213.901001 349.54718 1206.896362 350.553925 1201.092041 354.10965 C 1195.180176 356.85144 1189.353882 359.593201 1183.591797 362.763275 C 1171.532227 369.060608 1159.72937 375.91507 1147.884399 382.726746 C 1126.828613 394.786194 1106.157715 407.831116 1084.329834 418.476898 L 1084.351196 418.498322 C 1090.862915 406.909882 1098.360107 395.899963 1106.735107 385.596924 C 1114.746094 375.615143 1122.757568 365.69754 1131.411255 356.315704 C 1140.064819 346.933868 1150.175415 337.551483 1159.921387 328.51239 C 1169.688721 319.473267 1178.835327 310.305267 1188.28186 301.094513 C 1193.765381 295.93222 1199.249023 291.070007 1204.732544 286.121643 L 1204.711182 286.121643 C 1209.937622 281.452057 1214.435669 276.011047 1218.034546 269.992279 C 1220.005249 266.650696 1221.097656 262.880615 1221.226196 259.025146 C 1221.226196 253.520172 1219.29834 248.164917 1215.742676 243.945313 C 1211.244385 238.84729 1204.496948 236.319855 1197.749878 237.197754 C 1192.41626 237.990311 1187.189697 239.468307 1182.241821 241.588913 C 1175.601807 244.159332 1169.132813 247.15802 1162.878296 250.585236 C 1150.84021 256.882599 1139.16626 263.865906 1127.899048 271.469971 C 1106.243408 287.213867 1085.508423 304.13562 1065.759277 322.192993 C 1046.566772 338.643707 1027.374268 355.094421 1007.622437 371.223785 C 991.171753 385.103821 974.721069 399.069916 957.563538 412.564972 C 961.890381 405.110626 966.388794 397.806488 970.993896 390.630707 C 981.96106 373.237366 994.36322 356.915527 1006.808167 340.571747 C 1022.937561 320.608246 1039.109741 300.751709 1055.603149 281.129822 C 1072.118042 261.509094 1089.318359 240.709869 1106.647583 220.810547 C 1123.976685 200.911224 1142.890625 179.962341 1161.483276 159.78389 C 1179.090454 140.527267 1196.312744 121.013428 1212.977173 100.901337 C 1217.475464 95.417755 1221.973633 89.934204 1226.129028 84.450623 C 1228.442383 81.216202 1230.670044 78.024445 1232.812378 74.683304 L 1234.461792 71.448868 C 1236.218262 67.421875 1237.9104 63.416519 1239.559814 59.432175 L 1239.602661 59.432175 C 1240.866455 54.141403 1241.701782 48.743576 1242.065918 43.302795 C 1241.894531 36.020081 1240.009644 28.887054 1236.582397 22.460846 C 1230.606445 10.529663 1219.424805 2.04715 1206.315796 -0.458862 C 1200.746704 -1.658386 1195.027344 -2.022552 1189.372681 -1.508453 C 1183.075317 -1.187164 1176.841675 -0.416016 1170.672607 0.804962 C 1160.026855 3.696655 1149.659546 7.509705 1139.677856 12.157593 C 1131.880737 15.456268 1124.383545 19.333405 1116.800903 23.124756 C 1110.995972 25.973602 1105.405518 29.550934 1099.750366 32.720978 C 1094.095581 35.891205 1088.183228 39.789856 1082.421143 43.409576 C 1071.796753 50.157089 1061.814941 57.439804 1051.554688 64.915558 C 1028.078369 82.415848 1005.651184 101.115921 983.569336 120.244812 C 963.391479 137.895325 944.863037 156.980331 926.31543 176.281387 C 907.786987 195.580811 890.67218 214.109253 873.236084 233.431168 C 883.603333 218.908478 894.506287 204.706573 905.366516 190.612152 C 903.931396 192.539978 902.517639 194.403564 901.039673 196.095734 C 916.611877 175.960617 932.57019 156.125427 948.635376 136.439987 C 957.182068 126.029953 965.792908 115.70549 974.746521 105.680435 C 983.678711 95.655899 991.968262 86.381012 1000.301086 76.506195 C 1010.454407 64.55365 1020.179016 52.279785 1029.47522 39.706482 L 1029.47522 39.685089 C 1034.380493 33.216095 1038.086182 25.911987 1040.442383 18.136292 C 1041.599121 13.316711 1041.684814 8.30423 1040.699463 3.441956 C 1039.928345 -1.291901 1037.722046 -5.661865 1034.4021 -9.110474 C 1029.197021 -14.808441 1021.828308 -18.021301 1014.11731 -17.999908 Z M 1190.18335 253.043472 C 1189.92627 253.793198 1189.626343 254.521454 1189.240845 255.228348 C 1189.562134 254.521454 1189.904785 253.750351 1190.18335 253.043472 Z"/>
    <radialGradient id="radialGradient1" cx="1010.300136" cy="61.409313" r="87.256313" fx="1010.300136" fy="61.409313" gradientUnits="userSpaceOnUse" gradientTransform="matrix(0.871967 -0.489565 0.489565 0.871967 78.925742 516.791311)">
        <stop offset="0" stop-color="#ffffff" stop-opacity="1"/>
        <stop offset="1" stop-color="#ff000c" stop-opacity="1"/>
    </radialGradient>
    <filter id="filter1" x="0" y="0" width="1280" height="300" filterUnits="userSpaceOnUse" primitiveUnits="userSpaceOnUse" color-interpolation-filters="sRGB">
        <feGaussianBlur stdDeviation="0"/>
        <feOffset dx="4.283814" dy="4.201063" result="offsetblur"/>
        <feFlood flood-color="#000000" flood-opacity="0.5"/>
        <feComposite in2="offsetblur" operator="in"/>
        <feMerge>
            <feMergeNode/>
            <feMergeNode in="SourceGraphic"/>
        </feMerge>
    </filter>
    <path id="Ellipse" fill="url(#radialGradient1)" fill-rule="evenodd" stroke="none" filter="url(#filter1)" d="M 1073.27832 81.797852 C 1059.083374 56.515213 1027.080444 47.526825 1001.797852 61.721741 C 976.515198 75.916641 967.526855 107.91951 981.721741 133.202148 C 995.916626 158.484787 1027.919556 167.473175 1053.202148 153.278259 C 1078.484741 139.083359 1087.473145 107.08049 1073.27832 81.797852 Z"/>
    <radialGradient id="radialGradient2" cx="14.300136" cy="242.409313" r="87.256313" fx="14.300136" fy="242.409313" gradientUnits="userSpaceOnUse" gradientTransform="matrix(0.871967 -0.489565 0.489565 0.871967 -137.206383 52.358821)">
        <stop offset="0" stop-color="#ffffff" stop-opacity="1"/>
        <stop offset="1" stop-color="#ff000c" stop-opacity="1"/>
    </radialGradient>
    <filter id="filter2" x="0" y="0" width="1280" height="300" filterUnits="userSpaceOnUse" primitiveUnits="userSpaceOnUse" color-interpolation-filters="sRGB">
        <feGaussianBlur stdDeviation="0"/>
        <feOffset dx="4.283814" dy="4.201063" result="offsetblur"/>
        <feFlood flood-color="#000000" flood-opacity="0.5"/>
        <feComposite in2="offsetblur" operator="in"/>
        <feMerge>
            <feMergeNode/>
            <feMergeNode in="SourceGraphic"/>
        </feMerge>
    </filter>
    <path id="Ellipse-copy-3" fill="url(#radialGradient2)" fill-rule="evenodd" stroke="none" filter="url(#filter2)" d="M 77.278267 262.797852 C 63.083363 237.515213 31.08049 228.526825 5.797852 242.721741 C -19.484787 256.916626 -28.473169 288.919525 -14.278265 314.202148 C -0.083361 339.484802 31.91951 348.473175 57.202148 334.278259 C 82.484787 320.083374 91.473167 288.080475 77.278267 262.797852 Z"/>
    <radialGradient id="radialGradient3" cx="693.783863" cy="52.502684" r="34.071513" fx="693.783863" fy="52.502684" gradientUnits="userSpaceOnUse">
        <stop offset="0" stop-color="#ffffff" stop-opacity="1"/>
        <stop offset="1" stop-color="#ff000c" stop-opacity="1"/>
    </radialGradient>
    <filter id="filter3" x="0" y="0" width="1280" height="300" filterUnits="userSpaceOnUse" primitiveUnits="userSpaceOnUse" color-interpolation-filters="sRGB">
        <feGaussianBlur stdDeviation="0"/>
        <feOffset dx="4.283814" dy="4.201063" result="offsetblur"/>
        <feFlood flood-color="#000000" flood-opacity="0.5"/>
        <feComposite in2="offsetblur" operator="in"/>
        <feMerge>
            <feMergeNode/>
            <feMergeNode in="SourceGraphic"/>
        </feMerge>
    </filter>
    <path id="Ellipse-copy" fill="url(#radialGradient3)" fill-rule="evenodd" stroke="none" filter="url(#filter3)" d="M 721 70.5 C 721 59.178162 711.821838 50 700.5 50 C 689.178162 50 680 59.178162 680 70.5 C 680 81.821838 689.178162 91 700.5 91 C 711.821838 91 721 81.821838 721 70.5 Z"/>
    <radialGradient id="radialGradient4" cx="258.361918" cy="217.610411" r="8.310125" fx="258.361918" fy="217.610411" gradientUnits="userSpaceOnUse">
        <stop offset="0" stop-color="#ffffff" stop-opacity="1"/>
        <stop offset="1" stop-color="#ff000c" stop-opacity="1"/>
    </radialGradient>
    <filter id="filter4" x="0" y="0" width="1280" height="300" filterUnits="userSpaceOnUse" primitiveUnits="userSpaceOnUse" color-interpolation-filters="sRGB">
        <feGaussianBlur stdDeviation="0"/>
        <feOffset dx="4.283814" dy="4.201063" result="offsetblur"/>
        <feFlood flood-color="#000000" flood-opacity="0.5"/>
        <feComposite in2="offsetblur" operator="in"/>
        <feMerge>
            <feMergeNode/>
            <feMergeNode in="SourceGraphic"/>
        </feMerge>
    </filter>
    <path id="Ellipse-copy-6" fill="url(#radialGradient4)" fill-rule="evenodd" stroke="none" filter="url(#filter4)" d="M 265 222 C 265 219.238586 262.761414 217 260 217 C 257.238586 217 255 219.238586 255 222 C 255 224.761414 257.238586 227 260 227 C 262.761414 227 265 224.761414 265 222 Z"/>
    <radialGradient id="radialGradient5" cx="109.723835" cy="27.220821" r="16.62025" fx="109.723835" fy="27.220821" gradientUnits="userSpaceOnUse">
        <stop offset="0" stop-color="#ffffff" stop-opacity="1"/>
        <stop offset="1" stop-color="#ff000c" stop-opacity="1"/>
    </radialGradient>
    <filter id="filter5" x="0" y="0" width="1280" height="300" filterUnits="userSpaceOnUse" primitiveUnits="userSpaceOnUse" color-interpolation-filters="sRGB">
        <feGaussianBlur stdDeviation="0"/>
        <feOffset dx="4.283814" dy="4.201063" result="offsetblur"/>
        <feFlood flood-color="#000000" flood-opacity="0.5"/>
        <feComposite in2="offsetblur" operator="in"/>
        <feMerge>
            <feMergeNode/>
            <feMergeNode in="SourceGraphic"/>
        </feMerge>
    </filter>
    <path id="Ellipse-copy-7" fill="url(#radialGradient5)" fill-rule="evenodd" stroke="none" filter="url(#filter5)" d="M 123 36 C 123 30.477142 118.52285 26 113 26 C 107.47715 26 103 30.477142 103 36 C 103 41.522858 107.47715 46 113 46 C 118.52285 46 123 41.522858 123 36 Z"/>
    <radialGradient id="radialGradient6" cx="807.783863" cy="161.502684" r="34.071513" fx="807.783863" fy="161.502684" gradientUnits="userSpaceOnUse">
        <stop offset="0" stop-color="#ffffff" stop-opacity="1"/>
        <stop offset="1" stop-color="#ff000c" stop-opacity="1"/>
    </radialGradient>
    <filter id="filter6" x="0" y="0" width="1280" height="300" filterUnits="userSpaceOnUse" primitiveUnits="userSpaceOnUse" color-interpolation-filters="sRGB">
        <feGaussianBlur stdDeviation="0"/>
        <feOffset dx="4.283814" dy="4.201063" result="offsetblur"/>
        <feFlood flood-color="#000000" flood-opacity="0.5"/>
        <feComposite in2="offsetblur" operator="in"/>
        <feMerge>
            <feMergeNode/>
            <feMergeNode in="SourceGraphic"/>
        </feMerge>
    </filter>
    <path id="Ellipse-copy-4" fill="url(#radialGradient6)" fill-rule="evenodd" stroke="none" filter="url(#filter6)" d="M 835 179.5 C 835 168.178162 825.821838 159 814.5 159 C 803.178162 159 794 168.178162 794 179.5 C 794 190.821838 803.178162 200 814.5 200 C 825.821838 200 835 190.821838 835 179.5 Z"/>
    <radialGradient id="radialGradient7" cx="993.223835" cy="208.720821" r="16.62025" fx="993.223835" fy="208.720821" gradientUnits="userSpaceOnUse">
        <stop offset="0" stop-color="#ffffff" stop-opacity="1"/>
        <stop offset="1" stop-color="#ff000c" stop-opacity="1"/>
    </radialGradient>
    <filter id="filter7" x="0" y="0" width="1280" height="300" filterUnits="userSpaceOnUse" primitiveUnits="userSpaceOnUse" color-interpolation-filters="sRGB">
        <feGaussianBlur stdDeviation="0"/>
        <feOffset dx="4.283814" dy="4.201063" result="offsetblur"/>
        <feFlood flood-color="#000000" flood-opacity="0.5"/>
        <feComposite in2="offsetblur" operator="in"/>
        <feMerge>
            <feMergeNode/>
            <feMergeNode in="SourceGraphic"/>
        </feMerge>
    </filter>
    <path id="Ellipse-copy-5" fill="url(#radialGradient7)" fill-rule="evenodd" stroke="none" filter="url(#filter7)" d="M 1006.5 217.5 C 1006.5 211.977142 1002.022827 207.5 996.5 207.5 C 990.977173 207.5 986.5 211.977142 986.5 217.5 C 986.5 223.022858 990.977173 227.5 996.5 227.5 C 1002.022827 227.5 1006.5 223.022858 1006.5 217.5 Z"/>
    <radialGradient id="radialGradient8" cx="646.723835" cy="243.220821" r="16.62025" fx="646.723835" fy="243.220821" gradientUnits="userSpaceOnUse">
        <stop offset="0" stop-color="#ffffff" stop-opacity="1"/>
        <stop offset="1" stop-color="#ff000c" stop-opacity="1"/>
    </radialGradient>
    <filter id="filter8" x="0" y="0" width="1280" height="300" filterUnits="userSpaceOnUse" primitiveUnits="userSpaceOnUse" color-interpolation-filters="sRGB">
        <feGaussianBlur stdDeviation="0"/>
        <feOffset dx="4.283814" dy="4.201063" result="offsetblur"/>
        <feFlood flood-color="#000000" flood-opacity="0.5"/>
        <feComposite in2="offsetblur" operator="in"/>
        <feMerge>
            <feMergeNode/>
            <feMergeNode in="SourceGraphic"/>
        </feMerge>
    </filter>
    <path id="Ellipse-copy-2" fill="url(#radialGradient8)" fill-rule="evenodd" stroke="none" filter="url(#filter8)" d="M 660 252 C 660 246.477158 655.522827 242 650 242 C 644.477173 242 640 246.477158 640 252 C 640 257.522858 644.477173 262 650 262 C 655.522827 262 660 257.522858 660 252 Z"/>
</svg>
