<?xml version="1.0" encoding="UTF-8"?>
<!-- Generated by Pixelmator Pro 3.5.6 -->
<svg width="1280" height="300" viewBox="0 0 1280 300" xmlns="http://www.w3.org/2000/svg">
    <path id="Rectangle" fill="#202020" fill-rule="evenodd" stroke="none" d="M 0 300 L 1280 300 L 1280 0 L 0 0 Z"/>
    <g id="pytestlogocurves">
        <g id="graphics">
            <path id="horizontalbar" fill="#696969" stroke="none" d="M 827.896606 92.146881 L 1018.601807 7.570007 C 1023.763611 5.280731 1029.803955 7.609436 1032.09314 12.771271 L 1032.09314 12.771271 C 1034.382446 17.933105 1032.053711 23.973419 1026.891968 26.262665 L 836.186707 110.839554 C 831.024902 113.128799 824.984558 110.80011 822.695313 105.638275 L 822.695313 105.638275 C 820.406067 100.47644 822.734802 94.436127 827.896606 92.146881 Z"/>
            <g id="topbars">
                <path id="Path" fill="#009fe3" stroke="none" d="M 821.170593 72.495789 L 859.514709 55.490356 L 863.439026 64.338959 L 825.09491 81.344406 L 821.170593 72.495789 Z"/>
                <path id="path1" fill="#c7d302" stroke="none" d="M 871.312988 50.257874 L 909.656677 33.252625 L 913.580994 42.101227 L 875.237305 59.106476 L 871.312988 50.257874 Z"/>
                <path id="path2" fill="#f07e16" stroke="none" d="M 920.791321 28.314453 L 959.135437 11.309021 L 963.059753 20.157623 L 924.715637 37.163055 L 920.791321 28.314453 Z"/>
                <path id="path3" fill="#df2815" stroke="none" d="M 970.060791 6.463654 L 1008.404907 -10.541779 L 1012.329224 -1.693176 L 973.985107 15.312286 L 970.060791 6.463654 Z"/>
            </g>
            <g id="bottombars">
                <path id="path4" fill="#df2815" stroke="none" d="M 991.055908 53.803711 L 1029.400024 36.798279 L 1058.14563 101.614319 L 1019.801514 118.619751 L 991.055908 53.803711 Z"/>
                <path id="path5" fill="#f07e16" stroke="none" d="M 941.786377 75.65451 L 980.201721 58.617477 L 1026.901123 163.915894 L 988.485779 180.952911 L 941.786377 75.65451 Z"/>
                <path id="path6" fill="#c7d302" stroke="none" d="M 892.308105 97.597916 L 930.649536 80.593643 L 1000.600464 238.320053 L 962.259033 255.32431 L 892.308105 97.597916 Z"/>
                <path id="path7" fill="#009fe3" stroke="none" d="M 842.16571 119.835831 L 880.509827 102.830399 L 965.765564 295.066376 L 927.421509 312.071808 L 842.16571 119.835831 Z"/>
            </g>
        </g>
        <path id="npcheckmark569906000000" fill="#c7d302" fill-rule="evenodd" stroke="none" d="M 660.880005 290.010681 C 661.197693 289.849213 661.494568 289.635681 661.755005 289.375244 L 708.890991 242.239258 C 710.229553 240.900726 710.229553 238.734055 708.89624 237.400726 L 706.474365 234.978851 C 705.14624 233.650726 702.979553 233.650726 701.640991 234.98407 L 659.334351 277.29071 L 640.60498 258.561401 C 639.266479 257.217651 637.10498 257.22287 635.771667 258.556183 L 633.349792 260.978058 C 632.016479 262.306183 632.016479 264.478058 633.355042 265.811401 L 656.912354 289.368713 C 657.990479 290.452057 659.599792 290.6604 660.881165 290.009338 Z M 605 261.333344 C 605 224.515991 634.838684 194.666672 671.666687 194.666672 C 708.484009 194.666672 738.333313 224.505341 738.333313 261.333344 C 738.333313 298.150665 708.49469 328 671.666687 328 C 634.849304 328 605 298.161346 605 261.333344 Z"/>
        <path id="npcheckmark569906000000-copy" fill="#c7d302" fill-rule="evenodd" stroke="none" d="M 142.866592 42.094757 C 143.00798 42.022888 143.140091 41.927887 143.255981 41.811981 L 164.231491 20.836456 C 164.827133 20.240814 164.827133 19.276642 164.23381 18.683319 L 163.156082 17.605591 C 162.565063 17.014587 161.600891 17.014587 161.005249 17.60791 L 142.178787 36.434387 L 133.844223 28.099823 C 133.248581 27.501862 132.286728 27.504181 131.69339 28.097504 L 130.615662 29.175232 C 130.022324 29.766235 130.022324 30.732727 130.617981 31.32608 L 141.100998 41.809082 C 141.58075 42.291168 142.296921 42.383881 142.867111 42.094147 Z M 118 29.333344 C 118 12.949615 131.278214 -0.333344 147.666672 -0.333344 C 164.050385 -0.333344 177.333328 12.944885 177.333328 29.333344 C 177.333328 45.717041 164.05513 59 147.666672 59 C 131.282959 59 118 45.721802 118 29.333344 Z"/>
        <path id="npcheckmark569906000000-copy-2" fill="#c7d302" fill-rule="evenodd" stroke="none" d="M 296.220215 202.398438 C 296.272614 202.371796 296.321594 202.336548 296.364563 202.293579 L 304.142029 194.516144 C 304.362885 194.295288 304.362885 193.93779 304.142883 193.717789 L 303.743256 193.318176 C 303.524139 193.099045 303.166626 193.099045 302.94577 193.319031 L 295.965179 200.299652 L 292.874817 197.209305 C 292.653961 196.987579 292.297333 196.988434 292.077332 197.208435 L 291.677704 197.608047 C 291.457733 197.827179 291.457733 198.185547 291.678589 198.405548 L 295.565552 202.292511 C 295.743439 202.471252 296.008972 202.505646 296.220398 202.398224 Z M 287 197.666672 C 287 191.591812 291.92337 186.666672 298 186.666672 C 304.07486 186.666672 309 191.590057 309 197.666672 C 309 203.741531 304.07663 208.666672 298 208.666672 C 291.92514 208.666672 287 203.743286 287 197.666672 Z"/>
        <path id="path8" fill="#df2815" stroke="none" d="M 67.655998 287.328003 C 40.077362 287.328003 17.656 264.901306 17.656 237.328003 C 17.656 209.7547 40.077362 187.328003 67.655998 187.328003 C 95.229301 187.328003 117.655998 209.7547 117.655998 237.328003 C 117.655998 264.901306 95.229301 287.328003 67.655998 287.328003 Z M 84.323967 257.333862 C 85.2145 257.333862 86.062248 256.979706 86.687248 256.349487 C 87.97892 255.052689 87.97892 252.947144 86.687248 251.650269 L 72.370842 237.333862 L 86.687248 223.031128 C 87.312263 222.406189 87.667717 221.557159 87.667717 220.671753 C 87.667717 219.786407 87.312248 218.936737 86.687248 218.306519 C 86.036186 217.655457 85.146881 217.301971 84.230217 217.328003 C 83.376083 217.354065 82.563553 217.702362 81.964592 218.306519 L 67.661858 232.613159 L 53.349361 218.306519 C 52.698757 217.655914 51.80571 217.302521 50.884518 217.328003 C 50.041512 217.359726 49.244736 217.708023 48.646236 218.306519 C 48.021229 218.936646 47.667721 219.786346 47.667721 220.671753 C 47.667721 221.557098 48.021236 222.406128 48.646236 223.031128 L 62.948971 237.333862 L 48.646236 251.650269 C 47.354572 252.947067 47.354572 255.052612 48.646236 256.349487 C 49.948238 257.641144 52.047276 257.641144 53.349361 256.349487 L 67.661858 242.046753 L 81.964592 256.349487 C 82.589523 256.979706 83.43856 257.333862 84.323967 257.333862 Z"/>
        <path id="Path-copy-2" fill="#df2815" stroke="none" d="M 460.828003 71.984009 C 454.85556 71.984009 450 67.127274 450 61.156006 C 450 55.184723 454.85556 50.328003 460.828003 50.328003 C 466.799286 50.328003 471.656006 55.184723 471.656006 61.156006 C 471.656006 67.127274 466.799286 71.984009 460.828003 71.984009 Z M 464.437622 65.488464 C 464.630463 65.488464 464.814056 65.411774 464.949402 65.275299 C 465.229126 64.994461 465.229126 64.538483 464.949402 64.257629 L 461.84906 61.157272 L 464.949402 58.059875 C 465.084747 57.92453 465.161743 57.740677 465.161743 57.54892 C 465.161743 57.357193 465.084747 57.173187 464.949402 57.036713 C 464.808411 56.895721 464.615814 56.819168 464.417328 56.824799 C 464.23233 56.830444 464.056366 56.905869 463.926666 57.036713 L 460.829254 60.134964 L 457.729767 57.036713 C 457.588867 56.895813 457.395447 56.81929 457.195953 56.824799 C 457.013397 56.83168 456.840851 56.907104 456.711243 57.036713 C 456.575897 57.173172 456.499329 57.357178 456.499329 57.54892 C 456.499329 57.740662 456.575897 57.924515 456.711243 58.059875 L 459.808655 61.157272 L 456.711243 64.257629 C 456.431519 64.538467 456.431519 64.994446 456.711243 65.275299 C 456.993195 65.555023 457.447784 65.555023 457.729767 65.275299 L 460.829254 62.177902 L 463.926666 65.275299 C 464.062012 65.411774 464.24588 65.488464 464.437622 65.488464 Z"/>
        <path id="Path-copy" fill="#df2815" stroke="none" d="M 1170.328003 53.984009 C 1148.635742 53.984009 1131 36.344055 1131 14.656006 C 1131 -7.032043 1148.635742 -24.671997 1170.328003 -24.671997 C 1192.016113 -24.671997 1209.656006 -7.032043 1209.656006 14.656006 C 1209.656006 36.344055 1192.016113 53.984009 1170.328003 53.984009 Z M 1183.438354 30.391815 C 1184.138794 30.391815 1184.805664 30.113251 1185.297241 29.617554 C 1186.313232 28.597534 1186.313232 26.941406 1185.297241 25.921326 L 1174.036499 14.660614 L 1185.297241 3.410645 C 1185.788818 2.919098 1186.068359 2.251282 1186.068359 1.554871 C 1186.068359 0.85849 1185.788818 0.190155 1185.297241 -0.305542 C 1184.785156 -0.817627 1184.085571 -1.095673 1183.364624 -1.075195 C 1182.692749 -1.054688 1182.053711 -0.780762 1181.58252 -0.305542 L 1170.332642 10.94751 L 1159.074951 -0.305542 C 1158.563232 -0.817261 1157.86084 -1.095245 1157.13623 -1.075195 C 1156.473145 -1.050232 1155.846436 -0.776276 1155.375732 -0.305542 C 1154.884033 0.190094 1154.605957 0.858429 1154.605957 1.554871 C 1154.605957 2.251221 1154.884033 2.919067 1155.375732 3.410645 L 1166.62561 14.660614 L 1155.375732 25.921326 C 1154.359741 26.941345 1154.359741 28.597473 1155.375732 29.617554 C 1156.39978 30.633514 1158.050781 30.633514 1159.074951 29.617554 L 1170.332642 18.367584 L 1181.58252 29.617554 C 1182.074097 30.113251 1182.741943 30.391815 1183.438354 30.391815 Z"/>
    </g>
</svg>
