<?xml version="1.0" encoding="UTF-8"?>
<!-- Generated by Pixelmator Pro 3.3.12 -->
<svg width="2400" height="1421" viewBox="0 0 2400 1421" xmlns="http://www.w3.org/2000/svg">
    <g id="g1">
        <g id="Group">
            <path id="Path-copy-2" fill="#27282c" stroke="none" d="M 1492.381836 649.939026 C 1590.963623 649.939026 1670.881836 570.02533 1670.881836 471.445862 C 1670.881836 372.86853 1590.963623 292.952637 1492.381836 292.952637 C 1393.797729 292.952637 1313.881836 372.86853 1313.881836 471.445862 C 1313.881836 570.02533 1393.797729 649.939026 1492.381836 649.939026 Z"/>
            <path id="Path-copy" fill="#8473ff" stroke="none" d="M 1428.891357 494.768005 C 1443.483276 569.784241 1489.449829 627.253723 1541.407837 643.071777 C 1616.141968 621.762756 1670.881836 553.024475 1670.881836 471.445862 C 1670.881836 382.408447 1605.685303 308.618286 1520.405762 295.163574 C 1520.035034 295.229492 1519.641479 295.272705 1519.268433 295.338745 C 1450.527954 308.704712 1410.05481 398.005859 1428.891357 494.768005 Z"/>
        </g>
        <path id="Path" fill="#ffffff" stroke="none" d="M 1492.413574 650.424805 C 1450.716797 650.424805 1410.745239 636.016541 1378.348511 608.973755 C 1341.702393 578.428223 1319.160156 535.440613 1314.849243 487.893372 C 1310.53772 440.410461 1325.01123 394.035156 1355.559814 357.387085 C 1386.109131 320.745361 1429.098755 298.20459 1476.646484 293.894775 C 1524.194214 289.578735 1570.509888 304.057495 1607.156128 334.602783 C 1643.802246 365.148438 1666.344482 408.135986 1670.655396 455.683228 C 1679.585938 553.793457 1606.971069 640.819275 1508.919556 649.688232 C 1503.376587 650.181274 1497.895142 650.424805 1492.413574 650.424805 Z M 1493.091064 299.312378 C 1487.793945 299.312378 1482.497559 299.562134 1477.200439 300.048828 C 1382.474976 308.674561 1312.447266 392.67749 1321.008301 487.400513 C 1325.196289 533.282532 1346.937378 574.797424 1382.352051 604.292603 C 1417.704712 633.794373 1462.480957 647.773682 1508.365723 643.58551 C 1554.249756 639.397583 1595.762085 617.657227 1625.263672 582.244873 C 1654.765381 546.89679 1668.684326 502.122375 1664.557861 456.240173 C 1660.369873 410.358154 1638.628784 368.843262 1603.213989 339.348145 C 1571.926392 313.234009 1533.309204 299.312378 1493.091064 299.312378 Z"/>
        <path id="path1" fill="#8473ff" stroke="none" d="M 1341.860474 539.801514 C 1381.291626 536.221924 1410.355835 501.354004 1406.776245 461.926636 C 1403.197266 422.492981 1368.329956 393.43335 1328.898926 397.012817 C 1289.467041 400.592407 1260.403442 435.454102 1263.982544 474.887756 C 1267.562134 514.315125 1302.428711 543.381287 1341.860474 539.801514 Z"/>
        <path id="path2" fill="#ffffff" stroke="none" d="M 1259.725952 676.910156 C 1259.109985 676.910156 1258.55603 676.846069 1258.001465 676.781982 C 1255.660889 676.474792 1253.875 675.552612 1252.705078 674.015564 C 1252.027466 673.336853 1250.918457 671.614197 1251.041992 668.89917 C 1251.411499 661.016357 1261.943604 642.356079 1348.046387 571.46759 L 1351.987915 576.212708 C 1274.32312 640.140381 1257.570557 662.066528 1257.20105 669.148926 C 1257.20105 669.513794 1257.262451 669.827637 1257.323975 669.949341 C 1257.693481 670.378296 1258.001465 670.563965 1258.80188 670.685913 C 1277.772095 673.394531 1382.536499 610.209656 1524.933228 500.521484 C 1679.709473 381.285522 1764.579712 294.817139 1757.253906 285.269287 C 1754.910156 282.188965 1725.594238 288.720825 1625.325195 356.7146 L 1621.876221 351.598145 C 1680.078979 312.126221 1751.708374 267.902466 1762.114258 281.516602 C 1764.829468 285.025635 1771.911865 294.259888 1701.63562 360.467163 C 1657.783447 401.796448 1596.31604 453.28186 1528.628784 505.388306 C 1416.904175 591.485291 1290.151611 676.910156 1259.725952 676.910156 Z"/>
    </g>
    <g id="g2">
        <path id="path3" fill="#27282c" stroke="none" d="M 1957.381836 1444.891724 C 2189.594238 1444.891724 2377.84375 1256.65271 2377.84375 1024.445801 C 2377.84375 792.244202 2189.594238 604 1957.381836 604 C 1725.164185 604 1536.920044 792.244202 1536.920044 1024.445801 C 1536.920044 1256.65271 1725.164185 1444.891724 1957.381836 1444.891724 Z"/>
        <path id="path4" fill="#8473ff" stroke="none" d="M 1807.828125 1079.381836 C 1842.199951 1256.084839 1950.475342 1391.455811 2072.86377 1428.715698 C 2248.902344 1378.521606 2377.84375 1216.606689 2377.84375 1024.445801 C 2377.84375 814.71582 2224.271484 640.900818 2023.393066 609.207947 C 2022.519653 609.363281 2021.592773 609.465149 2020.713989 609.620667 C 1858.793823 641.10437 1763.45813 851.455933 1807.828125 1079.381836 Z"/>
        <path id="path5" fill="#ffffff" stroke="none" d="M 2291.782959 769.62262 C 2290.443359 767.924011 2289.098389 766.225403 2287.759033 764.521606 C 2159.031982 754.630615 1927.74646 772.665955 1590.666382 818.787842 C 1589.584106 820.690186 1588.453613 822.549316 1587.419556 824.504944 C 1928.828735 777.766785 2164.186279 759.474426 2291.782959 769.62262 Z"/>
        <path id="path6" fill="#ffffff" stroke="none" d="M 1935.424683 876.242249 C 1883.687378 900.980408 1831.998291 941.792664 1789.948364 991.108032 C 1753.304565 1034.084839 1726.198242 1081.026855 1717.491455 1116.738159 C 1712.594116 1136.83606 1713.77832 1152.503052 1720.942139 1162.035034 C 1751.348877 1202.440063 1893.583496 1140.034912 1997.422485 1094.480957 C 2083.740723 1056.604736 2265.651611 967.350464 2356.299072 891.341187 C 2355.682861 889.487305 2355.06665 887.633362 2354.396973 885.77417 C 2269.107422 957.406006 2095.748047 1045.728027 1995.359741 1089.787109 C 1898.839844 1132.099731 1752.999268 1196.10144 1725.067749 1158.943481 C 1718.884521 1150.697388 1717.957642 1136.53064 1722.544067 1117.97583 C 1746.815918 1018.830566 1863.123047 916.59375 1937.744629 880.930542 C 2018.035034 842.5401 2110.69165 826.980408 2200.154785 826.980408 C 2246.587891 826.980408 2292.088135 831.256165 2334.657959 838.623474 C 2333.623779 836.512329 2332.493164 834.401184 2331.410889 832.28479 C 2309.919678 828.678833 2287.865967 825.946167 2265.496338 824.145874 C 2143.675781 814.147949 2026.484619 832.697388 1935.424683 876.242249 Z"/>
        <path id="path7" fill="#ffffff" stroke="none" d="M 2226.334229 1199.862793 C 2247.670166 1168.325439 2256.634033 1142.044189 2246.330566 1124.935791 C 2209.27417 1063.404175 1926.819458 1147.455688 1738.103882 1226.760254 C 1709.861572 1238.612183 1661.012329 1260.001465 1624.111328 1280.614014 C 1625.193726 1282.001709 1626.276123 1283.341187 1627.358398 1284.734253 C 1653.382446 1270.251587 1690.588745 1252.318115 1740.113159 1231.502197 C 1842.307129 1188.578857 1957.430054 1150.033081 2048.131104 1128.386475 C 2103.426025 1115.194946 2148.364014 1108.599243 2181.294678 1108.599243 C 2213.55542 1108.599243 2234.269531 1114.937866 2241.94751 1127.66333 C 2251.790283 1144.053467 2241.074219 1170.79541 2218.549072 1202.440063 C 2016.336426 1267.111572 1782.682739 1315.135864 1664.977295 1326.371704 C 1666.627441 1327.968262 1668.277832 1329.516724 1669.928101 1331.060059 C 1787.939087 1319.261475 2006.643677 1275.202271 2208.658203 1211.302246 C 2210.153076 1210.83606 2211.647949 1210.375244 2213.089111 1209.90918 C 2154.493652 1287.879395 2031.585449 1391.713013 1967.637207 1444.68811 C 1970.417847 1444.634521 1973.150513 1444.586182 1975.931396 1444.484375 C 2067.762939 1368.009033 2171.655518 1276.332886 2221.281738 1207.332031 C 2272.713379 1190.791626 2317.23877 1174.867676 2355.736328 1159.511353 C 2356.508057 1157.244995 2357.279541 1155.026733 2358.00293 1152.760254 C 2316.981689 1169.096924 2272.558105 1184.919189 2226.334229 1199.862793 Z"/>
        <path id="path8" fill="#ffffff" stroke="none" d="M 1956.957275 1445.264893 C 1858.811646 1445.264893 1764.726807 1411.35083 1688.471558 1347.697632 C 1602.213989 1275.799805 1549.154419 1174.615723 1539.007446 1062.699341 C 1528.858765 950.934387 1562.926514 841.776489 1634.831665 755.514465 C 1706.738403 669.267273 1807.927246 616.210938 1919.844727 606.066833 C 2031.762329 595.907593 2140.779785 629.98761 2227.037598 701.885071 C 2313.294922 773.782959 2366.354736 874.966919 2376.501709 986.883301 C 2397.522461 1217.814575 2226.602051 1422.655396 1995.80896 1443.531128 C 1982.761963 1444.69165 1969.859741 1445.264893 1956.957275 1445.264893 Z M 1958.55188 618.818604 C 1946.083618 618.818604 1933.616943 619.406433 1921.148682 620.55188 C 1698.184448 640.855225 1533.353516 838.580933 1553.504517 1061.539307 C 1563.362183 1169.536133 1614.536133 1267.253662 1697.895142 1336.679199 C 1781.108032 1406.120239 1886.502075 1439.024658 1994.505371 1429.166626 C 2102.506836 1419.309082 2200.218262 1368.136719 2269.658936 1284.783325 C 2339.099854 1201.581299 2371.862305 1096.191528 2362.149414 988.194275 C 2352.291748 880.197449 2301.117676 782.47998 2217.758545 713.054382 C 2144.114014 651.587219 2053.217041 618.818604 1958.55188 618.818604 Z"/>
    </g>
    <g id="g2-copy-2">
        <path id="path9" fill="#27282c" stroke="none" d="M 56.470375 573.054077 C 187.656647 573.054077 294.00647 466.710144 294.00647 335.526978 C 294.00647 204.346802 187.656647 98 56.470375 98 C -74.718857 98 -181.065659 204.346802 -181.065659 335.526978 C -181.065659 466.710144 -74.718857 573.054077 56.470375 573.054077 Z"/>
        <path id="path10" fill="#8473ff" stroke="none" d="M -28.018621 366.562622 C -8.600574 466.389343 52.568615 542.865906 121.710831 563.915588 C 221.162216 535.558899 294.00647 444.086548 294.00647 335.526978 C 294.00647 217.041992 207.247238 118.846802 93.762817 100.942139 C 93.269386 101.029907 92.745758 101.087524 92.249298 101.175293 C 0.773982 118.961792 -53.085045 237.797974 -28.018621 366.562622 Z"/>
        <path id="path11" fill="#ffffff" stroke="none" d="M 245.387222 191.567017 C 244.630432 190.607422 243.870605 189.647705 243.113937 188.685181 C 170.390778 183.097412 39.728142 193.286255 -150.702148 219.342407 C -151.313583 220.417114 -151.95224 221.467407 -152.536423 222.572266 C 40.339561 196.167969 173.302643 185.833862 245.387222 191.567017 Z"/>
        <path id="path12" fill="#ffffff" stroke="none" d="M 44.065884 251.800781 C 14.837368 265.776367 -14.363908 288.832886 -38.119629 316.693115 C -58.821205 340.972534 -74.134674 367.491943 -79.053497 387.666748 C -81.820198 399.020813 -81.151199 407.871765 -77.104065 413.256775 C -59.926056 436.083252 20.428089 400.828003 79.090973 375.092773 C 127.855667 353.694946 230.624557 303.271484 281.835022 260.330811 C 281.486877 259.283447 281.138763 258.236084 280.760437 257.185791 C 232.576889 297.653442 134.639099 347.550171 77.925644 372.440918 C 23.397614 396.345093 -58.993683 432.502258 -74.773338 411.510254 C -78.266495 406.851685 -78.790123 398.848328 -76.199066 388.365967 C -62.486908 332.354736 3.219738 274.596924 45.376514 254.449341 C 90.73584 232.760986 143.081345 223.970703 193.622726 223.970703 C 219.854675 223.970703 245.559631 226.38623 269.60907 230.54834 C 269.024811 229.355713 268.386078 228.163086 267.774658 226.967407 C 255.633392 224.930298 243.174347 223.386475 230.536835 222.369385 C 161.715424 216.721191 95.509361 227.200439 44.065884 251.800781 Z"/>
        <path id="path13" fill="#ffffff" stroke="none" d="M 208.412567 434.627197 C 220.46611 416.810486 225.530151 401.963135 219.709305 392.297852 C 198.774643 357.536133 39.204441 405.020325 -67.408691 449.822693 C -83.36393 456.518311 -110.960861 468.60199 -131.807739 480.246887 C -131.196243 481.030823 -130.584763 481.787598 -129.973343 482.574585 C -115.271294 474.3927 -94.25193 464.261353 -66.273567 452.501587 C -8.540025 428.252441 56.497616 406.476379 107.738342 394.247314 C 138.9767 386.794922 164.363998 383.068726 182.96788 383.068726 C 201.193298 383.068726 212.895538 386.649658 217.233139 393.838745 C 222.793732 403.098267 216.739792 418.205872 204.014404 436.083252 C 89.77623 472.618774 -42.224277 499.749695 -108.720886 506.09729 C -107.788651 506.999207 -106.856277 507.874023 -105.923973 508.745911 C -39.254749 502.080383 84.3004 477.189575 198.426651 441.089844 C 199.271164 440.826477 200.115677 440.566101 200.929855 440.302856 C 167.826889 484.351379 98.391029 543.01123 62.264053 572.939026 C 63.834949 572.908752 65.378746 572.88147 66.949783 572.823914 C 118.82917 529.619873 177.522324 477.828308 205.558197 438.846924 C 234.614044 429.502563 259.76825 420.50647 281.51709 411.831055 C 281.953064 410.550659 282.388916 409.297485 282.797577 408.01709 C 259.623016 417.246338 234.526321 426.184937 208.412567 434.627197 Z"/>
        <path id="path14" fill="#ffffff" stroke="none" d="M 56.230503 573.264893 C 0.784037 573.264893 -52.368313 554.105408 -95.447998 518.145142 C -144.178406 477.5271 -174.153961 420.364136 -179.886429 357.138062 C -185.619766 293.997437 -166.37355 232.32959 -125.751366 183.59668 C -85.128365 134.872192 -27.962646 104.898438 35.264149 99.167603 C 98.490944 93.428223 160.079407 112.681519 208.809906 153.299316 C 257.540253 193.917358 287.515869 251.080322 293.248322 314.306396 C 305.123749 444.768921 208.563828 560.491882 78.179405 572.2854 C 70.808617 572.94104 63.519642 573.264893 56.230503 573.264893 Z M 57.131401 106.371582 C 50.087532 106.371582 43.04464 106.703735 36.000774 107.35083 C -89.960815 118.821045 -183.080536 230.524414 -171.696396 356.482666 C -166.127396 417.494446 -137.217163 472.699036 -90.124275 511.920349 C -43.113922 551.150452 16.427479 569.739502 77.44294 564.170288 C 138.457428 558.601379 193.65863 529.692017 232.888489 482.602295 C 272.1185 435.598022 290.627289 376.059082 285.140106 315.046997 C 279.571106 254.035156 250.660797 198.830566 203.567825 159.609253 C 161.963013 124.883911 110.611641 106.371582 57.131401 106.371582 Z"/>
    </g>
    <g id="g2-copy">
        <path id="path15" fill="#27282c" stroke="none" d="M 2124.543457 224.134155 C 2172.3396 224.134155 2211.086914 185.389038 2211.086914 137.593994 C 2211.086914 89.800049 2172.3396 51.053833 2124.543457 51.053833 C 2076.746094 51.053833 2038 89.800049 2038 137.593994 C 2038 185.389038 2076.746094 224.134155 2124.543457 224.134155 Z"/>
        <path id="path16" fill="#8473ff" stroke="none" d="M 2093.760986 148.901489 C 2100.835693 185.272217 2123.121826 213.135498 2148.312988 220.804688 C 2184.546875 210.473267 2211.086914 177.146362 2211.086914 137.593994 C 2211.086914 94.425415 2179.477295 58.64917 2138.130615 52.125854 C 2137.950684 52.157715 2137.76001 52.178711 2137.579102 52.210693 C 2104.251221 58.69104 2084.628174 101.987549 2093.760986 148.901489 Z"/>
        <path id="path17" fill="#ffffff" stroke="none" d="M 2122.742188 224.091797 C 2122.169678 224.080811 2121.607665 224.071655 2121.035156 224.050781 C 2102.133564 208.30983 2080.749502 189.44066 2070.535156 175.238281 C 2059.948985 171.833744 2050.785148 168.555295 2042.861328 165.394531 C 2042.702515 164.927979 2042.543457 164.470459 2042.394531 164.003906 C 2050.837882 167.366574 2059.981943 170.623294 2069.496094 173.699219 C 2065.104497 167.207892 2063.258303 161.798703 2065.378906 158.277344 C 2073.00634 145.612317 2131.145058 162.913102 2169.988281 179.236328 C 2175.801508 181.675779 2185.85572 186.077641 2193.451172 190.320313 C 2193.228272 190.605957 2193.006103 190.883179 2192.783203 191.169922 C 2187.426763 188.188968 2179.767812 184.49731 2169.574219 180.212891 C 2148.539816 171.377939 2124.844708 163.443843 2106.175781 158.988281 C 2094.794445 156.273074 2085.543694 154.916016 2078.765625 154.916016 C 2072.125251 154.916016 2067.861571 156.220584 2066.28125 158.839844 C 2064.255373 162.213376 2066.46143 167.717048 2071.097656 174.230469 C 2112.718953 187.541735 2160.811792 197.425661 2185.039063 199.738281 C 2184.699219 200.066894 2184.359131 200.387329 2184.019531 200.705078 C 2159.729272 198.276492 2114.713337 189.207262 2073.132813 176.054688 C 2072.825196 175.95874 2072.519287 175.863525 2072.222656 175.767578 C 2084.283191 191.816146 2109.579603 213.187999 2122.742188 224.091797 Z M 2166.388672 168.59375 C 2166.170696 168.596773 2165.949455 168.595458 2165.724609 168.591797 C 2153.972652 168.400462 2132.977174 159.188514 2116.613281 152.009766 C 2098.846471 144.213761 2061.40194 125.842254 2042.744141 110.197266 C 2042.870971 109.815675 2042.998902 109.433471 2043.136719 109.050781 C 2060.691859 123.79477 2096.374309 141.974261 2117.037109 151.042969 C 2136.903769 159.752058 2166.922619 172.925522 2172.671875 165.277344 C 2173.944578 163.580082 2174.135496 160.664909 2173.191406 156.845703 C 2168.195567 136.438762 2144.255829 115.395249 2128.896484 108.054688 C 2112.370394 100.152848 2093.299035 96.949219 2074.884766 96.949219 C 2065.327656 96.949219 2055.961286 97.829227 2047.199219 99.345703 C 2047.412109 98.911134 2047.64441 98.476562 2047.867188 98.041016 C 2052.290763 97.29883 2056.831308 96.737792 2061.435547 96.367188 C 2086.509715 94.30933 2110.630409 98.127093 2129.373047 107.089844 C 2140.022195 112.18163 2150.661394 120.581807 2159.316406 130.732422 C 2166.858872 139.578229 2172.43848 149.239517 2174.230469 156.589844 C 2175.238523 160.726676 2174.993894 163.952152 2173.519531 165.914063 C 2172.144365 167.741421 2169.658309 168.548398 2166.388672 168.59375 Z M 2201.003906 96.439453 C 2130.73183 86.819355 2082.286569 83.055668 2056.023438 85.144531 C 2056.299072 84.794923 2056.575928 84.444335 2056.851563 84.09375 C 2083.347359 82.057865 2130.95302 85.770405 2200.333984 95.263672 C 2200.55664 95.655273 2200.791016 96.036866 2201.003906 96.439453 Z"/>
        <path id="path18" fill="#ffffff" stroke="none" d="M 2124.456055 224.21106 C 2104.254883 224.21106 2084.889404 217.230469 2069.193848 204.128784 C 2051.439453 189.330078 2040.518188 168.503418 2038.429688 145.467773 C 2036.34082 122.463257 2043.352905 99.995239 2058.153076 82.23999 C 2072.953613 64.487793 2093.78125 53.567261 2116.817139 51.479248 C 2139.853271 49.388184 2162.292236 56.402832 2180.046631 71.201538 C 2197.800781 86.000244 2208.722168 106.826904 2210.810791 129.862549 C 2215.137451 177.39502 2179.957031 219.557373 2132.452881 223.854126 C 2129.767334 224.093018 2127.111816 224.21106 2124.456055 224.21106 Z M 2124.78418 54.104004 C 2122.218018 54.104004 2119.651855 54.224976 2117.085693 54.460693 C 2071.192871 58.639771 2037.265869 99.337524 2041.413574 145.229004 C 2043.442627 167.457886 2053.975586 187.571045 2071.133301 201.86084 C 2088.260986 216.153931 2109.954346 222.926636 2132.18457 220.897461 C 2154.414551 218.86853 2174.526367 208.335815 2188.819336 191.179199 C 2203.112305 174.053711 2209.855713 152.36145 2207.856689 130.132324 C 2205.827637 107.903442 2195.294434 87.790283 2178.136719 73.500488 C 2162.978516 60.848755 2144.269287 54.104004 2124.78418 54.104004 Z"/>
    </g>
    <linearGradient id="linearGradient1" x1="-0.595845" y1="718.860113" x2="2397.404155" y2="718.860113" gradientUnits="userSpaceOnUse">
        <stop offset="0" stop-color="#000000" stop-opacity="1"/>
        <stop offset="0.742046" stop-color="#000000" stop-opacity="0.39951"/>
        <stop offset="1" stop-color="#000000" stop-opacity="0"/>
    </linearGradient>
    <path id="Rectangle" fill="url(#linearGradient1)" fill-opacity="0.46412" fill-rule="evenodd" stroke="none" d="M 0 1421 L 2400 1421 L 2400 0 L 0 0 Z"/>
</svg>
