<?xml version="1.0" encoding="UTF-8"?>
<!-- Generated by Pixelmator Pro 3.3.12 -->
<svg width="2400" height="1421" viewBox="0 0 2400 1421" xmlns="http://www.w3.org/2000/svg">
    <g id="Group">
        <path id="Path-copy-2" fill="#27282c" stroke="none" d="M 1124.381836 913.939026 C 1222.963623 913.939026 1302.881836 834.02533 1302.881836 735.445862 C 1302.881836 636.86853 1222.963623 556.952637 1124.381836 556.952637 C 1025.797729 556.952637 945.881836 636.86853 945.881836 735.445862 C 945.881836 834.02533 1025.797729 913.939026 1124.381836 913.939026 Z"/>
        <path id="Path-copy" fill="#8473ff" stroke="none" d="M 1060.891357 758.768005 C 1075.483276 833.784241 1121.449829 891.253723 1173.407837 907.071777 C 1248.141968 885.762756 1302.881836 817.024475 1302.881836 735.445862 C 1302.881836 646.408508 1237.685303 572.618286 1152.405762 559.163574 C 1152.035034 559.229553 1151.641479 559.272766 1151.268433 559.338806 C 1082.527954 572.704712 1042.05481 662.005859 1060.891357 758.768005 Z"/>
    </g>
    <g id="g1">
        <path id="Path" fill="#ffffff" stroke="none" d="M 1124.413574 914.424805 C 1082.716797 914.424805 1042.745239 900.016541 1010.348511 872.973755 C 973.702332 842.428223 951.160156 799.440613 946.849243 751.893372 C 942.537659 704.410461 957.011169 658.035156 987.559814 621.387085 C 1018.10907 584.7453 1061.098755 562.204529 1108.646484 557.894836 C 1156.194214 553.578735 1202.509888 568.057495 1239.156128 598.602844 C 1275.802246 629.148376 1298.344482 672.135986 1302.655396 719.683228 C 1311.585938 817.793457 1238.971069 904.819275 1140.919556 913.688232 C 1135.376587 914.181274 1129.895142 914.424805 1124.413574 914.424805 Z M 1125.091064 563.312378 C 1119.793945 563.312378 1114.497559 563.562134 1109.200439 564.048767 C 1014.474976 572.674561 944.447205 656.677551 953.008301 751.400513 C 957.196289 797.282532 978.937317 838.797424 1014.352051 868.292603 C 1049.704712 897.794373 1094.480957 911.773682 1140.365723 907.58551 C 1186.249756 903.397583 1227.762085 881.657227 1257.263672 846.244873 C 1286.765381 810.89679 1300.684326 766.122375 1296.557861 720.240173 C 1292.369873 674.358154 1270.628784 632.843262 1235.213989 603.348083 C 1203.926392 577.234009 1165.309204 563.312378 1125.091064 563.312378 Z"/>
        <path id="path1" fill="#8473ff" stroke="none" d="M 973.860474 803.801514 C 1013.291626 800.221924 1042.355835 765.354004 1038.776245 725.926636 C 1035.197266 686.492981 1000.329956 657.433289 960.898865 661.012817 C 921.467041 664.592407 892.403442 699.454102 895.982483 738.887756 C 899.562134 778.315125 934.428711 807.381287 973.860474 803.801514 Z"/>
        <path id="path2" fill="#ffffff" stroke="none" d="M 891.725952 940.910156 C 891.109924 940.910156 890.55603 940.846069 890.001465 940.781982 C 887.660889 940.474792 885.874939 939.552612 884.705017 938.015564 C 884.027466 937.336853 882.918396 935.614197 883.041931 932.89917 C 883.411438 925.016357 893.943542 906.356079 980.046387 835.46759 L 983.987854 840.212708 C 906.323059 904.140381 889.570496 926.066528 889.200989 933.148926 C 889.200989 933.513794 889.262451 933.827637 889.323914 933.949341 C 889.69342 934.378296 890.001465 934.563965 890.80188 934.685913 C 909.772095 937.394531 1014.536499 874.209656 1156.933228 764.521484 C 1311.709473 645.285522 1396.579712 558.817078 1389.253906 549.269226 C 1386.910156 546.188965 1357.594238 552.720825 1257.325195 620.714661 L 1253.876221 615.598083 C 1312.078979 576.12616 1383.708374 531.902466 1394.114258 545.516663 C 1396.829468 549.025696 1403.911865 558.259888 1333.63562 624.467163 C 1289.783447 665.796448 1228.31604 717.28186 1160.628784 769.388306 C 1048.904175 855.485291 922.151611 940.910156 891.725952 940.910156 Z"/>
    </g>
    <g id="g2">
        <path id="path3" fill="#27282c" stroke="none" d="M 1957.381836 1444.891724 C 2189.594238 1444.891724 2377.84375 1256.65271 2377.84375 1024.445801 C 2377.84375 792.244202 2189.594238 604 1957.381836 604 C 1725.164185 604 1536.920044 792.244202 1536.920044 1024.445801 C 1536.920044 1256.65271 1725.164185 1444.891724 1957.381836 1444.891724 Z"/>
        <path id="path4" fill="#8473ff" stroke="none" d="M 1807.828125 1079.381836 C 1842.199951 1256.084839 1950.475342 1391.455811 2072.86377 1428.715698 C 2248.902344 1378.521606 2377.84375 1216.606689 2377.84375 1024.445801 C 2377.84375 814.71582 2224.271484 640.900818 2023.393066 609.207947 C 2022.519653 609.363281 2021.592773 609.465149 2020.713989 609.620667 C 1858.793823 641.10437 1763.45813 851.455933 1807.828125 1079.381836 Z"/>
        <path id="path5" fill="#ffffff" stroke="none" d="M 2291.782959 769.62262 C 2290.443359 767.924011 2289.098389 766.225403 2287.759033 764.521606 C 2159.031982 754.630615 1927.74646 772.665955 1590.666382 818.787842 C 1589.584106 820.690186 1588.453613 822.549316 1587.419556 824.504944 C 1928.828735 777.766785 2164.186279 759.474426 2291.782959 769.62262 Z"/>
        <path id="path6" fill="#ffffff" stroke="none" d="M 1935.424683 876.242249 C 1883.687378 900.980408 1831.998291 941.792664 1789.948364 991.108032 C 1753.304565 1034.084839 1726.198242 1081.026855 1717.491455 1116.738159 C 1712.594116 1136.83606 1713.77832 1152.503052 1720.942139 1162.035034 C 1751.348877 1202.440063 1893.583496 1140.034912 1997.422485 1094.480957 C 2083.740723 1056.604736 2265.651611 967.350464 2356.299072 891.341187 C 2355.682861 889.487305 2355.06665 887.633362 2354.396973 885.77417 C 2269.107422 957.406006 2095.748047 1045.728027 1995.359741 1089.787109 C 1898.839844 1132.099731 1752.999268 1196.10144 1725.067749 1158.943481 C 1718.884521 1150.697388 1717.957642 1136.53064 1722.544067 1117.97583 C 1746.815918 1018.830566 1863.123047 916.59375 1937.744629 880.930542 C 2018.035034 842.5401 2110.69165 826.980408 2200.154785 826.980408 C 2246.587891 826.980408 2292.088135 831.256165 2334.657959 838.623474 C 2333.623779 836.512329 2332.493164 834.401184 2331.410889 832.28479 C 2309.919678 828.678833 2287.865967 825.946167 2265.496338 824.145874 C 2143.675781 814.147949 2026.484619 832.697388 1935.424683 876.242249 Z"/>
        <path id="path7" fill="#ffffff" stroke="none" d="M 2226.334229 1199.862793 C 2247.670166 1168.325439 2256.634033 1142.044189 2246.330566 1124.935791 C 2209.27417 1063.404175 1926.819458 1147.455688 1738.103882 1226.760254 C 1709.861572 1238.612183 1661.012329 1260.001465 1624.111328 1280.614014 C 1625.193726 1282.001709 1626.276123 1283.341187 1627.358398 1284.734253 C 1653.382446 1270.251587 1690.588745 1252.318115 1740.113159 1231.502197 C 1842.307129 1188.578857 1957.430054 1150.033081 2048.131104 1128.386475 C 2103.426025 1115.194946 2148.364014 1108.599243 2181.294678 1108.599243 C 2213.55542 1108.599243 2234.269531 1114.937866 2241.94751 1127.66333 C 2251.790283 1144.053467 2241.074219 1170.79541 2218.549072 1202.440063 C 2016.336426 1267.111572 1782.682739 1315.135864 1664.977295 1326.371704 C 1666.627441 1327.968262 1668.277832 1329.516724 1669.928101 1331.060059 C 1787.939087 1319.261475 2006.643677 1275.202271 2208.658203 1211.302246 C 2210.153076 1210.83606 2211.647949 1210.375244 2213.089111 1209.90918 C 2154.493652 1287.879395 2031.585449 1391.713013 1967.637207 1444.68811 C 1970.417847 1444.634521 1973.150513 1444.586182 1975.931396 1444.484375 C 2067.762939 1368.009033 2171.655518 1276.332886 2221.281738 1207.332031 C 2272.713379 1190.791626 2317.23877 1174.867676 2355.736328 1159.511353 C 2356.508057 1157.244995 2357.279541 1155.026733 2358.00293 1152.760254 C 2316.981689 1169.096924 2272.558105 1184.919189 2226.334229 1199.862793 Z"/>
    </g>
</svg>
