<svg width="1280" height="720" viewBox="0 0 1280 720" fill="none" xmlns="http://www.w3.org/2000/svg">
<g clip-path="url(#clip0_6542_4555)">
<rect width="1280" height="720" fill="black"/>
<g clip-path="url(#clip1_6542_4555)" filter="url(#filter0_f_6542_4555)">
<rect width="1490" height="1490" transform="translate(-153 -535)" fill="url(#paint0_linear_6542_4555)"/>
<g filter="url(#filter1_f_6542_4555)">
<ellipse cx="656.487" cy="1184.42" rx="696.175" ry="506.331" transform="rotate(57.1269 656.487 1184.42)" fill="#087CFA"/>
</g>
<g filter="url(#filter2_f_6542_4555)">
<ellipse cx="998.956" cy="382.058" rx="595.206" ry="539.886" transform="rotate(43.7455 998.956 382.058)" fill="#07C3F2"/>
</g>
<g filter="url(#filter3_f_6542_4555)">
<ellipse cx="1246.45" cy="-384.684" rx="953.573" ry="864.945" transform="rotate(43.7455 1246.45 -384.684)" fill="#FCF84A"/>
</g>
</g>
<g filter="url(#filter4_f_6542_4555)">
<ellipse cx="271.322" cy="-262.366" rx="696.175" ry="506.331" transform="rotate(32.7264 271.322 -262.366)" fill="#087CFA"/>
</g>
<path fill-rule="evenodd" clip-rule="evenodd" d="M1043.99 294C1001.35 294 962.836 301.152 934.037 313.375C919.637 319.486 907.649 326.786 898.768 335.728C889.886 344.669 884 355.762 884 367.818V570.4C884 574.168 884.59 577.832 885.65 581.365C885.656 581.386 885.66 581.404 885.67 581.428C885.675 581.442 885.691 581.453 885.691 581.467C891.549 601.614 911.811 616.162 938.303 626.594C938.648 626.731 939.002 626.863 939.349 626.997C939.517 627.063 939.684 627.133 939.852 627.199C941.41 627.797 942.993 628.38 944.6 628.949C945.243 629.175 945.901 629.39 946.552 629.613C948.02 630.116 949.512 630.603 951.018 631.082C951.385 631.199 951.756 631.327 952.125 631.444C953.345 631.826 954.563 632.185 955.807 632.55C957.109 632.932 958.422 633.312 959.75 633.677C960.597 633.911 961.448 634.136 962.305 634.361C963.291 634.622 964.284 634.876 965.283 635.126C966.514 635.433 967.754 635.738 969.005 636.031C969.806 636.218 970.61 636.413 971.419 636.594C972.777 636.898 974.144 637.192 975.524 637.48C976.518 637.686 977.517 637.885 978.521 638.083C979.528 638.282 980.542 638.478 981.559 638.667C982.905 638.916 984.26 639.157 985.624 639.391C986.49 639.539 987.365 639.671 988.239 639.813C989.542 640.024 990.844 640.24 992.162 640.437C993.188 640.589 994.225 640.737 995.261 640.88C996.691 641.078 998.119 641.282 999.566 641.463C1000.34 641.561 1001.12 641.635 1001.9 641.724C1003.53 641.919 1005.17 642.117 1006.83 642.288C1007.46 642.354 1008.1 642.408 1008.74 642.471C1010.4 642.63 1012.06 642.794 1013.73 642.934C1014.76 643.019 1015.8 643.097 1016.83 643.175C1018.42 643.292 1020.01 643.401 1021.62 643.498C1021.81 643.509 1022.01 643.507 1022.2 643.519C1026.76 643.787 1031.38 643.984 1036.06 644.082C1038.69 644.137 1041.32 644.164 1043.99 644.164C1046.65 644.164 1049.31 644.138 1051.94 644.082C1053.59 644.048 1055.23 643.977 1056.87 643.922C1057.58 643.898 1058.31 643.891 1059.02 643.86C1061.49 643.763 1063.94 643.646 1066.38 643.498C1066.41 643.496 1066.45 643.5 1066.49 643.498C1068.06 643.405 1069.62 643.292 1071.17 643.175C1072.21 643.097 1073.25 643.019 1074.27 642.934C1080.65 642.406 1086.9 641.713 1092.98 640.861C1093.88 640.737 1094.77 640.592 1095.66 640.459C1097.07 640.249 1098.47 640.022 1099.86 639.795C1100.7 639.659 1101.55 639.534 1102.38 639.393C1103.74 639.159 1105.1 638.919 1106.44 638.669C1107.46 638.478 1108.47 638.283 1109.48 638.085C1110.49 637.887 1111.48 637.689 1112.48 637.482C1113.86 637.194 1115.23 636.901 1116.58 636.596C1117.39 636.413 1118.2 636.223 1119 636.033C1120.25 635.741 1121.49 635.436 1122.72 635.128C1123.72 634.879 1124.71 634.623 1125.7 634.363C1126.55 634.137 1127.41 633.912 1128.25 633.679C1129.58 633.313 1130.89 632.935 1132.2 632.552C1135.36 631.622 1138.44 630.646 1141.45 629.615C1142.1 629.393 1142.76 629.179 1143.4 628.951C1145.54 628.193 1147.65 627.406 1149.7 626.597C1177.98 615.461 1199.24 599.643 1203.38 577.325H1203.34C1203.76 575.06 1204 572.755 1204 570.404V367.821C1204 365.899 1203.82 364.015 1203.54 362.147C1203.49 361.245 1203.33 360.352 1203.05 359.492C1201.08 350.67 1196.1 342.563 1189.31 335.728C1180.43 326.786 1168.36 319.486 1153.96 313.375C1125.16 301.152 1086.63 294 1043.99 294ZM1043.99 314.602C1084.28 314.602 1120.58 321.563 1145.89 332.307C1158.55 337.679 1168.42 343.983 1174.64 350.254C1178.95 354.587 1181.48 358.687 1182.63 362.627C1179.53 372.805 1165.85 385.271 1142.17 394.597C1117.08 404.478 1082.32 410.793 1043.99 410.793C1005.66 410.793 971 404.479 945.907 394.597C922.226 385.271 908.472 372.805 905.367 362.627C906.52 358.687 909.05 354.587 913.354 350.254C919.583 343.983 929.447 337.679 942.105 332.307C967.42 321.563 1003.7 314.602 1043.99 314.602ZM904.622 395.16C913.682 402.473 925.229 408.602 938.302 413.751C966.58 424.887 1003.43 431.395 1043.99 431.395C1084.55 431.395 1121.42 424.886 1149.7 413.751C1162.75 408.611 1174.31 402.497 1183.38 395.201V430.731C1183.26 431.048 1183.16 431.371 1183.07 431.697C1181.13 442.172 1167.26 455.657 1142.17 465.538C1117.08 475.419 1082.32 481.734 1043.99 481.734C1005.66 481.734 971 475.42 945.907 465.538C920.815 455.656 906.866 442.172 904.924 431.697C904.839 431.37 904.739 431.048 904.622 430.731L904.622 395.16ZM933.594 425.319C930.876 425.33 928.272 426.414 926.35 428.336C924.428 430.258 923.344 432.862 923.333 435.58C923.328 436.933 923.589 438.274 924.102 439.525C924.615 440.777 925.369 441.916 926.322 442.876C927.275 443.836 928.407 444.599 929.655 445.122C930.903 445.645 932.242 445.916 933.594 445.922C934.954 445.927 936.301 445.663 937.558 445.145C938.815 444.627 939.957 443.866 940.919 442.905C941.88 441.943 942.642 440.801 943.159 439.544C943.677 438.287 943.941 436.94 943.936 435.58C943.93 434.227 943.659 432.889 943.136 431.641C942.614 430.393 941.85 429.261 940.89 428.308C939.93 427.355 938.791 426.601 937.539 426.088C936.288 425.575 934.947 425.314 933.594 425.319ZM904.622 466.101C913.682 473.414 925.229 479.563 938.302 484.712C966.58 495.848 1003.43 502.336 1043.99 502.336C1084.55 502.336 1121.42 495.847 1149.7 484.712C1162.75 479.572 1174.31 473.438 1183.38 466.142V500.445C1183.07 501.155 1182.84 501.897 1182.69 502.658C1180.75 513.133 1166.8 526.598 1141.71 536.479C1116.62 546.36 1081.95 552.675 1043.63 552.675C1006.31 552.675 972.422 546.689 947.497 537.244C922.572 527.798 907.827 514.657 904.924 504.328C904.833 504.076 904.733 503.828 904.623 503.584L904.622 466.101ZM933.594 495.395C930.876 495.406 928.272 496.49 926.35 498.412C924.428 500.334 923.344 502.938 923.333 505.656C923.328 507.009 923.589 508.349 924.102 509.601C924.615 510.853 925.369 511.992 926.322 512.952C927.275 513.912 928.407 514.675 929.655 515.198C930.903 515.72 932.242 515.992 933.594 515.997C934.954 516.003 936.301 515.739 937.558 515.221C938.815 514.703 939.957 513.942 940.919 512.98C941.88 512.019 942.642 510.877 943.159 509.62C943.677 508.363 943.941 507.016 943.936 505.656C943.93 504.303 943.659 502.965 943.136 501.717C942.614 500.469 941.85 499.337 940.89 498.384C939.93 497.431 938.791 496.677 937.539 496.164C936.288 495.651 934.947 495.39 933.594 495.395ZM1183.38 536.74V570.4C1183.38 571.46 1183.28 572.526 1183.09 573.599C1181.33 583.092 1169.76 594.98 1148.93 604.482C1147.93 604.937 1146.94 605.388 1145.89 605.83C1145.72 605.904 1145.54 605.959 1145.37 606.033C1143.95 606.63 1142.51 607.23 1141.02 607.803C1140.38 608.053 1139.71 608.283 1139.05 608.528C1138.34 608.792 1137.63 609.073 1136.9 609.332C1135.95 609.671 1134.97 609.99 1134 610.318C1132.85 610.707 1131.72 611.091 1130.54 611.465C1130.07 611.613 1129.59 611.742 1129.11 611.888C1128.15 612.187 1127.18 612.504 1126.2 612.793C1125.25 613.069 1124.28 613.33 1123.32 613.597C1122.28 613.886 1121.22 614.184 1120.16 614.463C1119.2 614.712 1118.24 614.945 1117.26 615.187C1116.57 615.358 1115.87 615.541 1115.17 615.71C1113.93 616.006 1112.67 616.293 1111.41 616.575C1110.48 616.781 1109.53 616.979 1108.59 617.179C1107.56 617.397 1106.54 617.615 1105.49 617.823C1104.48 618.025 1103.46 618.214 1102.43 618.406C1101.41 618.597 1100.38 618.788 1099.34 618.969C1098.43 619.129 1097.52 619.281 1096.6 619.432C1092.99 620.028 1089.33 620.565 1085.57 621.042C1085.07 621.108 1084.56 621.162 1084.05 621.224C1082.52 621.411 1080.98 621.602 1079.44 621.768C1078.68 621.849 1077.91 621.912 1077.14 621.99C1073.2 622.382 1069.2 622.721 1065.13 622.975C1064.95 622.987 1064.77 622.985 1064.59 622.996C1060.17 623.265 1055.7 623.465 1051.15 623.559C1048.78 623.61 1046.39 623.641 1043.99 623.641C1041.6 623.641 1039.23 623.609 1036.87 623.559C1032.14 623.462 1027.46 623.263 1022.86 622.976C1022.83 622.974 1022.81 622.977 1022.78 622.976C1015.94 622.547 1009.27 621.9 1002.8 621.084C1002.78 621.082 1002.74 621.087 1002.72 621.084C981.007 618.34 961.58 613.534 945.903 607.36C920.81 597.478 906.862 584.074 904.919 573.6C904.727 572.527 904.618 571.46 904.618 570.4V537.344C914.126 544.936 926.319 551.222 940.189 556.478C968.156 567.076 1004.13 573.298 1043.62 573.298C1084.18 573.298 1121.03 566.789 1149.31 555.653C1162.56 550.433 1174.26 544.188 1183.38 536.74ZM933.594 569.113C930.876 569.123 928.272 570.208 926.35 572.13C924.428 574.052 923.344 576.655 923.333 579.374C923.328 580.726 923.589 582.067 924.102 583.319C924.615 584.57 925.369 585.709 926.322 586.669C927.275 587.63 928.407 588.393 929.655 588.915C930.903 589.438 932.242 589.71 933.594 589.715C934.954 589.72 936.301 589.456 937.558 588.939C938.815 588.421 939.957 587.659 940.919 586.698C941.88 585.737 942.642 584.594 943.159 583.337C943.677 582.08 943.941 580.733 943.936 579.374C943.93 578.021 943.659 576.682 943.136 575.435C942.614 574.187 941.85 573.054 940.89 572.101C939.93 571.148 938.791 570.394 937.539 569.881C936.288 569.369 934.947 569.107 933.594 569.113Z" fill="white"/>
</g>
<defs>
<filter id="filter0_f_6542_4555" x="-157" y="-539" width="1498" height="1498" filterUnits="userSpaceOnUse" color-interpolation-filters="sRGB">
<feFlood flood-opacity="0" result="BackgroundImageFix"/>
<feBlend mode="normal" in="SourceGraphic" in2="BackgroundImageFix" result="shape"/>
<feGaussianBlur stdDeviation="2" result="effect1_foregroundBlur_6542_4555"/>
</filter>
<filter id="filter1_f_6542_4555" x="-412.401" y="38.2026" width="2137.78" height="2292.44" filterUnits="userSpaceOnUse" color-interpolation-filters="sRGB">
<feFlood flood-opacity="0" result="BackgroundImageFix"/>
<feBlend mode="normal" in="SourceGraphic" in2="BackgroundImageFix" result="shape"/>
<feGaussianBlur stdDeviation="250" result="effect1_foregroundBlur_6542_4555"/>
</filter>
<filter id="filter2_f_6542_4555" x="-70.4812" y="-684.953" width="2138.87" height="2134.02" filterUnits="userSpaceOnUse" color-interpolation-filters="sRGB">
<feFlood flood-opacity="0" result="BackgroundImageFix"/>
<feBlend mode="normal" in="SourceGraphic" in2="BackgroundImageFix" result="shape"/>
<feGaussianBlur stdDeviation="250" result="effect1_foregroundBlur_6542_4555"/>
</filter>
<filter id="filter3_f_6542_4555" x="-165.842" y="-1793.08" width="2824.58" height="2816.8" filterUnits="userSpaceOnUse" color-interpolation-filters="sRGB">
<feFlood flood-opacity="0" result="BackgroundImageFix"/>
<feBlend mode="normal" in="SourceGraphic" in2="BackgroundImageFix" result="shape"/>
<feGaussianBlur stdDeviation="250" result="effect1_foregroundBlur_6542_4555"/>
</filter>
<filter id="filter4_f_6542_4555" x="-875.311" y="-1330.79" width="2293.27" height="2136.84" filterUnits="userSpaceOnUse" color-interpolation-filters="sRGB">
<feFlood flood-opacity="0" result="BackgroundImageFix"/>
<feBlend mode="normal" in="SourceGraphic" in2="BackgroundImageFix" result="shape"/>
<feGaussianBlur stdDeviation="250" result="effect1_foregroundBlur_6542_4555"/>
</filter>
<linearGradient id="paint0_linear_6542_4555" x1="1525.02" y1="-44.6999" x2="4.57376e-05" y2="1490" gradientUnits="userSpaceOnUse">
<stop stop-color="#087CFA"/>
<stop offset="1" stop-color="#000A14"/>
</linearGradient>
<clipPath id="clip0_6542_4555">
<rect width="1280" height="720" fill="white"/>
</clipPath>
<clipPath id="clip1_6542_4555">
<rect width="1490" height="1490" fill="white" transform="translate(-153 -535)"/>
</clipPath>
</defs>
</svg>
