<?xml version="1.0" encoding="UTF-8"?>
<!-- Generated by Pixelmator Pro 3.3.11 -->
<svg width="790" height="790" viewBox="0 0 790 790" xmlns="http://www.w3.org/2000/svg">
    <g id="Group">
        <path id="Path" fill="#512bd4" fill-rule="evenodd" stroke="none" d="M 395 36 L 357.797363 57.478882 L 84.096924 215.5 L 84.096924 574.5 L 395 754 L 705.903076 574.5 L 705.903076 215.5 L 435.394531 59.321777 L 395 36 Z"/>
        <path id="Path-copy" fill="#ffffff" fill-rule="evenodd" stroke="none" d="M 397.251953 618 C 274.368866 618 174.751953 518.382996 174.751953 395.5 C 174.751953 272.617004 274.368866 173 397.251953 173 C 479.476013 173 551.93103 218.730774 590.449219 285.0625 L 502.392578 335.933594 C 481.64151 298.838776 442.7789 274.181641 397.251953 274.181641 C 330.250122 274.181641 275.935547 328.498169 275.935547 395.5 C 275.935547 462.501831 330.250122 516.818359 397.251953 516.818359 C 442.480438 516.818359 481.926697 492.066437 502.789063 455.371094 L 590.732422 505.445313 C 552.450134 572.668945 480.145142 618 397.251953 618 Z"/>
        <text id="text1" xml:space="preserve" x="532.41333" y="447" font-family="Open Sans" font-size="169" font-weight="700" fill="#ffffff">#</text>
    </g>
</svg>
