<svg width="1280" height="720" viewBox="0 0 1280 720" fill="none" xmlns="http://www.w3.org/2000/svg">
<g clip-path="url(#clip0_2604_8987)">
<rect width="1280" height="720" fill="#B74AF7"/>
<path d="M254.618 500.079C251.711 500.079 249.18 499.531 247.025 498.437C244.87 497.342 243.195 495.769 241.998 493.717C240.835 491.665 240.253 489.254 240.253 486.484V484.586C234.371 483.799 229.087 481.713 224.401 478.327C219.716 474.941 216.039 470.597 213.371 465.296C210.738 459.961 209.421 454.113 209.421 447.751C209.421 440.774 210.977 434.464 214.09 428.821C217.236 423.144 221.545 418.698 227.018 415.483C232.49 412.234 238.56 410.609 245.23 410.609C251.899 410.609 257.969 412.234 263.442 415.483C268.914 418.698 273.206 423.144 276.318 428.821C279.465 434.464 281.038 440.774 281.038 447.751C281.038 454.147 279.704 460.012 277.036 465.348C274.369 470.649 270.692 474.992 266.007 478.378C261.321 481.764 256.02 483.833 250.103 484.586V486.33C250.137 488.177 250.65 489.596 251.642 490.588C252.634 491.614 254.053 492.127 255.9 492.127H264.211V500.079H254.618ZM220.143 447.751C220.143 453.052 221.221 457.806 223.375 462.013C225.53 466.22 228.522 469.503 232.353 471.863C236.183 474.223 240.476 475.403 245.23 475.403C249.983 475.403 254.259 474.223 258.055 471.863C261.885 469.503 264.878 466.22 267.033 462.013C269.221 457.806 270.316 453.052 270.316 447.751C270.316 442.416 269.239 437.662 267.084 433.489C264.963 429.283 261.988 425.999 258.157 423.64C254.361 421.28 250.052 420.1 245.23 420.1C240.476 420.1 236.183 421.28 232.353 423.64C228.522 425.999 225.53 429.283 223.375 433.489C221.221 437.696 220.143 442.45 220.143 447.751Z" fill="#3BEA62"/>
<path d="M1152.5 173.944C1147.25 173.944 1142.49 172.658 1138.22 170.086C1133.98 167.514 1130.64 163.971 1128.21 159.456C1125.8 154.915 1124.59 149.839 1124.59 144.23C1124.59 138.621 1125.8 133.56 1128.21 129.045C1130.64 124.503 1133.98 120.946 1138.22 118.374C1142.49 115.803 1147.25 114.517 1152.5 114.517C1156.91 114.517 1161.01 115.433 1164.81 117.266C1168.65 119.072 1171.78 121.548 1174.21 124.695C1176.68 127.814 1178.14 131.261 1178.6 135.037H1170.44C1169.97 132.629 1168.88 130.427 1167.15 128.429C1165.46 126.405 1163.32 124.818 1160.75 123.669C1158.18 122.492 1155.43 121.904 1152.5 121.904C1148.78 121.904 1145.43 122.862 1142.45 124.777C1139.49 126.665 1137.18 129.305 1135.51 132.698C1133.84 136.09 1133.01 139.935 1133.01 144.23C1133.01 148.526 1133.84 152.37 1135.51 155.763C1137.18 159.156 1139.49 161.81 1142.45 163.725C1145.43 165.613 1148.8 166.557 1152.54 166.557C1155.91 166.557 1158.96 165.873 1161.7 164.505C1164.43 163.136 1166.59 161.235 1168.18 158.8C1169.79 156.365 1170.66 153.601 1170.77 150.51H1156.24V143.409H1179.02V147.801C1179.02 152.753 1177.87 157.213 1175.57 161.18C1173.27 165.148 1170.1 168.267 1166.05 170.538C1162.02 172.809 1157.51 173.944 1152.5 173.944Z" fill="#3BEA62"/>
<path d="M327.168 387.358H328.687C330.629 387.358 332.175 386.715 333.324 385.429C334.473 384.143 335.048 382.406 335.048 380.217H329.795V370.367H340.178V379.519C340.178 382.036 339.713 384.225 338.783 386.086C337.852 387.974 336.512 389.41 334.761 390.395C333.037 391.407 331.012 391.913 328.687 391.913H327.168V387.358Z" fill="#3BEA62"/>
<path d="M385.652 542.533C383.08 540.043 380.836 536.965 378.921 533.298C377.006 529.632 375.528 525.624 374.488 521.273C373.449 516.923 372.929 512.504 372.929 508.017C372.929 503.53 373.449 499.111 374.488 494.761C375.528 490.41 377.006 486.416 378.921 482.777C380.836 479.11 383.08 476.046 385.652 473.584H393.613C390.932 476.32 388.593 479.562 386.595 483.31C384.598 487.059 383.052 491.067 381.958 495.335C380.891 499.576 380.357 503.803 380.357 508.017C380.357 512.231 380.904 516.471 381.999 520.74C383.093 525.008 384.639 529.016 386.637 532.765C388.634 536.541 390.973 539.796 393.655 542.533H385.652Z" fill="#3BEA62"/>
<path d="M520.205 480.403H538.55L536.641 538.948H522.113L520.205 480.403ZM520.389 548.798H538.858V567.266H520.389V548.798Z" fill="#3BEA62"/>
<path d="M298.439 606.721H269.711V599.621L297.701 562.848H306.647V599.58H315.389V606.721H306.647V620.306H298.439V606.721ZM298.686 599.58V572.247L278.165 599.58H298.686Z" fill="#3BEA62"/>
<path d="M670.353 478.345H700.6V485.24H670.353V478.345ZM670.353 493.161H700.6V500.056H670.353V493.161Z" fill="#3BEA62"/>
<path d="M1207.17 287.874L1212.91 299.406H1205.65L1199.33 287.874H1207.17Z" fill="#3BEA62"/>
<path d="M646.549 339.445H663.13L611.582 454.36H595.002L646.549 339.445Z" fill="#3BEA62"/>
<path d="M147.548 527.085H164.128L112.581 642H96L147.548 527.085Z" fill="#3BEA62"/>
<path d="M803.695 165.654L796.102 175.668L791.547 171.974L799.837 162.699L787.935 160.073L789.454 154.368L801.233 158.062L800.74 146.201H806.609L806.157 158.021L817.895 154.368L819.455 160.073L807.512 162.699L815.802 171.974L811.288 175.668L803.695 165.654Z" fill="#3BEA62"/>
<path d="M1136.7 607.255H1128.74V596.584H1139L1141.13 586.652H1132.84V575.981H1143.43L1146.22 562.848H1157.84L1155.05 575.94H1164.98L1167.77 562.848H1179.38L1176.59 575.899H1184.56V586.57H1174.3L1172.16 596.502H1180.45V607.173H1169.86L1167.07 620.306H1155.46L1158.25 607.214H1148.32L1145.53 620.306H1133.91L1136.7 607.255ZM1160.55 596.543L1162.68 586.611H1152.75L1150.61 596.543H1160.55Z" fill="#3BEA62"/>
<path d="M728.672 555.667H735.978L693.5 613.124H686.195L728.672 555.667ZM683.24 568.471C683.24 565.79 683.814 563.41 684.964 561.33C686.14 559.223 687.768 557.596 689.847 556.446C691.954 555.27 694.321 554.682 696.948 554.682C699.602 554.682 701.982 555.27 704.089 556.446C706.195 557.596 707.837 559.223 709.014 561.33C710.19 563.41 710.778 565.79 710.778 568.471C710.778 571.125 710.19 573.506 709.014 575.613C707.837 577.692 706.195 579.32 704.089 580.496C701.982 581.673 699.602 582.261 696.948 582.261C694.321 582.261 691.954 581.673 689.847 580.496C687.768 579.32 686.14 577.692 684.964 575.613C683.814 573.506 683.24 571.125 683.24 568.471ZM689.683 568.471C689.683 569.976 689.984 571.317 690.586 572.493C691.215 573.67 692.077 574.6 693.172 575.284C694.294 575.941 695.552 576.269 696.948 576.269C698.37 576.269 699.643 575.941 700.764 575.284C701.886 574.6 702.748 573.67 703.35 572.493C703.979 571.317 704.294 569.976 704.294 568.471C704.294 566.967 703.979 565.626 703.35 564.449C702.748 563.246 701.886 562.315 700.764 561.659C699.643 560.975 698.37 560.633 696.948 560.633C695.552 560.633 694.294 560.975 693.172 561.659C692.077 562.315 691.215 563.246 690.586 564.449C689.984 565.626 689.683 566.967 689.683 568.471ZM711.558 600.319C711.558 597.665 712.146 595.299 713.323 593.219C714.499 591.112 716.127 589.471 718.207 588.294C720.314 587.118 722.68 586.529 725.307 586.529C727.988 586.529 730.382 587.118 732.489 588.294C734.596 589.471 736.237 591.112 737.414 593.219C738.591 595.299 739.179 597.665 739.179 600.319C739.179 603.001 738.591 605.395 737.414 607.501C736.237 609.581 734.596 611.209 732.489 612.385C730.382 613.534 727.988 614.109 725.307 614.109C722.68 614.109 720.314 613.534 718.207 612.385C716.127 611.209 714.499 609.581 713.323 607.501C712.146 605.395 711.558 603.001 711.558 600.319ZM718.043 600.319C718.043 601.824 718.344 603.178 718.946 604.382C719.575 605.559 720.437 606.489 721.531 607.173C722.653 607.83 723.911 608.158 725.307 608.158C726.73 608.158 728.002 607.83 729.124 607.173C730.273 606.489 731.162 605.559 731.791 604.382C732.421 603.178 732.735 601.824 732.735 600.319C732.735 598.814 732.421 597.474 731.791 596.297C731.162 595.121 730.273 594.204 729.124 593.547C728.002 592.863 726.73 592.521 725.307 592.521C723.911 592.521 722.653 592.863 721.531 593.547C720.437 594.204 719.575 595.121 718.946 596.297C718.344 597.474 718.043 598.814 718.043 600.319Z" fill="#3BEA62"/>
<path d="M437.866 608.171L414.216 572.927H426.016L442.022 597.603L444.074 600.579L447.357 595.448L462.029 572.927H473.572L449.871 608.223L474.7 644.749H462.799L445.818 619.15L443.612 615.918L439.816 621.715L424.836 644.749H413.139L437.866 608.171Z" fill="#3BEA62"/>
<path d="M466.174 381.284H473.931V388.055C475.189 385.566 476.913 383.65 479.102 382.31C481.291 380.969 483.835 380.299 486.736 380.299C489.8 380.299 492.468 381.037 494.739 382.515C497.009 383.965 498.72 386.003 499.869 388.63C501.209 385.976 503.056 383.924 505.409 382.474C507.79 381.024 510.539 380.299 513.658 380.299C516.641 380.299 519.267 380.983 521.538 382.351C523.809 383.691 525.574 385.607 526.833 388.096C528.091 390.586 528.721 393.486 528.721 396.797V423.31H520.718V397.495C520.718 394.294 519.924 391.79 518.337 389.984C516.75 388.151 514.52 387.235 511.647 387.235C509.595 387.235 507.79 387.7 506.23 388.63C504.698 389.56 503.508 390.887 502.659 392.611C501.839 394.307 501.428 396.318 501.428 398.644V423.31H493.507V397.495C493.507 394.321 492.7 391.817 491.086 389.984C489.499 388.151 487.283 387.235 484.437 387.235C482.358 387.235 480.552 387.7 479.02 388.63C477.488 389.56 476.297 390.887 475.449 392.611C474.628 394.307 474.218 396.318 474.218 398.644V423.31H466.174V381.284Z" fill="#3BEA62"/>
<path d="M606.822 560.755C602.882 560.755 599.298 559.812 596.069 557.924C592.868 556.008 590.337 553.382 588.476 550.044C586.616 546.678 585.686 542.916 585.686 538.758C585.686 534.599 586.616 530.85 588.476 527.512C590.337 524.147 592.881 521.52 596.11 519.632C599.339 517.717 602.923 516.76 606.863 516.76C610.803 516.76 614.387 517.717 617.616 519.632C620.844 521.52 623.375 524.147 625.208 527.512C627.069 530.85 627.999 534.599 627.999 538.758C627.999 542.944 627.069 546.706 625.208 550.044C623.375 553.382 620.844 556.008 617.616 557.924C614.387 559.812 610.789 560.755 606.822 560.755ZM591.185 538.758C591.185 542.096 591.869 545.078 593.237 547.704C594.605 550.304 596.479 552.328 598.86 553.779C601.268 555.229 603.935 555.954 606.863 555.954C609.79 555.954 612.444 555.229 614.825 553.779C617.205 552.328 619.079 550.304 620.447 547.704C621.815 545.078 622.499 542.096 622.499 538.758C622.499 535.42 621.815 532.451 620.447 529.852C619.079 527.225 617.205 525.187 614.825 523.736C612.444 522.259 609.79 521.52 606.863 521.52C603.935 521.52 601.268 522.259 598.86 523.736C596.479 525.187 594.605 527.225 593.237 529.852C591.869 532.451 591.185 535.42 591.185 538.758Z" fill="#3BEA62"/>
<path d="M741.456 419.675V427.093H734.038V419.675H741.456ZM732.315 456.55H733.453C734.91 456.55 736.07 456.068 736.932 455.103C737.794 454.139 738.224 452.836 738.224 451.194H734.285V443.807H742.072V450.671C742.072 452.559 741.723 454.201 741.026 455.596C740.328 457.012 739.322 458.089 738.009 458.828C736.716 459.587 735.198 459.967 733.453 459.967H732.315V456.55Z" fill="#3BEA62"/>
<path d="M1118.81 423.864C1130.96 421.317 1156.67 415.689 1171.84 411.024C1191.13 405.096 1197.67 422.764 1177.06 438.412C1156.46 454.061 1132.46 463.692 1106.52 473.555" fill="#C6BAA8"/>
<path d="M1118.81 423.864C1130.96 421.317 1156.67 415.689 1171.84 411.024C1191.13 405.096 1197.67 422.764 1177.06 438.412C1156.46 454.061 1132.46 463.692 1106.52 473.555" stroke="#333333" stroke-width="3.99445" stroke-miterlimit="10"/>
<path d="M824.561 334.757C813.63 328.88 790.583 316.221 777.37 307.466C760.575 296.337 749.18 311.383 764.428 332.182C779.677 352.98 799.929 368.986 821.97 385.76" fill="#C6BAA8"/>
<path d="M824.561 334.757C813.63 328.88 790.583 316.221 777.37 307.466C760.575 296.337 749.18 311.383 764.428 332.182C779.677 352.98 799.929 368.986 821.97 385.76" stroke="#333333" stroke-width="3.99445" stroke-miterlimit="10"/>
<path d="M827.974 501.335C810.773 522.601 793.219 545.168 782.818 559.49C770.831 575.996 777.594 590.329 797.562 582.273C818.581 573.794 845.85 557.877 869.462 542.205" fill="#C6BAA8"/>
<path d="M827.974 501.335C810.773 522.601 793.219 545.168 782.818 559.49C770.831 575.996 777.594 590.329 797.562 582.273C818.581 573.794 845.85 557.877 869.462 542.205" stroke="#333333" stroke-width="3.99445" stroke-miterlimit="10"/>
<path d="M1017.47 567.145C1006.16 592.031 993.832 617.816 985.68 633.522C976.284 651.622 960.412 652.031 958.656 630.612C956.808 608.065 958.811 576.607 962.239 548.519" fill="#C6BAA8"/>
<path d="M1017.47 567.145C1006.16 592.031 993.832 617.816 985.68 633.522C976.284 651.622 960.412 652.031 958.656 630.612C956.808 608.065 958.811 576.607 962.239 548.519" stroke="#333333" stroke-width="3.99445" stroke-miterlimit="10"/>
<path d="M1116.49 232.148C1129.78 210.835 1153.09 187.788 1169.15 202.78C1185.21 217.773 1169.04 237.51 1128.14 245.238" fill="#5DBAE7"/>
<path d="M1116.49 232.148C1129.78 210.835 1153.09 187.788 1169.15 202.78C1185.21 217.773 1169.04 237.51 1128.14 245.238" stroke="#333333" stroke-width="3.99445" stroke-miterlimit="10"/>
<path d="M952.43 176.82C954.913 151.862 950.499 119.465 928.586 121.652C906.672 123.839 907.437 149.286 935.183 180.166" fill="#5DBAE7"/>
<path d="M952.43 176.82C954.913 151.862 950.499 119.465 928.586 121.652C906.672 123.839 907.437 149.286 935.183 180.166" stroke="#333333" stroke-width="3.99445" stroke-miterlimit="10"/>
<path d="M1039.41 173.107C1022.48 167.594 957.571 146.459 898.336 179.365C851.993 205.109 836.079 249.047 810.928 317.706C784.484 389.897 765.91 440.603 789.712 488.931C813.52 537.274 865.989 555.341 908.808 570.086C951.899 584.924 1003.22 602.595 1051.47 579.943C1105.13 554.756 1122.78 494.846 1143.22 425.423C1161.89 362.054 1175.02 317.698 1154 268.602C1125.07 200.995 1054.38 177.979 1039.41 173.107Z" fill="#5DBAE7" stroke="#333333" stroke-width="3.99445" stroke-miterlimit="10"/>
<path d="M976.097 348.279C974.236 351.916 970.459 364.822 969.646 367.206C968.833 369.591 985.307 375.811 986.381 373.514C987.454 371.218 992.244 355.885 993.238 353.395C994.232 350.906 978.272 344.028 976.097 348.279Z" fill="white" stroke="#333333" stroke-width="3.99445" stroke-miterlimit="10"/>
<path d="M991.906 325.571C977.13 320.589 961.295 324.719 954.627 336.438C947.959 348.157 959.464 353.136 974.041 353.998C985.974 354.704 991.245 364.809 1006.76 366.812C1015.91 367.993 1019.91 356.58 1015.98 347.579C1011.65 337.643 1005.11 330.026 991.906 325.571Z" fill="#C6BAA8" stroke="#333333" stroke-width="3.99445" stroke-miterlimit="10"/>
<path d="M991.107 331.363C996.093 333.088 1004.39 334.493 1005.33 331.922C1007.03 327.237 1000.83 323.164 994.036 321.067C987.906 319.175 981.343 318.352 979.734 323.101C978.848 325.714 986.213 329.67 991.107 331.363L991.107 331.363Z" fill="#927D6F" stroke="#333333" stroke-width="3.99445" stroke-miterlimit="10"/>
<path d="M913.106 197.15C875.584 189.155 837.562 212.818 827.967 250.188C818.313 287.788 840.764 326.308 876.702 337.075C916.163 348.897 959.368 323.511 968.217 282.864C976.509 244.778 951.992 205.437 913.106 197.15L913.106 197.15Z" fill="white" stroke="#333333" stroke-width="3.99445" stroke-miterlimit="10"/>
<path d="M1119.57 266.777C1082.04 258.782 1044.02 282.445 1034.43 319.815C1024.77 357.415 1047.22 395.935 1083.16 406.702C1122.62 418.524 1165.83 393.138 1174.68 352.491C1182.97 314.405 1158.45 275.064 1119.57 266.777L1119.57 266.777Z" fill="white" stroke="#333333" stroke-width="3.99445" stroke-miterlimit="10"/>
<g style="mix-blend-mode:multiply" opacity="0.1">
<g style="mix-blend-mode:multiply">
<path d="M833.042 323.354C827.328 317.163 822.696 310.27 819.879 303.796L826.414 286.983C829.457 295.666 835.186 308.154 845.365 319.183C855.351 330.002 867.602 337.203 881.779 340.581C901.899 345.379 922.954 339.907 942.668 324.76C945.456 322.618 948.03 320.431 950.369 318.289C943.668 329.401 933.067 341.776 917.485 346.75C872.436 361.128 841.467 332.485 833.044 323.357L833.042 323.354L833.042 323.354Z" fill="#2B2733"/>
</g>
<g style="mix-blend-mode:multiply">
<path d="M923.67 340.183C921.38 341.397 918.952 342.438 916.382 343.258C873.394 356.979 843.79 329.586 835.741 320.864C830.697 315.398 826.549 309.385 823.854 303.673L826.475 296.932C829.987 304.65 835.167 313.546 842.666 321.673C853.15 333.034 866.019 340.595 880.916 344.146C895.007 347.506 909.492 346.124 923.67 340.183M963.377 298.386C963.377 298.386 929.127 348.098 882.642 337.016C867.469 333.399 856.266 325.58 848.064 316.692C831.138 298.349 826.971 275.446 826.971 275.446L815.927 303.857C818.751 310.911 823.679 318.623 830.343 325.845C848.889 345.942 880.898 362.27 918.588 350.24C951.862 339.619 963.377 298.386 963.377 298.386L963.377 298.386Z" fill="#333333"/>
</g>
</g>
<g style="mix-blend-mode:multiply" opacity="0.1">
<g style="mix-blend-mode:multiply">
<path d="M846.505 313.021C830.841 296.046 827.693 272.282 832.967 250.952C832.468 267.608 838.232 283.343 850.124 296.23C855.555 302.115 861.959 306.974 869.159 310.672C890.185 321.473 912.333 323.949 931.523 317.644C939.445 315.041 946.7 310.942 953.143 305.476C946.91 313.95 938.901 321.183 929.802 326.248C912.402 335.936 892.338 337.054 871.78 329.482C861.643 325.749 853.14 320.21 846.505 313.021Z" fill="#2B2733"/>
</g>
<g style="mix-blend-mode:multiply">
<path d="M929.882 321.974C929.269 322.343 928.651 322.702 928.028 323.049C911.592 332.199 892.585 333.235 873.06 326.043C863.47 322.511 855.444 317.292 849.205 310.531C841.042 301.685 836.487 290.876 834.887 279.566C837.907 286.514 842.119 292.969 847.426 298.72C853.148 304.92 859.893 310.039 867.474 313.933C888.378 324.671 910.417 327.487 929.882 321.974ZM969.318 278.473C947.516 322.002 904.598 324.749 870.845 307.411C864.095 303.944 857.969 299.314 852.824 293.739C835.75 275.237 829.529 246.349 847.497 215.226C823.351 242.001 818.234 287.8 843.807 315.512C850.518 322.785 859.351 328.815 870.502 332.922C923.332 352.382 962.095 313.414 969.318 278.473L969.318 278.473Z" fill="#333333"/>
</g>
</g>
<g style="mix-blend-mode:multiply" opacity="0.1">
<g style="mix-blend-mode:multiply">
<path d="M1052.93 382.638C1037.27 365.662 1034.12 341.899 1039.4 320.569C1038.9 337.225 1044.66 352.96 1056.55 365.847C1061.98 371.732 1068.39 376.591 1075.59 380.289C1096.61 391.09 1118.76 393.566 1137.95 387.261C1145.87 384.658 1153.13 380.558 1159.57 375.092C1153.34 383.566 1145.33 390.799 1136.23 395.865C1118.83 405.553 1098.77 406.671 1078.21 399.099C1068.07 395.366 1059.57 389.827 1052.93 382.638Z" fill="#2B2733"/>
</g>
<g style="mix-blend-mode:multiply">
<path d="M1136.31 391.589C1135.7 391.959 1135.08 392.318 1134.46 392.665C1118.02 401.815 1099.01 402.851 1079.49 395.66C1069.9 392.127 1061.87 386.908 1055.63 380.147C1047.47 371.301 1042.91 360.492 1041.32 349.183C1044.34 356.13 1048.55 362.586 1053.85 368.336C1059.58 374.536 1066.32 379.655 1073.9 383.549C1094.81 394.288 1116.84 397.104 1136.31 391.589M1175.75 348.089C1153.94 391.618 1111.03 394.365 1077.27 377.027C1070.52 373.56 1064.4 368.93 1059.25 363.354C1042.18 344.853 1035.96 315.964 1053.92 284.842C1029.78 311.616 1024.66 357.416 1050.23 385.128C1056.95 392.401 1065.78 398.431 1076.93 402.539C1129.76 421.998 1168.52 383.03 1175.75 348.089L1175.75 348.089Z" fill="#333333"/>
</g>
</g>
<g style="mix-blend-mode:multiply" opacity="0.1">
<g style="mix-blend-mode:multiply">
<path d="M1051.92 396.144C1045.21 388.867 1040.46 380.323 1037.68 370.562C1040.33 375.536 1043.74 380.307 1047.89 384.803C1064.49 402.793 1089.06 412.585 1112 410.359C1128.78 408.73 1140.14 403.31 1147.31 398.288C1145.81 403.58 1143.99 409.954 1142.16 416.244C1132.48 420.484 1099.53 428.73 1067.38 408.752C1061.43 405.057 1056.23 400.814 1051.92 396.144L1051.92 396.144Z" fill="#2B2733"/>
</g>
<g style="mix-blend-mode:multiply">
<path d="M1141.29 406.061C1140.59 408.492 1139.87 411.003 1139.14 413.515C1128.61 417.452 1098.29 423.633 1069.32 405.636C1068.81 405.319 1068.31 404.997 1067.81 404.671C1081.68 412.027 1097.33 415.463 1112.34 414.006C1124.54 412.822 1134.05 409.676 1141.29 406.061ZM1154.4 386.627C1154.4 386.627 1143.2 403.649 1111.66 406.711C1088.34 408.973 1065.22 398.164 1050.59 382.311C1045.43 376.716 1041.32 370.496 1038.64 363.998C1031.02 345.542 1032.88 328.302 1034.35 320.606C1028.56 346.894 1028.71 376.408 1049.22 398.633C1053.64 403.417 1058.99 407.861 1065.43 411.866C1099.87 433.264 1136.05 423.644 1145.22 418.838C1149.78 403.196 1154.4 386.627 1154.4 386.627ZM1022.22 335.826C1022.22 335.826 1021.75 337.349 1021.23 340.041C1021.55 338.626 1021.88 337.221 1022.22 335.826Z" fill="#333333"/>
</g>
</g>
<g style="mix-blend-mode:multiply" opacity="0.1">
<path d="M797.048 363.243C784.416 435.297 811.078 476.383 868.526 505.15C925.975 533.918 998.191 551.003 1036.95 544.224C1075.7 537.444 1108.16 515.509 1129.95 468.847C1111.36 532.639 1068.96 589.992 1005.13 588.805C941.299 587.618 850.709 552.505 812.591 517.665C774.473 482.825 770.08 423.434 797.047 363.243L797.048 363.243Z" fill="#2B2733"/>
<path d="M797.048 363.243C784.416 435.297 811.078 476.383 868.526 505.15C925.975 533.918 998.191 551.003 1036.95 544.224C1075.7 537.444 1108.16 515.509 1129.95 468.847C1111.36 532.639 1068.96 589.992 1005.13 588.805C941.299 587.618 850.709 552.505 812.591 517.665C774.473 482.825 770.08 423.434 797.047 363.243L797.048 363.243Z" stroke="#333333" stroke-width="3.99445" stroke-miterlimit="10"/>
</g>
<g style="mix-blend-mode:multiply" opacity="0.1">
<g style="mix-blend-mode:multiply">
<path d="M1138.31 455.212C1140.08 449.03 1142.16 442.043 1143.25 438.396C1152.87 437.542 1168.97 431.684 1181.7 424.707C1173.42 436.014 1156.02 447.398 1138.31 455.212Z" fill="#2B2733"/>
</g>
<g style="mix-blend-mode:multiply">
<path d="M1163.42 436.98C1157.76 441.11 1151.24 445.001 1144.06 448.54C1144.8 446.027 1145.5 443.661 1146.08 441.729C1151.05 440.973 1157.12 439.28 1163.42 436.98ZM1190.1 415.075C1176.89 425.019 1150.83 435.185 1140.5 434.828C1140.5 434.828 1135.14 452.584 1132.75 461.475C1166.38 448.453 1187.66 429.212 1190.1 415.075Z" fill="#333333"/>
</g>
</g>
<g style="mix-blend-mode:multiply" opacity="0.1">
<g style="mix-blend-mode:multiply">
<path d="M760.257 341.96C758.983 340.579 758.114 339.103 757.966 336.945C767.783 342.895 785.597 346.568 796.131 347.427C794.408 351.759 792.717 355.3 791.581 357.547C786.288 355.751 774.933 351.666 767.623 347.376C764.098 345.307 761.758 343.587 760.257 341.96Z" fill="#2B2733"/>
</g>
<g style="mix-blend-mode:multiply">
<path d="M784.933 338.047C784.158 338.646 783.425 339.198 782.744 339.7C780.135 336.81 776.713 332.87 773.664 328.878C777.286 332.158 781.256 335.37 784.933 338.047ZM797.288 337.234C789.222 333.313 766.471 315.175 763.671 304.213C763.576 303.841 763.504 303.477 763.456 303.122C758.658 307.867 757.238 311.876 758.518 316.883C759.208 319.585 760.685 322.579 762.839 326.134C768.988 336.278 781.686 349.338 781.686 349.338C781.686 349.338 789.063 344.734 797.288 337.234L797.288 337.234Z" fill="#333333"/>
</g>
</g>
<g style="mix-blend-mode:multiply" opacity="0.1">
<path d="M968.487 323.612C952.445 335.796 964.193 338.611 983.572 345.426C1002.95 352.241 1018.59 361.428 1014.25 344.312C1019.82 353.232 1015.68 367.104 1008.07 365.906C1000.46 364.709 987.985 355.832 978.252 352.634C968.52 349.436 951.99 350.711 953.301 339.216C954.611 327.72 964.442 324.797 968.487 323.612Z" fill="#2B2733"/>
<path d="M968.487 323.612C952.445 335.796 964.193 338.611 983.572 345.426C1002.95 352.241 1018.59 361.428 1014.25 344.312C1019.82 353.232 1015.68 367.104 1008.07 365.906C1000.46 364.709 987.985 355.832 978.252 352.634C968.52 349.436 951.99 350.711 953.301 339.216C954.611 327.72 964.442 324.797 968.487 323.612Z" stroke="#333333" stroke-width="3.99445" stroke-miterlimit="10"/>
</g>
<g style="mix-blend-mode:multiply" opacity="0.1">
<g style="mix-blend-mode:multiply">
<path d="M957.168 353.305C955.984 352.022 955.091 350.476 954.511 348.856C954.554 348.903 954.597 348.951 954.642 349C956.88 351.425 959.808 352.981 963.346 353.629C964.428 353.828 965.513 354.012 966.605 354.198C974.179 355.491 981.332 356.712 989.922 362.359C996.174 366.47 1002.87 368.598 1008.7 368.446C1006.2 369.516 1003.52 370.105 1001.38 370.112C995.189 370.129 968.906 360.062 960.184 355.614C959.074 355.047 958.059 354.27 957.168 353.305L957.168 353.305Z" fill="#2B2733"/>
</g>
<g style="mix-blend-mode:multiply">
<path d="M1019.95 357.695C1015.56 367.553 1002.48 366.224 991.944 359.294C981.403 352.363 972.576 351.588 964.019 350.023C960.998 349.471 958.872 348.168 957.34 346.508C954.533 343.466 953.72 339.223 953.043 336.194C948.408 340.995 949.329 350.225 954.47 355.796C955.613 357.034 956.963 358.091 958.508 358.879C967.002 363.211 994.039 373.797 1001.38 373.777C1008.72 373.756 1021.57 368.283 1019.95 357.695L1019.95 357.695Z" fill="#333333"/>
</g>
</g>
<g style="mix-blend-mode:multiply" opacity="0.1">
<g style="mix-blend-mode:multiply">
<path d="M1134.39 227.407C1135.69 226.695 1137.09 225.912 1138.53 225.109C1141.84 223.256 1147.22 220.244 1150.76 218.693C1150.8 220.983 1151.61 223.096 1153.11 224.729C1154.94 226.704 1157.75 227.951 1161.22 227.906C1160.57 228.357 1159.94 228.739 1159.37 229.027C1153.96 231.737 1145.69 234.838 1141.64 236.311L1134.39 227.407Z" fill="#2B2733"/>
</g>
<g style="mix-blend-mode:multiply">
<path d="M1148.25 223.976C1148.79 225.15 1149.51 226.242 1150.42 227.219C1150.82 227.661 1151.27 228.078 1151.74 228.464C1148.63 229.773 1145.38 231.02 1142.84 231.97L1140 228.48C1140.1 228.422 1140.2 228.365 1140.3 228.307C1142.42 227.124 1145.48 225.412 1148.25 223.976M1175.7 217.766C1175.44 217.479 1174.23 218.056 1171.69 219.957C1164.47 225.371 1158.44 225.08 1155.81 222.238C1154.43 220.741 1154 218.535 1154.83 216.082C1155.12 215.242 1155.09 214.688 1154.79 214.371C1152.61 212.003 1135.9 222.81 1128.7 226.24L1140.42 240.634C1140.42 240.634 1153.34 236.138 1161 232.302C1166.9 229.348 1176.59 218.725 1175.7 217.766L1175.7 217.766Z" fill="#333333"/>
</g>
</g>
<g style="mix-blend-mode:multiply" opacity="0.1">
<g style="mix-blend-mode:multiply">
<path d="M927.509 161.877C924.605 157.693 919.915 150.109 918.794 144.704C920.276 145.559 921.644 145.808 922.677 145.828C924.114 145.859 926.224 145.478 928.385 143.588C928.505 143.695 928.646 143.834 928.808 144.009C931.641 147.079 934.75 154.542 936.611 159.641L927.509 161.877L927.509 161.877Z" fill="#2B2733"/>
</g>
<g style="mix-blend-mode:multiply">
<path d="M927.543 148.464C928.906 150.662 930.388 153.857 931.697 157.077L929.13 157.708C927.515 155.229 925.73 152.224 924.377 149.386C925.346 149.251 926.42 148.972 927.543 148.464M931.508 141.519C929.742 139.605 927.952 138.901 926.342 140.494C923.694 143.115 921.021 142.403 918.877 140.08C916.088 137.058 914.193 131.309 914.408 126.618C914.303 128.528 913.945 136.707 915.013 144.364C916.232 153.104 925.971 166.025 925.971 166.025L941.385 162.239C941.385 162.239 936.538 146.971 931.508 141.519L931.508 141.519ZM910.467 133.149C910.457 133.286 910.449 133.424 910.442 133.563C910.457 133.293 910.467 133.149 910.467 133.149L908.829 131.374L910.467 133.149Z" fill="#333333"/>
</g>
</g>
<g style="mix-blend-mode:multiply" opacity="0.1">
<g style="mix-blend-mode:multiply">
<path d="M813.48 571.731C817.922 565.884 820.42 560.022 820.94 554.198C822 542.293 814.577 533.694 810.681 529.362L813.795 526.019C819.687 530.759 834.176 542.019 847.544 549.292C834.838 558.84 823.109 566.542 813.48 571.731Z" fill="#2B2733"/>
</g>
<g style="mix-blend-mode:multiply">
<path d="M840.861 549.693C834.548 554.306 828.545 558.41 822.998 561.913C823.839 559.451 824.371 556.981 824.591 554.509C825.281 546.765 822.889 540.366 819.924 535.427C825.788 539.832 833.306 545.172 840.861 549.693M854.409 548.66C836.616 540.362 813.466 521.007 813.466 521.007L805.768 529.264C809.01 534.022 834.563 553.345 797.562 582.272C813.008 578.854 838.752 560.752 854.409 548.66L854.409 548.66Z" fill="#333333"/>
</g>
</g>
<g style="mix-blend-mode:multiply" opacity="0.1">
<g style="mix-blend-mode:multiply">
<path d="M986.261 623.967C986.999 614.267 984.692 606.471 979.347 600.679C975.32 596.316 969.727 593.311 962.688 591.724L962.887 587.762C969.643 589.002 983.786 591.293 1000.57 592.248C998.014 601.809 992.896 613.071 986.261 623.967L986.261 623.967Z" fill="#2B2733"/>
</g>
<g style="mix-blend-mode:multiply">
<path d="M995.726 595.609C994.077 600.568 991.796 605.93 989.041 611.385C987.812 606.316 985.479 601.911 982.045 598.189C980.477 596.49 978.707 594.975 976.742 593.648C982.258 594.383 988.711 595.099 995.726 595.609ZM1005.13 588.804C980.054 587.772 959.44 583.353 959.44 583.353L958.866 594.731C963.488 595.451 971.24 597.311 976.647 603.17C982.694 609.722 985.808 621.274 978.341 641.827C991.302 625.323 1002.06 604.419 1005.13 588.804L1005.13 588.804Z" fill="#333333"/>
</g>
</g>
<path d="M875.448 262.021C884.634 271.975 900.181 272.57 910.173 263.349C920.165 254.128 920.819 238.583 911.633 228.629C902.448 218.675 886.901 218.081 876.908 227.302C866.916 236.523 866.262 252.067 875.448 262.021Z" fill="black"/>
<path d="M900.819 231.923C895.414 230.771 889.936 234.18 888.553 239.564C887.163 244.981 890.397 250.531 895.575 252.082C901.26 253.785 907.484 250.128 908.759 244.272C909.954 238.785 906.422 233.117 900.819 231.923Z" fill="white"/>
<path d="M1081.81 329.186C1090.99 339.14 1106.54 339.735 1116.53 330.514C1126.52 321.293 1127.18 305.748 1117.99 295.794C1108.81 285.84 1093.26 285.246 1083.27 294.467C1073.27 303.688 1072.62 319.232 1081.81 329.186Z" fill="black"/>
<path d="M1107.18 299.088C1101.77 297.936 1096.29 301.345 1094.91 306.729C1093.52 312.146 1096.75 317.696 1101.93 319.247C1107.62 320.95 1113.84 317.293 1115.12 311.437C1116.31 305.95 1112.78 300.282 1107.18 299.088Z" fill="white"/>
</g>
<defs>
<clipPath id="clip0_2604_8987">
<rect width="1280" height="720" fill="white"/>
</clipPath>
</defs>
</svg>
