<svg width="1280" height="720" viewBox="0 0 1280 720" fill="none" xmlns="http://www.w3.org/2000/svg">
<g clip-path="url(#clip0_2601_4353)">
<rect width="1280" height="720" fill="black"/>
<path d="M1226 708H311V826H1226V708Z" fill="url(#paint0_linear_2601_4353)"/>
<path opacity="0.3" d="M947 440H765V708H947V440Z" fill="#734DFF"/>
<path opacity="0.3" d="M865 708H1099V311.576H1047.75V218H865V708Z" fill="#734DFF"/>
<g opacity="0.5">
<path d="M864.706 665.281H764.13V708.385H864.706V665.281Z" fill="#734DFF"/>
<path d="M821.574 606.192H764.13V683.021H821.574V606.192Z" fill="#734DFF"/>
<path d="M783.515 536.285H726.071V644.604H783.515V536.285Z" fill="#734DFF"/>
<path d="M764.123 457.363H726.071V565.682H764.123V457.363Z" fill="#734DFF"/>
<path d="M745.097 424.06H726.071V532.378H745.097V424.06Z" fill="#734DFF"/>
</g>
<g opacity="0.2">
<path d="M745.097 405.049H726.085V424.061H745.097V405.049Z" fill="#734DFF"/>
<path d="M726.071 424.062H707.059V443.074H726.071V424.062Z" fill="#734DFF"/>
<path d="M707.059 405.049H688.047V424.061H707.059V405.049Z" fill="#734DFF"/>
<path d="M688.033 424.062H669.021V443.074H688.033V424.062Z" fill="#734DFF"/>
<path d="M726.071 462.085H707.059V481.097H726.071V462.085Z" fill="#734DFF"/>
<path d="M707.059 443.074H688.047V462.086H707.059V443.074Z" fill="#734DFF"/>
<path d="M688.033 462.085H669.021V481.097H688.033V462.085Z" fill="#734DFF"/>
<path d="M726.071 500.109H707.059V519.122H726.071V500.109Z" fill="#734DFF"/>
<path d="M707.059 481.098H688.047V500.11H707.059V481.098Z" fill="#734DFF"/>
<path d="M688.033 500.109H669.021V519.122H688.033V500.109Z" fill="#734DFF"/>
<path d="M726.071 538.133H707.059V557.145H726.071V538.133Z" fill="#734DFF"/>
<path d="M707.059 519.122H688.047V538.134H707.059V519.122Z" fill="#734DFF"/>
<path d="M688.033 538.133H669.021V557.145H688.033V538.133Z" fill="#734DFF"/>
<path d="M726.071 576.158H707.059V595.17H726.071V576.158Z" fill="#734DFF"/>
<path d="M707.059 557.147H688.047V576.16H707.059V557.147Z" fill="#734DFF"/>
<path d="M688.033 576.158H669.021V595.17H688.033V576.158Z" fill="#734DFF"/>
<path d="M726.071 614.176H707.059V633.188H726.071V614.176Z" fill="#734DFF"/>
<path d="M707.059 595.171H688.047V614.183H707.059V595.171Z" fill="#734DFF"/>
<path d="M688.033 614.176H669.021V633.188H688.033V614.176Z" fill="#734DFF"/>
<path d="M726.071 652.201H707.059V671.213H726.071V652.201Z" fill="#734DFF"/>
<path d="M707.059 633.188H688.047V652.201H707.059V633.188Z" fill="#734DFF"/>
<path d="M688.033 652.201H669.021V671.213H688.033V652.201Z" fill="#734DFF"/>
</g>
<g opacity="0.2">
<path d="M92.9277 235.407H73.9155V254.419H92.9277V235.407Z" fill="#734DFF"/>
<path d="M73.8945 254.42H54.8823V273.432H73.8945V254.42Z" fill="#734DFF"/>
<path d="M54.8894 235.407H35.8772V254.419H54.8894V235.407Z" fill="#734DFF"/>
<path d="M35.856 254.42H16.8439V273.432H35.856V254.42Z" fill="#734DFF"/>
<path d="M73.8945 292.438H54.8823V311.45H73.8945V292.438Z" fill="#734DFF"/>
<path d="M54.8894 273.433H35.8772V292.445H54.8894V273.433Z" fill="#734DFF"/>
<path d="M35.856 292.438H16.8439V311.45H35.856V292.438Z" fill="#734DFF"/>
<path d="M73.8945 330.461H54.8823V349.473H73.8945V330.461Z" fill="#734DFF"/>
<path d="M54.8894 311.449H35.8772V330.461H54.8894V311.449Z" fill="#734DFF"/>
<path d="M35.856 330.461H16.8439V349.473H35.856V330.461Z" fill="#734DFF"/>
<path d="M73.8945 368.485H54.8823V387.498H73.8945V368.485Z" fill="#734DFF"/>
<path d="M54.8894 349.473H35.8772V368.485H54.8894V349.473Z" fill="#734DFF"/>
<path d="M35.856 368.485H16.8439V387.498H35.856V368.485Z" fill="#734DFF"/>
<path d="M73.8945 406.511H54.8823V425.523H73.8945V406.511Z" fill="#734DFF"/>
<path d="M54.8894 387.498H35.8772V406.51H54.8894V387.498Z" fill="#734DFF"/>
<path d="M35.856 406.511H16.8439V425.523H35.856V406.511Z" fill="#734DFF"/>
<path d="M73.8945 444.534H54.8823V463.546H73.8945V444.534Z" fill="#734DFF"/>
<path d="M54.8894 425.521H35.8772V444.534H54.8894V425.521Z" fill="#734DFF"/>
<path d="M35.856 444.534H16.8439V463.546H35.856V444.534Z" fill="#734DFF"/>
<path d="M73.8945 482.558H54.8823V501.57H73.8945V482.558Z" fill="#734DFF"/>
<path d="M54.8894 463.547H35.8772V482.559H54.8894V463.547Z" fill="#734DFF"/>
<path d="M35.856 482.558H16.8439V501.57H35.856V482.558Z" fill="#734DFF"/>
</g>
<path opacity="0.5" d="M1156 383H1051V488H1156V383Z" fill="#734DFF"/>
<path opacity="0.2" d="M597 533H453V708H597V533Z" fill="#734DFF"/>
<path opacity="0.2" d="M619 504H514V609H619V504Z" fill="#734DFF"/>
<path opacity="0.5" d="M1264.83 601.86V405H1076V707.825L1344 708V601.86H1264.83Z" fill="#734DFF"/>
<path opacity="0.6" d="M813 372H792V392H813V372Z" fill="#734DFF"/>
<path opacity="0.5" d="M597 276H579V295H597V276Z" fill="#734DFF"/>
<path opacity="0.2" d="M147 481H128V501H147V481Z" fill="#734DFF"/>
<path opacity="0.2" d="M45 643H26V662H45V643Z" fill="#734DFF"/>
<path opacity="0.2" d="M105 674H87V693H105V674Z" fill="#734DFF"/>
<path opacity="0.2" d="M96 606H76V625H96V606Z" fill="#734DFF"/>
<path opacity="0.2" d="M1176.69 285.601H1157.68V304.613H1176.69V285.601Z" fill="#734DFF"/>
<path opacity="0.2" d="M1157.68 266.588H1138.67V285.6H1157.68V266.588Z" fill="#734DFF"/>
<path opacity="0.2" d="M1138.65 285.601H1119.64V304.613H1138.65V285.601Z" fill="#734DFF"/>
<path opacity="0.2" d="M1176.69 323.624H1157.68V342.636H1176.69V323.624Z" fill="#734DFF"/>
<path opacity="0.2" d="M1157.68 304.613H1138.67V323.625H1157.68V304.613Z" fill="#734DFF"/>
<path opacity="0.2" d="M1138.65 323.624H1119.64V342.636H1138.65V323.624Z" fill="#734DFF"/>
<path opacity="0.2" d="M1157.68 342.637H1138.67V361.649H1157.68V342.637Z" fill="#734DFF"/>
<path d="M938.233 278.962H919.221V297.974H938.233V278.962Z" fill="#734DFF"/>
<path d="M947.332 265.738H928.32V284.75H947.332V265.738Z" fill="#734DFF"/>
<path d="M928.727 309.945H947.74V290.933H928.727V309.945Z" fill="#734DFF"/>
<path opacity="0.2" d="M496.002 193.736V128H311V311.714H360.998V368H546V193.736H496.002Z" fill="#734DFF"/>
<path d="M528.579 536.678L494.763 530.678L500.995 495.57C503.771 479.909 510.628 467.094 523.942 469.454L542.877 472.813C562.121 476.227 566.175 493.321 555.622 505.764L528.586 536.671L528.579 536.678Z" fill="#BBFF00"/>
<path d="M494.759 530.657L492.64 542.604L526.462 548.605L528.581 536.657L494.759 530.657Z" fill="#BBFF00"/>
<path d="M466.841 552.734L469.337 547.863C470.589 545.418 469.624 542.421 467.181 541.169C464.738 539.917 461.742 540.884 460.489 543.329L457.993 548.2C456.74 550.645 457.705 553.642 460.148 554.894C462.592 556.146 465.588 555.179 466.841 552.734Z" fill="white"/>
<path d="M457.081 556.087L462.506 555.358C465.229 554.993 467.14 552.491 466.774 549.77C466.409 547.049 463.905 545.14 461.182 545.505L455.758 546.234C453.035 546.6 451.124 549.102 451.49 551.823C451.855 554.544 454.359 556.453 457.081 556.087Z" fill="white"/>
<path d="M469.668 543.92L467.411 533.144C466.847 530.455 464.213 528.732 461.526 529.294C458.839 529.857 457.117 532.493 457.68 535.182L459.937 545.958C460.5 548.647 463.135 550.37 465.822 549.808C468.509 549.245 470.231 546.609 469.668 543.92Z" fill="white"/>
<path d="M459.955 546.017L463.564 532.8C464.334 529.978 462.671 527.065 459.848 526.294L459.218 526.122C456.395 525.352 453.483 527.015 452.712 529.837L449.104 543.054C448.333 545.877 449.997 548.79 452.819 549.56L453.45 549.732C456.272 550.503 459.185 548.839 459.955 546.017Z" fill="white"/>
<path d="M457.796 561.214L460.377 548.561C460.926 545.869 459.191 543.242 456.501 542.693C453.811 542.144 451.185 543.882 450.636 546.573L448.055 559.226C447.506 561.918 449.241 564.545 451.931 565.094C454.621 565.643 457.247 563.905 457.796 561.214Z" fill="white"/>
<path d="M450.025 547.6L455.33 534.269C456.346 531.717 455.102 528.825 452.551 527.81C450 526.794 447.109 528.041 446.093 530.593L440.788 543.924C439.772 546.476 441.017 549.368 443.568 550.383C446.118 551.398 449.01 550.152 450.025 547.6Z" fill="white"/>
<path d="M448.281 561.435L452.545 549.245C453.452 546.652 452.087 543.815 449.496 542.909C446.904 542.002 444.068 543.369 443.161 545.963L438.897 558.152C437.99 560.745 439.356 563.582 441.947 564.489C444.538 565.395 447.374 564.028 448.281 561.435Z" fill="white"/>
<path d="M444.637 543.532L453.138 531.976C454.766 529.763 454.293 526.65 452.082 525.023C449.87 523.396 446.758 523.872 445.13 526.084L436.628 537.641C435 539.854 435.473 542.967 437.685 544.594C439.896 546.221 443.009 545.745 444.637 543.532Z" fill="white"/>
<path d="M440.853 555.502L445.628 543.504C446.643 540.951 445.399 538.059 442.848 537.044C440.297 536.029 437.406 537.275 436.39 539.828L431.616 551.826C430.6 554.379 431.844 557.271 434.395 558.286C436.946 559.301 439.837 558.055 440.853 555.502Z" fill="white"/>
<path d="M441.4 539.092L453.089 530.773C455.327 529.18 455.851 526.075 454.259 523.839C452.667 521.602 449.562 521.08 447.324 522.673L435.635 530.992C433.397 532.585 432.873 535.69 434.465 537.927C436.057 540.163 439.162 540.685 441.4 539.092Z" fill="white"/>
<path d="M435.908 549.378L442.365 538.195C443.739 535.815 442.925 532.774 440.547 531.401C438.17 530.029 435.129 530.845 433.755 533.224L427.298 544.407C425.925 546.787 426.738 549.828 429.116 551.201C431.494 552.573 434.534 551.757 435.908 549.378Z" fill="white"/>
<path d="M528.038 476.587C525.678 470.65 531.671 470.931 523.057 469.182C501.389 464.77 487.084 467.13 464.243 481.119C464.243 481.119 460.041 484.723 461.812 490.681C463.421 496.077 469.203 498.656 469.203 498.656C469.203 498.656 481.969 503.806 501.052 499.267C509.771 497.194 511.851 496.098 518.743 493.506C524.799 491.222 530.42 482.552 528.045 476.594L528.038 476.587Z" fill="#BBFF00"/>
<path d="M465.212 480.59C465.212 480.59 452.847 483.576 445.982 521.917L468.599 531.219C468.599 531.219 487.435 507.823 481.73 488.291C481.73 488.291 479.854 482.536 475.034 480.927C468.746 478.834 465.205 480.583 465.205 480.583L465.212 480.59Z" fill="#BBFF00"/>
<path d="M467.566 533.96L475.034 521.426L448.392 510.599L444.949 524.65L467.566 533.96Z" fill="#BBFF00"/>
<path d="M598.195 470.491L593.861 473.833C591.685 475.51 591.28 478.633 592.956 480.807C594.632 482.981 597.755 483.384 599.931 481.706L604.265 478.365C606.441 476.687 606.846 473.565 605.17 471.391C603.494 469.217 600.371 468.814 598.195 470.491Z" fill="white"/>
<path d="M608.455 471.633L603.238 469.979C600.619 469.149 597.824 470.597 596.994 473.214C596.164 475.831 597.615 478.625 600.233 479.456L605.451 481.11C608.07 481.94 610.865 480.492 611.695 477.875C612.524 475.258 611.074 472.463 608.455 471.633Z" fill="white"/>
<path d="M591.898 477.257L589.345 487.967C588.708 490.639 590.356 493.322 593.027 493.958C595.697 494.595 598.379 492.945 599.016 490.273L601.569 479.563C602.206 476.891 600.558 474.208 597.887 473.572C595.217 472.935 592.536 474.585 591.898 477.257Z" fill="white"/>
<path d="M601.558 479.503L592.659 489.92C590.758 492.144 591.021 495.488 593.245 497.388L593.742 497.813C595.966 499.713 599.31 499.451 601.211 497.226L610.111 486.81C612.011 484.586 611.748 481.242 609.524 479.341L609.027 478.917C606.803 477.016 603.459 477.279 601.558 479.503Z" fill="white"/>
<path d="M609.985 466.682L602.255 477.026C600.611 479.227 601.06 482.343 603.259 483.986C605.459 485.63 608.574 485.178 610.219 482.977L617.949 472.633C619.594 470.432 619.144 467.316 616.945 465.673C614.746 464.029 611.63 464.481 609.985 466.682Z" fill="white"/>
<path d="M611.217 482.305L600.735 492.101C598.728 493.976 598.62 497.123 600.494 499.129C602.369 501.135 605.515 501.24 607.523 499.365L618.005 489.569C620.012 487.693 620.12 484.547 618.246 482.541C616.371 480.535 613.225 480.429 611.217 482.305Z" fill="white"/>
<path d="M618.704 470.539L609.65 479.746C607.724 481.705 607.749 484.853 609.706 486.778C611.664 488.703 614.812 488.676 616.738 486.717L625.793 477.509C627.719 475.551 627.694 472.402 625.737 470.477C623.779 468.552 620.631 468.58 618.704 470.539Z" fill="white"/>
<path d="M614.413 488.213L601.797 495.043C599.381 496.351 598.482 499.368 599.789 501.783C601.096 504.197 604.114 505.094 606.53 503.786L619.146 496.955C621.562 495.647 622.461 492.63 621.154 490.216C619.847 487.801 616.829 486.905 614.413 488.213Z" fill="white"/>
<path d="M622.894 479.075L613.459 487.892C611.452 489.768 611.344 492.914 613.219 494.92C615.093 496.926 618.24 497.031 620.247 495.156L629.682 486.339C631.689 484.463 631.797 481.316 629.923 479.31C628.048 477.305 624.902 477.199 622.894 479.075Z" fill="white"/>
<path d="M615.401 493.69L601.281 496.23C598.577 496.717 596.779 499.302 597.265 502.004C597.751 504.706 600.337 506.502 603.041 506.015L617.161 503.474C619.865 502.988 621.663 500.403 621.177 497.701C620.691 494.999 618.105 493.203 615.401 493.69Z" fill="white"/>
<path d="M624.746 486.718L614.137 494.081C611.88 495.647 611.319 498.745 612.885 501.001C614.45 503.256 617.548 503.815 619.805 502.248L630.415 494.886C632.672 493.32 633.232 490.221 631.667 487.966C630.102 485.711 627.003 485.152 624.746 486.718Z" fill="white"/>
<path d="M538.254 478.154C533.596 482.524 533.315 485.756 535.092 494.37C537.221 504.705 544.423 519.734 565.796 535.886C565.796 535.886 570.686 538.479 575.583 534.65C580.016 531.179 580.304 524.856 580.304 524.856C580.304 524.856 580.431 511.092 569.231 494.988C564.116 487.632 562.332 486.101 557.4 480.634C553.065 475.829 542.94 473.77 538.254 478.161V478.154Z" fill="#BBFF00"/>
<path d="M568.915 536.442C568.915 536.442 581.372 539.014 603.932 507.264L587.443 489.207C587.443 489.207 560.428 502.338 557.259 522.44C557.259 522.44 556.5 528.447 560.175 531.953C564.974 536.534 568.915 536.449 568.915 536.449V536.442Z" fill="#BBFF00"/>
<path d="M589.536 487.169L577.438 495.319L596.921 516.467L606.033 505.233L589.536 487.169Z" fill="#BBFF00"/>
<path d="M551.807 567.629C537.959 551.617 527.469 543.895 527.469 543.895L494.763 530.68L492.81 540.101C491.229 547.711 493.738 555.587 499.422 560.891L546.186 594.328C551.364 599.358 555.025 604.628 559.936 601.979C563.913 599.836 565.767 595.15 564.334 590.871C562.212 584.541 558.257 575.091 551.807 567.636V567.629Z" fill="#BBFF00"/>
<path d="M526.682 698.387C527.005 699.188 527.785 699.715 528.656 699.715L577.121 700.242C577.121 692.864 572.428 686.302 565.444 683.927C561.552 682.599 553.936 678.876 546.734 675.145C538.563 670.915 528.706 676.311 527.87 685.473L526.689 698.387H526.682Z" fill="#BBFF00"/>
<path d="M534.91 608.525L527.694 687.356C527.216 692.555 532.507 696.371 537.277 694.249C537.334 694.228 537.383 694.2 537.439 694.178C543.327 691.551 547.563 686.211 548.765 679.874L564.58 596.293C564.791 595.19 564.77 594.059 564.517 592.963C562.704 584.988 553.627 580.956 546.594 585.129C546.348 585.277 546.172 585.396 546.067 585.487C538.247 592.464 535.212 601.239 534.917 608.525H534.91Z" fill="#BBFF00"/>
<path d="M490.646 588.391C506.138 573.966 513.48 563.203 513.48 563.203L525.495 530.04L516.003 528.431C508.344 527.131 500.56 529.921 495.473 535.794L463.765 583.746C458.924 589.1 453.795 592.957 456.62 597.763C458.903 601.656 463.659 603.342 467.882 601.754C474.135 599.4 483.43 595.107 490.646 588.391Z" fill="#BBFF00"/>
<path d="M367.018 565.493C366.154 565.592 365.444 566.21 365.212 567.046L351.94 613.656C359.057 615.602 366.624 612.799 370.756 606.686C373.06 603.279 378.66 596.92 384.154 590.948C390.386 584.175 387.779 573.25 379.159 570.032L367.018 565.493Z" fill="#BBFF00"/>
<path d="M449.165 572.997L379.166 570.039C373.952 569.751 363.28 574.74 365.571 579.433C365.599 579.482 371.992 588.468 378.365 589.431L462.465 602.19C463.575 602.359 464.706 602.295 465.788 602.007C473.693 599.899 477.395 590.688 472.962 583.81C472.807 583.571 472.681 583.396 472.59 583.297C465.332 575.737 456.451 573.025 449.165 572.997Z" fill="#BBFF00"/>
<path d="M542.61 454.841C545.94 450.872 544.957 444.598 544.289 442.855C543.172 439.897 540.832 437.438 537.959 436.131C530.842 432.906 526.422 438.225 523.289 438.148C518.729 438.035 511.485 427.363 506.307 433.419C504.551 435.478 507.979 440.712 506.181 442.982C504.312 445.342 494.061 442.757 495.333 450.872C496.316 457.174 508.352 455.01 511.12 458.249C513.607 461.165 518.841 465.682 529.703 458.938C529.703 458.938 541.584 456.071 542.61 454.841Z" fill="#BBFF00"/>
<path d="M533.954 464.431C540.43 464.431 545.68 459.181 545.68 452.705C545.68 446.229 540.43 440.979 533.954 440.979C527.478 440.979 522.228 446.229 522.228 452.705C522.228 459.181 527.478 464.431 533.954 464.431Z" fill="white"/>
<path d="M541.886 448.56L542.202 450.591C542.287 451.104 541.935 451.589 541.415 451.666C540.903 451.743 540.418 451.399 540.341 450.879L540.024 448.849C539.947 448.336 540.298 447.851 540.811 447.774C541.324 447.696 541.809 448.041 541.886 448.56Z" fill="black"/>
<path d="M520.085 459.049C520.085 459.049 542.168 450.056 540.713 441.59C539.259 433.123 524.048 440.332 524.048 440.332C524.048 440.332 506.939 453.688 520.092 459.049H520.085Z" fill="#BBFF00"/>
<path d="M525.973 460.33C528.782 460.33 531.059 458.052 531.059 455.243C531.059 452.434 528.782 450.156 525.973 450.156C523.163 450.156 520.886 452.434 520.886 455.243C520.886 458.052 523.163 460.33 525.973 460.33Z" fill="white"/>
<path d="M1065.56 358.979L1035.08 343.15L1051.51 311.512C1058.84 297.397 1069.22 287.216 1081.21 293.448L1098.28 302.315C1115.62 311.322 1114.39 328.845 1100.6 337.571L1065.56 358.986V358.979Z" fill="#BBFF00"/>
<path d="M1035.09 343.171L1029.5 353.938L1059.98 369.773L1065.58 359.005L1035.09 343.171Z" fill="#BBFF00"/>
<path d="M1136.73 293.333L1132.25 296.481C1130 298.061 1129.46 301.162 1131.04 303.408C1132.62 305.654 1135.72 306.194 1137.97 304.614L1142.44 301.466C1144.69 299.886 1145.23 296.784 1143.65 294.538C1142.08 292.293 1138.97 291.753 1136.73 293.333Z" fill="white"/>
<path d="M1146.94 294.8L1141.8 292.919C1139.22 291.975 1136.37 293.3 1135.43 295.878C1134.48 298.456 1135.81 301.312 1138.39 302.256L1143.53 304.137C1146.11 305.081 1148.96 303.756 1149.91 301.178C1150.85 298.6 1149.52 295.744 1146.94 294.8Z" fill="white"/>
<path d="M1130.06 299.71L1127.04 310.297C1126.29 312.939 1127.81 315.692 1130.45 316.445C1133.09 317.198 1135.85 315.666 1136.6 313.024L1139.62 302.437C1140.37 299.795 1138.84 297.043 1136.2 296.29C1133.56 295.537 1130.81 297.068 1130.06 299.71Z" fill="white"/>
<path d="M1139.65 302.461L1130.31 312.476C1128.31 314.615 1128.42 317.967 1130.56 319.964L1131.04 320.409C1133.18 322.406 1136.53 322.291 1138.53 320.152L1147.88 310.137C1149.87 307.998 1149.76 304.646 1147.62 302.649L1147.14 302.203C1145 300.207 1141.65 300.322 1139.65 302.461Z" fill="white"/>
<path d="M1148.65 290.027L1140.47 300.021C1138.73 302.147 1139.05 305.28 1141.17 307.019C1143.3 308.757 1146.43 308.443 1148.17 306.317L1156.35 296.322C1158.09 294.196 1157.77 291.063 1155.65 289.324C1153.52 287.586 1150.39 287.9 1148.65 290.027Z" fill="white"/>
<path d="M1149.2 305.701L1138.3 315.027C1136.21 316.812 1135.97 319.951 1137.75 322.037C1139.54 324.124 1142.67 324.367 1144.76 322.582L1155.66 313.257C1157.75 311.471 1158 308.332 1156.21 306.246C1154.43 304.159 1151.29 303.916 1149.2 305.701Z" fill="white"/>
<path d="M1157.16 294.15L1147.71 302.952C1145.7 304.825 1145.59 307.971 1147.46 309.98C1149.33 311.989 1152.47 312.099 1154.48 310.227L1163.93 301.424C1165.94 299.552 1166.06 296.405 1164.18 294.397C1162.31 292.388 1159.17 292.277 1157.16 294.15Z" fill="white"/>
<path d="M1152.09 311.719L1139.19 317.988C1136.72 319.188 1135.69 322.163 1136.88 324.632C1138.08 327.102 1141.06 328.13 1143.53 326.93L1156.44 320.661C1158.91 319.46 1159.94 316.485 1158.74 314.016C1157.54 311.547 1154.56 310.518 1152.09 311.719Z" fill="white"/>
<path d="M1161 302.981L1151.19 311.374C1149.1 313.16 1148.85 316.299 1150.64 318.385C1152.42 320.471 1155.56 320.715 1157.65 318.929L1167.46 310.536C1169.55 308.75 1169.8 305.611 1168.01 303.525C1166.23 301.439 1163.09 301.195 1161 302.981Z" fill="white"/>
<path d="M1152.89 317.155L1138.67 319.075C1135.95 319.442 1134.04 321.946 1134.41 324.666C1134.77 327.387 1137.28 329.295 1140 328.927L1154.22 327.007C1156.94 326.639 1158.85 324.136 1158.48 321.415C1158.12 318.695 1155.61 316.787 1152.89 317.155Z" fill="white"/>
<path d="M1162.52 310.718L1151.6 317.607C1149.28 319.073 1148.58 322.143 1150.04 324.465C1151.51 326.787 1154.58 327.482 1156.9 326.016L1167.83 319.127C1170.15 317.661 1170.85 314.591 1169.38 312.269C1167.92 309.947 1164.85 309.252 1162.52 310.718Z" fill="white"/>
<path d="M1076.47 298.296C1071.63 302.456 1071.21 305.673 1072.6 314.358C1074.28 324.77 1080.81 340.108 1101.45 357.181C1101.45 357.181 1106.22 359.991 1111.29 356.373C1115.87 353.099 1116.43 346.796 1116.43 346.796C1116.43 346.796 1117.16 333.047 1106.68 316.472C1101.89 308.898 1100.18 307.289 1095.49 301.612C1091.36 296.624 1081.34 294.123 1076.47 298.303L1076.47 298.296Z" fill="#BBFF00"/>
<path d="M1104.54 357.876C1104.54 357.876 1116.87 360.989 1140.81 330.257L1125.13 311.491C1125.13 311.491 1097.57 323.421 1093.51 343.368C1093.51 343.368 1092.49 349.333 1096.01 353C1100.6 357.785 1104.54 357.876 1104.54 357.876Z" fill="#BBFF00"/>
<path d="M1127.31 309.559L1114.86 317.168L1133.4 339.152L1143 328.325L1127.31 309.559Z" fill="#BBFF00"/>
<path d="M1095.31 343.03C1074.18 341.695 1061.33 343.768 1061.33 343.768L1028.98 357.841L1034.33 365.836C1038.65 372.293 1046.03 376.024 1053.8 375.687L1110.42 365.745C1117.63 365.576 1123.96 366.651 1125.51 361.298C1126.77 356.963 1124.72 352.354 1120.66 350.372C1114.65 347.45 1105.15 343.648 1095.3 343.03H1095.31Z" fill="#BBFF00"/>
<path d="M1076.3 449.235C1075.86 449.98 1075.92 450.921 1076.45 451.61L1105.62 490.309C1111.46 485.805 1113.79 478.084 1111.41 471.1C1110.08 467.207 1108.39 458.903 1106.94 450.921C1105.3 441.865 1095.01 437.354 1087.25 442.286L1076.3 449.235Z" fill="#BBFF00"/>
<path d="M1096.7 373.136L1086.04 451.574C1085.34 456.745 1090.45 460.785 1095.3 458.881C1095.36 458.86 1095.41 458.839 1095.47 458.818C1101.47 456.45 1105.93 451.307 1107.4 445.026L1126.87 362.218C1127.13 361.129 1127.16 359.991 1126.96 358.888C1125.5 350.836 1116.61 346.41 1109.4 350.274C1109.15 350.408 1108.96 350.52 1108.86 350.604C1100.74 357.23 1097.32 365.865 1096.71 373.129L1096.7 373.136Z" fill="#BBFF00"/>
<path d="M1056.35 407.241C1059.11 386.254 1057.92 373.284 1057.92 373.284L1046.07 340.059L1037.73 344.857C1031 348.729 1026.77 355.839 1026.58 363.61L1032.66 420.78C1032.34 427.988 1030.83 434.227 1036.08 436.138C1040.32 437.684 1045.06 435.963 1047.3 432.042C1050.63 426.246 1055.06 417.021 1056.35 407.241H1056.35Z" fill="#BBFF00"/>
<path d="M966.372 484.379C965.592 484.765 965.128 485.58 965.198 486.452L968.416 534.811C975.772 534.242 981.948 529.057 983.782 521.904C984.801 517.921 987.934 510.045 991.089 502.569C994.672 494.096 988.539 484.688 979.335 484.562L966.372 484.379Z" fill="#BBFF00"/>
<path d="M1014.72 429.407L976.299 487.996C973.384 492.324 972.196 504.044 977.395 504.486C977.452 504.486 988.44 503.608 992.543 498.627L1046.61 432.948C1047.32 432.084 1047.85 431.079 1048.15 429.997C1050.4 422.128 1044.38 414.231 1036.21 414.512C1035.93 414.519 1035.71 414.54 1035.58 414.575C1025.36 416.929 1018.48 423.168 1014.72 429.407H1014.72Z" fill="#BBFF00"/>
<path d="M1115.36 296.47C1120.22 294.658 1122.45 288.714 1122.73 286.866C1123.22 283.746 1122.4 280.451 1120.53 277.894C1115.93 271.578 1109.47 274.03 1106.78 272.421C1102.86 270.081 1101.82 257.217 1094.33 259.943C1091.78 260.87 1092.19 267.109 1089.5 268.205C1086.71 269.336 1079.06 262.036 1076.17 269.73C1073.92 275.702 1085.47 279.742 1086.28 283.922C1087.01 287.688 1089.33 294.194 1102.11 293.674C1102.11 293.674 1113.86 297.033 1115.36 296.47Z" fill="#BBFF00"/>
<path d="M1108.89 302.078C1115.37 302.078 1120.62 296.828 1120.62 290.351C1120.62 283.875 1115.37 278.625 1108.89 278.625C1102.42 278.625 1097.17 283.875 1097.17 290.351C1097.17 296.828 1102.42 302.078 1108.89 302.078Z" fill="white"/>
<path d="M1117.83 290.653L1117.11 292.578C1116.92 293.063 1116.38 293.309 1115.89 293.126C1115.41 292.943 1115.16 292.402 1115.34 291.91L1116.07 289.985C1116.25 289.501 1116.79 289.255 1117.28 289.437C1117.77 289.62 1118.01 290.161 1117.83 290.653Z" fill="black"/>
<path d="M1093.7 289.044C1093.7 289.044 1117.34 292.093 1120.25 284.006C1123.15 275.92 1106.36 274.704 1106.36 274.704C1106.36 274.704 1084.89 277.894 1093.7 289.044Z" fill="#BBFF00"/>
<path d="M1100.69 293.717C1103.5 293.717 1105.78 291.439 1105.78 288.63C1105.78 285.82 1103.5 283.543 1100.69 283.543C1097.88 283.543 1095.61 285.82 1095.61 288.63C1095.61 291.439 1097.88 293.717 1100.69 293.717Z" fill="white"/>
<path d="M1173.94 293.191L1168.75 294.953C1166.15 295.838 1164.76 298.662 1165.64 301.261C1166.53 303.86 1169.35 305.25 1171.95 304.366L1177.14 302.604C1179.74 301.719 1181.13 298.895 1180.25 296.296C1179.36 293.697 1176.54 292.307 1173.94 293.191Z" fill="white"/>
<path d="M1183.3 297.603L1178.9 294.352C1176.69 292.72 1173.58 293.188 1171.95 295.396C1170.31 297.605 1170.78 300.718 1172.99 302.35L1177.4 305.601C1179.61 307.233 1182.72 306.765 1184.35 304.557C1185.98 302.348 1185.51 299.235 1183.3 297.603Z" fill="white"/>
<path d="M1165.78 297.579L1159.9 306.889C1158.44 309.212 1159.13 312.284 1161.45 313.749C1163.77 315.214 1166.84 314.519 1168.31 312.196L1174.19 302.886C1175.65 300.562 1174.96 297.491 1172.64 296.026C1170.32 294.561 1167.25 295.256 1165.78 297.579Z" fill="white"/>
<path d="M1174.2 302.924L1162.41 309.904C1159.9 311.395 1159.06 314.644 1160.55 317.162L1160.89 317.724C1162.38 320.242 1165.63 321.074 1168.14 319.584L1179.93 312.603C1182.45 311.113 1183.28 307.863 1181.79 305.346L1181.46 304.783C1179.97 302.266 1176.72 301.433 1174.2 302.924Z" fill="white"/>
<path d="M1186.32 293.515L1175.67 300.805C1173.4 302.356 1172.82 305.45 1174.37 307.716C1175.92 309.982 1179.01 310.562 1181.28 309.011L1191.94 301.721C1194.21 300.17 1194.79 297.076 1193.24 294.81C1191.69 292.544 1188.59 291.964 1186.32 293.515Z" fill="white"/>
<path d="M1182.42 308.561L1169.33 314.444C1166.83 315.571 1165.71 318.514 1166.83 321.018C1167.96 323.522 1170.9 324.638 1173.41 323.512L1186.49 317.628C1189 316.502 1190.12 313.559 1188.99 311.055C1187.87 308.551 1184.92 307.434 1182.42 308.561Z" fill="white"/>
<path d="M1193.33 299.873L1181.78 305.661C1179.33 306.892 1178.33 309.88 1179.56 312.334C1180.79 314.788 1183.78 315.779 1186.24 314.548L1197.78 308.76C1200.24 307.528 1201.23 304.541 1200 302.087C1198.77 299.633 1195.78 298.641 1193.33 299.873Z" fill="white"/>
<path d="M1183.51 315.303L1169.36 317.689C1166.66 318.145 1164.83 320.71 1165.29 323.417C1165.74 326.124 1168.31 327.949 1171.02 327.492L1185.16 325.107C1187.87 324.65 1189.7 322.085 1189.24 319.378C1188.79 316.671 1186.22 314.847 1183.51 315.303Z" fill="white"/>
<path d="M1194.51 309.283L1182.73 314.578C1180.23 315.705 1179.11 318.648 1180.23 321.152C1181.36 323.656 1184.3 324.772 1186.81 323.646L1198.59 318.35C1201.09 317.223 1202.21 314.28 1201.08 311.776C1199.96 309.273 1197.01 308.156 1194.51 309.283Z" fill="white"/>
<path d="M1182.74 320.744L1168.55 318.586C1165.84 318.173 1163.3 320.038 1162.89 322.752C1162.47 325.466 1164.34 328.001 1167.06 328.415L1181.24 330.572C1183.96 330.986 1186.49 329.12 1186.91 326.406C1187.32 323.692 1185.45 321.157 1182.74 320.744Z" fill="white"/>
<path d="M1193.81 317.124L1181.39 320.664C1178.75 321.417 1177.22 324.168 1177.97 326.808C1178.72 329.448 1181.48 330.978 1184.12 330.225L1196.54 326.685C1199.18 325.932 1200.71 323.181 1199.96 320.541C1199.21 317.9 1196.45 316.371 1193.81 317.124Z" fill="white"/>
<path d="M1077 305.343C1074.56 311.252 1070.45 306.874 1075.41 314.132C1087.91 332.378 1099.82 340.641 1125.97 346.487C1125.97 346.487 1131.5 346.824 1134.36 341.308C1136.96 336.313 1134.6 330.439 1134.6 330.439C1134.6 330.439 1129.02 317.856 1112.15 307.837C1104.45 303.263 1102.19 302.603 1095.44 299.673C1089.5 297.094 1079.43 299.413 1076.99 305.35L1077 305.343Z" fill="#BBFF00"/>
<path d="M1124.91 346.178C1124.91 346.178 1135.87 352.635 1167.48 329.878L1157.7 307.458C1157.7 307.458 1127.9 311.154 1118.4 329.154C1118.4 329.154 1115.74 334.592 1118.08 339.096C1121.14 344.976 1124.91 346.178 1124.91 346.178Z" fill="#BBFF00"/>
<path d="M1160.34 306.215L1146.26 310.016L1157.86 336.328L1170.12 328.635L1160.34 306.215Z" fill="#BBFF00"/>
<path d="M818.792 577.83L787.955 562.703L803.658 530.693C810.663 516.416 820.795 505.997 832.935 511.948L850.198 520.414C867.749 529.021 866.913 546.565 853.325 555.607L818.792 577.823V577.83Z" fill="#BBFF00"/>
<path d="M787.959 562.743L782.615 573.637L813.454 588.765L818.798 577.871L787.959 562.743Z" fill="#BBFF00"/>
<path d="M748.667 526.353L754.117 525.848C756.853 525.595 758.865 523.174 758.612 520.44C758.359 517.706 755.936 515.696 753.201 515.949L747.751 516.454C745.015 516.707 743.003 519.128 743.256 521.862C743.509 524.595 745.932 526.606 748.667 526.353Z" fill="white"/>
<path d="M740.618 519.915L744.141 524.103C745.91 526.206 749.047 526.478 751.147 524.71C753.248 522.943 753.518 519.806 751.749 517.704L748.226 513.515C746.458 511.413 743.321 511.141 741.22 512.909C739.119 514.676 738.85 517.813 740.618 519.915Z" fill="white"/>
<path d="M757.608 524.001L765.494 516.319C767.462 514.402 767.504 511.254 765.589 509.287C763.673 507.321 760.525 507.28 758.557 509.197L750.671 516.88C748.703 518.797 748.66 521.945 750.576 523.912C752.492 525.878 755.64 525.918 757.608 524.001Z" fill="white"/>
<path d="M750.653 516.963L763.744 512.923C766.54 512.061 768.107 509.095 767.244 506.299L767.052 505.675C766.189 502.879 763.223 501.312 760.427 502.175L747.336 506.215C744.54 507.078 742.973 510.043 743.836 512.839L744.029 513.464C744.892 516.259 747.857 517.826 750.653 516.963Z" fill="white"/>
<path d="M736.671 523.28L748.736 518.675C751.303 517.695 752.59 514.822 751.611 512.257C750.632 509.692 747.758 508.407 745.191 509.387L733.126 513.992C730.56 514.971 729.273 517.845 730.252 520.409C731.23 522.974 734.105 524.259 736.671 523.28Z" fill="white"/>
<path d="M743.994 509.413L758.09 506.745C760.79 506.234 762.564 503.633 762.053 500.935C761.543 498.238 758.941 496.465 756.241 496.976L742.145 499.645C739.445 500.156 737.671 502.757 738.182 505.454C738.692 508.152 741.295 509.924 743.994 509.413Z" fill="white"/>
<path d="M731.38 515.345L743.955 512.409C746.631 511.785 748.294 509.111 747.67 506.438C747.045 503.764 744.371 502.103 741.695 502.728L729.12 505.663C726.445 506.288 724.782 508.962 725.406 511.635C726.03 514.308 728.705 515.969 731.38 515.345Z" fill="white"/>
<path d="M744.453 502.725L758.766 503.704C761.507 503.891 763.881 501.823 764.068 499.084C764.255 496.345 762.185 493.973 759.444 493.785L745.131 492.807C742.39 492.62 740.016 494.688 739.829 497.427C739.642 500.166 741.712 502.538 744.453 502.725Z" fill="white"/>
<path d="M732.402 505.901L745.09 503.499C747.789 502.988 749.564 500.387 749.053 497.689C748.542 494.992 745.94 493.219 743.241 493.73L730.552 496.132C727.853 496.643 726.079 499.244 726.59 501.942C727.1 504.639 729.702 506.412 732.402 505.901Z" fill="white"/>
<path d="M746.56 497.55L759.849 502.957C762.394 503.993 765.295 502.771 766.33 500.228C767.365 497.685 766.14 494.784 763.596 493.749L750.307 488.342C747.762 487.306 744.86 488.528 743.826 491.071C742.791 493.614 744.015 496.515 746.56 497.55Z" fill="white"/>
<path d="M734.916 498.45L747.819 497.904C750.563 497.788 752.695 495.471 752.579 492.728C752.463 489.985 750.144 487.856 747.399 487.972L734.497 488.517C731.752 488.633 729.621 490.95 729.737 493.693C729.853 496.436 732.172 498.566 734.916 498.45Z" fill="white"/>
<path d="M845.758 537.191C849.503 532.013 852.482 537.226 849.341 529.013C841.444 508.356 831.783 497.543 807.733 485.761C807.733 485.761 802.436 484.145 798.361 488.838C794.665 493.089 795.593 499.349 795.593 499.349C795.593 499.349 798.094 512.888 812.153 526.561C818.574 532.807 820.619 533.973 826.5 538.399C831.671 542.292 842.006 542.383 845.765 537.184L845.758 537.191Z" fill="#BBFF00"/>
<path d="M808.689 486.309C808.689 486.309 799.534 477.471 763.491 492.232L767.763 516.31C767.763 516.31 797.609 519.668 811.042 504.38C811.042 504.38 814.893 499.715 813.67 494.783C812.068 488.347 808.689 486.302 808.689 486.302V486.309Z" fill="#BBFF00"/>
<path d="M764.903 516.907L779.489 516.493L774.339 488.199L760.631 492.822L764.903 516.907Z" fill="#BBFF00"/>
<path d="M854.069 572.884C833.694 567.144 820.682 566.47 820.682 566.47L786.101 573.439L789.656 582.383C792.529 589.606 798.958 594.798 806.616 596.098L864.067 598.262C871.157 599.611 877.115 601.993 879.756 597.082C881.892 593.105 880.866 588.166 877.311 585.384C872.056 581.266 863.554 575.554 854.062 572.884H854.069Z" fill="#BBFF00"/>
<path d="M843.305 697.46C843.629 698.261 844.408 698.788 845.28 698.788L893.745 699.315C893.745 691.938 889.051 685.375 882.067 683.001C878.175 681.673 870.559 677.949 863.357 674.218C855.186 669.989 845.329 675.384 844.493 684.546L843.312 697.46H843.305Z" fill="#BBFF00"/>
<path d="M851.526 607.599L844.31 686.43C843.832 691.629 849.123 695.444 853.893 693.322C853.949 693.301 853.999 693.273 854.055 693.252C859.943 690.624 864.179 685.284 865.381 678.947L881.196 595.366C881.407 594.263 881.386 593.132 881.133 592.036C879.32 584.062 870.243 580.029 863.21 584.202C862.964 584.35 862.788 584.469 862.683 584.561C854.863 591.537 851.828 600.313 851.533 607.599H851.526Z" fill="#BBFF00"/>
<path d="M829.816 617.54C821.659 598.008 814.113 587.392 814.113 587.392L787.176 564.621L782.377 572.961C778.499 579.692 778.421 587.961 782.159 594.769L816.136 641.141C819.481 647.534 821.315 653.682 826.809 652.705C831.249 651.911 834.481 648.04 834.46 643.522C834.425 636.841 833.617 626.639 829.823 617.533L829.816 617.54Z" fill="#BBFF00"/>
<path d="M716.691 652.895C716.045 653.471 715.813 654.384 716.101 655.199L731.909 701.015C738.858 698.535 743.453 691.903 743.341 684.525C743.277 680.408 744.226 671.991 745.315 663.953C746.544 654.834 738.155 647.372 729.24 649.663L716.684 652.895H716.691Z" fill="#BBFF00"/>
<path d="M804.087 630.413L727.427 650.142C722.375 651.441 720.555 657.701 724.153 661.481C724.195 661.524 724.23 661.566 724.272 661.608C728.727 666.273 735.176 668.458 741.549 667.46L825.579 654.231C826.689 654.055 827.75 653.654 828.699 653.05C835.598 648.659 836.343 638.759 830.048 633.539C829.83 633.357 829.654 633.23 829.535 633.167C820.331 628.15 811.049 628.249 804.094 630.42L804.087 630.413Z" fill="#BBFF00"/>
<path d="M864.025 509.56C869.007 508.126 871.683 502.365 872.112 500.545C872.829 497.468 872.267 494.124 870.608 491.433C866.498 484.786 859.866 486.732 857.308 484.92C853.585 482.285 853.528 469.378 845.849 471.521C843.242 472.252 843.172 478.505 840.404 479.39C837.537 480.304 830.469 472.442 826.998 479.889C824.3 485.671 835.5 490.583 835.985 494.819C836.42 498.627 838.247 505.295 851.027 505.759C851.027 505.759 862.486 510.009 864.025 509.56Z" fill="#BBFF00"/>
<path d="M858.039 514.688C864.515 514.688 869.765 509.438 869.765 502.962C869.765 496.485 864.515 491.235 858.039 491.235C851.563 491.235 846.312 496.485 846.312 502.962C846.312 509.438 851.563 514.688 858.039 514.688Z" fill="white"/>
<path d="M866.927 503.945L866.062 505.807C865.845 506.278 865.283 506.482 864.812 506.264C864.341 506.046 864.137 505.484 864.355 505.013L865.219 503.151C865.437 502.681 865.999 502.477 866.47 502.695C866.941 502.913 867.144 503.475 866.927 503.945Z" fill="black"/>
<path d="M842.989 500.488C842.989 500.488 866.329 505.343 869.849 497.502C873.362 489.661 856.718 487.16 856.718 487.16C856.718 487.16 835.071 488.699 842.989 500.488Z" fill="#BBFF00"/>
<path d="M849.994 505.701C852.804 505.701 855.081 503.423 855.081 500.614C855.081 497.805 852.804 495.527 849.994 495.527C847.185 495.527 844.907 497.805 844.907 500.614C844.907 503.423 847.185 505.701 849.994 505.701Z" fill="white"/>
<path d="M721.637 543.497L726.601 541.192C729.092 540.035 730.175 537.078 729.019 534.588C727.862 532.098 724.905 531.018 722.413 532.175L717.449 534.48C714.958 535.637 713.875 538.594 715.031 541.084C716.188 543.574 719.145 544.654 721.637 543.497Z" fill="white"/>
<path d="M711.887 540.138L716.612 542.901C718.984 544.287 722.03 543.49 723.415 541.12C724.801 538.75 724.001 535.704 721.63 534.318L716.905 531.556C714.533 530.169 711.487 530.967 710.102 533.337C708.716 535.707 709.516 538.752 711.887 540.138Z" fill="white"/>
<path d="M729.268 538.284L734.116 528.4C735.326 525.933 734.309 522.953 731.844 521.744C729.38 520.535 726.401 521.555 725.191 524.021L720.342 533.906C719.132 536.372 720.149 539.352 722.614 540.561C725.079 541.77 728.058 540.75 729.268 538.284Z" fill="white"/>
<path d="M720.353 533.98L731.328 525.779C733.672 524.027 734.152 520.708 732.4 518.364L732.009 517.84C730.258 515.497 726.938 515.017 724.595 516.768L713.62 524.969C711.276 526.721 710.796 530.04 712.547 532.384L712.938 532.907C714.69 535.251 718.01 535.731 720.353 533.98Z" fill="white"/>
<path d="M709.302 544.629L719.12 536.24C721.209 534.455 721.457 531.317 719.673 529.229C717.89 527.142 714.751 526.897 712.662 528.681L702.844 537.07C700.756 538.854 700.508 541.993 702.291 544.08C704.075 546.168 707.213 546.413 709.302 544.629Z" fill="white"/>
<path d="M711.544 529.105L723.926 521.858C726.297 520.471 727.095 517.425 725.708 515.056C724.321 512.686 721.275 511.891 718.904 513.278L706.522 520.525C704.151 521.913 703.353 524.959 704.74 527.328C706.127 529.697 709.173 530.493 711.544 529.105Z" fill="white"/>
<path d="M701.649 538.936L712.509 531.949C714.819 530.462 715.488 527.385 714.002 525.077C712.517 522.768 709.44 522.102 707.129 523.588L696.27 530.576C693.959 532.063 693.291 535.139 694.776 537.448C696.262 539.757 699.339 540.423 701.649 538.936Z" fill="white"/>
<path d="M709.732 522.654L723.543 518.77C726.188 518.026 727.729 515.28 726.986 512.638C726.242 509.995 723.496 508.456 720.851 509.199L707.04 513.084C704.395 513.828 702.854 516.573 703.597 519.216C704.341 521.859 707.087 523.398 709.732 522.654Z" fill="white"/>
<path d="M699.445 529.694L710.59 523.171C712.961 521.783 713.759 518.737 712.372 516.368C710.985 513.999 707.939 513.203 705.568 514.591L694.423 521.114C692.052 522.502 691.254 525.547 692.641 527.917C694.028 530.286 697.074 531.082 699.445 529.694Z" fill="white"/>
<path d="M709.975 517.073L724.308 517.704C727.053 517.825 729.376 515.7 729.496 512.957C729.617 510.214 727.49 507.893 724.745 507.772L710.412 507.141C707.668 507.02 705.345 509.146 705.224 511.889C705.103 514.631 707.231 516.953 709.975 517.073Z" fill="white"/>
<path d="M699.316 521.828L711.286 516.982C713.833 515.951 715.062 513.052 714.032 510.508C713.002 507.963 710.102 506.736 707.556 507.767L695.586 512.613C693.039 513.644 691.81 516.542 692.84 519.087C693.87 521.632 696.77 522.859 699.316 521.828Z" fill="white"/>
<path d="M816.727 521.108C818.511 514.974 823.071 518.881 817.359 512.206C802.984 495.4 790.253 488.459 763.646 485.438C763.646 485.438 758.116 485.69 755.847 491.487C753.795 496.728 756.767 502.321 756.767 502.321C756.767 502.321 763.667 514.23 781.499 522.394C789.649 526.125 791.96 526.539 798.993 528.731C805.169 530.656 814.935 527.277 816.734 521.115L816.727 521.108Z" fill="#BBFF00"/>
<path d="M764.728 485.621C764.728 485.621 753.142 480.372 724.139 506.375L736.252 527.622C736.252 527.622 765.494 520.757 773.011 501.851C773.011 501.851 775.07 496.16 772.26 491.93C768.592 486.408 764.721 485.614 764.721 485.614L764.728 485.621Z" fill="#BBFF00"/>
<path d="M733.757 529.146L747.359 523.856L733.005 498.935L721.645 507.893L733.757 529.146Z" fill="#BBFF00"/>
<path d="M311.597 708.386H316.663" stroke="#BBFF00" stroke-width="32.46" stroke-miterlimit="10"/>
<path d="M326.823 708.386H1215.56" stroke="#BBFF00" stroke-width="32.46" stroke-miterlimit="10"/>
<path d="M1220.64 708.386H1225.71" stroke="#BBFF00" stroke-width="32.46" stroke-miterlimit="10"/>
<mask id="mask0_2601_4353" style="mask-type:luminance" maskUnits="userSpaceOnUse" x="1225" y="169" width="4529" height="602">
<path d="M5753.85 770.663C5705.62 770.663 5705.62 745.37 5657.4 745.37C5609.17 745.37 5609.17 770.663 5560.95 770.663C5512.73 770.663 5512.73 745.37 5464.51 745.37C5416.29 745.37 5416.28 770.663 5368.05 770.663C5319.83 770.663 5319.82 745.7 5272.54 745.377C5272.38 745.37 5272.23 745.377 5272.07 745.377C5271.92 745.377 5271.76 745.377 5271.61 745.377C5224.32 745.707 5224 770.67 5176.09 770.67C5128.18 770.67 5127.86 745.377 5079.63 745.377C5031.41 745.377 5031.41 770.67 4983.18 770.67C4934.96 770.67 4934.96 745.377 4886.73 745.377C4838.5 745.377 4838.5 770.67 4790.28 770.67C4742.05 770.67 4742.05 745.377 4693.83 745.377C4645.61 745.377 4645.61 770.67 4597.38 770.67C4549.15 770.67 4549.15 745.377 4500.94 745.377C4452.72 745.377 4452.71 770.67 4404.48 770.67C4356.26 770.67 4356.26 745.377 4308.04 745.377C4259.82 745.377 4259.81 770.67 4211.59 770.67C4163.37 770.67 4163.37 745.377 4115.14 745.377C4066.92 745.377 4066.92 770.67 4018.69 770.67C3970.46 770.67 3970.46 745.862 3923.61 745.391V745.377C3923.38 745.377 3923.16 745.377 3922.93 745.377C3922.69 745.377 3922.48 745.377 3922.24 745.377V745.391C3875.41 745.869 3874.95 770.67 3827.2 770.67C3779.46 770.67 3779 745.377 3730.8 745.377C3682.6 745.377 3682.6 770.67 3634.4 770.67C3586.19 770.67 3586.2 745.377 3538 745.377C3489.79 745.377 3489.8 770.67 3441.59 770.67C3393.39 770.67 3393.4 745.377 3345.19 745.377C3296.99 745.377 3296.99 770.67 3248.79 770.67C3200.58 770.67 3200.59 745.377 3152.39 745.377C3104.19 745.377 3104.19 770.67 3055.99 770.67C3007.78 770.67 3007.79 745.377 2959.59 745.377C2911.38 745.377 2911.39 770.67 2863.18 770.67C2814.98 770.67 2814.99 745.377 2766.78 745.377C2718.58 745.377 2718.58 770.67 2670.38 770.67C2622.17 770.67 2622.17 745.848 2575.3 745.391V745.377C2575.08 745.377 2574.86 745.377 2574.64 745.377C2574.42 745.377 2574.21 745.377 2573.98 745.377V745.391C2527.11 745.855 2526.66 770.67 2478.9 770.67C2431.15 770.67 2430.7 745.377 2382.5 745.377C2334.3 745.377 2334.3 770.67 2286.1 770.67C2237.89 770.67 2237.9 745.377 2189.69 745.377C2141.49 745.377 2141.49 770.67 2093.29 770.67C2045.08 770.67 2045.09 745.377 1996.89 745.377C1948.68 745.377 1948.69 770.67 1900.48 770.67C1852.28 770.67 1852.29 745.377 1804.09 745.377C1755.89 745.377 1755.89 770.67 1707.69 770.67C1659.48 770.67 1659.49 745.377 1611.28 745.377C1563.08 745.377 1563.08 770.67 1514.88 770.67C1466.67 770.67 1466.68 745.377 1418.48 745.377C1370.27 745.377 1370.28 770.67 1322.07 770.67C1273.87 770.67 1273.88 745.377 1225.68 745.377V169.665H5753.81V770.663H5753.85Z" fill="white"/>
</mask>
<g mask="url(#mask0_2601_4353)">
<path opacity="0.5" d="M1489.16 736.792V613.887H1427.79V469.659H1396.52V306.833H1365.83V238.126H1335.14V306.833V346.304H1225.73V826L1558.73 825.993V736.792H1489.16Z" fill="#734DFF"/>
</g>
</g>
<defs>
<linearGradient id="paint0_linear_2601_4353" x1="768.5" y1="839.252" x2="768.5" y2="692.422" gradientUnits="userSpaceOnUse">
<stop stop-color="#BBFF00" stop-opacity="0"/>
<stop offset="0.48" stop-color="#BBFF00" stop-opacity="0.23"/>
<stop offset="1" stop-color="#BBFF00" stop-opacity="0.5"/>
</linearGradient>
<clipPath id="clip0_2601_4353">
<rect width="1280" height="720" fill="white"/>
</clipPath>
</defs>
</svg>
