<svg width="1280" height="300" viewBox="0 0 1280 300" fill="none" xmlns="http://www.w3.org/2000/svg">
<g clip-path="url(#clip0_2600_4218)">
<rect width="1280" height="300" fill="black"/>
<g clip-path="url(#clip1_2600_4218)" filter="url(#filter0_f_2600_4218)">
<rect width="1490" height="1490" transform="translate(-32 -663)" fill="url(#paint0_linear_2600_4218)"/>
<g filter="url(#filter1_f_2600_4218)">
<ellipse cx="777.487" cy="1056.42" rx="696.175" ry="506.331" transform="rotate(57.1269 777.487 1056.42)" fill="#087CFA"/>
</g>
<g filter="url(#filter2_f_2600_4218)">
<ellipse cx="1119.96" cy="254.058" rx="595.206" ry="539.886" transform="rotate(43.7455 1119.96 254.058)" fill="#07C3F2"/>
</g>
<g filter="url(#filter3_f_2600_4218)">
<ellipse cx="1367.45" cy="-512.684" rx="953.573" ry="864.945" transform="rotate(43.7455 1367.45 -512.684)" fill="#FCF84A"/>
</g>
<g filter="url(#filter4_f_2600_4218)">
<ellipse cx="392.322" cy="-390.366" rx="696.175" ry="506.331" transform="rotate(32.7264 392.322 -390.366)" fill="#087CFA"/>
</g>
</g>
<path fill-rule="evenodd" clip-rule="evenodd" d="M1119.72 54C1096.35 54 1075.23 57.9218 1059.44 64.6236C1051.54 67.9745 1044.97 71.9773 1040.1 76.8799C1035.23 81.7825 1032 87.8652 1032 94.4755V205.554C1032 207.62 1032.32 209.63 1032.9 211.567C1032.91 211.578 1032.91 211.588 1032.92 211.601C1032.92 211.609 1032.93 211.615 1032.93 211.622C1036.14 222.669 1047.25 230.646 1061.78 236.366C1061.96 236.441 1062.16 236.514 1062.35 236.587C1062.44 236.623 1062.53 236.662 1062.62 236.698C1063.48 237.026 1064.35 237.346 1065.23 237.658C1065.58 237.782 1065.94 237.899 1066.3 238.022C1067.1 238.298 1067.92 238.564 1068.75 238.827C1068.95 238.891 1069.15 238.961 1069.35 239.025C1070.02 239.235 1070.69 239.432 1071.37 239.632C1072.09 239.841 1072.81 240.05 1073.53 240.25C1074 240.378 1074.47 240.501 1074.94 240.625C1075.48 240.768 1076.02 240.907 1076.57 241.044C1077.24 241.213 1077.92 241.38 1078.61 241.541C1079.05 241.643 1079.49 241.75 1079.93 241.85C1080.68 242.016 1081.43 242.177 1082.18 242.335C1082.73 242.448 1083.28 242.557 1083.83 242.666C1084.38 242.775 1084.94 242.882 1085.49 242.986C1086.23 243.123 1086.97 243.255 1087.72 243.383C1088.2 243.464 1088.68 243.537 1089.16 243.615C1089.87 243.73 1090.58 243.849 1091.31 243.957C1091.87 244.04 1092.44 244.121 1093.01 244.199C1093.79 244.308 1094.57 244.42 1095.37 244.519C1095.79 244.573 1096.22 244.613 1096.65 244.662C1097.54 244.769 1098.44 244.878 1099.35 244.971C1099.7 245.008 1100.05 245.037 1100.4 245.072C1101.3 245.159 1102.21 245.249 1103.13 245.325C1103.7 245.372 1104.27 245.415 1104.83 245.458C1105.7 245.522 1106.58 245.582 1107.46 245.635C1107.56 245.641 1107.67 245.64 1107.78 245.646C1110.28 245.794 1112.81 245.902 1115.38 245.955C1116.82 245.985 1118.26 246 1119.72 246C1121.19 246 1122.64 245.986 1124.08 245.955C1124.99 245.937 1125.89 245.898 1126.78 245.868C1127.18 245.854 1127.57 245.85 1127.97 245.833C1129.32 245.78 1130.67 245.716 1132 245.635C1132.02 245.634 1132.04 245.636 1132.06 245.635C1132.92 245.584 1133.78 245.522 1134.63 245.458C1135.2 245.415 1135.77 245.372 1136.33 245.325C1139.83 245.036 1143.25 244.656 1146.59 244.189C1147.08 244.121 1147.57 244.042 1148.06 243.969C1148.83 243.853 1149.6 243.729 1150.36 243.605C1150.82 243.53 1151.28 243.462 1151.74 243.384C1152.49 243.256 1153.23 243.124 1153.97 242.987C1154.53 242.882 1155.08 242.776 1155.63 242.667C1156.19 242.558 1156.73 242.45 1157.28 242.336C1158.03 242.178 1158.78 242.018 1159.53 241.851C1159.97 241.75 1160.41 241.646 1160.85 241.542C1161.54 241.382 1162.22 241.214 1162.89 241.045C1163.44 240.909 1163.99 240.769 1164.53 240.626C1165 240.502 1165.46 240.379 1165.93 240.251C1166.66 240.05 1167.38 239.843 1168.09 239.633C1169.83 239.123 1171.51 238.588 1173.16 238.023C1173.52 237.901 1173.88 237.783 1174.23 237.659C1175.41 237.243 1176.56 236.811 1177.69 236.368C1193.19 230.262 1204.85 221.589 1207.12 209.351H1207.1C1207.33 208.109 1207.46 206.846 1207.46 205.556V94.477C1207.46 93.4233 1207.36 92.3905 1207.21 91.3661C1207.18 90.8712 1207.09 90.3816 1206.94 89.91C1205.86 85.0729 1203.13 80.6277 1199.41 76.8799C1194.54 71.9773 1187.92 67.9745 1180.02 64.6236C1164.23 57.9218 1143.1 54 1119.72 54ZM1119.72 65.2965C1141.82 65.2965 1161.72 69.1134 1175.6 75.0045C1182.54 77.95 1187.95 81.4066 1191.36 84.8448C1193.73 87.2209 1195.11 89.4687 1195.74 91.6293C1194.05 97.2099 1186.54 104.045 1173.56 109.159C1159.8 114.577 1140.74 118.039 1119.72 118.039C1098.71 118.039 1079.7 114.577 1065.94 109.159C1052.96 104.045 1045.42 97.21 1043.72 91.6293C1044.35 89.4687 1045.74 87.2209 1048.1 84.8448C1051.51 81.4066 1056.92 77.95 1063.86 75.0045C1077.74 69.1134 1097.63 65.2965 1119.72 65.2965ZM1043.31 109.468C1048.28 113.477 1054.61 116.838 1061.77 119.661C1077.28 125.767 1097.49 129.336 1119.72 129.336C1141.96 129.336 1162.18 125.767 1177.69 119.661C1184.84 116.843 1191.18 113.491 1196.15 109.49V128.972C1196.09 129.146 1196.03 129.322 1195.99 129.501C1194.92 135.245 1187.32 142.639 1173.56 148.057C1159.8 153.475 1140.74 156.937 1119.72 156.937C1098.71 156.937 1079.7 153.475 1065.94 148.057C1052.19 142.639 1044.54 135.245 1043.47 129.501C1043.43 129.322 1043.37 129.145 1043.31 128.972L1043.31 109.468ZM1059.19 126.004C1057.7 126.01 1056.28 126.605 1055.22 127.659C1054.17 128.712 1053.57 130.14 1053.57 131.63C1053.56 132.372 1053.71 133.107 1053.99 133.794C1054.27 134.48 1054.68 135.104 1055.21 135.631C1055.73 136.157 1056.35 136.576 1057.03 136.862C1057.72 137.149 1058.45 137.298 1059.19 137.301C1059.94 137.304 1060.68 137.159 1061.37 136.875C1062.06 136.591 1062.68 136.174 1063.21 135.647C1063.74 135.119 1064.15 134.493 1064.44 133.804C1064.72 133.115 1064.87 132.376 1064.86 131.63C1064.86 130.889 1064.71 130.155 1064.43 129.471C1064.14 128.787 1063.72 128.165 1063.19 127.643C1062.67 127.121 1062.04 126.707 1061.36 126.426C1060.67 126.145 1059.94 126.001 1059.19 126.004ZM1043.31 148.366C1048.28 152.375 1054.61 155.747 1061.77 158.57C1077.28 164.676 1097.49 168.234 1119.72 168.234C1141.96 168.234 1162.18 164.676 1177.69 158.57C1184.84 155.752 1191.18 152.389 1196.15 148.388V167.197C1195.98 167.586 1195.86 167.993 1195.78 168.41C1194.71 174.154 1187.06 181.537 1173.31 186.955C1159.55 192.373 1140.54 195.835 1119.53 195.835C1099.06 195.835 1080.48 192.553 1066.82 187.374C1053.15 182.195 1045.06 174.99 1043.47 169.326C1043.42 169.188 1043.37 169.052 1043.31 168.918L1043.31 148.366ZM1059.19 164.428C1057.7 164.434 1056.28 165.028 1055.22 166.082C1054.17 167.136 1053.57 168.564 1053.57 170.054C1053.56 170.796 1053.71 171.531 1053.99 172.217C1054.27 172.904 1054.68 173.528 1055.21 174.055C1055.73 174.581 1056.35 175 1057.03 175.286C1057.72 175.573 1058.45 175.722 1059.19 175.724C1059.94 175.727 1060.68 175.583 1061.37 175.299C1062.06 175.015 1062.68 174.597 1063.21 174.07C1063.74 173.543 1064.15 172.917 1064.44 172.228C1064.72 171.538 1064.87 170.8 1064.86 170.054C1064.86 169.312 1064.71 168.578 1064.43 167.894C1064.14 167.21 1063.72 166.589 1063.19 166.067C1062.67 165.544 1062.04 165.131 1061.36 164.849C1060.67 164.568 1059.94 164.425 1059.19 164.428ZM1196.15 187.098V205.554C1196.15 206.135 1196.1 206.72 1196 207.308C1195.03 212.513 1188.69 219.032 1177.27 224.242C1176.71 224.491 1176.17 224.739 1175.6 224.981C1175.51 225.022 1175.41 225.052 1175.31 225.092C1174.53 225.42 1173.75 225.749 1172.93 226.063C1172.58 226.2 1172.21 226.326 1171.85 226.46C1171.46 226.605 1171.07 226.759 1170.67 226.901C1170.15 227.087 1169.61 227.262 1169.08 227.442C1168.45 227.655 1167.83 227.866 1167.18 228.071C1166.92 228.152 1166.66 228.222 1166.4 228.302C1165.87 228.467 1165.34 228.64 1164.8 228.799C1164.28 228.95 1163.75 229.093 1163.22 229.24C1162.65 229.398 1162.07 229.562 1161.49 229.714C1160.97 229.851 1160.44 229.979 1159.9 230.111C1159.52 230.205 1159.14 230.306 1158.75 230.398C1158.07 230.561 1157.38 230.718 1156.69 230.873C1156.18 230.986 1155.66 231.094 1155.15 231.204C1154.58 231.323 1154.02 231.443 1153.45 231.557C1152.89 231.668 1152.33 231.771 1151.77 231.877C1151.21 231.981 1150.64 232.086 1150.07 232.186C1149.58 232.273 1149.07 232.356 1148.57 232.439C1146.59 232.766 1144.58 233.06 1142.53 233.322C1142.25 233.358 1141.97 233.388 1141.69 233.422C1140.85 233.524 1140.01 233.629 1139.16 233.72C1138.75 233.765 1138.32 233.799 1137.9 233.842C1135.74 234.057 1133.55 234.243 1131.32 234.382C1131.22 234.388 1131.12 234.387 1131.02 234.393C1128.6 234.541 1126.14 234.65 1123.65 234.702C1122.35 234.73 1121.04 234.747 1119.72 234.747C1118.41 234.747 1117.11 234.73 1115.82 234.702C1113.22 234.649 1110.66 234.54 1108.14 234.382C1108.12 234.381 1108.11 234.383 1108.1 234.382C1104.34 234.147 1100.69 233.792 1097.14 233.345C1097.13 233.344 1097.11 233.347 1097.1 233.345C1085.19 231.84 1074.54 229.205 1065.94 225.82C1052.18 220.402 1044.54 213.052 1043.47 207.309C1043.36 206.72 1043.31 206.136 1043.31 205.554V187.429C1048.52 191.592 1055.2 195.038 1062.81 197.92C1078.14 203.732 1097.87 207.143 1119.52 207.143C1141.76 207.143 1161.97 203.574 1177.47 197.468C1184.74 194.606 1191.15 191.182 1196.15 187.098ZM1059.19 204.848C1057.7 204.854 1056.28 205.449 1055.22 206.503C1054.17 207.556 1053.57 208.984 1053.57 210.475C1053.56 211.216 1053.71 211.951 1053.99 212.638C1054.27 213.324 1054.68 213.948 1055.21 214.475C1055.73 215.001 1056.35 215.42 1057.03 215.706C1057.72 215.993 1058.45 216.142 1059.19 216.145C1059.94 216.148 1060.68 216.003 1061.37 215.719C1062.06 215.435 1062.68 215.018 1063.21 214.491C1063.74 213.963 1064.15 213.337 1064.44 212.648C1064.72 211.959 1064.87 211.22 1064.86 210.475C1064.86 209.733 1064.71 208.999 1064.43 208.315C1064.14 207.631 1063.72 207.009 1063.19 206.487C1062.67 205.965 1062.04 205.551 1061.36 205.27C1060.67 204.989 1059.94 204.845 1059.19 204.848Z" fill="white"/>
</g>
<defs>
<filter id="filter0_f_2600_4218" x="-36" y="-667" width="1498" height="1498" filterUnits="userSpaceOnUse" color-interpolation-filters="sRGB">
<feFlood flood-opacity="0" result="BackgroundImageFix"/>
<feBlend mode="normal" in="SourceGraphic" in2="BackgroundImageFix" result="shape"/>
<feGaussianBlur stdDeviation="2" result="effect1_foregroundBlur_2600_4218"/>
</filter>
<filter id="filter1_f_2600_4218" x="-291.401" y="-89.7971" width="2137.78" height="2292.44" filterUnits="userSpaceOnUse" color-interpolation-filters="sRGB">
<feFlood flood-opacity="0" result="BackgroundImageFix"/>
<feBlend mode="normal" in="SourceGraphic" in2="BackgroundImageFix" result="shape"/>
<feGaussianBlur stdDeviation="250" result="effect1_foregroundBlur_2600_4218"/>
</filter>
<filter id="filter2_f_2600_4218" x="50.5188" y="-812.953" width="2138.87" height="2134.02" filterUnits="userSpaceOnUse" color-interpolation-filters="sRGB">
<feFlood flood-opacity="0" result="BackgroundImageFix"/>
<feBlend mode="normal" in="SourceGraphic" in2="BackgroundImageFix" result="shape"/>
<feGaussianBlur stdDeviation="250" result="effect1_foregroundBlur_2600_4218"/>
</filter>
<filter id="filter3_f_2600_4218" x="-44.8419" y="-1921.08" width="2824.58" height="2816.8" filterUnits="userSpaceOnUse" color-interpolation-filters="sRGB">
<feFlood flood-opacity="0" result="BackgroundImageFix"/>
<feBlend mode="normal" in="SourceGraphic" in2="BackgroundImageFix" result="shape"/>
<feGaussianBlur stdDeviation="250" result="effect1_foregroundBlur_2600_4218"/>
</filter>
<filter id="filter4_f_2600_4218" x="-754.311" y="-1458.79" width="2293.27" height="2136.84" filterUnits="userSpaceOnUse" color-interpolation-filters="sRGB">
<feFlood flood-opacity="0" result="BackgroundImageFix"/>
<feBlend mode="normal" in="SourceGraphic" in2="BackgroundImageFix" result="shape"/>
<feGaussianBlur stdDeviation="250" result="effect1_foregroundBlur_2600_4218"/>
</filter>
<linearGradient id="paint0_linear_2600_4218" x1="1525.02" y1="-44.6999" x2="4.57376e-05" y2="1490" gradientUnits="userSpaceOnUse">
<stop stop-color="#087CFA"/>
<stop offset="1" stop-color="#000A14"/>
</linearGradient>
<clipPath id="clip0_2600_4218">
<rect width="1280" height="300" fill="white"/>
</clipPath>
<clipPath id="clip1_2600_4218">
<rect width="1490" height="1490" fill="white" transform="translate(-32 -663)"/>
</clipPath>
</defs>
</svg>
