<svg width="1280" height="300" viewBox="0 0 1280 300" fill="none" xmlns="http://www.w3.org/2000/svg">
<g clip-path="url(#clip0_6548_63)">
<rect width="1280" height="300" fill="black"/>
<path d="M1176.56 -133.651L551.881 -207.071C446.674 -219.436 351.363 -144.173 338.998 -38.9658L265.578 585.714C253.213 690.921 328.476 786.232 433.683 798.598L1058.36 872.018C1163.57 884.383 1258.88 809.119 1271.25 703.912L1344.67 79.2323C1357.03 -25.9748 1281.77 -121.286 1176.56 -133.651Z" fill="url(#paint0_linear_6548_63)"/>
<path d="M1084.04 -26.3297L599.645 -259.489C518.066 -298.757 420.1 -264.456 380.832 -182.876L147.672 301.522C108.405 383.102 142.706 481.068 224.285 520.335L708.683 753.495C790.263 792.762 888.229 758.461 927.496 676.882L1160.66 192.483C1199.92 110.904 1165.62 12.9377 1084.04 -26.3297Z" fill="url(#paint1_linear_6548_63)"/>
<path d="M979.406 34.6542L652.829 -288.559C597.827 -342.994 509.112 -342.534 454.677 -287.533L131.464 39.0448C77.0294 94.0462 77.4888 182.762 132.49 237.196L459.068 560.409C514.069 614.844 602.785 614.385 657.219 559.383L980.432 232.806C1034.87 177.804 1034.41 89.089 979.406 34.6542Z" fill="url(#paint2_linear_6548_63)"/>
<path d="M877.88 54.824L703.896 -297.258C674.596 -356.552 602.776 -380.866 543.482 -351.565L191.399 -177.581C132.106 -148.28 107.791 -76.4605 137.092 -17.1667L311.076 334.915C340.377 394.209 412.196 418.523 471.49 389.223L823.573 215.238C882.866 185.938 907.181 114.118 877.88 54.824Z" fill="url(#paint3_linear_6548_63)"/>
<path d="M790.22 42.8649L747.59 -290.064C740.41 -346.138 689.133 -385.774 633.059 -378.594L300.131 -335.964C244.057 -328.785 204.421 -277.507 211.601 -221.434L254.23 111.495C261.41 167.569 312.687 207.205 368.761 200.025L701.69 157.396C757.763 150.216 797.4 98.9385 790.22 42.8649Z" fill="url(#paint4_linear_6548_63)"/>
<path d="M722.707 8.81448L780.9 -272.109C790.701 -319.42 760.292 -365.718 712.981 -375.519L432.058 -433.712C384.747 -443.513 338.448 -413.104 328.648 -365.793L270.454 -84.8699C260.654 -37.5589 291.063 8.73874 338.374 18.5392L619.297 76.7327C666.608 86.5332 712.906 56.1255 722.707 8.81448Z" fill="url(#paint5_linear_6548_63)"/>
<path d="M677.616 -37.4885L802.815 -248.32C823.9 -283.827 812.209 -329.703 776.702 -350.789L565.871 -475.988C530.364 -497.073 484.487 -485.382 463.402 -449.875L338.203 -239.044C317.118 -203.537 328.809 -157.66 364.315 -136.575L575.147 -11.3757C610.654 9.70946 656.531 -1.98171 677.616 -37.4885Z" fill="url(#paint6_linear_6548_63)"/>
</g>
<defs>
<linearGradient id="paint0_linear_6548_63" x1="858.594" y1="-170.853" x2="740.407" y2="834.726" gradientUnits="userSpaceOnUse">
<stop stop-color="#D31AC2"/>
<stop offset="0.703125" stop-color="#E90046" stop-opacity="0.9"/>
<stop offset="1" stop-color="#FF4D00" stop-opacity="0.7"/>
</linearGradient>
<linearGradient id="paint1_linear_6548_63" x1="837.434" y1="-144.873" x2="462.107" y2="634.882" gradientUnits="userSpaceOnUse">
<stop stop-color="#D31AC2"/>
<stop offset="0.703125" stop-color="#E90046" stop-opacity="0.9"/>
<stop offset="1" stop-color="#FF4D00" stop-opacity="0.7"/>
</linearGradient>
<linearGradient id="paint2_linear_6548_63" x1="813.1" y1="-129.766" x2="292.807" y2="395.943" gradientUnits="userSpaceOnUse">
<stop stop-color="#D31AC2"/>
<stop offset="0.703125" stop-color="#E90046" stop-opacity="0.9"/>
<stop offset="1" stop-color="#FF4D00" stop-opacity="0.7"/>
</linearGradient>
<linearGradient id="paint3_linear_6548_63" x1="789.232" y1="-124.33" x2="222.479" y2="155.736" gradientUnits="userSpaceOnUse">
<stop stop-color="#D31AC2"/>
<stop offset="0.703125" stop-color="#E90046" stop-opacity="0.9"/>
<stop offset="1" stop-color="#FF4D00" stop-opacity="0.7"/>
</linearGradient>
<linearGradient id="paint4_linear_6548_63" x1="768.433" y1="-126.576" x2="232.491" y2="-57.9523" gradientUnits="userSpaceOnUse">
<stop stop-color="#D31AC2"/>
<stop offset="0.703125" stop-color="#E90046" stop-opacity="0.9"/>
<stop offset="1" stop-color="#FF4D00" stop-opacity="0.7"/>
</linearGradient>
<linearGradient id="paint5_linear_6548_63" x1="752.251" y1="-134.185" x2="300.039" y2="-227.861" gradientUnits="userSpaceOnUse">
<stop stop-color="#D31AC2"/>
<stop offset="0.703125" stop-color="#E90046" stop-opacity="0.9"/>
<stop offset="1" stop-color="#FF4D00" stop-opacity="0.7"/>
</linearGradient>
<linearGradient id="paint6_linear_6548_63" x1="741.283" y1="-144.83" x2="401.9" y2="-346.367" gradientUnits="userSpaceOnUse">
<stop stop-color="#D31AC2"/>
<stop offset="0.703125" stop-color="#E90046" stop-opacity="0.9"/>
<stop offset="1" stop-color="#FF4D00" stop-opacity="0.7"/>
</linearGradient>
<clipPath id="clip0_6548_63">
<rect width="1280" height="300" fill="white"/>
</clipPath>
</defs>
</svg>
