<svg width="1280" height="300" viewBox="0 0 1280 300" fill="none" xmlns="http://www.w3.org/2000/svg">
<g clip-path="url(#clip0_2602_6055)">
<rect width="1280" height="300" fill="black"/>
<path d="M-10 300L1280 300V-29L-10 -29V300Z" fill="url(#paint0_linear_2602_6055)"/>
<path opacity="0.2" d="M351.306 -148.054V-204.699H193V-46.3935H235.783V2.10765H394.089V-148.054H351.306Z" fill="#734DFF"/>
<path d="M385.837 599.517L373.89 220.784L641.3 489.249L674.685 453.834L392.964 204.503L768.99 216.299L768.985 167.625L390.252 179.573L658.718 -87.8377L623.302 -121.222L373.97 160.502L385.766 -215.524L337.093 -215.522L349.039 163.215L81.6304 -105.255L48.246 -69.8397L329.971 179.493L-46.0555 167.697L-46.0541 216.369L332.683 204.423L64.2131 471.832L99.6284 505.216L348.96 223.496L337.168 599.523L385.837 599.517Z" fill="url(#paint1_radial_2602_6055)"/>
<path opacity="0.5" d="M605.867 518.771L387.665 209.198L758.484 286.274L766.882 238.353L394.635 185.121L715.002 -11.7747L688.238 -52.4008L378.665 165.802L455.74 -205.017L407.82 -213.416L354.588 158.832L157.692 -161.535L117.066 -134.772L335.269 174.802L-35.5519 97.7301L-43.9487 145.647L328.299 198.879L7.9318 395.774L34.6951 436.4L344.268 218.198L267.197 589.018L315.114 597.415L368.346 225.168L565.241 545.535L605.867 518.771Z" fill="url(#paint2_linear_2602_6055)"/>
<path d="M684.491 29.538L688.275 30.5549C689.242 30.8149 689.242 32.1851 688.275 32.4451L684.491 33.462C682.527 33.9899 680.994 35.5269 680.462 37.4909L679.445 41.2752C679.185 42.2416 677.815 42.2416 677.555 41.2752L676.538 37.4909C676.01 35.5269 674.473 33.9938 672.509 33.462L668.725 32.4451C667.758 32.1851 667.758 30.8149 668.725 30.5549L672.509 29.538C674.473 29.0101 676.006 27.4731 676.538 25.5091L677.555 21.7248C677.815 20.7584 679.185 20.7584 679.445 21.7248L680.462 25.5091C680.99 27.4731 682.527 29.0062 684.491 29.538Z" fill="#BBFF00"/>
<path d="M1234.49 218.538L1238.28 219.555C1239.24 219.815 1239.24 221.185 1238.28 221.445L1234.49 222.462C1232.53 222.99 1230.99 224.527 1230.46 226.491L1229.45 230.275C1229.19 231.242 1227.81 231.242 1227.55 230.275L1226.54 226.491C1226.01 224.527 1224.47 222.994 1222.51 222.462L1218.72 221.445C1217.76 221.185 1217.76 219.815 1218.72 219.555L1222.51 218.538C1224.47 218.01 1226.01 216.473 1226.54 214.509L1227.55 210.725C1227.81 209.758 1229.19 209.758 1229.45 210.725L1230.46 214.509C1230.99 216.473 1232.53 218.006 1234.49 218.538Z" fill="#BBFF00"/>
<path d="M948.491 148.538L952.275 149.555C953.242 149.815 953.242 151.185 952.275 151.445L948.491 152.462C946.527 152.99 944.994 154.527 944.462 156.491L943.445 160.275C943.185 161.242 941.815 161.242 941.555 160.275L940.538 156.491C940.01 154.527 938.473 152.994 936.509 152.462L932.725 151.445C931.758 151.185 931.758 149.815 932.725 149.555L936.509 148.538C938.473 148.01 940.006 146.473 940.538 144.509L941.555 140.725C941.815 139.758 943.185 139.758 943.445 140.725L944.462 144.509C944.99 146.473 946.527 148.006 948.491 148.538Z" fill="#BBFF00"/>
<path d="M875.425 74.878L877.587 75.4605C878.138 75.6091 878.138 76.3909 877.587 76.5395L875.425 77.122C874.303 77.423 873.427 78.2987 873.122 79.4247L872.539 81.5866C872.391 82.1378 871.609 82.1378 871.46 81.5866L870.878 79.4247C870.577 78.3027 869.701 77.4269 868.575 77.122L866.413 76.5395C865.862 76.3909 865.862 75.6091 866.413 75.4605L868.575 74.878C869.697 74.577 870.573 73.7013 870.878 72.5753L871.46 70.4134C871.609 69.8622 872.391 69.8622 872.539 70.4134L873.122 72.5753C873.423 73.6973 874.299 74.5731 875.425 74.878Z" fill="#BBFF00"/>
<path d="M715.425 223.878L717.587 224.461C718.138 224.609 718.138 225.391 717.587 225.54L715.425 226.122C714.303 226.423 713.427 227.299 713.122 228.425L712.54 230.587C712.391 231.138 711.609 231.138 711.461 230.587L710.878 228.425C710.577 227.303 709.701 226.427 708.575 226.122L706.413 225.54C705.862 225.391 705.862 224.609 706.413 224.461L708.575 223.878C709.697 223.577 710.573 222.701 710.878 221.575L711.461 219.413C711.609 218.862 712.391 218.862 712.54 219.413L713.122 221.575C713.423 222.697 714.299 223.573 715.425 223.878Z" fill="#BBFF00"/>
<path d="M1179.42 80.878L1181.59 81.4605C1182.14 81.6091 1182.14 82.391 1181.59 82.5395L1179.42 83.122C1178.3 83.423 1177.43 84.2987 1177.12 85.4247L1176.54 87.5866C1176.39 88.1378 1175.61 88.1378 1175.46 87.5866L1174.88 85.4247C1174.58 84.3026 1173.7 83.427 1172.58 83.122L1170.41 82.5395C1169.86 82.391 1169.86 81.6091 1170.41 81.4605L1172.58 80.878C1173.7 80.577 1174.57 79.7013 1174.88 78.5753L1175.46 76.4134C1175.61 75.8622 1176.39 75.8622 1176.54 76.4134L1177.12 78.5753C1177.42 79.6974 1178.3 80.5731 1179.42 80.878Z" fill="#BBFF00"/>
<path d="M772.581 127.846L718.446 276.246H741.422L768.921 216.78C772.352 209.361 772.358 200.812 768.941 193.387L796.228 122.923L772.581 127.846Z" fill="#4F2A91"/>
<path d="M806.265 127.846L860.4 276.246H837.425L809.926 216.78C806.494 209.361 806.488 200.813 809.905 193.388L782.618 122.923L806.265 127.846Z" fill="#4F2A91"/>
<mask id="mask0_2602_6055" style="mask-type:luminance" maskUnits="userSpaceOnUse" x="782" y="122" width="79" height="155">
<path d="M806.266 127.848L860.4 276.248H837.425L809.926 216.782C806.494 209.363 806.488 200.814 809.906 193.389L782.618 122.925L806.266 127.848Z" fill="white"/>
</mask>
<g mask="url(#mask0_2602_6055)">
<path d="M819.033 194.28L811.6 200.932L821.573 201.146C825.349 201.227 828.922 202.872 831.442 205.687L838.094 213.121L838.308 203.147C838.389 199.371 840.034 195.798 842.849 193.278L850.282 186.627L840.309 186.412C836.533 186.331 832.959 184.686 830.44 181.872L823.788 174.438L823.574 184.411C823.493 188.187 821.848 191.761 819.033 194.28Z" fill="#734DFF"/>
</g>
<mask id="mask1_2602_6055" style="mask-type:luminance" maskUnits="userSpaceOnUse" x="718" y="122" width="79" height="155">
<path d="M772.581 127.847L718.446 276.247H741.422L768.921 216.781C772.352 209.362 772.358 200.814 768.941 193.389L796.228 122.924L772.581 127.847Z" fill="white"/>
</mask>
<g mask="url(#mask1_2602_6055)">
<path d="M760.135 194.28L767.568 200.931L757.595 201.146C753.819 201.227 750.246 202.872 747.726 205.686L741.074 213.12L740.86 203.147C740.779 199.371 739.134 195.797 736.319 193.278L728.886 186.626L738.859 186.412C742.635 186.331 746.209 184.686 748.728 181.871L755.38 174.438L755.594 184.411C755.675 188.187 757.32 191.76 760.135 194.28Z" fill="#734DFF"/>
</g>
<path d="M689.476 294.182C689.476 287.03 694.029 280.67 700.799 278.368C709.191 275.513 719.199 272.055 719.318 271.757L724.267 260.278L744.321 269.976L738.37 292.387C738.054 293.166 737.298 293.675 736.458 293.675L689.476 294.185V294.182Z" fill="#734DFF"/>
<path d="M889.28 294.182C889.28 287.03 884.728 280.67 877.958 278.368C869.565 275.513 859.557 272.055 859.439 271.757L854.49 260.278L834.439 269.791L840.387 292.384C840.703 293.163 841.458 293.673 842.298 293.673L889.28 294.182Z" fill="#734DFF"/>
<path d="M779.879 30.7909C778.448 32.1925 777.368 33.8171 776.641 35.5546L768.918 53.1062L811.255 53.39L803.459 35.653C802.773 34.0314 801.702 32.3431 800.393 31.0081C794.789 25.283 785.604 25.1846 779.879 30.7909Z" fill="#734DFF"/>
<path d="M800.726 47.7653H779.444C777.854 47.7653 776.766 46.1581 777.356 44.6812L779.899 38.3306C780.241 37.4764 781.066 36.9175 781.987 36.9175H798.012C798.913 36.9175 799.727 37.4532 800.08 38.2814L802.793 44.632C803.427 46.1146 802.339 47.7624 800.726 47.7624V47.7653Z" fill="white"/>
<path d="M787.825 41.3515L787.859 43.3409C787.868 43.8448 787.468 44.2618 786.962 44.2705C786.458 44.2792 786.041 43.8796 786.032 43.3757L785.997 41.3862C785.989 40.8824 786.388 40.4654 786.895 40.4567C787.399 40.448 787.816 40.8476 787.825 41.3515Z" fill="black"/>
<path d="M794.135 41.1977L794.169 43.1871C794.178 43.691 793.779 44.108 793.272 44.1167C792.768 44.1254 792.351 43.7257 792.342 43.2219L792.305 41.2324C792.296 40.7286 792.698 40.3116 793.202 40.3029C793.706 40.2942 794.123 40.6938 794.132 41.1977H794.135Z" fill="black"/>
<path d="M805.848 127.249H772.549L747.677 81.5147C740.269 67.8956 752.829 52.7012 771.489 52.7012H808.672C827.622 52.7012 840.179 68.3271 832.212 81.9983L805.846 127.249H805.848Z" fill="#4F2A91"/>
<path d="M805.848 127.845H772.552L766.477 116.08H812.28L805.848 127.845Z" fill="#734DFF"/>
<path d="M885.24 66.5003L869.316 37.7505L845.064 50.0954L856.019 80.1658C856.019 80.1658 851.42 74.0179 847.519 67.5949C841.878 58.308 831.737 52.7017 820.872 52.7017H811.24L811.86 81.9843C811.86 81.9843 814.565 95.8119 835.166 107.537C876.197 130.895 902.384 94.0976 885.243 66.5003H885.24Z" fill="#4F2A91"/>
<path d="M847.844 33.5868L842.576 36.2683C839.371 37.9016 835.447 36.6332 833.802 33.4304L831.086 28.1368C829.47 24.9919 830.718 21.1347 833.868 19.5304L844.844 13.9443" fill="white"/>
<path d="M843.714 35.6893L838.447 38.3709C835.241 40.0041 831.317 38.7357 829.672 35.5329L826.956 30.2394C825.34 27.0945 826.588 23.2372 829.739 21.6329L840.714 16.0469" fill="white"/>
<path d="M839.585 37.7914L834.317 40.4729C831.112 42.1062 827.188 40.8378 825.543 37.635L822.827 32.3414C821.211 29.1965 822.459 25.3393 825.609 23.735L836.585 18.1489" fill="white"/>
<path d="M824.014 43.7459C825.201 46.0481 828.022 46.9661 830.333 45.7962L834.789 43.5577C837.112 42.3849 838.047 39.5499 836.874 37.2216C836.289 36.0604 835.285 35.2467 834.138 34.8702C832.991 34.4909 831.699 34.5517 830.541 35.1366L826.082 37.378C823.745 38.5595 822.818 41.4177 824.017 43.7459H824.014Z" fill="white"/>
<path d="M833.448 44.2286C833.448 44.2286 837.303 47.2779 842.73 45.219L845.266 50.2027L870.124 39.5229L858.463 16.614C856.317 12.4005 851.165 10.7238 846.952 12.8696L838.563 17.141C835.412 18.7453 834.164 22.6025 835.78 25.7474L838.496 31.041C840.141 34.2409 844.062 35.5122 847.27 33.8789L852.538 31.1974C853.696 30.6066 854.51 29.6018 854.881 28.4521C855.254 27.3054 855.193 26.0138 854.603 24.8555C853.421 22.533 850.58 21.6122 848.261 22.7908L845.605 24.1431" fill="white"/>
<path d="M844.183 21.4946L847.351 27.7178" stroke="#734DFF" stroke-width="0.321437" stroke-linecap="round" stroke-linejoin="round"/>
<path d="M847.844 33.5868L842.576 36.2683C839.371 37.9016 835.447 36.6332 833.802 33.4304L831.086 28.1368C829.47 24.9919 830.718 21.1347 833.868 19.5304L844.844 13.9443" stroke="#734DFF" stroke-width="0.321437" stroke-linecap="round" stroke-linejoin="round"/>
<path d="M843.714 35.6893L838.447 38.3709C835.241 40.0041 831.317 38.7357 829.672 35.5329L826.956 30.2394C825.34 27.0945 826.588 23.2372 829.739 21.6329L840.714 16.0469" stroke="#734DFF" stroke-width="0.321437" stroke-linecap="round" stroke-linejoin="round"/>
<path d="M839.585 37.7914L834.317 40.4729C831.112 42.1062 827.188 40.8378 825.543 37.635L822.827 32.3414C821.211 29.1965 822.459 25.3393 825.609 23.735L836.585 18.1489" stroke="#734DFF" stroke-width="0.321437" stroke-linecap="round" stroke-linejoin="round"/>
<path d="M824.014 43.7459C825.201 46.0481 828.022 46.9661 830.333 45.7962L834.789 43.5577C837.112 42.3849 838.047 39.5499 836.874 37.2216C836.289 36.0604 835.285 35.2467 834.138 34.8702C832.991 34.4909 831.699 34.5517 830.541 35.1366L826.082 37.378C823.745 38.5595 822.818 41.4177 824.017 43.7459H824.014Z" fill="white" stroke="#734DFF" stroke-width="0.321437" stroke-linecap="round" stroke-linejoin="round"/>
<path d="M833.448 44.2286C833.448 44.2286 837.303 47.2779 842.73 45.219L845.266 50.2027L870.124 39.5229L858.463 16.614C856.317 12.4005 851.165 10.7238 846.952 12.8696L838.563 17.141C835.412 18.7453 834.164 22.6025 835.78 25.7474L838.496 31.041C840.141 34.2409 844.062 35.5122 847.27 33.8789L852.538 31.1974C853.696 30.6066 854.51 29.6018 854.881 28.4521C855.254 27.3054 855.193 26.0138 854.603 24.8555C853.421 22.533 850.58 21.6122 848.261 22.7908L845.605 24.1431" stroke="#734DFF" stroke-width="0.321437" stroke-linecap="round" stroke-linejoin="round"/>
<path d="M869.316 37.7466L876.648 50.9863L849.972 63.7077L845.064 50.0944L869.316 37.7466Z" fill="#734DFF"/>
<path d="M694.032 66.5003L709.956 37.7505L734.208 50.0954L723.253 80.1658C723.253 80.1658 727.852 74.0179 731.753 67.5949C737.394 58.308 747.535 52.7017 758.4 52.7017H768.032L767.412 81.9843C767.412 81.9843 764.707 95.8119 744.106 107.537C703.075 130.895 676.888 94.0976 694.029 66.5003H694.032Z" fill="#4F2A91"/>
<path d="M731.425 33.5868L736.693 36.2683C739.899 37.9016 743.822 36.6332 745.467 33.4304L748.184 28.1368C749.799 24.9919 748.551 21.1347 745.401 19.5304L734.425 13.9443" fill="white"/>
<path d="M735.558 35.6893L740.825 38.3709C744.031 40.0041 747.955 38.7357 749.6 35.5329L752.316 30.2394C753.932 27.0945 752.684 23.2372 749.533 21.6329L738.558 16.0469" fill="white"/>
<path d="M739.687 37.7914L744.955 40.4729C748.16 42.1062 752.084 40.8378 753.729 37.635L756.445 32.3414C758.061 29.1965 756.813 25.3393 753.663 23.735L742.687 18.1489" fill="white"/>
<path d="M755.258 43.7459C754.071 46.0481 751.25 46.9661 748.939 45.7962L744.483 43.5577C742.16 42.3849 741.225 39.5499 742.398 37.2216C742.983 36.0604 743.988 35.2467 745.134 34.8702C746.281 34.4909 747.573 34.5517 748.731 35.1366L753.191 37.378C755.527 38.5595 756.454 41.4177 755.255 43.7459H755.258Z" fill="white"/>
<path d="M745.821 44.2286C745.821 44.2286 741.966 47.2779 736.539 45.219L734.003 50.2027L709.145 39.5229L720.806 16.614C722.952 12.4005 728.104 10.7238 732.317 12.8696L740.707 17.141C743.857 18.7453 745.105 22.6025 743.489 25.7474L740.773 31.041C739.128 34.2409 735.207 35.5122 731.999 33.8789L726.731 31.1974C725.573 30.6066 724.759 29.6018 724.389 28.4521C724.015 27.3054 724.076 26.0138 724.667 24.8555C725.848 22.533 728.689 21.6122 731.008 22.7908L733.664 24.1431" fill="white"/>
<path d="M735.089 21.4946L731.921 27.7178" stroke="#734DFF" stroke-width="0.321437" stroke-linecap="round" stroke-linejoin="round"/>
<path d="M731.425 33.5868L736.693 36.2683C739.899 37.9016 743.823 36.6332 745.467 33.4304L748.184 28.1368C749.8 24.9919 748.551 21.1347 745.401 19.5304L734.426 13.9443" stroke="#734DFF" stroke-width="0.321437" stroke-linecap="round" stroke-linejoin="round"/>
<path d="M735.558 35.6893L740.825 38.3709C744.031 40.0041 747.955 38.7357 749.6 35.5329L752.316 30.2394C753.932 27.0945 752.684 23.2372 749.533 21.6329L738.558 16.0469" stroke="#734DFF" stroke-width="0.321437" stroke-linecap="round" stroke-linejoin="round"/>
<path d="M739.687 37.7914L744.955 40.4729C748.161 42.1062 752.084 40.8378 753.729 37.635L756.446 32.3414C758.061 29.1965 756.813 25.3393 753.663 23.735L742.687 18.1489" stroke="#734DFF" stroke-width="0.321437" stroke-linecap="round" stroke-linejoin="round"/>
<path d="M755.258 43.7459C754.071 46.0481 751.25 46.9661 748.939 45.7962L744.483 43.5577C742.16 42.3849 741.225 39.5499 742.398 37.2216C742.983 36.0604 743.988 35.2467 745.134 34.8702C746.281 34.4909 747.573 34.5517 748.731 35.1366L753.191 37.378C755.527 38.5595 756.454 41.4177 755.255 43.7459H755.258Z" fill="white" stroke="#734DFF" stroke-width="0.321437" stroke-linecap="round" stroke-linejoin="round"/>
<path d="M745.821 44.2286C745.821 44.2286 741.966 47.2779 736.539 45.219L734.003 50.2027L709.145 39.5229L720.806 16.614C722.952 12.4005 728.104 10.7238 732.317 12.8696L740.707 17.141C743.857 18.7453 745.105 22.6025 743.489 25.7474L740.773 31.041C739.128 34.2409 735.207 35.5122 731.999 33.8789L726.731 31.1974C725.573 30.6066 724.759 29.6018 724.389 28.4521C724.015 27.3054 724.076 26.0138 724.667 24.8555C725.848 22.533 728.689 21.6122 731.008 22.7908L733.664 24.1431" stroke="#734DFF" stroke-width="0.321437" stroke-linecap="round" stroke-linejoin="round"/>
<path d="M709.956 37.7466L702.624 50.9863L729.3 63.7077L734.208 50.0944L709.956 37.7466Z" fill="#734DFF"/>
<path d="M790.083 97.2133C800.178 97.2133 808.362 89.0297 808.362 78.9347C808.362 68.8398 800.178 60.6562 790.083 60.6562C779.988 60.6562 771.805 68.8398 771.805 78.9347C771.805 89.0297 779.988 97.2133 790.083 97.2133Z" fill="#734DFF"/>
<path d="M1029.75 127.846C1029.75 127.846 1016.7 140.217 1009.48 159.425C1003.89 174.28 1006.42 191.821 1006.42 191.821L981.411 276.246H998.595L1026.09 216.78C1029.53 209.361 1029.53 200.812 1026.11 193.387L1053.4 122.923L1029.75 127.846Z" fill="#BBFF00"/>
<path d="M947.631 294.182C947.631 287.03 952.183 280.67 958.954 278.368C967.346 275.513 982.879 271.178 982.998 270.88L994.619 231.65L1025.04 219.064L996.527 292.384C996.212 293.163 995.456 293.673 994.616 293.673L947.634 294.182H947.631Z" fill="#93B900"/>
<mask id="mask2_2602_6055" style="mask-type:luminance" maskUnits="userSpaceOnUse" x="981" y="122" width="73" height="155">
<path d="M1029.75 127.847C1029.75 127.847 1016.7 140.218 1009.48 159.426C1003.89 174.282 1006.42 191.822 1006.42 191.822L981.411 276.247H998.595L1026.09 216.781C1029.53 209.362 1029.53 200.814 1026.11 193.389L1053.4 122.924L1029.75 127.847Z" fill="white"/>
</mask>
<g mask="url(#mask2_2602_6055)">
<path d="M991.04 186.366L981.434 189.059L990.293 193.646C993.646 195.384 996.131 198.433 997.15 202.07L999.843 211.676L1004.43 202.817C1006.17 199.464 1009.22 196.979 1012.85 195.96L1022.46 193.267L1013.6 188.68C1010.25 186.942 1007.76 183.893 1006.74 180.256L1004.05 170.65L999.464 179.509C997.726 182.862 994.677 185.347 991.04 186.366Z" fill="#93B900"/>
</g>
<path d="M1062.83 127.846C1062.83 127.846 1075.89 140.217 1083.11 159.425C1088.7 174.28 1086.17 191.821 1086.17 191.821L1111.18 276.246H1093.99L1066.49 216.78C1063.06 209.361 1063.06 200.812 1066.47 193.387L1039.19 122.923L1062.83 127.846Z" fill="#BBFF00"/>
<path d="M1144.96 294.182C1144.96 287.03 1140.4 280.67 1133.63 278.368C1125.24 275.513 1109.71 271.178 1109.59 270.88L1097.97 231.65L1067.55 219.064L1096.06 292.384C1096.38 293.163 1097.13 293.673 1097.97 293.673L1144.95 294.182H1144.96Z" fill="#93B900"/>
<mask id="mask3_2602_6055" style="mask-type:luminance" maskUnits="userSpaceOnUse" x="1039" y="122" width="73" height="155">
<path d="M1062.83 127.847C1062.83 127.847 1075.89 140.218 1083.11 159.426C1088.7 174.282 1086.17 191.822 1086.17 191.822L1111.18 276.247H1093.99L1066.49 216.781C1063.06 209.362 1063.06 200.814 1066.47 193.389L1039.19 122.924L1062.83 127.847Z" fill="white"/>
</mask>
<g mask="url(#mask3_2602_6055)">
<path d="M1078.98 188.346L1070.32 193.298L1080.03 195.588C1083.71 196.457 1086.86 198.811 1088.73 202.089L1093.68 210.748L1095.97 201.038C1096.84 197.361 1099.2 194.21 1102.47 192.336L1111.13 187.384L1101.42 185.094C1097.75 184.225 1094.59 181.871 1092.72 178.593L1087.77 169.934L1085.48 179.644C1084.61 183.322 1082.26 186.472 1078.98 188.346Z" fill="#93B900"/>
</g>
<mask id="mask4_2602_6055" style="mask-type:luminance" maskUnits="userSpaceOnUse" x="811" y="37" width="80" height="78">
<path d="M885.241 66.4998L869.316 37.75L845.064 50.0949L856.019 80.1653C856.019 80.1653 851.42 74.0174 847.519 67.5945C841.878 58.3075 831.737 52.7012 820.872 52.7012H811.24L811.86 81.9838C811.86 81.9838 814.565 95.8115 835.166 107.537C876.197 130.894 902.384 94.0971 885.244 66.4998H885.241Z" fill="white"/>
</mask>
<g mask="url(#mask4_2602_6055)">
<path d="M879.133 120.601C889.228 120.601 897.412 112.417 897.412 102.322C897.412 92.2275 889.228 84.0439 879.133 84.0439C869.038 84.0439 860.855 92.2275 860.855 102.322C860.855 112.417 869.038 120.601 879.133 120.601Z" fill="#734DFF"/>
</g>
<mask id="mask5_2602_6055" style="mask-type:luminance" maskUnits="userSpaceOnUse" x="688" y="37" width="81" height="78">
<path d="M694.032 66.4998L709.956 37.75L734.208 50.0949L723.253 80.1653C723.253 80.1653 727.852 74.0174 731.753 67.5945C737.394 58.3075 747.535 52.7012 758.4 52.7012H768.032L767.412 81.9838C767.412 81.9838 764.707 95.8115 744.106 107.537C703.075 130.894 676.888 94.0971 694.029 66.4998H694.032Z" fill="white"/>
</mask>
<g mask="url(#mask5_2602_6055)">
<path d="M702.624 120.601C712.718 120.601 720.902 112.417 720.902 102.322C720.902 92.2275 712.718 84.0439 702.624 84.0439C692.529 84.0439 684.345 92.2275 684.345 102.322C684.345 112.417 692.529 120.601 702.624 120.601Z" fill="#734DFF"/>
</g>
<path d="M1037.06 30.7909C1035.63 32.1925 1034.55 33.8171 1033.82 35.5546L1026.1 53.1062L1068.43 53.39L1060.64 35.653C1059.95 34.0314 1058.88 32.3431 1057.57 31.0081C1051.97 25.283 1042.78 25.1846 1037.06 30.7909Z" fill="#93B900"/>
<path d="M1057.9 47.7653H1036.62C1035.03 47.7653 1033.94 46.1581 1034.54 44.6812L1037.08 38.3306C1037.42 37.4764 1038.24 36.9175 1039.17 36.9175H1055.19C1056.09 36.9175 1056.91 37.4532 1057.26 38.2814L1059.97 44.632C1060.61 46.1146 1059.52 47.7624 1057.9 47.7624V47.7653Z" fill="white"/>
<path d="M1045 41.3515L1045.04 43.3409C1045.05 43.8448 1044.65 44.2618 1044.14 44.2705C1043.64 44.2792 1043.22 43.8796 1043.21 43.3757L1043.18 41.3862C1043.17 40.8824 1043.57 40.4654 1044.07 40.4567C1044.58 40.448 1045 40.8476 1045 41.3515Z" fill="black"/>
<path d="M1051.31 41.1977L1051.35 43.1871C1051.36 43.691 1050.96 44.108 1050.45 44.1167C1049.95 44.1254 1049.53 43.7257 1049.52 43.2219L1049.48 41.2324C1049.47 40.7286 1049.88 40.3116 1050.38 40.3029C1050.89 40.2942 1051.3 40.6938 1051.31 41.1977H1051.31Z" fill="black"/>
<path d="M1063.03 116.079H1029.73L1010.65 81.5147C1003.24 67.8956 1007.43 52.7012 1026.09 52.7012H1065.85C1084.8 52.7012 1091.57 68.3271 1083.6 81.9983L1063.03 116.079Z" fill="#BBFF00"/>
<path d="M1063.03 116.08H1029.73V127.845H1063.03V116.08Z" fill="#93B900"/>
<path d="M1035.88 76.0912L1026.64 79.8587L1035.97 83.409C1039.5 84.7526 1042.31 87.5037 1043.74 90.999L1047.5 100.237L1051.05 90.915C1052.4 87.385 1055.15 84.5702 1058.64 83.1455L1067.88 79.378L1058.56 75.8277C1055.03 74.484 1052.21 71.733 1050.79 68.2377L1047.02 59L1043.47 68.3217C1042.13 71.8517 1039.38 74.6665 1035.88 76.0912Z" fill="#93B900"/>
<path d="M986.514 127.246L1001.06 131.422L1009.48 105.542L976.068 89.9708C976.068 89.9708 1000.77 88.3984 1015.74 72.3989C1027.55 59.776 1034.78 52.6985 1034.78 52.6985C1034.78 52.6985 1014.11 50.9871 991.251 57.2624C945.723 69.7579 944.515 114.956 986.517 127.246H986.514Z" fill="#BBFF00"/>
<path d="M1001.06 131.425L986.514 127.246L996.383 99.3882L1009.48 105.545L1001.06 131.425Z" fill="#93B900"/>
<path d="M1012.74 142.903L1006.61 141.415C1004.02 140.787 1001.41 142.375 1000.78 144.962C1000.16 147.549 1001.75 150.155 1004.33 150.783L1010.47 152.271C1013.05 152.899 1015.66 151.311 1016.29 148.724C1016.92 146.137 1015.33 143.531 1012.74 142.903Z" fill="white"/>
<path d="M1011.05 139.422L1007.6 144.707C1006.15 146.937 1006.78 149.924 1009.01 151.379C1011.23 152.833 1014.22 152.203 1015.68 149.973L1019.12 144.687C1020.58 142.457 1019.95 139.47 1017.72 138.016C1015.49 136.562 1012.5 137.191 1011.05 139.422Z" fill="white"/>
<path d="M1018.1 146.335L1005.83 138.273C1001.87 135.673 1000.72 131.786 1002.69 126.397L1008.35 108.996L1025.56 118.636C1029.81 121.408 1031.01 127.101 1028.23 131.349L1018.1 146.332L1018.1 146.335Z" fill="white"/>
<mask id="mask6_2602_6055" style="mask-type:luminance" maskUnits="userSpaceOnUse" x="956" y="52" width="79" height="80">
<path d="M986.514 127.246L1001.06 131.422L1009.48 105.542L976.068 89.9708C976.068 89.9708 1000.77 88.3984 1015.74 72.3989C1027.55 59.776 1034.78 52.6985 1034.78 52.6985C1034.78 52.6985 1014.11 50.9871 991.251 57.2624C945.723 69.7579 944.515 114.956 986.517 127.246H986.514Z" fill="white"/>
</mask>
<g mask="url(#mask6_2602_6055)">
<path d="M939.807 86.4457L930.569 90.2132L939.891 93.7635C943.421 95.1071 946.236 97.8582 947.66 101.353L951.428 110.591L954.978 101.269C956.322 97.7395 959.073 94.9247 962.568 93.5L971.806 89.7325L962.484 86.1822C958.954 84.8385 956.139 82.0875 954.715 78.5922L950.947 69.3545L947.397 78.6762C946.053 82.2062 943.302 85.0209 939.807 86.4457Z" fill="#93B900"/>
</g>
<path d="M1074.08 53.8545C1074.08 53.8545 1100.08 58.288 1107.78 105.264L1091.77 112.733C1091.77 112.733 1068.44 103.556 1071.8 71.7855C1073.34 57.2658 1074.07 53.8545 1074.07 53.8545H1074.08Z" fill="#BBFF00"/>
<path d="M1124.01 167.778L1117.27 159.496C1115.59 157.431 1112.55 157.119 1110.49 158.799C1108.42 160.48 1108.11 163.516 1109.79 165.582L1116.53 173.863C1118.21 175.928 1121.25 176.24 1123.31 174.56C1125.38 172.879 1125.69 169.843 1124.01 167.778Z" fill="white"/>
<path d="M1134.57 161.786L1121.42 157.252C1118.9 156.385 1116.16 157.721 1115.29 160.238C1114.42 162.755 1115.76 165.499 1118.28 166.366L1131.43 170.9C1133.95 171.768 1136.69 170.431 1137.56 167.915C1138.43 165.398 1137.09 162.654 1134.57 161.786Z" fill="white"/>
<path d="M1144.55 173.595L1137.03 163.58C1135.43 161.451 1132.41 161.02 1130.28 162.618C1128.15 164.216 1127.72 167.237 1129.32 169.367L1136.84 179.382C1138.43 181.512 1141.46 181.943 1143.58 180.345C1145.71 178.747 1146.14 175.725 1144.55 173.595Z" fill="white"/>
<path d="M1140.38 157.127L1126.81 154.094C1124.21 153.514 1121.63 155.15 1121.05 157.748C1120.47 160.346 1122.11 162.922 1124.71 163.503L1138.28 166.535C1140.88 167.116 1143.46 165.48 1144.04 162.882C1144.62 160.284 1142.98 157.707 1140.38 157.127Z" fill="white"/>
<path d="M1151.63 167.753L1143.04 158.644C1141.21 156.706 1138.16 156.616 1136.23 158.443C1134.29 160.269 1134.2 163.32 1136.03 165.257L1144.62 174.367C1146.44 176.305 1149.5 176.395 1151.43 174.568C1153.37 172.742 1153.46 169.691 1151.63 167.753Z" fill="white"/>
<path d="M1137.67 150.41L1123.77 150.905C1121.1 151 1119.02 153.233 1119.12 155.894C1119.21 158.554 1121.45 160.634 1124.11 160.539L1138.01 160.044C1140.67 159.949 1142.75 157.716 1142.66 155.055C1142.56 152.395 1140.33 150.315 1137.67 150.41Z" fill="white"/>
<path d="M1151.21 157.844L1140.6 151.199C1138.34 149.786 1135.37 150.47 1133.96 152.726C1132.54 154.982 1133.23 157.957 1135.49 159.37L1146.1 166.015C1148.36 167.428 1151.33 166.744 1152.74 164.488C1154.16 162.232 1153.47 159.257 1151.21 157.844Z" fill="white"/>
<path d="M1132.88 145.978L1119.82 150.796C1117.33 151.718 1116.05 154.49 1116.97 156.987C1117.89 159.485 1120.66 160.762 1123.16 159.84L1136.21 155.022C1138.71 154.1 1139.99 151.328 1139.07 148.831C1138.15 146.333 1135.37 145.056 1132.88 145.978Z" fill="white"/>
<path d="M1148.06 148.803L1135.9 145.81C1133.32 145.174 1130.7 146.753 1130.07 149.338C1129.43 151.923 1131.01 154.534 1133.6 155.171L1145.76 158.164C1148.34 158.801 1150.95 157.221 1151.59 154.636C1152.23 152.051 1150.65 149.44 1148.06 148.803Z" fill="white"/>
<path d="M1106.52 155.882L1106.81 152.879L1124.81 145.648L1129.94 150.172L1111.32 167.442L1109.39 165.129C1107.24 162.554 1106.2 159.224 1106.52 155.879V155.882Z" fill="white"/>
<path d="M1107.78 105.264C1107.78 105.264 1119.77 108.16 1126.43 145.33L1104.5 154.351C1104.5 154.351 1086.24 131.668 1091.77 112.732L1107.78 105.264Z" fill="#BBFF00"/>
<path d="M1105.5 157L1098.26 144.849L1124.09 134.354L1127.43 147.979L1105.5 157Z" fill="#93B900"/>
</g>
<defs>
<linearGradient id="paint0_linear_2602_6055" x1="635.016" y1="-34.4386" x2="635.016" y2="295.134" gradientUnits="userSpaceOnUse">
<stop offset="0.025" stop-color="#4335E9" stop-opacity="0"/>
<stop offset="0.935" stop-color="#8F35E9" stop-opacity="0.3"/>
</linearGradient>
<radialGradient id="paint1_radial_2602_6055" cx="0" cy="0" r="1" gradientUnits="userSpaceOnUse" gradientTransform="translate(361.359 192.1) rotate(89.992) scale(407.52)">
<stop stop-color="#BBFF00" stop-opacity="0"/>
<stop offset="0.48" stop-color="#BBFF00" stop-opacity="0.23"/>
<stop offset="1" stop-color="#BBFF00" stop-opacity="0.5"/>
</radialGradient>
<linearGradient id="paint2_linear_2602_6055" x1="137.355" y1="-148.108" x2="585.551" y2="532.187" gradientUnits="userSpaceOnUse">
<stop offset="0.23" stop-color="#BA40F3"/>
<stop offset="0.73" stop-color="#4335E9"/>
</linearGradient>
<clipPath id="clip0_2602_6055">
<rect width="1280" height="300" fill="white"/>
</clipPath>
</defs>
</svg>
