<svg width="1280" height="300" viewBox="0 0 1280 300" fill="none" xmlns="http://www.w3.org/2000/svg">
<g clip-path="url(#clip0_2604_8446)">
<rect width="1280" height="300" fill="#B74AF7"/>
<path d="M660.051 199.574C658.718 199.574 657.557 199.323 656.569 198.821C655.581 198.319 654.812 197.597 654.263 196.656C653.73 195.715 653.463 194.609 653.463 193.339V192.468C650.765 192.108 648.342 191.151 646.193 189.598C644.044 188.045 642.358 186.053 641.135 183.622C639.927 181.175 639.323 178.493 639.323 175.576C639.323 172.376 640.037 169.482 641.464 166.894C642.907 164.29 644.883 162.251 647.393 160.777C649.903 159.287 652.687 158.542 655.745 158.542C658.804 158.542 661.588 159.287 664.097 160.777C666.607 162.251 668.576 164.29 670.003 166.894C671.446 169.482 672.167 172.376 672.167 175.576C672.167 178.509 671.556 181.199 670.332 183.646C669.109 186.077 667.423 188.069 665.274 189.622C663.125 191.174 660.694 192.123 657.98 192.468V193.268C657.996 194.115 658.231 194.766 658.686 195.221C659.141 195.692 659.792 195.927 660.639 195.927H664.45V199.574H660.051ZM644.24 175.576C644.24 178.007 644.734 180.187 645.723 182.116C646.711 184.046 648.083 185.551 649.84 186.634C651.597 187.716 653.565 188.257 655.745 188.257C657.925 188.257 659.886 187.716 661.627 186.634C663.384 185.551 664.756 184.046 665.744 182.116C666.748 180.187 667.25 178.007 667.25 175.576C667.25 173.129 666.756 170.949 665.768 169.035C664.795 167.106 663.431 165.6 661.674 164.518C659.933 163.436 657.957 162.894 655.745 162.894C653.565 162.894 651.597 163.436 649.84 164.518C648.083 165.6 646.711 167.106 645.723 169.035C644.734 170.964 644.24 173.145 644.24 175.576Z" fill="#5B2674"/>
<path d="M1071.83 50.2134C1069.42 50.2134 1067.24 49.6237 1065.28 48.4442C1063.34 47.2647 1061.81 45.6397 1060.69 43.5693C1059.59 41.4863 1059.03 39.1587 1059.03 36.5864C1059.03 34.014 1059.59 31.6926 1060.69 29.6222C1061.81 27.5393 1063.34 25.908 1065.28 24.7285C1067.24 23.549 1069.42 22.9593 1071.83 22.9593C1073.85 22.9593 1075.74 23.3796 1077.48 24.2203C1079.24 25.0485 1080.67 26.1841 1081.79 27.6271C1082.92 29.0576 1083.59 30.6386 1083.8 32.3702H1080.06C1079.84 31.266 1079.34 30.2559 1078.55 29.3399C1077.77 28.4113 1076.8 27.6836 1075.62 27.1566C1074.44 26.617 1073.18 26.3472 1071.83 26.3472C1070.13 26.3472 1068.59 26.7864 1067.22 27.6647C1065.87 28.5306 1064.81 29.7414 1064.04 31.2974C1063.27 32.8533 1062.89 34.6163 1062.89 36.5864C1062.89 38.5564 1063.27 40.3194 1064.04 41.8753C1064.81 43.4313 1065.87 44.6484 1067.22 45.5268C1068.59 46.3926 1070.13 46.8255 1071.85 46.8255C1073.39 46.8255 1074.79 46.5118 1076.05 45.8844C1077.3 45.257 1078.29 44.3849 1079.02 43.2681C1079.76 42.1514 1080.16 40.884 1080.21 39.4661H1073.55V36.2099H1083.99V38.2239C1083.99 40.495 1083.46 42.5404 1082.41 44.3598C1081.36 46.1793 1079.9 47.6097 1078.04 48.6512C1076.2 49.6927 1074.13 50.2134 1071.83 50.2134Z" fill="#5B2674"/>
<path d="M693.323 148.088H694.02C694.911 148.088 695.619 147.794 696.146 147.204C696.673 146.614 696.937 145.817 696.937 144.813H694.528V140.296H699.29V144.494C699.29 145.648 699.076 146.652 698.65 147.505C698.223 148.371 697.608 149.03 696.805 149.481C696.015 149.946 695.086 150.178 694.02 150.178H693.323V148.088Z" fill="#5B2674"/>
<path d="M720.144 219.254C718.965 218.112 717.936 216.7 717.058 215.019C716.179 213.337 715.502 211.499 715.025 209.504C714.548 207.509 714.31 205.482 714.31 203.424C714.31 201.366 714.548 199.34 715.025 197.345C715.502 195.35 716.179 193.518 717.058 191.849C717.936 190.167 718.965 188.762 720.144 187.633H723.796C722.566 188.887 721.493 190.374 720.577 192.093C719.661 193.813 718.952 195.651 718.451 197.608C717.961 199.553 717.716 201.492 717.716 203.424C717.716 205.357 717.967 207.302 718.469 209.259C718.971 211.217 719.68 213.055 720.596 214.774C721.512 216.506 722.585 217.999 723.815 219.254H720.144Z" fill="#5B2674"/>
<path d="M781.852 190.339H790.266L789.39 217.189H782.727L781.852 190.339ZM781.937 221.706H790.407V230.176H781.937V221.706Z" fill="#5B2674"/>
<path d="M1131.22 56.4739H1139.64L1138.76 83.3234H1132.1L1131.22 56.4739ZM1131.31 87.8407H1139.78V96.3106H1131.31V87.8407Z" fill="#5B2674"/>
<path d="M680.148 248.692H666.973V245.436L679.809 228.571H683.912V245.417H687.921V248.692H683.912V254.922H680.148V248.692ZM680.261 245.417V232.881L670.85 245.417H680.261Z" fill="#5B2674"/>
<path d="M850.712 189.816H864.584V192.978H850.712V189.816ZM850.712 196.611H864.584V199.773H850.712V196.611Z" fill="#5B2674"/>
<path d="M1139.03 163.302H1152.9V166.465H1139.03V163.302ZM1139.03 170.097H1152.9V173.259H1139.03V170.097Z" fill="#5B2674"/>
<path d="M1096.9 102.464L1099.54 107.753H1096.21L1093.31 102.464H1096.9Z" fill="#5B2674"/>
<path d="M839.796 125.816H847.4L823.759 178.518H816.155L839.796 125.816Z" fill="#5B2674"/>
<path d="M911.865 46.4121L908.383 51.0047L906.294 49.3107L910.096 45.057L904.637 43.8523L905.334 41.2361L910.736 42.9301L910.51 37.4905H913.201L912.994 42.9112L918.377 41.2361L919.092 43.8523L913.615 45.057L917.417 49.3107L915.347 51.0047L911.865 46.4121Z" fill="#5B2674"/>
<path d="M1064.59 248.936H1060.93V244.043H1065.64L1066.62 239.488H1062.82V234.594H1067.67L1068.95 228.571H1074.28L1073 234.575H1077.55L1078.83 228.571H1084.16L1082.88 234.557H1086.53V239.45H1081.83L1080.85 244.005H1084.65V248.899H1079.79L1078.51 254.922H1073.19L1074.47 248.918H1069.91L1068.63 254.922H1063.31L1064.59 248.936ZM1075.52 244.024L1076.5 239.469H1071.95L1070.97 244.024H1075.52Z" fill="#5B2674"/>
<path d="M583.928 241.429C583.975 243.688 583.387 245.676 582.163 247.393C580.963 249.134 579.269 250.476 577.081 251.417C574.893 252.381 572.411 252.864 569.635 252.864H564.588V244.041H568.823C570.658 244.041 572.105 243.558 573.164 242.594C574.223 241.606 574.728 240.229 574.681 238.465L574.54 231.089C574.517 228.971 575.223 227.195 576.658 225.76C578.116 224.325 580.046 223.384 582.445 222.937C580.046 222.748 578.116 221.972 576.658 220.607C575.199 219.219 574.493 217.372 574.54 215.067L574.681 208.538C574.728 206.703 574.176 205.221 573.023 204.091C571.893 202.962 570.364 202.397 568.435 202.397H564.588V193.574H569.247C572.187 193.574 574.775 194.08 577.011 195.092C579.269 196.08 580.998 197.492 582.198 199.327C583.422 201.162 583.998 203.291 583.928 205.715L583.751 213.196C583.704 214.82 584.175 216.125 585.163 217.114C586.175 218.078 587.539 218.561 589.257 218.561H592.856V227.595H589.257C587.539 227.595 586.175 228.077 585.163 229.042C584.175 229.983 583.704 231.242 583.751 232.818L583.928 241.429Z" fill="#5B2674"/>
<path d="M877.458 225.277H880.809L861.328 251.628H857.978L877.458 225.277ZM856.622 231.15C856.622 229.92 856.886 228.828 857.413 227.875C857.953 226.908 858.699 226.162 859.653 225.635C860.619 225.095 861.704 224.825 862.909 224.825C864.126 224.825 865.218 225.095 866.184 225.635C867.15 226.162 867.903 226.908 868.443 227.875C868.982 228.828 869.252 229.92 869.252 231.15C869.252 232.367 868.982 233.458 868.443 234.425C867.903 235.378 867.15 236.125 866.184 236.664C865.218 237.204 864.126 237.474 862.909 237.474C861.704 237.474 860.619 237.204 859.653 236.664C858.699 236.125 857.953 235.378 857.413 234.425C856.886 233.458 856.622 232.367 856.622 231.15ZM859.578 231.15C859.578 231.84 859.716 232.455 859.992 232.994C860.28 233.534 860.675 233.96 861.177 234.274C861.692 234.575 862.269 234.726 862.909 234.726C863.562 234.726 864.145 234.575 864.659 234.274C865.174 233.96 865.569 233.534 865.845 232.994C866.134 232.455 866.278 231.84 866.278 231.15C866.278 230.46 866.134 229.845 865.845 229.305C865.569 228.753 865.174 228.326 864.659 228.025C864.145 227.712 863.562 227.555 862.909 227.555C862.269 227.555 861.692 227.712 861.177 228.025C860.675 228.326 860.28 228.753 859.992 229.305C859.716 229.845 859.578 230.46 859.578 231.15ZM869.61 245.755C869.61 244.538 869.879 243.453 870.419 242.499C870.959 241.533 871.705 240.78 872.659 240.241C873.625 239.701 874.71 239.431 875.915 239.431C877.145 239.431 878.243 239.701 879.209 240.241C880.175 240.78 880.928 241.533 881.467 242.499C882.007 243.453 882.277 244.538 882.277 245.755C882.277 246.985 882.007 248.083 881.467 249.049C880.928 250.003 880.175 250.75 879.209 251.289C878.243 251.816 877.145 252.08 875.915 252.08C874.71 252.08 873.625 251.816 872.659 251.289C871.705 250.75 870.959 250.003 870.419 249.049C869.879 248.083 869.61 246.985 869.61 245.755ZM872.584 245.755C872.584 246.446 872.722 247.067 872.998 247.619C873.286 248.158 873.681 248.585 874.183 248.899C874.698 249.2 875.275 249.35 875.915 249.35C876.567 249.35 877.151 249.2 877.665 248.899C878.192 248.585 878.6 248.158 878.889 247.619C879.177 247.067 879.322 246.446 879.322 245.755C879.322 245.065 879.177 244.45 878.889 243.911C878.6 243.371 878.192 242.951 877.665 242.65C877.151 242.336 876.567 242.179 875.915 242.179C875.275 242.179 874.698 242.336 874.183 242.65C873.681 242.951 873.286 243.371 872.998 243.911C872.722 244.45 872.584 245.065 872.584 245.755Z" fill="#5B2674"/>
<path d="M1171.72 217.649H1175.07L1155.59 244H1152.24L1171.72 217.649ZM1150.88 223.522C1150.88 222.292 1151.15 221.2 1151.67 220.247C1152.21 219.281 1152.96 218.534 1153.91 218.007C1154.88 217.467 1155.96 217.198 1157.17 217.198C1158.39 217.198 1159.48 217.467 1160.44 218.007C1161.41 218.534 1162.16 219.281 1162.7 220.247C1163.24 221.2 1163.51 222.292 1163.51 223.522C1163.51 224.739 1163.24 225.831 1162.7 226.797C1162.16 227.75 1161.41 228.497 1160.44 229.037C1159.48 229.576 1158.39 229.846 1157.17 229.846C1155.96 229.846 1154.88 229.576 1153.91 229.037C1152.96 228.497 1152.21 227.75 1151.67 226.797C1151.15 225.831 1150.88 224.739 1150.88 223.522ZM1153.84 223.522C1153.84 224.212 1153.98 224.827 1154.25 225.366C1154.54 225.906 1154.94 226.332 1155.44 226.646C1155.95 226.947 1156.53 227.098 1157.17 227.098C1157.82 227.098 1158.4 226.947 1158.92 226.646C1159.43 226.332 1159.83 225.906 1160.1 225.366C1160.39 224.827 1160.54 224.212 1160.54 223.522C1160.54 222.832 1160.39 222.217 1160.1 221.677C1159.83 221.125 1159.43 220.698 1158.92 220.397C1158.4 220.084 1157.82 219.927 1157.17 219.927C1156.53 219.927 1155.95 220.084 1155.44 220.397C1154.94 220.698 1154.54 221.125 1154.25 221.677C1153.98 222.217 1153.84 222.832 1153.84 223.522ZM1163.87 238.128C1163.87 236.91 1164.14 235.825 1164.68 234.871C1165.22 233.905 1165.96 233.152 1166.92 232.613C1167.88 232.073 1168.97 231.803 1170.17 231.803C1171.4 231.803 1172.5 232.073 1173.47 232.613C1174.43 233.152 1175.19 233.905 1175.73 234.871C1176.27 235.825 1176.54 236.91 1176.54 238.128C1176.54 239.357 1176.27 240.455 1175.73 241.421C1175.19 242.375 1174.43 243.122 1173.47 243.661C1172.5 244.188 1171.4 244.452 1170.17 244.452C1168.97 244.452 1167.88 244.188 1166.92 243.661C1165.96 243.122 1165.22 242.375 1164.68 241.421C1164.14 240.455 1163.87 239.357 1163.87 238.128ZM1166.84 238.128C1166.84 238.818 1166.98 239.439 1167.26 239.991C1167.55 240.53 1167.94 240.957 1168.44 241.271C1168.96 241.572 1169.53 241.723 1170.17 241.723C1170.83 241.723 1171.41 241.572 1171.93 241.271C1172.45 240.957 1172.86 240.53 1173.15 239.991C1173.44 239.439 1173.58 238.818 1173.58 238.128C1173.58 237.437 1173.44 236.823 1173.15 236.283C1172.86 235.743 1172.45 235.323 1171.93 235.022C1171.41 234.708 1170.83 234.551 1170.17 234.551C1169.53 234.551 1168.96 234.708 1168.44 235.022C1167.94 235.323 1167.55 235.743 1167.26 236.283C1166.98 236.823 1166.84 237.437 1166.84 238.128Z" fill="#5B2674"/>
<path d="M744.091 249.146L733.245 232.982H738.656L745.997 244.299L746.938 245.664L748.443 243.311L755.172 232.982H760.466L749.596 249.169L760.983 265.921H755.525L747.738 254.181L746.726 252.698L744.985 255.357L738.115 265.921H732.751L744.091 249.146Z" fill="#5B2674"/>
<path d="M1219.63 215.225L1208.79 199.062H1214.2L1221.54 210.378L1222.48 211.743L1223.99 209.39L1230.72 199.062H1236.01L1225.14 215.248L1236.53 232H1231.07L1223.28 220.26L1222.27 218.778L1220.53 221.436L1213.66 232H1208.29L1219.63 215.225Z" fill="#5B2674"/>
<path d="M757.073 145.302H760.631V148.408C761.208 147.266 761.998 146.388 763.002 145.773C764.006 145.158 765.173 144.851 766.503 144.851C767.908 144.851 769.132 145.19 770.173 145.867C771.215 146.532 771.999 147.467 772.526 148.672C773.141 147.454 773.988 146.513 775.067 145.848C776.159 145.183 777.42 144.851 778.85 144.851C780.218 144.851 781.423 145.164 782.464 145.792C783.505 146.407 784.315 147.285 784.892 148.427C785.469 149.569 785.758 150.899 785.758 152.417V164.576H782.088V152.737C782.088 151.269 781.724 150.121 780.996 149.293C780.268 148.452 779.245 148.032 777.928 148.032C776.987 148.032 776.159 148.245 775.443 148.672C774.741 149.098 774.195 149.707 773.806 150.497C773.429 151.275 773.241 152.198 773.241 153.264V164.576H769.609V152.737C769.609 151.282 769.238 150.133 768.498 149.293C767.77 148.452 766.754 148.032 765.449 148.032C764.495 148.032 763.667 148.245 762.964 148.672C762.262 149.098 761.716 149.707 761.327 150.497C760.951 151.275 760.762 152.198 760.762 153.264V164.576H757.073V145.302Z" fill="#5B2674"/>
<path d="M1179.03 51.7263H1182.59V54.8319C1183.16 53.6901 1183.96 52.8117 1184.96 52.1969C1185.96 51.582 1187.13 51.2746 1188.46 51.2746C1189.87 51.2746 1191.09 51.6134 1192.13 52.291C1193.17 52.956 1193.96 53.8908 1194.48 55.0954C1195.1 53.8783 1195.94 52.9372 1197.02 52.2722C1198.12 51.6071 1199.38 51.2746 1200.81 51.2746C1202.18 51.2746 1203.38 51.5883 1204.42 52.2157C1205.46 52.8305 1206.27 53.7089 1206.85 54.8508C1207.43 55.9926 1207.71 57.3227 1207.71 58.841V71H1204.04V59.161C1204.04 57.6929 1203.68 56.5447 1202.95 55.7166C1202.23 54.8759 1201.2 54.4555 1199.89 54.4555C1198.94 54.4555 1198.12 54.6688 1197.4 55.0954C1196.7 55.5221 1196.15 56.1307 1195.76 56.9212C1195.39 57.6992 1195.2 58.6214 1195.2 59.688V71H1191.57V59.161C1191.57 57.7054 1191.2 56.5573 1190.46 55.7166C1189.73 54.8759 1188.71 54.4555 1187.41 54.4555C1186.45 54.4555 1185.62 54.6688 1184.92 55.0954C1184.22 55.5221 1183.67 56.1307 1183.28 56.9212C1182.91 57.6992 1182.72 58.6214 1182.72 59.688V71H1179.03V51.7263Z" fill="#5B2674"/>
<path d="M821.576 227.611C819.769 227.611 818.125 227.178 816.645 226.312C815.177 225.434 814.016 224.229 813.163 222.698C812.309 221.155 811.883 219.43 811.883 217.522C811.883 215.615 812.309 213.896 813.163 212.365C814.016 210.822 815.183 209.617 816.663 208.751C818.144 207.873 819.788 207.434 821.595 207.434C823.402 207.434 825.046 207.873 826.526 208.751C828.007 209.617 829.168 210.822 830.008 212.365C830.862 213.896 831.288 215.615 831.288 217.522C831.288 219.442 830.862 221.168 830.008 222.698C829.168 224.229 828.007 225.434 826.526 226.312C825.046 227.178 823.395 227.611 821.576 227.611ZM814.405 217.522C814.405 219.053 814.719 220.421 815.346 221.626C815.973 222.818 816.833 223.746 817.925 224.411C819.029 225.076 820.252 225.409 821.595 225.409C822.937 225.409 824.155 225.076 825.246 224.411C826.338 223.746 827.197 222.818 827.825 221.626C828.452 220.421 828.766 219.053 828.766 217.522C828.766 215.991 828.452 214.63 827.825 213.438C827.197 212.233 826.338 211.299 825.246 210.634C824.155 209.956 822.937 209.617 821.595 209.617C820.252 209.617 819.029 209.956 817.925 210.634C816.833 211.299 815.973 212.233 815.346 213.438C814.719 214.63 814.405 215.991 814.405 217.522Z" fill="#5B2674"/>
<path d="M1222.54 153.452C1220.73 153.452 1219.09 153.019 1217.61 152.153C1216.14 151.275 1214.98 150.07 1214.12 148.539C1213.27 146.996 1212.84 145.27 1212.84 143.363C1212.84 141.456 1213.27 139.737 1214.12 138.206C1214.98 136.663 1216.14 135.458 1217.63 134.592C1219.11 133.714 1220.75 133.275 1222.56 133.275C1224.36 133.275 1226.01 133.714 1227.49 134.592C1228.97 135.458 1230.13 136.663 1230.97 138.206C1231.82 139.737 1232.25 141.456 1232.25 143.363C1232.25 145.283 1231.82 147.008 1230.97 148.539C1230.13 150.07 1228.97 151.275 1227.49 152.153C1226.01 153.019 1224.36 153.452 1222.54 153.452ZM1215.37 143.363C1215.37 144.894 1215.68 146.262 1216.31 147.466C1216.94 148.658 1217.79 149.587 1218.89 150.252C1219.99 150.917 1221.21 151.25 1222.56 151.25C1223.9 151.25 1225.12 150.917 1226.21 150.252C1227.3 149.587 1228.16 148.658 1228.79 147.466C1229.41 146.262 1229.73 144.894 1229.73 143.363C1229.73 141.832 1229.41 140.471 1228.79 139.279C1228.16 138.074 1227.3 137.139 1226.21 136.474C1225.12 135.797 1223.9 135.458 1222.56 135.458C1221.21 135.458 1219.99 135.797 1218.89 136.474C1217.79 137.139 1216.94 138.074 1216.31 139.279C1215.68 140.471 1215.37 141.832 1215.37 143.363Z" fill="#5B2674"/>
<path d="M1163.54 137.452C1161.73 137.452 1160.09 137.019 1158.61 136.153C1157.14 135.275 1155.98 134.07 1155.12 132.539C1154.27 130.996 1153.84 129.27 1153.84 127.363C1153.84 125.456 1154.27 123.737 1155.12 122.206C1155.98 120.663 1157.14 119.458 1158.63 118.592C1160.11 117.714 1161.75 117.275 1163.56 117.275C1165.36 117.275 1167.01 117.714 1168.49 118.592C1169.97 119.458 1171.13 120.663 1171.97 122.206C1172.82 123.737 1173.25 125.456 1173.25 127.363C1173.25 129.283 1172.82 131.008 1171.97 132.539C1171.13 134.07 1169.97 135.275 1168.49 136.153C1167.01 137.019 1165.36 137.452 1163.54 137.452ZM1156.37 127.363C1156.37 128.894 1156.68 130.262 1157.31 131.466C1157.94 132.658 1158.79 133.587 1159.89 134.252C1160.99 134.917 1162.21 135.25 1163.56 135.25C1164.9 135.25 1166.12 134.917 1167.21 134.252C1168.3 133.587 1169.16 132.658 1169.79 131.466C1170.41 130.262 1170.73 128.894 1170.73 127.363C1170.73 125.832 1170.41 124.471 1169.79 123.279C1169.16 122.074 1168.3 121.139 1167.21 120.474C1166.12 119.797 1164.9 119.458 1163.56 119.458C1162.21 119.458 1160.99 119.797 1159.89 120.474C1158.79 121.139 1157.94 122.074 1157.31 123.279C1156.68 124.471 1156.37 125.832 1156.37 127.363Z" fill="#5B2674"/>
<path d="M883.321 162.119V165.521H879.919V162.119H883.321ZM879.129 179.03H879.651C880.319 179.03 880.851 178.809 881.246 178.367C881.641 177.925 881.839 177.327 881.839 176.574H880.032V173.186H883.604V176.334C883.604 177.2 883.444 177.953 883.124 178.593C882.804 179.242 882.343 179.736 881.74 180.075C881.147 180.423 880.451 180.597 879.651 180.597H879.129V179.03Z" fill="#5B2674"/>
<path d="M1056.38 164.604C1061.95 163.436 1073.74 160.855 1080.7 158.716C1089.55 155.997 1092.55 164.099 1083.1 171.276C1073.65 178.453 1062.64 182.87 1050.74 187.393" fill="#C6BAA8"/>
<path d="M1056.38 164.604C1061.95 163.436 1073.74 160.855 1080.7 158.716C1089.55 155.997 1092.55 164.099 1083.1 171.276C1073.65 178.453 1062.64 182.87 1050.74 187.393" stroke="#333333" stroke-width="1.83191" stroke-miterlimit="10"/>
<path d="M921.434 123.738C916.421 121.042 905.851 115.237 899.792 111.222C892.09 106.118 886.864 113.018 893.857 122.557C900.85 132.095 910.138 139.435 920.246 147.128" fill="#C6BAA8"/>
<path d="M921.434 123.738C916.421 121.042 905.851 115.237 899.792 111.222C892.09 106.118 886.864 113.018 893.857 122.557C900.85 132.095 910.138 139.435 920.246 147.128" stroke="#333333" stroke-width="1.83191" stroke-miterlimit="10"/>
<path d="M922.999 200.132C915.111 209.884 907.06 220.234 902.29 226.803C896.793 234.372 899.894 240.946 909.052 237.251C918.692 233.362 931.198 226.063 942.026 218.875" fill="#C6BAA8"/>
<path d="M922.999 200.132C915.111 209.884 907.06 220.234 902.29 226.803C896.793 234.372 899.894 240.946 909.052 237.251C918.692 233.362 931.198 226.063 942.026 218.875" stroke="#333333" stroke-width="1.83191" stroke-miterlimit="10"/>
<path d="M1009.9 230.314C1004.72 241.727 999.064 253.552 995.325 260.755C991.016 269.056 983.737 269.244 982.932 259.42C982.084 249.08 983.003 234.653 984.575 221.772" fill="#C6BAA8"/>
<path d="M1009.9 230.314C1004.72 241.727 999.064 253.552 995.325 260.755C991.016 269.056 983.737 269.244 982.932 259.42C982.084 249.08 983.003 234.653 984.575 221.772" stroke="#333333" stroke-width="1.83191" stroke-miterlimit="10"/>
<path d="M1055.32 76.6789C1061.41 66.9044 1072.1 56.3347 1079.47 63.2105C1086.83 70.0862 1079.42 79.138 1060.66 82.6823" fill="#5DBAE7"/>
<path d="M1055.32 76.6789C1061.41 66.9044 1072.1 56.3347 1079.47 63.2105C1086.83 70.0862 1079.42 79.138 1060.66 82.6823" stroke="#333333" stroke-width="1.83191" stroke-miterlimit="10"/>
<path d="M980.077 51.3046C981.215 39.8589 979.191 25.0013 969.141 26.0042C959.092 27.0071 959.442 38.6772 972.167 52.8395" fill="#5DBAE7"/>
<path d="M980.077 51.3046C981.215 39.8589 979.191 25.0013 969.141 26.0042C959.092 27.0071 959.442 38.6772 972.167 52.8395" stroke="#333333" stroke-width="1.83191" stroke-miterlimit="10"/>
<path d="M1019.97 49.603C1012.2 47.075 982.434 37.382 955.268 52.4731C934.015 64.2797 926.716 84.4303 915.182 115.918C903.054 149.026 894.536 172.28 905.452 194.444C916.371 216.615 940.434 224.901 960.071 231.663C979.833 238.468 1003.37 246.572 1025.5 236.183C1050.11 224.632 1058.2 197.157 1067.58 165.319C1076.14 136.257 1082.16 115.914 1072.52 93.3986C1059.25 62.3929 1026.83 51.8376 1019.97 49.603Z" fill="#5DBAE7" stroke="#333333" stroke-width="1.83191" stroke-miterlimit="10"/>
<path d="M990.93 129.939C990.077 131.607 988.344 137.526 987.972 138.619C987.599 139.713 995.154 142.566 995.647 141.512C996.139 140.459 998.336 133.427 998.791 132.286C999.247 131.144 991.928 127.99 990.93 129.939Z" fill="white" stroke="#333333" stroke-width="1.83191" stroke-miterlimit="10"/>
<path d="M998.18 119.526C991.404 117.241 984.142 119.135 981.084 124.509C978.026 129.884 983.302 132.167 989.987 132.563C995.46 132.887 997.877 137.521 1004.99 138.439C1009.19 138.981 1011.02 133.747 1009.22 129.619C1007.23 125.062 1004.24 121.569 998.18 119.526Z" fill="#C6BAA8" stroke="#333333" stroke-width="1.83191" stroke-miterlimit="10"/>
<path d="M997.814 122.182C1000.1 122.973 1003.91 123.618 1004.34 122.438C1005.12 120.29 1002.27 118.422 999.158 117.46C996.346 116.592 993.336 116.215 992.598 118.393C992.192 119.591 995.569 121.406 997.814 122.182L997.814 122.182Z" fill="#927D6F" stroke="#333333" stroke-width="1.83191" stroke-miterlimit="10"/>
<path d="M962.042 60.6292C944.834 56.9623 927.396 67.8144 922.996 84.953C918.569 102.197 928.865 119.863 945.347 124.801C963.444 130.222 983.258 118.58 987.317 99.9387C991.119 82.4718 979.876 64.4294 962.042 60.6292L962.042 60.6292Z" fill="white" stroke="#333333" stroke-width="1.83191" stroke-miterlimit="10"/>
<path d="M1056.73 92.5618C1039.52 88.895 1022.08 99.747 1017.68 116.886C1013.25 134.129 1023.55 151.795 1040.03 156.733C1058.13 162.155 1077.94 150.512 1082 131.871C1085.8 114.404 1074.56 96.362 1056.73 92.5618L1056.73 92.5618Z" fill="white" stroke="#333333" stroke-width="1.83191" stroke-miterlimit="10"/>
<g style="mix-blend-mode:multiply" opacity="0.1">
<g style="mix-blend-mode:multiply">
<path d="M925.324 118.509C922.703 115.669 920.579 112.508 919.287 109.539L922.284 101.829C923.68 105.811 926.307 111.538 930.975 116.596C935.555 121.558 941.174 124.86 947.675 126.409C956.902 128.609 966.558 126.1 975.6 119.153C976.878 118.171 978.059 117.168 979.132 116.186C976.058 121.282 971.196 126.957 964.05 129.238C943.391 135.832 929.188 122.696 925.325 118.51L925.324 118.509L925.324 118.509Z" fill="#2B2733"/>
</g>
<g style="mix-blend-mode:multiply">
<path d="M966.887 126.227C965.837 126.784 964.723 127.261 963.544 127.637C943.829 133.93 930.253 121.367 926.561 117.367C924.248 114.86 922.346 112.102 921.11 109.483L922.312 106.391C923.922 109.931 926.298 114.011 929.737 117.738C934.545 122.948 940.447 126.416 947.279 128.044C953.742 129.585 960.384 128.952 966.887 126.227M985.097 107.058C985.097 107.058 969.389 129.857 948.071 124.774C941.112 123.115 935.975 119.53 932.213 115.453C924.45 107.041 922.54 96.5375 922.54 96.5375L917.474 109.567C918.77 112.802 921.03 116.339 924.086 119.651C932.591 128.868 947.271 136.356 964.556 130.839C979.816 125.968 985.097 107.058 985.097 107.058L985.097 107.058Z" fill="#333333"/>
</g>
</g>
<g style="mix-blend-mode:multiply" opacity="0.1">
<g style="mix-blend-mode:multiply">
<path d="M931.498 113.77C924.314 105.985 922.871 95.0863 925.289 85.3039C925.061 92.9428 927.704 100.159 933.158 106.069C935.649 108.768 938.586 110.996 941.888 112.692C951.53 117.646 961.688 118.781 970.489 115.89C974.122 114.696 977.449 112.816 980.404 110.309C977.545 114.196 973.872 117.513 969.699 119.836C961.719 124.279 952.518 124.792 943.089 121.319C938.441 119.607 934.541 117.067 931.498 113.77Z" fill="#2B2733"/>
</g>
<g style="mix-blend-mode:multiply">
<path d="M969.736 117.875C969.455 118.045 969.171 118.209 968.886 118.368C961.348 122.565 952.631 123.04 943.676 119.742C939.278 118.122 935.597 115.728 932.736 112.627C928.992 108.571 926.904 103.613 926.17 98.4266C927.555 101.613 929.486 104.573 931.92 107.211C934.544 110.054 937.638 112.402 941.115 114.188C950.701 119.112 960.809 120.404 969.736 117.875ZM987.822 97.9252C977.823 117.888 958.14 119.148 942.661 111.197C939.565 109.606 936.755 107.483 934.396 104.926C926.566 96.4412 923.712 83.1925 931.953 68.9194C920.879 81.1985 918.532 102.203 930.26 114.912C933.338 118.247 937.389 121.013 942.503 122.896C966.732 131.821 984.509 113.95 987.822 97.9252L987.822 97.9252Z" fill="#333333"/>
</g>
</g>
<g style="mix-blend-mode:multiply" opacity="0.1">
<g style="mix-blend-mode:multiply">
<path d="M1026.17 145.697C1018.98 137.912 1017.54 127.013 1019.96 117.231C1019.73 124.87 1022.37 132.086 1027.83 137.996C1030.32 140.695 1033.26 142.923 1036.56 144.619C1046.2 149.573 1056.36 150.709 1065.16 147.817C1068.79 146.623 1072.12 144.743 1075.07 142.236C1072.22 146.122 1068.54 149.44 1064.37 151.763C1056.39 156.206 1047.19 156.719 1037.76 153.246C1033.11 151.534 1029.21 148.994 1026.17 145.697Z" fill="#2B2733"/>
</g>
<g style="mix-blend-mode:multiply">
<path d="M1064.41 149.803C1064.13 149.972 1063.84 150.137 1063.56 150.296C1056.02 154.493 1047.3 154.968 1038.35 151.669C1033.95 150.049 1030.27 147.656 1027.41 144.555C1023.66 140.498 1021.57 135.541 1020.84 130.354C1022.23 133.541 1024.16 136.501 1026.59 139.138C1029.21 141.982 1032.31 144.329 1035.79 146.115C1045.37 151.04 1055.48 152.332 1064.41 149.803M1082.49 129.853C1072.49 149.816 1052.81 151.076 1037.33 143.124C1034.24 141.534 1031.43 139.411 1029.07 136.854C1021.24 128.369 1018.38 115.12 1026.62 100.847C1015.55 113.126 1013.2 134.13 1024.93 146.839C1028.01 150.175 1032.06 152.94 1037.17 154.824C1061.4 163.748 1079.18 145.877 1082.49 129.853L1082.49 129.853Z" fill="#333333"/>
</g>
</g>
<g style="mix-blend-mode:multiply" opacity="0.1">
<g style="mix-blend-mode:multiply">
<path d="M1025.7 151.891C1022.62 148.554 1020.45 144.635 1019.17 140.159C1020.39 142.44 1021.95 144.628 1023.86 146.69C1031.47 154.94 1042.74 159.431 1053.26 158.41C1060.95 157.663 1066.16 155.177 1069.45 152.874C1068.76 155.301 1067.93 158.225 1067.09 161.109C1062.65 163.054 1047.54 166.835 1032.79 157.673C1030.07 155.979 1027.68 154.033 1025.7 151.891L1025.7 151.891Z" fill="#2B2733"/>
</g>
<g style="mix-blend-mode:multiply">
<path d="M1066.69 156.439C1066.37 157.554 1066.04 158.705 1065.7 159.857C1060.88 161.663 1046.97 164.498 1033.68 156.244C1033.45 156.098 1033.22 155.951 1032.99 155.801C1039.35 159.175 1046.53 160.75 1053.41 160.082C1059.01 159.539 1063.37 158.097 1066.69 156.439ZM1072.7 147.526C1072.7 147.526 1067.57 155.333 1053.1 156.737C1042.41 157.774 1031.8 152.817 1025.09 145.547C1022.73 142.981 1020.84 140.128 1019.61 137.148C1016.12 128.684 1016.97 120.777 1017.65 117.248C1014.99 129.304 1015.06 142.84 1024.47 153.032C1026.49 155.226 1028.95 157.264 1031.9 159.101C1047.69 168.914 1064.29 164.503 1068.49 162.298C1070.58 155.125 1072.7 147.526 1072.7 147.526ZM1012.08 124.228C1012.08 124.228 1011.87 124.927 1011.63 126.161C1011.77 125.512 1011.92 124.868 1012.08 124.228Z" fill="#333333"/>
</g>
</g>
<g style="mix-blend-mode:multiply" opacity="0.1">
<path d="M908.816 136.802C903.023 169.847 915.25 188.69 941.597 201.883C967.944 215.076 1001.06 222.912 1018.84 219.803C1036.61 216.694 1051.5 206.634 1061.49 185.234C1052.96 214.49 1033.52 240.792 1004.24 240.248C974.972 239.704 933.426 223.601 915.945 207.623C898.463 191.644 896.448 164.407 908.816 136.802L908.816 136.802Z" fill="#2B2733"/>
<path d="M908.816 136.802C903.023 169.847 915.25 188.69 941.597 201.883C967.944 215.076 1001.06 222.912 1018.84 219.803C1036.61 216.694 1051.5 206.634 1061.49 185.234C1052.96 214.49 1033.52 240.792 1004.24 240.248C974.972 239.704 933.426 223.601 915.945 207.623C898.463 191.644 896.448 164.407 908.816 136.802L908.816 136.802Z" stroke="#333333" stroke-width="1.83191" stroke-miterlimit="10"/>
</g>
<g style="mix-blend-mode:multiply" opacity="0.1">
<g style="mix-blend-mode:multiply">
<path d="M1065.32 178.98C1066.14 176.145 1067.09 172.941 1067.59 171.268C1072 170.877 1079.38 168.19 1085.22 164.991C1081.43 170.176 1073.44 175.397 1065.32 178.98Z" fill="#2B2733"/>
</g>
<g style="mix-blend-mode:multiply">
<path d="M1076.84 170.619C1074.24 172.513 1071.25 174.298 1067.96 175.921C1068.3 174.768 1068.62 173.683 1068.89 172.797C1071.17 172.45 1073.95 171.674 1076.84 170.619ZM1089.07 160.573C1083.02 165.134 1071.07 169.796 1066.33 169.632C1066.33 169.632 1063.87 177.775 1062.77 181.853C1078.2 175.881 1087.96 167.056 1089.07 160.573Z" fill="#333333"/>
</g>
</g>
<g style="mix-blend-mode:multiply" opacity="0.1">
<g style="mix-blend-mode:multiply">
<path d="M891.943 127.042C891.359 126.409 890.96 125.732 890.892 124.742C895.395 127.471 903.565 129.156 908.396 129.549C907.605 131.536 906.83 133.16 906.309 134.19C903.882 133.367 898.674 131.494 895.321 129.526C893.705 128.577 892.632 127.788 891.943 127.042Z" fill="#2B2733"/>
</g>
<g style="mix-blend-mode:multiply">
<path d="M903.26 125.247C902.905 125.522 902.569 125.775 902.256 126.005C901.06 124.68 899.49 122.873 898.092 121.042C899.753 122.546 901.574 124.02 903.26 125.247ZM908.926 124.874C905.227 123.076 894.793 114.758 893.509 109.731C893.466 109.56 893.432 109.393 893.411 109.23C891.21 111.406 890.559 113.245 891.146 115.541C891.462 116.78 892.14 118.153 893.128 119.784C895.948 124.436 901.771 130.425 901.771 130.425C901.771 130.425 905.154 128.314 908.926 124.874L908.926 124.874Z" fill="#333333"/>
</g>
</g>
<g style="mix-blend-mode:multiply" opacity="0.1">
<path d="M987.44 118.627C980.083 124.215 985.471 125.506 994.359 128.631C1003.25 131.757 1010.42 135.97 1008.43 128.12C1010.98 132.211 1009.08 138.573 1005.59 138.024C1002.1 137.474 996.382 133.403 991.919 131.937C987.455 130.47 979.875 131.055 980.476 125.783C981.077 120.511 985.585 119.171 987.44 118.627Z" fill="#2B2733"/>
<path d="M987.44 118.627C980.083 124.215 985.471 125.506 994.359 128.631C1003.25 131.757 1010.42 135.97 1008.43 128.12C1010.98 132.211 1009.08 138.573 1005.59 138.024C1002.1 137.474 996.382 133.403 991.919 131.937C987.455 130.47 979.875 131.055 980.476 125.783C981.077 120.511 985.585 119.171 987.44 118.627Z" stroke="#333333" stroke-width="1.83191" stroke-miterlimit="10"/>
</g>
<g style="mix-blend-mode:multiply" opacity="0.1">
<g style="mix-blend-mode:multiply">
<path d="M982.249 132.244C981.706 131.656 981.297 130.947 981.031 130.204C981.051 130.226 981.07 130.248 981.091 130.27C982.117 131.382 983.46 132.096 985.083 132.393C985.579 132.484 986.077 132.569 986.578 132.654C990.051 133.247 993.332 133.807 997.271 136.397C1000.14 138.282 1003.21 139.258 1005.88 139.188C1004.74 139.679 1003.51 139.95 1002.53 139.952C999.686 139.96 987.633 135.343 983.632 133.303C983.124 133.044 982.658 132.687 982.249 132.244L982.249 132.244Z" fill="#2B2733"/>
</g>
<g style="mix-blend-mode:multiply">
<path d="M1011.04 134.258C1009.03 138.779 1003.03 138.169 998.198 134.991C993.364 131.813 989.316 131.457 985.391 130.739C984.006 130.486 983.031 129.889 982.328 129.127C981.041 127.732 980.668 125.786 980.358 124.397C978.232 126.599 978.655 130.832 981.012 133.387C981.536 133.955 982.155 134.439 982.864 134.801C986.759 136.788 999.159 141.642 1002.52 141.633C1005.89 141.624 1011.78 139.114 1011.04 134.258L1011.04 134.258Z" fill="#333333"/>
</g>
</g>
<g style="mix-blend-mode:multiply" opacity="0.1">
<g style="mix-blend-mode:multiply">
<path d="M1063.52 74.5056C1064.12 74.1791 1064.76 73.8198 1065.42 73.4517C1066.94 72.6022 1069.41 71.2207 1071.03 70.5093C1071.05 71.5594 1071.42 72.5284 1072.11 73.2775C1072.95 74.1831 1074.24 74.7552 1075.83 74.7346C1075.53 74.9416 1075.24 75.1165 1074.98 75.2485C1072.5 76.4914 1068.71 77.9138 1066.85 78.5893L1063.52 74.5056Z" fill="#2B2733"/>
</g>
<g style="mix-blend-mode:multiply">
<path d="M1069.88 72.9327C1070.13 73.4711 1070.46 73.9722 1070.88 74.4202C1071.06 74.623 1071.27 74.8139 1071.48 74.9912C1070.05 75.5915 1068.57 76.1633 1067.4 76.5989L1066.1 74.9983C1066.14 74.972 1066.19 74.9457 1066.24 74.9192C1067.21 74.3764 1068.61 73.5912 1069.88 72.9327M1082.47 70.0847C1082.35 69.9532 1081.8 70.2176 1080.63 71.0897C1077.32 73.5726 1074.55 73.4393 1073.35 72.1358C1072.72 71.449 1072.52 70.4374 1072.9 69.3126C1073.03 68.9274 1073.02 68.6733 1072.88 68.5278C1071.88 67.4416 1064.22 72.398 1060.92 73.9712L1066.29 80.5725C1066.29 80.5725 1072.22 78.5106 1075.73 76.751C1078.43 75.3964 1082.88 70.5247 1082.47 70.0847L1082.47 70.0847Z" fill="#333333"/>
</g>
</g>
<g style="mix-blend-mode:multiply" opacity="0.1">
<g style="mix-blend-mode:multiply">
<path d="M968.647 44.4526C967.316 42.5338 965.164 39.0557 964.651 36.577C965.33 36.9691 965.958 37.0832 966.431 37.0927C967.09 37.1065 968.058 36.9319 969.049 36.0651C969.104 36.1144 969.169 36.178 969.243 36.2584C970.542 37.6664 971.968 41.0891 972.821 43.4273L968.647 44.4526L968.647 44.4526Z" fill="#2B2733"/>
</g>
<g style="mix-blend-mode:multiply">
<path d="M968.663 38.3013C969.288 39.3095 969.968 40.7745 970.568 42.2514L969.391 42.5407C968.65 41.4039 967.831 40.0256 967.211 38.7243C967.655 38.6621 968.148 38.5344 968.663 38.3013M970.481 35.1163C969.671 34.2386 968.85 33.9157 968.112 34.6463C966.898 35.8481 965.672 35.5218 964.689 34.4562C963.41 33.0702 962.541 30.4338 962.639 28.2825C962.591 29.1582 962.427 32.9096 962.916 36.4212C963.475 40.4295 967.942 46.355 967.942 46.355L975.011 44.6185C975.011 44.6185 972.788 37.6164 970.481 35.1163L970.481 35.1163ZM960.832 31.2774C960.827 31.3403 960.823 31.4037 960.82 31.4675C960.827 31.3437 960.832 31.2774 960.832 31.2774L960.081 30.4636L960.832 31.2774Z" fill="#333333"/>
</g>
</g>
<g style="mix-blend-mode:multiply" opacity="0.1">
<g style="mix-blend-mode:multiply">
<path d="M916.352 232.417C918.389 229.735 919.535 227.047 919.773 224.376C920.26 218.916 916.855 214.973 915.068 212.986L916.497 211.452C919.199 213.626 925.844 218.79 931.975 222.126C926.147 226.505 920.768 230.037 916.352 232.417Z" fill="#2B2733"/>
</g>
<g style="mix-blend-mode:multiply">
<path d="M928.909 222.31C926.014 224.426 923.261 226.308 920.717 227.915C921.103 226.785 921.347 225.653 921.448 224.519C921.764 220.968 920.667 218.033 919.307 215.768C921.997 217.788 925.445 220.237 928.909 222.31M935.123 221.837C926.963 218.031 916.346 209.155 916.346 209.155L912.816 212.941C914.302 215.123 926.021 223.985 909.052 237.252C916.136 235.684 927.942 227.382 935.123 221.837L935.123 221.837Z" fill="#333333"/>
</g>
</g>
<g style="mix-blend-mode:multiply" opacity="0.1">
<g style="mix-blend-mode:multiply">
<path d="M995.592 256.375C995.93 251.926 994.872 248.351 992.421 245.695C990.574 243.694 988.009 242.315 984.781 241.588L984.872 239.771C987.971 240.34 994.457 241.39 1002.15 241.828C1000.98 246.213 998.635 251.378 995.592 256.375L995.592 256.375Z" fill="#2B2733"/>
</g>
<g style="mix-blend-mode:multiply">
<path d="M999.933 243.369C999.176 245.643 998.13 248.102 996.867 250.604C996.303 248.279 995.234 246.259 993.659 244.552C992.939 243.773 992.128 243.078 991.226 242.47C993.756 242.806 996.716 243.135 999.933 243.369ZM1004.24 240.248C992.745 239.774 983.291 237.748 983.291 237.748L983.028 242.966C985.148 243.297 988.703 244.149 991.183 246.837C993.956 249.841 995.384 255.139 991.96 264.565C997.904 256.996 1002.84 247.409 1004.24 240.248L1004.24 240.248Z" fill="#333333"/>
</g>
</g>
<path d="M944.771 90.3798C948.984 94.9449 956.114 95.2174 960.697 90.9886C965.279 86.7597 965.579 79.6307 961.367 75.0656C957.154 70.5005 950.024 70.228 945.441 74.4569C940.859 78.6858 940.559 85.8147 944.771 90.3798Z" fill="black"/>
<path d="M956.407 76.5769C953.928 76.0486 951.416 77.612 950.782 80.0812C950.144 82.5654 951.627 85.1105 954.002 85.8219C956.609 86.603 959.464 84.9257 960.048 82.2401C960.596 79.7237 958.976 77.1243 956.407 76.5769Z" fill="white"/>
<path d="M1039.41 121.183C1043.62 125.748 1050.75 126.02 1055.34 121.791C1059.92 117.562 1060.22 110.433 1056.01 105.868C1051.79 101.303 1044.66 101.031 1040.08 105.26C1035.5 109.488 1035.2 116.617 1039.41 121.183Z" fill="black"/>
<path d="M1051.05 107.38C1048.57 106.851 1046.05 108.415 1045.42 110.884C1044.78 113.368 1046.27 115.913 1048.64 116.625C1051.25 117.406 1054.1 115.728 1054.69 113.043C1055.23 110.526 1053.61 107.927 1051.05 107.38Z" fill="white"/>
</g>
<defs>
<clipPath id="clip0_2604_8446">
<rect width="1280" height="300" fill="white"/>
</clipPath>
</defs>
</svg>
