<svg width="1280" height="300" viewBox="0 0 1280 300" fill="none" xmlns="http://www.w3.org/2000/svg">
<g clip-path="url(#clip0_5312_664)">
<rect width="1280" height="300" fill="#F7DF1E"/>
<g filter="url(#filter0_f_5312_664)">
<path d="M1502.57 1179.55L1784.39 129.051C1831.65 -47.1248 1726.18 -229.871 1550.04 -277.012L499.728 -558.106C323.584 -605.248 140.765 -499.656 93.502 -323.479L-188.314 727.021C-235.577 903.197 -130.11 1085.94 46.0343 1133.08L1096.34 1414.18C1272.49 1461.32 1455.31 1355.73 1502.57 1179.55Z" fill="url(#paint0_linear_5312_664)"/>
<path d="M1202.95 1185.03L1656.32 400.068C1732.36 268.424 1686.9 98.5509 1555.3 22.6068L770.653 -430.232C639.061 -506.176 469.156 -460.596 393.121 -328.953L-60.2564 456.009C-136.291 587.652 -90.827 757.525 40.7644 833.469L825.416 1286.31C957.007 1362.25 1126.91 1316.67 1202.95 1185.03Z" fill="url(#paint1_linear_5312_664)"/>
<path d="M960.632 1124.81L1494.81 590.637C1584.39 501.052 1584.44 354.483 1494.92 264.96L961.11 -268.85C871.587 -358.374 725.018 -358.324 635.433 -268.739L101.257 265.438C11.6719 355.023 11.6221 501.591 101.146 591.115L634.956 1124.92C724.479 1214.45 871.047 1214.4 960.632 1124.81Z" fill="url(#paint2_linear_5312_664)"/>
<path d="M778.616 1024.07L1323.73 709.227C1415.15 656.425 1446.8 538.435 1394.06 447.053L1079.59 -97.8444C1026.85 -189.227 908.882 -220.799 817.463 -167.997L272.351 146.848C180.932 199.65 149.28 317.639 202.019 409.022L516.49 953.919C569.229 1045.3 687.197 1076.87 778.616 1024.07Z" fill="url(#paint3_linear_5312_664)"/>
<path d="M653.853 903.706L1160.46 767.799C1245.42 745.006 1296.34 656.842 1273.61 571.896L1138.05 65.3805C1115.32 -19.5655 1027.19 -70.4273 942.226 -47.6348L435.619 88.272C350.657 111.064 299.735 199.229 322.469 284.175L458.028 790.691C480.762 875.637 568.891 926.498 653.853 903.706Z" fill="url(#paint4_linear_5312_664)"/>
<path d="M579.404 779.893L1016.43 779.743C1089.72 779.718 1149.72 719.72 1149.74 646.428L1149.89 209.402C1149.92 136.11 1089.96 76.1535 1016.67 76.1787L579.646 76.3291C506.354 76.3544 446.357 136.352 446.332 209.644L446.182 646.67C446.156 719.963 506.112 779.919 579.404 779.893Z" fill="url(#paint5_linear_5312_664)"/>
<path d="M546.186 664.159L897.932 758.297C956.922 774.084 1018.15 738.722 1033.98 679.721L1128.36 327.909C1144.18 268.908 1108.86 207.707 1049.87 191.919L698.127 97.7814C639.137 81.9938 577.912 117.357 562.084 176.358L467.704 528.169C451.875 587.171 487.196 648.372 546.186 664.159Z" fill="url(#paint6_linear_5312_664)"/>
<path d="M544.427 563.814L807.204 715.468C851.274 740.902 908.174 725.637 933.638 681.55L1085.47 418.667C1110.94 374.58 1095.71 317.69 1051.64 292.256L788.865 140.602C744.796 115.169 687.895 130.433 662.431 174.521L510.595 437.403C485.132 481.49 500.357 538.381 544.427 563.814Z" fill="url(#paint7_linear_5312_664)"/>
<path d="M564.647 482.653L743.419 661.424C773.4 691.406 822.485 691.389 852.487 661.387L1031.38 482.492C1061.38 452.49 1061.4 403.404 1031.42 373.423L852.649 194.652C822.667 164.671 773.582 164.688 743.58 194.69L564.685 373.585C534.683 403.586 534.666 452.672 564.647 482.653Z" fill="url(#paint8_linear_5312_664)"/>
<path d="M598.426 421.673L703.742 604.157C721.404 634.761 760.911 645.334 791.527 627.651L974.085 522.21C1004.7 504.526 1015.3 465.012 997.639 434.408L892.324 251.924C874.662 221.32 835.154 210.747 804.538 228.43L621.981 333.871C591.365 351.554 580.764 391.069 598.426 421.673Z" fill="url(#paint9_linear_5312_664)"/>
<path d="M638.762 379.863L684.161 549.494C691.774 577.942 721.289 594.975 749.742 587.342L919.404 541.827C947.858 534.194 964.912 504.668 957.298 476.22L911.9 306.589C904.286 278.141 874.772 261.108 846.318 268.741L676.656 314.256C648.203 321.889 631.149 351.415 638.762 379.863Z" fill="url(#paint10_linear_5312_664)"/>
</g>
</g>
<defs>
<filter id="filter0_f_5312_664" x="-1043" y="-1413" width="3682.07" height="3682.07" filterUnits="userSpaceOnUse" color-interpolation-filters="sRGB">
<feFlood flood-opacity="0" result="BackgroundImageFix"/>
<feBlend mode="normal" in="SourceGraphic" in2="BackgroundImageFix" result="shape"/>
<feGaussianBlur stdDeviation="75" result="effect1_foregroundBlur_5312_664"/>
</filter>
<linearGradient id="paint0_linear_5312_664" x1="519.16" y1="1284.4" x2="983.493" y2="-425.341" gradientUnits="userSpaceOnUse">
<stop offset="0.105" stop-color="#087CFA"/>
<stop offset="0.485" stop-color="#07C3F2"/>
<stop offset="1" stop-color="#FCF84A"/>
</linearGradient>
<linearGradient id="paint1_linear_5312_664" x1="388.896" y1="1057.33" x2="1131.67" y2="-218.817" gradientUnits="userSpaceOnUse">
<stop offset="0.105" stop-color="#087CFA"/>
<stop offset="0.485" stop-color="#07C3F2"/>
<stop offset="1" stop-color="#FCF84A"/>
</linearGradient>
<linearGradient id="paint2_linear_5312_664" x1="333.034" y1="846.431" x2="1206.35" y2="-20.476" gradientUnits="userSpaceOnUse">
<stop offset="0.105" stop-color="#087CFA"/>
<stop offset="0.485" stop-color="#07C3F2"/>
<stop offset="1" stop-color="#FCF84A"/>
</linearGradient>
<linearGradient id="paint3_linear_5312_664" x1="333.573" y1="664.589" x2="1223.56" y2="155.319" gradientUnits="userSpaceOnUse">
<stop offset="0.105" stop-color="#087CFA"/>
<stop offset="0.485" stop-color="#07C3F2"/>
<stop offset="1" stop-color="#FCF84A"/>
</linearGradient>
<linearGradient id="paint4_linear_5312_664" x1="373.222" y1="518.303" x2="1199.37" y2="300.458" gradientUnits="userSpaceOnUse">
<stop offset="0.105" stop-color="#087CFA"/>
<stop offset="0.485" stop-color="#07C3F2"/>
<stop offset="1" stop-color="#FCF84A"/>
</linearGradient>
<linearGradient id="paint5_linear_5312_664" x1="436.68" y1="409.083" x2="1148.54" y2="411.949" gradientUnits="userSpaceOnUse">
<stop offset="0.105" stop-color="#087CFA"/>
<stop offset="0.485" stop-color="#07C3F2"/>
<stop offset="1" stop-color="#FCF84A"/>
</linearGradient>
<linearGradient id="paint6_linear_5312_664" x1="511.3" y1="334.842" x2="1083.6" y2="490.631" gradientUnits="userSpaceOnUse">
<stop offset="0.105" stop-color="#087CFA"/>
<stop offset="0.485" stop-color="#07C3F2"/>
<stop offset="1" stop-color="#FCF84A"/>
</linearGradient>
<linearGradient id="paint7_linear_5312_664" x1="587.379" y1="291.161" x2="1014.42" y2="539.911" gradientUnits="userSpaceOnUse">
<stop offset="0.105" stop-color="#087CFA"/>
<stop offset="0.485" stop-color="#07C3F2"/>
<stop offset="1" stop-color="#FCF84A"/>
</linearGradient>
<linearGradient id="paint8_linear_5312_664" x1="658.021" y1="272.408" x2="948.149" y2="564.678" gradientUnits="userSpaceOnUse">
<stop offset="0.105" stop-color="#087CFA"/>
<stop offset="0.485" stop-color="#07C3F2"/>
<stop offset="1" stop-color="#FCF84A"/>
</linearGradient>
<linearGradient id="paint9_linear_5312_664" x1="718.919" y1="272.546" x2="889.475" y2="570.366" gradientUnits="userSpaceOnUse">
<stop offset="0.105" stop-color="#087CFA"/>
<stop offset="0.485" stop-color="#07C3F2"/>
<stop offset="1" stop-color="#FCF84A"/>
</linearGradient>
<linearGradient id="paint10_linear_5312_664" x1="767.898" y1="285.792" x2="840.994" y2="562.33" gradientUnits="userSpaceOnUse">
<stop offset="0.105" stop-color="#087CFA"/>
<stop offset="0.485" stop-color="#07C3F2"/>
<stop offset="1" stop-color="#FCF84A"/>
</linearGradient>
<clipPath id="clip0_5312_664">
<rect width="1280" height="300" fill="white"/>
</clipPath>
</defs>
</svg>
