<svg width="1280" height="300" viewBox="0 0 1280 300" fill="none" xmlns="http://www.w3.org/2000/svg">
<g clip-path="url(#clip0_2608_2429)">
<rect width="1280" height="300" fill="url(#paint0_linear_2608_2429)"/>
<g clip-path="url(#clip1_2608_2429)">
<rect width="1388" height="1388" transform="translate(-54 -288)" fill="url(#paint1_linear_2608_2429)"/>
<g filter="url(#filter0_f_2608_2429)">
<ellipse cx="700.073" cy="1313.72" rx="648.518" ry="471.669" transform="rotate(57.1269 700.073 1313.72)" fill="#FF318C"/>
</g>
<g filter="url(#filter1_f_2608_2429)">
<ellipse cx="1019.1" cy="566.279" rx="554.461" ry="502.927" transform="rotate(43.7455 1019.1 566.279)" fill="#6B57FF"/>
</g>
<g filter="url(#filter2_f_2608_2429)">
<ellipse cx="1249.65" cy="-147.974" rx="888.295" ry="805.734" transform="rotate(43.7455 1249.65 -147.974)" fill="#FC801D"/>
</g>
<g filter="url(#filter3_f_2608_2429)">
<ellipse cx="341.275" cy="-34.0299" rx="648.518" ry="471.669" transform="rotate(32.7264 341.275 -34.0299)" fill="#FF318C"/>
</g>
</g>
<g clip-path="url(#clip2_2608_2429)">
<path d="M1072.93 132.181C1071.76 118.381 1056.67 108.372 1039.23 109.823C1021.79 111.28 1008.59 123.647 1009.76 137.446C1009.88 138.841 1010.14 140.194 1010.53 141.505C1014.01 153.153 1027.78 161.11 1043.46 159.804C1058.58 158.545 1070.5 149.081 1072.65 137.592C1072.98 135.831 1073.08 134.018 1072.93 132.181Z" fill="#E1195B"/>
<path d="M1133.3 33.6011C1130.33 31.7364 1125.98 33.1267 1122.44 37.0581C1118.41 41.5249 1115.23 49.1152 1113.69 53.0419C1113.69 53.0419 1109.94 49.9419 1110.89 34.2775C1111.31 27.5514 1109.32 22.7652 1103.42 23.0094C1091.03 23.5214 1096.07 54.1269 1095.71 54.1034C1095.36 54.0846 1091.85 50.1486 1090.63 45.2026C1089.42 40.2567 1088.8 27.8426 1078.3 32.502C1066.33 37.8143 1085.61 73.9388 1085.61 73.9388C1085.61 73.9388 1080.39 73.6663 1073.66 75.8833C1066.93 78.105 1067.62 83.9292 1069.3 87.0386C1070.49 89.2321 1074.06 89.9038 1082.12 89.063C1090.06 88.2317 1092.31 98.3349 1101.39 99.4293C1103.34 99.6641 1105.01 111.848 1102.86 119.603C1100.71 127.357 1097.61 128.809 1092.37 130.345C1087.13 131.881 1084.79 127.771 1084.79 127.771C1084.79 127.771 1041.29 29.6885 1023.64 34.2963C1016.15 36.2502 1018.55 58.6501 1013.96 79.3685C1007.72 107.503 1003.44 124.605 995.797 135.789C988.16 146.972 976.445 149.222 974.577 161.974C972.709 174.731 980.687 181.866 973.22 195.694C969.299 202.96 960.834 206.154 960.999 211.551C961.17 216.948 968.074 220.597 971.016 219.136C972.747 218.277 974.549 216.393 975.745 214.984C976.374 210.71 977.136 206.375 977.987 202.058C978.015 201.913 978.044 201.767 978.072 201.621C978.209 200.926 978.351 200.231 978.493 199.536C978.564 199.184 978.64 198.831 978.715 198.474C978.819 197.986 978.919 197.493 979.023 197.004C979.113 196.577 979.207 196.154 979.297 195.727C979.387 195.304 979.477 194.886 979.571 194.463C979.586 194.402 979.6 194.341 979.609 194.28C979.76 193.59 979.917 192.904 980.073 192.218C980.106 192.072 980.139 191.927 980.172 191.781C980.309 191.171 980.451 190.56 980.593 189.954C980.645 189.729 980.697 189.503 980.749 189.278C980.886 188.691 981.023 188.108 981.165 187.526C981.203 187.361 981.245 187.192 981.283 187.028C981.458 186.3 981.633 185.577 981.813 184.853C981.86 184.665 981.908 184.477 981.955 184.29C982.087 183.745 982.224 183.205 982.362 182.664C982.423 182.425 982.485 182.185 982.541 181.941C982.678 181.406 982.811 180.875 982.948 180.344C982.995 180.156 983.043 179.968 983.09 179.78C983.265 179.099 983.44 178.423 983.62 177.751C983.676 177.531 983.733 177.315 983.795 177.094C983.922 176.615 984.045 176.14 984.173 175.671C984.239 175.417 984.305 175.168 984.376 174.919C984.509 174.435 984.636 173.952 984.769 173.472C984.821 173.28 984.873 173.087 984.925 172.895C985.1 172.265 985.27 171.641 985.44 171.021C985.507 170.786 985.573 170.551 985.634 170.316C985.748 169.903 985.866 169.494 985.979 169.09C986.055 168.827 986.126 168.569 986.202 168.31C986.32 167.897 986.438 167.484 986.552 167.075C986.613 166.868 986.67 166.657 986.731 166.45C986.892 165.882 987.058 165.323 987.219 164.774C987.29 164.525 987.36 164.285 987.431 164.041C987.535 163.693 987.635 163.346 987.734 163.008C987.81 162.754 987.885 162.5 987.956 162.247C988.06 161.894 988.164 161.542 988.268 161.195C988.349 160.927 988.429 160.664 988.505 160.401C988.637 159.955 988.77 159.518 988.902 159.086C988.973 158.855 989.039 158.63 989.11 158.405C989.205 158.095 989.299 157.789 989.389 157.489C989.456 157.268 989.522 157.052 989.588 156.836C989.692 156.502 989.791 156.173 989.891 155.849C989.962 155.615 990.037 155.38 990.108 155.154C990.222 154.783 990.335 154.421 990.449 154.065C990.51 153.867 990.572 153.675 990.633 153.477C990.718 153.205 990.803 152.942 990.884 152.679C990.941 152.5 990.997 152.322 991.054 152.148C991.158 151.819 991.257 151.505 991.361 151.19C991.404 151.058 991.447 150.927 991.489 150.795C991.598 150.448 991.707 150.114 991.815 149.79C991.858 149.649 991.905 149.518 991.948 149.382C992.028 149.128 992.113 148.879 992.189 148.639C992.227 148.527 992.265 148.409 992.303 148.297C992.411 147.958 992.52 147.63 992.624 147.315C992.624 147.315 992.624 147.315 992.624 147.31C992.917 146.418 993.177 145.638 993.4 144.981C993.4 144.976 993.4 144.966 993.404 144.962C993.537 144.577 993.65 144.234 993.754 143.933C993.788 143.844 993.816 143.759 993.844 143.675C993.849 143.661 993.854 143.642 993.858 143.628C993.882 143.562 993.901 143.501 993.925 143.44C993.934 143.412 993.944 143.384 993.953 143.355C993.972 143.299 993.991 143.243 994.01 143.186C994.01 143.177 994.019 143.163 994.019 143.153C994.038 143.097 994.057 143.045 994.071 142.998C994.081 142.975 994.085 142.951 994.095 142.928C994.104 142.904 994.114 142.881 994.119 142.858C994.133 142.82 994.142 142.787 994.152 142.759C994.156 142.745 994.161 142.726 994.166 142.712C994.204 142.599 994.227 142.543 994.227 142.543L1010.52 141.514C1010.13 140.204 1009.87 138.851 1009.75 137.456C1008.58 123.656 1021.78 111.289 1039.22 109.833C1056.67 108.377 1071.75 118.386 1072.92 132.191C1073.07 134.027 1072.97 135.836 1072.64 137.602H1072.66L1087.18 136.686C1087.48 137.071 1087.88 137.766 1088.33 138.71L1091.43 146.352L1093.47 151.397C1093.8 152.359 1094.12 153.36 1094.46 154.398C1095.83 135.248 1101.37 134.323 1105.33 128.616C1110.71 120.862 1105.87 99.03 1118.01 93.7177C1126.35 90.0682 1127.51 84.1077 1128.28 78.88C1129.04 73.6522 1126.3 63.8684 1128.53 56.6821C1131.67 46.593 1142.65 39.4911 1133.29 33.6152L1133.3 33.6011Z" fill="black"/>
<path d="M1036.13 244.171C1035.99 244.181 1035.84 244.2 1035.7 244.209C1035.85 244.195 1035.99 244.181 1036.13 244.171Z" fill="white"/>
<path d="M1037.26 244.11C1037.14 244.11 1037.02 244.124 1036.9 244.129C1037.02 244.124 1037.14 244.115 1037.26 244.11Z" fill="white"/>
<path d="M1102.61 183.984C1100.05 172.876 1097.12 162.547 1094.47 154.384C1092.6 149.137 1089.86 141.519 1087.19 136.676C1087.18 136.676 1072.65 137.592 1072.64 137.592C1068.44 164.374 1017.69 167.836 1010.53 141.509L994.233 142.538C994.081 142.966 993.906 143.482 993.755 143.928C986.056 167.075 979.444 190.856 975.751 214.98C971.996 240.47 972.894 263.744 987.489 267.351C996.224 269.512 1002.72 264.148 1009.85 258.032C1010.7 257.313 1011.54 256.581 1012.41 255.848C1012.51 255.759 1012.62 255.67 1012.72 255.585C1012.82 255.496 1012.93 255.411 1013.03 255.322C1013.17 255.205 1013.31 255.087 1013.45 254.97C1013.55 254.88 1013.66 254.796 1013.76 254.707C1013.91 254.589 1014.04 254.476 1014.19 254.359C1014.3 254.265 1014.41 254.171 1014.53 254.077C1014.66 253.969 1014.8 253.861 1014.93 253.753C1015.05 253.659 1015.16 253.565 1015.28 253.471C1015.42 253.363 1015.55 253.26 1015.68 253.152C1015.8 253.058 1015.92 252.964 1016.04 252.87C1016.17 252.767 1016.3 252.663 1016.44 252.56C1016.56 252.466 1016.68 252.377 1016.81 252.283C1016.94 252.18 1017.08 252.076 1017.21 251.973C1017.34 251.884 1017.46 251.79 1017.58 251.701C1017.72 251.597 1017.86 251.499 1017.99 251.395C1018.12 251.306 1018.24 251.217 1018.37 251.128C1018.5 251.029 1018.65 250.93 1018.79 250.832C1018.91 250.742 1019.04 250.658 1019.17 250.569C1019.31 250.47 1019.45 250.376 1019.59 250.277C1019.72 250.193 1019.85 250.104 1019.98 250.019C1020.12 249.925 1020.26 249.831 1020.41 249.737C1020.54 249.653 1020.67 249.568 1020.81 249.484C1020.95 249.394 1021.1 249.3 1021.24 249.211C1021.37 249.127 1021.51 249.047 1021.64 248.967C1021.79 248.878 1021.93 248.793 1022.08 248.704C1022.22 248.624 1022.35 248.544 1022.49 248.469C1022.63 248.385 1022.78 248.3 1022.93 248.215C1023.07 248.14 1023.21 248.065 1023.35 247.99C1023.5 247.91 1023.65 247.83 1023.8 247.75C1023.95 247.675 1024.08 247.605 1024.23 247.534C1024.38 247.455 1024.54 247.379 1024.69 247.304C1024.84 247.234 1024.98 247.168 1025.12 247.098C1025.28 247.022 1025.44 246.952 1025.59 246.881C1025.74 246.816 1025.88 246.75 1026.03 246.684C1026.19 246.614 1026.35 246.548 1026.51 246.478C1026.66 246.416 1026.81 246.355 1026.95 246.294C1027.12 246.229 1027.28 246.168 1027.45 246.102C1027.6 246.045 1027.74 245.989 1027.9 245.933C1028.06 245.872 1028.23 245.811 1028.4 245.754C1028.55 245.703 1028.7 245.651 1028.86 245.599C1029.03 245.543 1029.2 245.486 1029.38 245.435C1029.53 245.388 1029.68 245.341 1029.83 245.294C1030.01 245.242 1030.19 245.195 1030.37 245.144C1030.53 245.101 1030.68 245.059 1030.83 245.017C1031.02 244.97 1031.2 244.928 1031.38 244.885C1031.54 244.848 1031.69 244.81 1031.85 244.777C1032.04 244.735 1032.23 244.697 1032.42 244.66C1032.57 244.627 1032.73 244.594 1032.89 244.566C1033.08 244.528 1033.28 244.5 1033.48 244.467C1033.64 244.444 1033.79 244.416 1033.95 244.392C1034.15 244.364 1034.36 244.336 1034.57 244.312C1034.72 244.293 1034.88 244.27 1035.03 244.256C1035.25 244.232 1035.48 244.214 1035.7 244.195C1035.85 244.181 1035.99 244.167 1036.13 244.157C1036.38 244.138 1036.64 244.129 1036.9 244.115C1037.02 244.11 1037.14 244.101 1037.26 244.096C1037.64 244.082 1038.02 244.073 1038.41 244.073C1050.59 244.073 1058.28 251.461 1065.89 258.347C1066.6 258.99 1067.32 259.634 1068.03 260.263C1068.75 260.893 1069.47 261.513 1070.19 262.114C1070.44 262.316 1070.68 262.513 1070.92 262.71C1071.41 263.105 1071.9 263.49 1072.39 263.861C1072.64 264.049 1072.89 264.232 1073.14 264.415C1073.64 264.777 1074.14 265.129 1074.65 265.467C1075.42 265.975 1076.2 266.449 1077 266.891C1078.59 267.769 1080.26 268.497 1082.02 269.032C1082.61 269.211 1083.21 269.366 1083.82 269.493C1084.13 269.558 1084.43 269.62 1084.75 269.671C1085.37 269.779 1086 269.859 1086.66 269.911C1086.98 269.939 1087.31 269.958 1087.64 269.972C1089.3 270.038 1091.05 269.93 1092.9 269.615C1093.32 269.544 1093.72 269.455 1094.12 269.357C1094.24 269.324 1094.37 269.291 1094.49 269.253C1094.76 269.178 1095.03 269.098 1095.29 269.014C1095.43 268.967 1095.57 268.92 1095.71 268.873C1095.96 268.779 1096.21 268.68 1096.46 268.577C1096.58 268.525 1096.71 268.478 1096.83 268.427C1097.15 268.281 1097.45 268.126 1097.76 267.962C1097.96 267.858 1098.14 267.745 1098.33 267.633C1098.45 267.562 1098.57 267.487 1098.69 267.412C1098.91 267.276 1099.12 267.13 1099.33 266.985C1099.38 266.947 1099.43 266.909 1099.48 266.872C1114.54 255.848 1110.14 216.567 1102.61 183.98V183.984Z" fill="white"/>
<path d="M1024.22 247.553C1024.08 247.624 1023.94 247.699 1023.8 247.769C1023.94 247.694 1024.08 247.624 1024.22 247.553Z" fill="white"/>
<path d="M1025.11 247.116C1024.97 247.182 1024.83 247.252 1024.69 247.323C1024.83 247.252 1024.97 247.187 1025.11 247.116Z" fill="white"/>
<path d="M1026.02 246.703C1025.88 246.769 1025.73 246.835 1025.59 246.9C1025.73 246.835 1025.88 246.769 1026.02 246.703Z" fill="white"/>
<path d="M1026.95 246.313C1026.8 246.374 1026.65 246.435 1026.51 246.496C1026.65 246.435 1026.8 246.374 1026.95 246.313Z" fill="white"/>
<path d="M1035.03 244.27C1034.87 244.289 1034.72 244.308 1034.56 244.326C1034.72 244.308 1034.87 244.284 1035.03 244.27Z" fill="white"/>
<path d="M1029.83 245.312C1029.67 245.359 1029.52 245.406 1029.37 245.453C1029.52 245.406 1029.68 245.359 1029.83 245.312Z" fill="white"/>
</g>
</g>
<defs>
<filter id="filter0_f_2608_2429" x="-329.872" y="211.735" width="2059.89" height="2203.97" filterUnits="userSpaceOnUse" color-interpolation-filters="sRGB">
<feFlood flood-opacity="0" result="BackgroundImageFix"/>
<feBlend mode="normal" in="SourceGraphic" in2="BackgroundImageFix" result="shape"/>
<feGaussianBlur stdDeviation="250" result="effect1_foregroundBlur_2608_2429"/>
</filter>
<filter id="filter1_f_2608_2429" x="-11.3584" y="-461.916" width="2060.91" height="2056.39" filterUnits="userSpaceOnUse" color-interpolation-filters="sRGB">
<feFlood flood-opacity="0" result="BackgroundImageFix"/>
<feBlend mode="normal" in="SourceGraphic" in2="BackgroundImageFix" result="shape"/>
<feGaussianBlur stdDeviation="250" result="effect1_foregroundBlur_2608_2429"/>
</filter>
<filter id="filter2_f_2608_2429" x="-100.19" y="-1494.19" width="2699.67" height="2692.43" filterUnits="userSpaceOnUse" color-interpolation-filters="sRGB">
<feFlood flood-opacity="0" result="BackgroundImageFix"/>
<feBlend mode="normal" in="SourceGraphic" in2="BackgroundImageFix" result="shape"/>
<feGaussianBlur stdDeviation="250" result="effect1_foregroundBlur_2608_2429"/>
</filter>
<filter id="filter3_f_2608_2429" x="-761.093" y="-1063.54" width="2204.73" height="2059.02" filterUnits="userSpaceOnUse" color-interpolation-filters="sRGB">
<feFlood flood-opacity="0" result="BackgroundImageFix"/>
<feBlend mode="normal" in="SourceGraphic" in2="BackgroundImageFix" result="shape"/>
<feGaussianBlur stdDeviation="250" result="effect1_foregroundBlur_2608_2429"/>
</filter>
<linearGradient id="paint0_linear_2608_2429" x1="1.40587e-05" y1="122.917" x2="1279.05" y2="161.288" gradientUnits="userSpaceOnUse">
<stop offset="0.311808" stop-color="#060606"/>
<stop offset="1" stop-color="#3051C7"/>
</linearGradient>
<linearGradient id="paint1_linear_2608_2429" x1="1420.62" y1="-41.6399" x2="4.26066e-05" y2="1388" gradientUnits="userSpaceOnUse">
<stop stop-color="#6B57FF"/>
<stop offset="1" stop-color="#080042"/>
</linearGradient>
<clipPath id="clip0_2608_2429">
<rect width="1280" height="300" fill="white"/>
</clipPath>
<clipPath id="clip1_2608_2429">
<rect width="1388" height="1388" fill="white" transform="translate(-54 -288)"/>
</clipPath>
<clipPath id="clip2_2608_2429">
<rect width="176" height="247" fill="white" transform="translate(961 23)"/>
</clipPath>
</defs>
</svg>
