<svg width="1280" height="300" viewBox="0 0 1280 300" fill="none" xmlns="http://www.w3.org/2000/svg">
<g clip-path="url(#clip0_5312_210)">
<rect width="1280" height="300" fill="#FF328C"/>
<path d="M399.779 -444.252L180.108 193.817C143.112 301.279 200.173 418.373 307.558 455.354L945.17 674.936C1052.56 711.917 1169.6 654.782 1206.6 547.32L1426.27 -90.7487C1463.26 -198.211 1406.2 -315.305 1298.82 -352.286L661.204 -571.868C553.819 -608.849 436.775 -551.714 399.779 -444.252Z" fill="url(#paint0_linear_5312_210)"/>
<path d="M491.06 -322.766L136.112 131.779C76.3332 208.331 89.8772 318.857 166.363 378.644L620.516 733.649C697.002 793.437 807.466 779.847 867.245 703.295L1222.19 248.749C1281.97 172.197 1268.43 61.6716 1191.94 1.88382L737.789 -353.121C661.303 -412.908 550.839 -399.318 491.06 -322.766Z" fill="url(#paint1_linear_5312_210)"/>
<path d="M531.032 -199.157L117.814 69.3911C48.2203 114.619 28.4273 207.722 73.6046 277.341L341.851 690.713C387.028 760.332 480.068 780.105 549.661 734.877L962.88 466.329C1032.47 421.1 1052.27 327.998 1007.09 258.379L738.843 -154.994C693.665 -224.613 600.625 -244.385 531.032 -199.157Z" fill="url(#paint2_linear_5312_210)"/>
<path d="M528.959 -88.1249L120.371 13.8743C51.5613 31.0519 9.67753 100.787 26.8212 169.632L128.619 578.43C145.763 647.275 215.442 689.159 284.252 671.982L692.84 569.983C761.65 552.805 803.534 483.07 786.39 414.225L684.592 5.42732C667.448 -63.4177 597.769 -105.302 528.959 -88.1249Z" fill="url(#paint3_linear_5312_210)"/>
<path d="M496.399 1.03621L137.893 -30.2864C77.5118 -35.5619 24.272 9.14096 18.9788 69.5602L-12.4485 428.29C-17.7417 488.71 26.9162 541.966 87.2977 547.241L445.803 578.564C506.185 583.84 559.424 539.137 564.718 478.717L596.145 119.987C601.438 59.5679 556.78 6.31174 496.399 1.03621Z" fill="url(#paint4_linear_5312_210)"/>
<path d="M445.3 64.0336L164.314 -61.1051C116.993 -82.18 61.5431 -60.8741 40.4645 -13.5171L-84.6964 267.679C-105.775 315.036 -84.5008 370.512 -37.1793 391.586L243.806 516.725C291.128 537.8 346.577 516.494 367.655 469.137L492.816 187.94C513.895 140.584 492.621 85.1085 445.3 64.0336Z" fill="url(#paint5_linear_5312_210)"/>
<path d="M386.49 100.729L194.243 -78.6465C161.866 -108.856 111.136 -107.074 80.9332 -74.6673L-98.4019 117.756C-128.604 150.163 -126.842 200.923 -94.4646 231.132L97.7824 410.508C130.159 440.717 180.89 438.936 211.093 406.53L390.428 214.106C420.63 181.699 418.867 130.939 386.49 100.729Z" fill="url(#paint6_linear_5312_210)"/>
<path d="M328.768 114.017L223.305 -84.4941C205.545 -117.924 164.059 -130.608 130.644 -112.826L-67.7855 -7.23182C-101.201 10.5503 -113.892 52.065 -96.1323 85.4944L9.33056 284.006C27.0906 317.435 68.5761 330.12 101.992 312.337L300.421 206.743C333.837 188.961 346.528 147.446 328.768 114.017Z" fill="url(#paint7_linear_5312_210)"/>
<path d="M278.427 108.662L248.415 -81.1385C243.361 -113.102 213.365 -134.905 181.419 -129.837L-8.27892 -99.7416C-40.2251 -94.6735 -62.0253 -64.6535 -56.9712 -32.69L-26.9594 157.111C-21.9053 189.074 8.08928 210.877 40.0355 205.809L229.734 175.714C261.68 170.646 283.481 140.626 278.427 108.662Z" fill="url(#paint8_linear_5312_210)"/>
<path d="M239.232 90.342L267.765 -71.4236C272.57 -98.6645 254.397 -124.637 227.174 -129.436L65.5146 -157.931C38.2917 -162.729 12.3279 -144.536 7.52289 -117.295L-21.0107 44.4703C-25.8157 71.7111 -7.64231 97.6842 19.5806 102.483L181.24 130.978C208.463 135.776 234.427 117.583 239.232 90.342Z" fill="url(#paint9_linear_5312_210)"/>
<path d="M212.663 64.605L280.703 -58.1893C292.161 -78.8686 284.699 -104.921 264.036 -116.379L141.338 -184.418C120.675 -195.876 94.6354 -188.401 83.177 -167.721L15.1369 -44.927C3.67854 -24.2476 11.1405 1.80514 31.8035 13.2632L154.501 81.3016C175.164 92.7597 201.204 85.2844 212.663 64.605Z" fill="url(#paint10_linear_5312_210)"/>
<path d="M198.353 36.4089L287.475 -43.8877C302.486 -57.4128 303.702 -80.55 290.19 -95.5659L209.972 -184.713C196.46 -199.729 173.338 -200.937 158.326 -187.412L69.2042 -107.116C54.1926 -93.5907 52.9768 -70.454 66.4886 -55.4381L146.706 33.709C160.218 48.7248 183.341 49.934 198.353 36.4089Z" fill="url(#paint11_linear_5312_210)"/>
<path d="M194.62 9.64661L288.98 -30.4442C304.868 -37.1946 312.283 -55.553 305.542 -71.4483L265.511 -165.843C258.77 -181.739 240.426 -189.152 224.538 -182.401L130.178 -142.311C114.289 -135.56 106.874 -117.203 113.615 -101.307L153.646 -6.91235C160.387 8.983 178.732 16.397 194.62 9.64661Z" fill="url(#paint12_linear_5312_210)"/>
<g clip-path="url(#clip1_5312_210)">
<mask id="mask0_5312_210" style="mask-type:luminance" maskUnits="userSpaceOnUse" x="773" y="76" width="264" height="148">
<path d="M773.391 76.0944H1036.61V223.906H773.391V76.0944Z" fill="white"/>
</mask>
<g mask="url(#mask0_5312_210)">
<path d="M847.3 157.616C852.813 157.616 856.929 156.601 859.533 154.6C862.11 152.619 863.889 149.188 864.822 144.402C865.692 139.928 865.36 136.805 863.838 135.119C862.281 133.397 858.915 132.524 853.833 132.524H845.022L840.138 157.616H847.3ZM818.482 188.524C818.073 188.524 817.684 188.341 817.424 188.026C817.164 187.71 817.058 187.295 817.136 186.894L830.081 120.401C830.207 119.759 830.771 119.294 831.427 119.294H859.327C868.096 119.294 874.622 121.671 878.724 126.36C882.849 131.073 884.122 137.661 882.51 145.94C881.853 149.314 880.725 152.446 879.155 155.251C877.583 158.059 875.506 160.657 872.981 162.975C869.957 165.8 866.536 167.848 862.819 169.053C859.162 170.243 854.466 170.846 848.86 170.846H837.563L834.336 187.416C834.211 188.059 833.647 188.524 832.991 188.524H818.482Z" fill="white"/>
<path d="M915.777 170.846C915.367 170.846 914.979 170.663 914.719 170.347C914.458 170.032 914.353 169.618 914.431 169.216L920.157 139.796C920.702 136.998 920.568 134.99 919.779 134.141C919.297 133.622 917.847 132.752 913.561 132.752H903.187L895.987 169.738C895.862 170.381 895.298 170.846 894.642 170.846H880.247C879.837 170.846 879.449 170.663 879.189 170.347C878.929 170.032 878.823 169.617 878.901 169.216L891.846 102.723C891.971 102.081 892.536 101.616 893.192 101.616H907.587C907.996 101.616 908.384 101.799 908.645 102.114C908.905 102.43 909.011 102.844 908.933 103.246L905.809 119.294H916.969C925.471 119.294 931.236 120.791 934.594 123.869C938.017 127.01 939.085 132.031 937.768 138.796L931.746 169.738C931.62 170.381 931.056 170.846 930.4 170.846H915.777Z" fill="white"/>
<path d="M960.545 157.616C966.058 157.616 970.174 156.601 972.778 154.6C975.355 152.62 977.134 149.189 978.067 144.402C978.937 139.928 978.606 136.805 977.083 135.119C975.526 133.397 972.16 132.524 967.078 132.524H958.267L953.383 157.616H960.545ZM931.727 188.524C931.318 188.524 930.93 188.341 930.67 188.026C930.409 187.71 930.303 187.295 930.381 186.894L943.327 120.401C943.452 119.759 944.016 119.294 944.673 119.294H972.572C981.341 119.294 987.867 121.671 991.97 126.36C996.094 131.072 997.367 137.66 995.755 145.94C995.098 149.314 993.97 152.446 992.4 155.251C990.828 158.059 988.751 160.657 986.226 162.975C983.202 165.8 979.781 167.848 976.065 169.053C972.407 170.243 967.711 170.846 962.105 170.846H950.807L947.582 187.416C947.457 188.059 946.893 188.524 946.236 188.524H931.727Z" fill="white"/>
</g>
<path fill-rule="evenodd" clip-rule="evenodd" d="M905 216.35C835.223 216.35 778.656 186.644 778.656 150C778.656 113.357 835.223 83.6497 905 83.6497C974.776 83.6497 1031.34 113.357 1031.34 150C1031.34 186.644 974.776 216.35 905 216.35ZM1026.41 150C1026.41 183.923 972.051 211.424 905 211.424C837.949 211.424 783.591 183.923 783.591 150C783.591 116.077 837.949 88.5756 905 88.5756C972.051 88.5756 1026.41 116.077 1026.41 150Z" fill="white"/>
</g>
</g>
<defs>
<linearGradient id="paint0_linear_5312_210" x1="298.315" y1="-141.425" x2="1254.55" y2="187.782" gradientUnits="userSpaceOnUse">
<stop offset="0.151042" stop-color="#FF318C"/>
<stop offset="0.67" stop-color="#B74AF7" stop-opacity="0.9"/>
<stop offset="1" stop-color="#6B57FF" stop-opacity="0.7"/>
</linearGradient>
<linearGradient id="paint1_linear_5312_210" x1="324.858" y1="-106.262" x2="1006.19" y2="425.783" gradientUnits="userSpaceOnUse">
<stop offset="0.151042" stop-color="#FF318C"/>
<stop offset="0.67" stop-color="#B74AF7" stop-opacity="0.9"/>
<stop offset="1" stop-color="#6B57FF" stop-opacity="0.7"/>
</linearGradient>
<linearGradient id="paint2_linear_5312_210" x1="336.526" y1="-70.4481" x2="739.228" y2="549.195" gradientUnits="userSpaceOnUse">
<stop offset="0.151042" stop-color="#FF318C"/>
<stop offset="0.67" stop-color="#B74AF7" stop-opacity="0.9"/>
<stop offset="1" stop-color="#6B57FF" stop-opacity="0.7"/>
</linearGradient>
<linearGradient id="paint3_linear_5312_210" x1="335.993" y1="-38.2534" x2="489.01" y2="574.703" gradientUnits="userSpaceOnUse">
<stop offset="0.151042" stop-color="#FF318C"/>
<stop offset="0.67" stop-color="#B74AF7" stop-opacity="0.9"/>
<stop offset="1" stop-color="#6B57FF" stop-opacity="0.7"/>
</linearGradient>
<linearGradient id="paint4_linear_5312_210" x1="326.612" y1="-12.383" x2="279.608" y2="525.612" gradientUnits="userSpaceOnUse">
<stop offset="0.151042" stop-color="#FF318C"/>
<stop offset="0.67" stop-color="#B74AF7" stop-opacity="0.9"/>
<stop offset="1" stop-color="#6B57FF" stop-opacity="0.7"/>
</linearGradient>
<linearGradient id="paint5_linear_5312_210" x1="311.833" y1="5.91193" x2="124.046" y2="427.567" gradientUnits="userSpaceOnUse">
<stop offset="0.151042" stop-color="#FF318C"/>
<stop offset="0.67" stop-color="#B74AF7" stop-opacity="0.9"/>
<stop offset="1" stop-color="#6B57FF" stop-opacity="0.7"/>
</linearGradient>
<linearGradient id="paint6_linear_5312_210" x1="294.807" y1="16.5928" x2="25.703" y2="305.007" gradientUnits="userSpaceOnUse">
<stop offset="0.151042" stop-color="#FF318C"/>
<stop offset="0.67" stop-color="#B74AF7" stop-opacity="0.9"/>
<stop offset="1" stop-color="#6B57FF" stop-opacity="0.7"/>
</linearGradient>
<linearGradient id="paint7_linear_5312_210" x1="278.08" y1="20.4844" x2="-19.5931" y2="178.629" gradientUnits="userSpaceOnUse">
<stop offset="0.151042" stop-color="#FF318C"/>
<stop offset="0.67" stop-color="#B74AF7" stop-opacity="0.9"/>
<stop offset="1" stop-color="#6B57FF" stop-opacity="0.7"/>
</linearGradient>
<linearGradient id="paint8_linear_5312_210" x1="263.481" y1="18.9564" x2="-21.0179" y2="63.942" gradientUnits="userSpaceOnUse">
<stop offset="0.151042" stop-color="#FF318C"/>
<stop offset="0.67" stop-color="#B74AF7" stop-opacity="0.9"/>
<stop offset="1" stop-color="#6B57FF" stop-opacity="0.7"/>
</linearGradient>
<linearGradient id="paint9_linear_5312_210" x1="252.103" y1="13.6744" x2="9.68441" y2="-29.0854" gradientUnits="userSpaceOnUse">
<stop offset="0.151042" stop-color="#FF318C"/>
<stop offset="0.67" stop-color="#B74AF7" stop-opacity="0.9"/>
<stop offset="1" stop-color="#6B57FF" stop-opacity="0.7"/>
</linearGradient>
<linearGradient id="paint10_linear_5312_210" x1="244.382" y1="6.22597" x2="60.3487" y2="-95.7467" gradientUnits="userSpaceOnUse">
<stop offset="0.151042" stop-color="#FF318C"/>
<stop offset="0.67" stop-color="#B74AF7" stop-opacity="0.9"/>
<stop offset="1" stop-color="#6B57FF" stop-opacity="0.7"/>
</linearGradient>
<linearGradient id="paint11_linear_5312_210" x1="240.216" y1="-1.9405" x2="119.826" y2="-135.562" gradientUnits="userSpaceOnUse">
<stop offset="0.151042" stop-color="#FF318C"/>
<stop offset="0.67" stop-color="#B74AF7" stop-opacity="0.9"/>
<stop offset="1" stop-color="#6B57FF" stop-opacity="0.7"/>
</linearGradient>
<linearGradient id="paint12_linear_5312_210" x1="239.12" y1="-9.69603" x2="178.995" y2="-151.208" gradientUnits="userSpaceOnUse">
<stop offset="0.151042" stop-color="#FF318C"/>
<stop offset="0.67" stop-color="#B74AF7" stop-opacity="0.9"/>
<stop offset="1" stop-color="#6B57FF" stop-opacity="0.7"/>
</linearGradient>
<clipPath id="clip0_5312_210">
<rect width="1280" height="300" fill="white"/>
</clipPath>
<clipPath id="clip1_5312_210">
<rect width="260" height="140" fill="white" transform="translate(775 80)"/>
</clipPath>
</defs>
</svg>
