<svg width="1280" height="300" viewBox="0 0 1280 300" fill="none" xmlns="http://www.w3.org/2000/svg">
<g clip-path="url(#clip0_2608_1052)">
<rect width="1280" height="300" fill="black"/>
<path d="M550.445 183.859L645.655 232.34L521.972 417.693L426.761 369.212L550.445 183.859Z" stroke="white" stroke-miterlimit="10"/>
<path d="M550.445 183.859L511.76 146.862C511.757 146.859 511.756 146.856 511.755 146.852C511.755 146.848 511.756 146.845 511.758 146.841C511.76 146.838 511.764 146.836 511.767 146.835C511.771 146.835 511.775 146.835 511.778 146.837L606.895 195.27L645.17 232.138C645.181 232.147 645.187 232.161 645.188 232.174C645.189 232.188 645.186 232.202 645.177 232.214C645.169 232.225 645.157 232.233 645.144 232.237C645.13 232.24 645.116 232.238 645.103 232.232L550.445 183.859Z" stroke="white" stroke-miterlimit="10"/>
<path d="M426.761 369.212L388 332.142L511.684 146.789L550.445 183.859L426.761 369.212Z" stroke="white" stroke-miterlimit="10"/>
<path d="M968.445 -129.93L1063.66 -81.4489L939.972 103.904L844.761 55.4233L968.445 -129.93Z" stroke="white" stroke-miterlimit="10"/>
<path d="M844.761 55.4231L806 18.3533L929.684 -167L968.445 -129.93L844.761 55.4231Z" stroke="white" stroke-miterlimit="10"/>
<path d="M970.678 544.753C854.526 428.602 854.526 240.283 970.678 124.131C1086.83 7.97966 1275.15 7.97964 1391.3 124.131C1507.45 240.283 1507.45 428.602 1391.3 544.753C1275.15 660.905 1086.83 660.905 970.678 544.753Z" fill="url(#paint0_linear_2608_1052)"/>
<path d="M1033.57 167.212C855.186 219.547 833.167 19.4619 591.277 192.742" stroke="white" stroke-width="4" stroke-linecap="round" stroke-linejoin="round" stroke-dasharray="1 14"/>
<path d="M795.118 188.902L809.233 191.147L795.118 193.39L792.958 208.059L790.798 193.39L776.683 191.147L790.798 188.902L792.958 174.233L795.118 188.902Z" fill="white"/>
<path d="M1219.41 124.249H1013.07V256.853H1219.41V124.249Z" fill="white"/>
<path d="M1218.97 124.684V256.417H1013.51V124.684H1218.97ZM1219.84 123.812H1012.64V257.288H1219.84V123.812Z" fill="black"/>
<path d="M1223.52 123.812H1219.84V257.288H1223.52C1224.18 257.288 1224.82 257.023 1225.3 256.551C1225.77 256.079 1226.03 255.439 1226.03 254.771V126.33C1226.03 125.662 1225.77 125.022 1225.3 124.55C1224.82 124.078 1224.18 123.812 1223.52 123.812Z" fill="black"/>
<path d="M1209.79 132.537H1023.41V247.735H1209.79V132.537Z" fill="black"/>
<path d="M1204.4 272.727H967.38C965.004 272.727 962.682 272.016 960.712 270.687C958.742 269.358 957.214 267.471 956.325 265.268L952.835 256.624H1219.73L1216.46 264.633C1215.48 267.026 1213.81 269.074 1211.66 270.515C1209.52 271.957 1206.99 272.727 1204.4 272.727Z" fill="black"/>
<mask id="mask0_2608_1052" style="mask-type:alpha" maskUnits="userSpaceOnUse" x="1023" y="132" width="187" height="116">
<path d="M1209.79 132.537H1023.41V247.735H1209.79V132.537Z" fill="black"/>
</mask>
<g mask="url(#mask0_2608_1052)">
<path d="M1010.05 237.18C1082 237.18 1140.33 178.853 1140.33 106.903C1140.33 34.9526 1082 -23.3745 1010.05 -23.3745C938.101 -23.3745 879.774 34.9526 879.774 106.903C879.774 178.853 938.101 237.18 1010.05 237.18Z" fill="#27282C"/>
</g>
<path d="M1021.97 156.638H1211.76" stroke="white" stroke-miterlimit="10"/>
<path d="M1054.38 256.419L1055.67 259.868C1055.84 260.322 1056.15 260.713 1056.55 260.99C1056.94 261.266 1057.42 261.414 1057.9 261.414H1096.96C1097.34 261.414 1097.7 261.308 1098.02 261.108C1098.34 260.909 1098.59 260.623 1098.75 260.286L1100.58 256.419L1054.38 256.419Z" fill="url(#paint1_linear_2608_1052)"/>
<path d="M1200.76 221.318L1206.91 282.969H1254.74L1260.88 221.318H1200.76Z" fill="white" stroke="black" stroke-miterlimit="10"/>
<path d="M1231.49 178.207V221.465" stroke="black" stroke-miterlimit="10"/>
<mask id="path-20-inside-1_2608_1052" fill="white">
<path d="M1231.52 181.36C1232.87 180.011 1233.94 178.409 1234.67 176.646C1235.4 174.883 1235.78 172.993 1235.78 171.085C1235.78 169.176 1235.4 167.286 1234.67 165.522C1233.94 163.759 1232.87 162.156 1231.52 160.807C1230.17 159.457 1228.57 158.387 1226.81 157.656C1225.04 156.926 1223.15 156.551 1221.25 156.551C1219.34 156.552 1217.45 156.929 1215.68 157.66C1213.92 158.391 1212.32 159.462 1210.97 160.813"/>
</mask>
<path d="M1231.52 181.36C1232.87 180.011 1233.94 178.409 1234.67 176.646C1235.4 174.883 1235.78 172.993 1235.78 171.085C1235.78 169.176 1235.4 167.286 1234.67 165.522C1233.94 163.759 1232.87 162.156 1231.52 160.807C1230.17 159.457 1228.57 158.387 1226.81 157.656C1225.04 156.926 1223.15 156.551 1221.25 156.551C1219.34 156.552 1217.45 156.929 1215.68 157.66C1213.92 158.391 1212.32 159.462 1210.97 160.813" fill="white"/>
<path d="M1232.22 182.067C1233.67 180.626 1234.81 178.914 1235.59 177.029L1233.75 176.263C1233.07 177.905 1232.07 179.396 1230.81 180.652L1232.22 182.067ZM1235.59 177.029C1236.38 175.145 1236.78 173.125 1236.78 171.085L1234.78 171.084C1234.78 172.862 1234.43 174.621 1233.75 176.263L1235.59 177.029ZM1236.78 171.085C1236.78 169.045 1236.38 167.025 1235.6 165.14L1233.75 165.905C1234.43 167.547 1234.78 169.307 1234.78 171.084L1236.78 171.085ZM1235.6 165.14C1234.82 163.255 1233.67 161.542 1232.23 160.1L1230.82 161.514C1232.07 162.771 1233.07 164.263 1233.75 165.905L1235.6 165.14ZM1232.23 160.1C1230.79 158.657 1229.08 157.513 1227.19 156.732L1226.43 158.58C1228.07 159.26 1229.56 160.257 1230.82 161.514L1232.23 160.1ZM1227.19 156.732C1225.31 155.952 1223.29 155.551 1221.25 155.551L1221.25 157.551C1223.02 157.551 1224.78 157.9 1226.43 158.58L1227.19 156.732ZM1221.25 155.551C1219.21 155.552 1217.19 155.954 1215.3 156.736L1216.07 158.583C1217.71 157.903 1219.47 157.552 1221.25 157.551L1221.25 155.551ZM1215.3 156.736C1213.42 157.518 1211.7 158.663 1210.26 160.106L1211.68 161.52C1212.93 160.262 1214.43 159.264 1216.07 158.583L1215.3 156.736Z" fill="black" mask="url(#path-20-inside-1_2608_1052)"/>
<path d="M1251.85 202.026C1254.58 199.301 1256.11 195.605 1256.11 191.752C1256.11 187.899 1254.58 184.203 1251.85 181.479C1250.5 180.129 1248.9 179.059 1247.14 178.329C1245.38 177.599 1243.49 177.223 1241.58 177.223C1237.73 177.223 1234.03 178.754 1231.31 181.479" fill="black"/>
<path d="M1249.1 167.111C1249.57 165.575 1248.71 163.944 1247.18 163.47C1245.64 162.996 1244.01 163.858 1243.53 165.394C1243.06 166.931 1243.92 168.561 1245.46 169.035C1246.99 169.509 1248.63 168.648 1249.1 167.111Z" fill="black"/>
<path d="M1231.36 181.204L1245.1 167.457" stroke="black" stroke-miterlimit="10"/>
<path d="M1036.45 170.067H1117.84" stroke="url(#paint2_linear_2608_1052)" stroke-linecap="round" stroke-linejoin="round"/>
<path d="M1128.2 170.067H1146.2" stroke="url(#paint3_linear_2608_1052)" stroke-linecap="round" stroke-linejoin="round"/>
<path d="M1036.45 183.303H1094.9" stroke="url(#paint4_linear_2608_1052)" stroke-linecap="round" stroke-linejoin="round"/>
<path d="M1108.47 182.81H1169.63" stroke="url(#paint5_linear_2608_1052)" stroke-linecap="round" stroke-linejoin="round"/>
<path d="M1036.45 196.044H1075.91" stroke="url(#paint6_linear_2608_1052)" stroke-linecap="round" stroke-linejoin="round"/>
<path d="M1087.75 196.292H1128.2" stroke="url(#paint7_linear_2608_1052)" stroke-linecap="round" stroke-linejoin="round"/>
<path d="M1143.73 195.798H1160.01" stroke="url(#paint8_linear_2608_1052)" stroke-linecap="round" stroke-linejoin="round"/>
<path d="M1036.45 209.033H1053.47" stroke="url(#paint9_linear_2608_1052)" stroke-linecap="round" stroke-linejoin="round"/>
<path d="M1042.38 151.474C1046.6 151.474 1050.03 148.05 1050.03 143.825C1050.03 139.601 1046.6 136.177 1042.38 136.177C1038.15 136.177 1034.73 139.601 1034.73 143.825C1034.73 148.05 1038.15 151.474 1042.38 151.474Z" fill="url(#paint10_linear_2608_1052)"/>
<path d="M1069.46 151.474C1073.68 151.474 1077.11 148.05 1077.11 143.825C1077.11 139.601 1073.68 136.177 1069.46 136.177C1065.24 136.177 1061.81 139.601 1061.81 143.825C1061.81 148.05 1065.24 151.474 1069.46 151.474Z" stroke="url(#paint11_linear_2608_1052)" stroke-miterlimit="10"/>
<path d="M1096.54 151.474C1100.77 151.474 1104.19 148.05 1104.19 143.825C1104.19 139.601 1100.77 136.177 1096.54 136.177C1092.32 136.177 1088.89 139.601 1088.89 143.825C1088.89 148.05 1092.32 151.474 1096.54 151.474Z" fill="#C7C8CA"/>
<path d="M1084.34 -16.2519L1100.01 -13.8553L1084.34 -11.4588L1081.95 4.20534L1079.55 -11.4588L1063.89 -13.8553L1079.55 -16.2519L1081.95 -31.916L1084.34 -16.2519Z" fill="white"/>
</g>
<defs>
<linearGradient id="paint0_linear_2608_1052" x1="924.328" y1="473.479" x2="1360.17" y2="104.367" gradientUnits="userSpaceOnUse">
<stop offset="0.0372584" stop-color="#03F065"/>
<stop offset="0.999398" stop-color="#45FFDD"/>
</linearGradient>
<linearGradient id="paint1_linear_2608_1052" x1="1054.38" y1="258.917" x2="1100.58" y2="258.917" gradientUnits="userSpaceOnUse">
<stop stop-color="#00EF60"/>
<stop offset="1" stop-color="#46FFDE"/>
</linearGradient>
<linearGradient id="paint2_linear_2608_1052" x1="1077.15" y1="170.067" x2="1077.15" y2="171.067" gradientUnits="userSpaceOnUse">
<stop stop-color="#02F064"/>
<stop offset="1" stop-color="#41FED4"/>
</linearGradient>
<linearGradient id="paint3_linear_2608_1052" x1="1137.2" y1="170.067" x2="1137.2" y2="171.067" gradientUnits="userSpaceOnUse">
<stop stop-color="#02F064"/>
<stop offset="1" stop-color="#41FED4"/>
</linearGradient>
<linearGradient id="paint4_linear_2608_1052" x1="1065.68" y1="183.303" x2="1065.68" y2="184.303" gradientUnits="userSpaceOnUse">
<stop stop-color="#02F064"/>
<stop offset="1" stop-color="#41FED4"/>
</linearGradient>
<linearGradient id="paint5_linear_2608_1052" x1="1139.05" y1="182.81" x2="1139.05" y2="183.81" gradientUnits="userSpaceOnUse">
<stop stop-color="#02F064"/>
<stop offset="1" stop-color="#41FED4"/>
</linearGradient>
<linearGradient id="paint6_linear_2608_1052" x1="1056.18" y1="196.044" x2="1056.18" y2="197.044" gradientUnits="userSpaceOnUse">
<stop stop-color="#02F064"/>
<stop offset="1" stop-color="#41FED4"/>
</linearGradient>
<linearGradient id="paint7_linear_2608_1052" x1="1107.97" y1="196.292" x2="1107.97" y2="197.292" gradientUnits="userSpaceOnUse">
<stop stop-color="#02F064"/>
<stop offset="1" stop-color="#41FED4"/>
</linearGradient>
<linearGradient id="paint8_linear_2608_1052" x1="1151.87" y1="195.798" x2="1151.87" y2="196.798" gradientUnits="userSpaceOnUse">
<stop stop-color="#02F064"/>
<stop offset="1" stop-color="#41FED4"/>
</linearGradient>
<linearGradient id="paint9_linear_2608_1052" x1="1044.96" y1="209.033" x2="1044.96" y2="210.033" gradientUnits="userSpaceOnUse">
<stop stop-color="#02F064"/>
<stop offset="1" stop-color="#41FED4"/>
</linearGradient>
<linearGradient id="paint10_linear_2608_1052" x1="1034.15" y1="144.428" x2="1050.09" y2="143.589" gradientUnits="userSpaceOnUse">
<stop stop-color="#04F067"/>
<stop offset="1" stop-color="#43FFD8"/>
</linearGradient>
<linearGradient id="paint11_linear_2608_1052" x1="1069.46" y1="136.177" x2="1069.46" y2="151.474" gradientUnits="userSpaceOnUse">
<stop stop-color="#03F064"/>
<stop offset="1" stop-color="#42FED6"/>
</linearGradient>
<clipPath id="clip0_2608_1052">
<rect width="1280" height="300" fill="white"/>
</clipPath>
</defs>
</svg>
