<svg width="1280" height="720" viewBox="0 0 1280 720" fill="none" xmlns="http://www.w3.org/2000/svg">
<g clip-path="url(#clip0_2610_2951)">
<rect width="1280" height="720" fill="#060606"/>
<rect width="2211.73" height="518.374" transform="matrix(0.965926 -0.258819 -0.258819 -0.965926 -388.506 591.435)" fill="#060606"/>
<path d="M58.1966 781.054L58.1968 299.007C58.1968 252.908 20.8025 215.536 -25.3258 215.536L-507.669 215.533C-553.797 215.533 -591.191 252.904 -591.191 299.004L-591.191 781.051C-591.191 827.151 -553.797 864.523 -507.669 864.523L-25.326 864.525C20.8023 864.525 58.1966 827.154 58.1966 781.054Z" fill="url(#paint0_linear_2610_2951)"/>
<path d="M289.003 637.545L289.003 155.498C289.003 109.398 251.609 72.0262 205.481 72.0259L-276.862 72.0235C-322.99 72.0233 -360.384 109.395 -360.385 155.494L-360.385 637.541C-360.385 683.641 -322.99 721.013 -276.862 721.013L205.481 721.015C251.609 721.016 289.003 683.644 289.003 637.545Z" fill="url(#paint1_linear_2610_2951)"/>
<path d="M519.808 494.03L519.809 11.983C519.809 -34.1169 482.414 -71.4885 436.286 -71.4887L-46.0567 -71.4911C-92.185 -71.4913 -129.579 -34.1201 -129.579 11.9798L-129.579 494.027C-129.579 540.127 -92.1851 577.498 -46.0569 577.498L436.286 577.501C482.414 577.501 519.808 540.13 519.808 494.03Z" fill="url(#paint2_linear_2610_2951)"/>
<path d="M750.615 350.517L750.615 -131.53C750.615 -177.63 713.22 -215.001 667.092 -215.001L184.749 -215.004C138.621 -215.004 101.227 -177.633 101.227 -131.533L101.227 350.514C101.227 396.614 138.621 433.985 184.749 433.986L667.092 433.988C713.22 433.988 750.615 396.617 750.615 350.517Z" fill="url(#paint3_linear_2610_2951)"/>
<path d="M981.42 207.003L981.42 -275.044C981.42 -321.144 944.026 -358.515 897.898 -358.516L415.555 -358.518C369.427 -358.518 332.032 -321.147 332.032 -275.047L332.032 207C332.032 253.1 369.427 290.471 415.555 290.472L897.898 290.474C944.026 290.474 981.42 253.103 981.42 207.003Z" fill="url(#paint4_linear_2610_2951)"/>
<path d="M1212.23 63.4899L1212.23 -418.557C1212.23 -464.657 1174.83 -502.029 1128.7 -502.029L646.36 -502.031C600.232 -502.031 562.838 -464.66 562.838 -418.56L562.838 63.4866C562.838 109.587 600.232 146.958 646.36 146.958L1128.7 146.961C1174.83 146.961 1212.23 109.59 1212.23 63.4899Z" fill="url(#paint5_linear_2610_2951)"/>
<path d="M1443.03 -80.0233L1443.03 -562.07C1443.03 -608.17 1405.64 -645.542 1359.51 -645.542L877.167 -645.544C831.039 -645.545 793.644 -608.173 793.644 -562.073L793.644 -80.0265C793.644 -33.9266 831.038 3.44496 877.167 3.44519L1359.51 3.4476C1405.64 3.44783 1443.03 -33.9234 1443.03 -80.0233Z" fill="url(#paint6_linear_2610_2951)"/>
<path d="M948.909 578.983L948.917 631.866C948.917 641.882 957.037 650 967.053 650H1018.29C1023.59 650 1028.62 647.686 1032.06 643.668L1177.73 473.73C1180.54 470.442 1182.09 466.255 1182.09 461.926V409.043C1182.09 399.026 1173.97 390.906 1163.95 390.906H1112.71C1107.41 390.906 1102.38 393.22 1098.94 397.238L953.275 567.176C950.456 570.464 948.909 574.651 948.909 578.983Z" fill="#00D886"/>
<path d="M948.909 585.341V631.86C948.909 641.877 957.029 649.997 967.046 649.997H1025.35C1026.21 649.997 1027.06 649.935 1027.91 649.815L1192.43 626.316C1201.36 625.039 1208 617.388 1208 608.361V538.567C1208 528.548 1199.88 520.428 1189.86 520.431L1107.3 520.451C1105.36 520.451 1103.42 520.765 1101.57 521.382L961.309 568.137C953.904 570.606 948.909 577.537 948.909 585.343V585.341Z" fill="url(#paint7_linear_2610_2951)"/>
<path d="M923 383.136V534.401C923 541.656 927.324 548.213 933.991 551.071L1100.94 622.624C1103.2 623.591 1105.63 624.091 1108.09 624.091H1189.86C1199.88 624.091 1208 615.971 1208 605.954V525.95C1208 522.367 1206.94 518.864 1204.95 515.882L1109.64 373.076C1106.27 368.034 1100.61 365.008 1094.55 365.008L941.136 365C931.12 365 923 373.12 923 383.136Z" fill="url(#paint8_linear_2610_2951)"/>
<path d="M1154.56 418.439H976.437V596.564H1154.56V418.439Z" fill="black"/>
<path fill-rule="evenodd" clip-rule="evenodd" d="M1012.15 482.274H1023.39L1037.77 507.502H1052.71L1036.8 480.745C1037.13 480.642 1037.46 480.547 1037.79 480.452C1038.54 480.238 1039.29 480.024 1039.97 479.71C1043.59 477.921 1046.37 475.475 1048.32 472.316C1050.29 469.154 1051.27 465.517 1051.27 461.34C1051.27 457.163 1050.3 453.646 1048.36 450.546C1046.45 447.445 1043.72 444.999 1040.16 443.269C1036.59 441.538 1032.47 440.705 1027.8 440.705H999.121V507.502H1012.15L1012.15 482.274ZM1012.15 451.561H1026.94C1029.14 451.561 1031.04 451.977 1032.67 452.754C1034.32 453.587 1035.59 454.722 1036.48 456.215C1037.37 457.705 1037.82 459.436 1037.82 461.463C1037.82 463.49 1037.38 465.22 1036.48 466.772C1035.59 468.262 1034.32 469.397 1032.67 470.23C1031.04 471.066 1029.14 471.424 1026.94 471.424H1012.15V451.561Z" fill="white"/>
<path fill-rule="evenodd" clip-rule="evenodd" d="M1117.01 507.502L1101.1 480.745C1101.43 480.642 1101.76 480.547 1102.09 480.452C1102.84 480.238 1103.59 480.024 1104.27 479.71C1107.9 477.921 1110.68 475.475 1112.62 472.316C1114.59 469.154 1115.58 465.517 1115.58 461.34C1115.58 457.163 1114.6 453.646 1112.66 450.546C1110.76 447.445 1108.02 444.999 1104.46 443.269C1100.89 441.538 1096.78 440.705 1092.1 440.705H1063.42V507.502H1076.45V482.274H1087.69L1102.07 507.502H1117.01ZM1076.45 451.561H1091.25C1093.44 451.561 1095.35 451.977 1096.97 452.754C1098.62 453.587 1099.9 454.722 1100.79 456.215C1101.68 457.705 1102.12 459.436 1102.12 461.463C1102.12 463.49 1101.68 465.22 1100.79 466.772C1099.89 468.262 1098.62 469.397 1096.97 470.23C1095.35 471.066 1093.44 471.424 1091.25 471.424H1076.45V451.561Z" fill="white"/>
<path d="M998.675 560.939H1069.92V574.299H998.675V560.939Z" fill="white"/>
</g>
<defs>
<linearGradient id="paint0_linear_2610_2951" x1="67.0422" y1="550.819" x2="-537.924" y2="550.818" gradientUnits="userSpaceOnUse">
<stop offset="0.125" stop-color="#FF5C00"/>
<stop offset="0.305" stop-color="#FF5C00" stop-opacity="0.8"/>
<stop offset="0.776042" stop-color="#67B05D"/>
<stop offset="1" stop-color="#21D789" stop-opacity="0.71"/>
</linearGradient>
<linearGradient id="paint1_linear_2610_2951" x1="297.849" y1="407.309" x2="-307.118" y2="407.309" gradientUnits="userSpaceOnUse">
<stop offset="0.125" stop-color="#FF5C00"/>
<stop offset="0.305" stop-color="#FF5C00" stop-opacity="0.8"/>
<stop offset="0.776042" stop-color="#67B05D"/>
<stop offset="1" stop-color="#21D789" stop-opacity="0.71"/>
</linearGradient>
<linearGradient id="paint2_linear_2610_2951" x1="528.654" y1="263.794" x2="-76.3126" y2="263.794" gradientUnits="userSpaceOnUse">
<stop offset="0.125" stop-color="#FF5C00"/>
<stop offset="0.305" stop-color="#FF5C00" stop-opacity="0.8"/>
<stop offset="0.776042" stop-color="#67B05D"/>
<stop offset="1" stop-color="#21D789" stop-opacity="0.71"/>
</linearGradient>
<linearGradient id="paint3_linear_2610_2951" x1="759.46" y1="120.281" x2="154.494" y2="120.281" gradientUnits="userSpaceOnUse">
<stop offset="0.125" stop-color="#FF5C00"/>
<stop offset="0.305" stop-color="#FF5C00" stop-opacity="0.8"/>
<stop offset="0.776042" stop-color="#67B05D"/>
<stop offset="1" stop-color="#21D789" stop-opacity="0.71"/>
</linearGradient>
<linearGradient id="paint4_linear_2610_2951" x1="990.266" y1="-23.2327" x2="385.299" y2="-23.2329" gradientUnits="userSpaceOnUse">
<stop offset="0.125" stop-color="#FF5C00"/>
<stop offset="0.305" stop-color="#FF5C00" stop-opacity="0.8"/>
<stop offset="0.776042" stop-color="#67B05D"/>
<stop offset="1" stop-color="#21D789" stop-opacity="0.71"/>
</linearGradient>
<linearGradient id="paint5_linear_2610_2951" x1="1221.07" y1="-166.746" x2="616.104" y2="-166.746" gradientUnits="userSpaceOnUse">
<stop offset="0.125" stop-color="#FF5C00"/>
<stop offset="0.305" stop-color="#FF5C00" stop-opacity="0.8"/>
<stop offset="0.776042" stop-color="#67B05D"/>
<stop offset="1" stop-color="#21D789" stop-opacity="0.71"/>
</linearGradient>
<linearGradient id="paint6_linear_2610_2951" x1="1451.88" y1="-310.259" x2="846.911" y2="-310.259" gradientUnits="userSpaceOnUse">
<stop offset="0.125" stop-color="#FF5C00"/>
<stop offset="0.305" stop-color="#FF5C00" stop-opacity="0.8"/>
<stop offset="0.776042" stop-color="#67B05D"/>
<stop offset="1" stop-color="#21D789" stop-opacity="0.71"/>
</linearGradient>
<linearGradient id="paint7_linear_2610_2951" x1="956.938" y1="653.191" x2="1195.74" y2="542.474" gradientUnits="userSpaceOnUse">
<stop offset="0.08" stop-color="#00D886"/>
<stop offset="0.46" stop-color="#FFAB00"/>
</linearGradient>
<linearGradient id="paint8_linear_2610_2951" x1="1190.27" y1="631.198" x2="928.848" y2="369.778" gradientUnits="userSpaceOnUse">
<stop offset="0.19" stop-color="#FFAB00"/>
<stop offset="0.83" stop-color="#FF004C"/>
</linearGradient>
<clipPath id="clip0_2610_2951">
<rect width="1280" height="720" fill="white"/>
</clipPath>
</defs>
</svg>
