<?xml version="1.0" encoding="UTF-8"?>
<!-- Generated by Pixelmator Pro 3.3.11 -->
<svg width="600" height="600" viewBox="0 0 600 600" xmlns="http://www.w3.org/2000/svg">
    <g id="gopher01c">
        <path id="Path" fill="#b4947f" stroke="#000000" stroke-width="6" stroke-linecap="round" stroke-linejoin="round" d="M 125.351997 295.865997 C 111.973999 297.742004 96.393997 301.620026 88.286003 306.550018 C 80.948997 311.013 81.912003 324.150024 87.131996 330.649017 C 92.640999 337.511017 99.106003 337.144012 106.910995 333.554016 C 112.033997 331.197021 118.203995 325.945007 124.577995 320.062012 C 124.737999 314.936005 124.917 309.806 125.120995 304.687012 C 125.241997 301.64801 125.317001 298.712006 125.351997 295.865997 Z"/>
        <path id="path1" fill="#b4947f" stroke="#000000" stroke-width="6" stroke-linecap="round" stroke-linejoin="round" d="M 509.71701 302.050018 C 502.21701 297.490021 488.328003 293.833008 475.699005 291.824005 C 476.015015 298.640015 476.450012 306.134003 477.037994 314.587006 C 477.144012 316.114014 477.248993 317.620026 477.351013 319.115997 C 482.309998 323.495026 487.031006 327.184021 491.091003 329.053009 C 498.89801 332.644012 505.360992 333.011017 510.869995 326.149017 C 516.091003 319.650024 517.054993 306.511017 509.71701 302.050018 Z"/>
        <path id="path2" fill="#b4947f" stroke="#000000" stroke-width="6" stroke-linecap="round" stroke-linejoin="round" d="M 135.169998 569.698975 C 125.316002 587.219971 151.070007 601.649963 164.419998 589.5 C 175.328003 579.57196 183.938004 571.151978 202.67601 568.401978 C 188.326004 562.495972 175.67601 555.120972 164.924011 546.531006 C 151.807007 551.659973 141.188004 559.000977 135.169998 569.698975 Z"/>
        <path id="path3" fill="#b4947f" stroke="#000000" stroke-width="6" stroke-linecap="round" stroke-linejoin="round" d="M 433.744995 584.700989 C 444.782013 598.984009 472.204987 586.013 464.187988 567.579956 C 458.92099 555.468994 448.970001 545.42395 436.510986 539.38501 C 428.352997 547.002991 418.661987 554.073975 407.203003 560.251953 C 419.882996 566.256958 426.096008 574.800964 433.744995 584.700989 Z"/>
        <path id="path4" fill="none" stroke="#000000" stroke-width="6" stroke-linecap="round" stroke-linejoin="round" d="M 85.047997 327.251007 C 88.380997 324.854004 90.736 322.26001 96.832001 319.154022"/>
        <path id="path5" fill="none" stroke="#000000" stroke-width="6" stroke-linecap="round" stroke-linejoin="round" d="M 512.955017 322.751007 C 509.622009 320.354004 507.266998 317.76001 501.171997 314.654022"/>
        <path id="path6" fill="none" stroke="#000000" stroke-width="6" stroke-linecap="round" stroke-linejoin="round" d="M 140.871002 589.424988 C 141.770996 584.473999 144.471008 576.149963 152.570999 568.948975"/>
        <path id="path7" fill="none" stroke="#000000" stroke-width="6" stroke-linecap="round" stroke-linejoin="round" d="M 456.049988 587.815979 C 456.023987 582.784973 454.746002 572.549988 447.18399 565.620972"/>
        <path id="path8" fill="#74bae2" stroke="#000000" stroke-width="6" stroke-linecap="round" stroke-linejoin="round" d="M 121.070999 79.33197 C 121.070999 72.362976 126.711998 66.713989 133.671005 66.713989 C 137.751999 66.713989 141.367996 68.664978 143.671005 71.677979 C 149.23999 62.567017 155.953995 54.708008 163.584 47.948975 C 159.804001 44.291016 153.662003 41.619019 144.020996 40.323975 C 112.971001 36.150024 97.103996 51.48999 93.478996 72.049011 C 89.981003 91.886993 100.650002 113.191986 124.483002 118.730988 C 126.943001 109.04599 129.957001 100.161987 133.432999 91.937988 C 126.584999 91.80899 121.070999 86.220032 121.070999 79.33197 Z"/>
        <path id="path9" fill="#3c8cbc" stroke="none" d="M 133.671005 66.713989 C 126.712006 66.713989 121.070999 72.362976 121.070999 79.33197 C 121.070999 86.219971 126.584999 91.80899 133.432999 91.937012 C 135.912003 86.071045 138.624008 80.538025 141.544998 75.299011 C 142.231995 74.067993 142.945007 72.86499 143.671005 71.677002 C 141.367996 68.664978 137.751007 66.713989 133.671005 66.713989 Z"/>
        <path id="path10" fill="#74bae2" stroke="#000000" stroke-width="6" stroke-linecap="round" stroke-linejoin="round" d="M 493.979004 63.948975 C 490.354004 43.388977 474.487 28.049988 443.437988 32.223999 C 432.673004 33.671021 426.272003 36.833984 422.648987 41.169006 C 429.515991 47.098999 435.906006 53.914001 441.92099 61.687012 C 442.213013 62.064026 442.490997 62.445007 442.778015 62.822998 C 445.074005 59.728027 448.740997 57.713989 452.885986 57.713989 C 459.845001 57.713989 465.485992 63.362976 465.485992 70.33197 C 465.485992 76.440979 461.151001 81.533997 455.393005 82.697998 C 459.670013 90.980988 463.138 99.897003 465.914001 109.839996 C 487.677002 103.289001 497.329987 82.950012 493.979004 63.948975 Z"/>
        <path id="path11" fill="#3c8cbc" stroke="none" d="M 465.485992 70.33197 C 465.485992 63.362976 459.845001 57.713989 452.885986 57.713989 C 448.73999 57.713989 445.074005 59.728027 442.778015 62.822998 C 447.592987 69.16803 451.785004 75.708984 455.393005 82.697998 C 461.151001 81.533997 465.485992 76.440979 465.485992 70.33197 Z"/>
        <path id="path12" fill="#74bae2" stroke="#000000" stroke-width="6" stroke-linecap="round" stroke-linejoin="round" d="M 442.778015 62.822998 C 442.490997 62.445007 442.213013 62.064026 441.92099 61.687012 C 435.904999 53.914001 429.515991 47.098999 422.648987 41.169006 C 392.85199 15.440979 354.066986 6.379028 297.92099 8.046021 C 249.238998 9.492981 197.447998 17.952026 163.584 47.948975 C 155.953995 54.707031 149.240997 62.565979 143.671005 71.677979 C 142.944992 72.866028 142.231995 74.06897 141.544998 75.299988 C 138.623993 80.539001 135.912003 86.071045 133.432999 91.937988 C 129.957001 100.161987 126.943001 109.04599 124.483002 118.730988 C 119.715996 137.501007 117.019997 159.264008 117.020996 184.988007 C 117.022995 230.121002 125.887001 252.515991 125.352997 295.867004 C 125.318001 298.713013 125.242996 301.649017 125.122002 304.688019 C 124.917999 309.807007 124.738998 314.937012 124.578995 320.063019 C 122.925995 373.169983 123.516998 425.924988 123.080002 462.098999 C 122.679001 495.303009 137.725998 524.802979 164.925003 546.531982 C 175.677002 555.122009 188.326996 562.497009 202.677002 568.402954 C 227.789993 578.73999 258.095001 584.588989 292.520996 584.588989 C 342.786011 584.588989 379.97699 574.936951 407.204987 560.252991 C 418.664001 554.074951 428.354004 547.003967 436.513 539.385986 C 456.872009 520.377991 467.683014 497.96402 472.522003 477.490021 C 483.992004 428.96698 482.488007 393.409973 477.352997 319.119019 C 477.25 317.623016 477.145996 316.117004 477.040009 314.589996 C 476.451996 306.137024 476.018005 298.643005 475.700989 291.826996 C 473.967987 254.484009 475.765015 237.51001 475.221985 194.890015 C 474.759003 158.619019 472.027008 131.729004 465.915985 109.842987 C 463.140015 99.901001 459.671997 90.984985 455.394989 82.700989 C 451.785004 75.708984 447.593994 69.166992 442.778015 62.822998 Z"/>
        <path id="path13" fill="#ffffff" stroke="#000000" stroke-width="6" stroke-linecap="round" stroke-linejoin="round" d="M 279.020996 96.450012 C 279.020996 125.776306 254.441437 149.550018 224.121002 149.550018 C 193.800568 149.550018 169.221008 125.776306 169.221008 96.450012 C 169.221008 67.123657 193.800568 43.349976 224.121002 43.349976 C 254.441437 43.349976 279.020996 67.123657 279.020996 96.450012 Z"/>
        <path id="path14" fill="#000000" stroke="none" d="M 214.220993 99.148987 C 214.220993 109.587189 205.759186 118.049011 195.320999 118.049011 C 184.882828 118.049011 176.421005 109.587189 176.421005 99.148987 C 176.421005 88.710815 184.882828 80.249023 195.320999 80.249023 C 205.759186 80.249023 214.220993 88.710815 214.220993 99.148987 Z"/>
        <path id="path15" fill="#ffffff" stroke="none" d="M 208.820999 103.648987 C 208.820999 106.631348 206.403336 109.049011 203.42099 109.049011 C 200.43866 109.049011 198.020996 106.631348 198.020996 103.648987 C 198.020996 100.666656 200.43866 98.248993 203.42099 98.248993 C 206.403336 98.248993 208.820999 100.666656 208.820999 103.648987 Z"/>
        <path id="path16" fill="#ffffff" stroke="#000000" stroke-width="6" stroke-linecap="round" stroke-linejoin="round" d="M 416.721008 90.148987 C 416.721008 119.475311 392.141418 143.248993 361.821014 143.248993 C 331.500549 143.248993 306.92099 119.475311 306.92099 90.148987 C 306.92099 60.822693 331.500549 37.049011 361.821014 37.049011 C 392.141418 37.049011 416.721008 60.822693 416.721008 90.148987 Z"/>
        <path id="path17" fill="#000000" stroke="none" d="M 351.92099 92.850006 C 351.92099 103.288177 343.459167 111.75 333.020996 111.75 C 322.582825 111.75 314.121002 103.288177 314.121002 92.850006 C 314.121002 82.411804 322.582825 73.950012 333.020996 73.950012 C 343.459167 73.950012 351.92099 82.411804 351.92099 92.850006 Z"/>
        <path id="path18" fill="#ffffff" stroke="none" d="M 346.520996 97.350006 C 346.520996 100.332336 344.103333 102.75 341.121002 102.75 C 338.138672 102.75 335.721008 100.332336 335.721008 97.350006 C 335.721008 94.367676 338.138672 91.950012 341.121002 91.950012 C 344.103333 91.950012 346.520996 94.367676 346.520996 97.350006 Z"/>
        <path id="path19" fill="#ffffff" stroke="#000000" stroke-width="6" stroke-linecap="round" stroke-linejoin="round" d="M 294.968018 175.197998 C 284.184021 175.386017 282.567017 180.196991 273.28302 181.855011 C 272.955017 187.582001 272.537994 195.42099 272.119995 204.751007 C 271.220001 224.851013 296.720001 220.351013 296.720001 208.351013 C 296.720001 199.222015 296.720001 182.636993 296.720001 175.218994 C 296.160004 175.197998 295.583008 175.187988 294.968018 175.197998 Z"/>
        <path id="path20" fill="#ffffff" stroke="#000000" stroke-width="6" stroke-linecap="round" stroke-linejoin="round" d="M 296.720001 208.350006 C 296.720001 220.350006 322.220001 224.850006 321.320007 204.75 C 320.890991 195.167999 320.462982 187.160004 320.130981 181.397003 C 308.441986 180.864014 307.015991 175.584015 296.720001 175.218018 C 296.720001 182.63501 296.720001 199.220001 296.720001 208.350006 Z"/>
        <path id="path21" fill="#ac967b" stroke="#000000" stroke-width="6" stroke-linecap="round" stroke-linejoin="round" d="M 334.674011 155.152008 C 330.320007 150.46701 325.153015 147.914001 318.248993 146.681 C 314.585022 152.046997 305.458008 155.850006 294.77002 155.850006 C 284.492004 155.850006 275.65802 152.332001 271.735992 147.290009 C 264.345001 148.707001 258.983002 151.475006 254.585999 156.550018 C 245.959 166.509003 250.149002 181.44101 261.742004 182.244995 C 266.699005 182.588989 270.365997 182.376007 273.28302 181.854004 C 282.567017 180.196014 284.184021 175.38501 294.968018 175.196991 C 295.583008 175.187012 296.160004 175.196991 296.720001 175.21701 C 307.015015 175.583008 308.44101 180.863007 320.131012 181.395996 C 322.442993 181.501007 325.154999 181.421997 328.420013 181.080017 C 339.979004 179.873016 343.644989 164.804016 334.674011 155.152008 Z"/>
        <path id="path22" fill="#000000" stroke="none" d="M 294.770996 155.850006 C 305.459015 155.850006 314.585022 152.046997 318.25 146.681 C 319.356995 145.05899 319.972015 143.29599 319.972015 141.450012 C 319.972015 133.497009 308.69101 127.049988 294.772003 127.049988 C 280.855011 127.049988 269.572021 133.497009 269.572021 141.450012 C 269.572021 143.529999 270.350006 145.503998 271.738007 147.290009 C 275.65802 152.332001 284.493011 155.850006 294.770996 155.850006 Z"/>
    </g>
</svg>
