<?xml version="1.0" encoding="UTF-8"?>
<!-- Generated by Pixelmator Pro 3.3.12 -->
<svg width="600" height="600" viewBox="0 0 600 600" xmlns="http://www.w3.org/2000/svg">
    <g id="Group">
        <path id="Rectangle" fill="#512bd4" fill-rule="evenodd" stroke="none" d="M 0 600 L 600 600 L 600 0 L 0 0 Z"/>
        <path id="ASPNET" fill="#ffffff" fill-rule="evenodd" stroke="none" d="M 510.590332 346 L 493.183105 346 L 493.183105 278.392578 L 470.890625 278.392578 L 470.890625 263.905273 L 532.882813 263.905273 L 532.882813 278.392578 L 510.590332 278.392578 Z M 461.793945 346 L 414.513672 346 L 414.513672 263.905273 L 461.793945 263.905273 L 461.793945 278.167969 L 431.920898 278.167969 L 431.920898 296.192871 L 459.716309 296.192871 L 459.716309 310.455566 L 431.920898 310.455566 L 431.920898 331.625 L 461.793945 331.625 Z M 393.849609 346 L 371.725586 346 L 336.012695 283.895508 L 335.507324 283.895508 C 336.218597 294.863983 336.574219 302.687805 336.574219 307.367188 L 336.574219 346 L 321.02002 346 L 321.02002 263.905273 L 342.975586 263.905273 L 378.632324 325.39209 L 379.025391 325.39209 C 378.463867 314.723083 378.183105 307.180023 378.183105 302.762695 L 378.183105 263.905273 L 393.849609 263.905273 Z M 284.464844 337.970215 C 284.464844 334.825653 285.307129 332.448578 286.991699 330.838867 C 288.67627 329.229156 291.128235 328.424316 294.347656 328.424316 C 297.454773 328.424316 299.859924 329.247864 301.563232 330.89502 C 303.266541 332.542175 304.118164 334.900543 304.118164 337.970215 C 304.118164 340.927582 303.257172 343.257874 301.535156 344.961182 C 299.813141 346.66449 297.417328 347.516113 294.347656 347.516113 C 291.203094 347.516113 288.769867 346.683197 287.047852 345.017334 C 285.325836 343.351471 284.464844 341.002441 284.464844 337.970215 Z M 233.422363 302.538086 L 239.149902 302.538086 C 244.503113 302.538086 248.508606 301.48056 251.166504 299.365479 C 253.824402 297.250397 255.15332 294.171417 255.15332 290.128418 C 255.15332 286.048004 254.039642 283.034515 251.812256 281.087891 C 249.584869 279.141266 246.094101 278.167969 241.339844 278.167969 L 233.422363 278.167969 Z M 272.729004 289.510742 C 272.729004 298.345428 269.968201 305.102356 264.446533 309.781738 C 258.924866 314.461121 251.072968 316.800781 240.890625 316.800781 L 233.422363 316.800781 L 233.422363 346 L 216.015137 346 L 216.015137 263.905273 L 242.238281 263.905273 C 252.196014 263.905273 259.767151 266.048401 264.951904 270.334717 C 270.136658 274.621033 272.729004 281.01297 272.729004 289.510742 Z M 201.134766 323.202148 C 201.134766 330.614288 198.46756 336.454071 193.133057 340.72168 C 187.798553 344.989258 180.377167 347.123047 170.868652 347.123047 C 162.108841 347.123047 154.359894 345.475922 147.621582 342.181641 L 147.621582 326.009766 C 153.161972 328.480469 157.850647 330.221191 161.687744 331.231934 C 165.524841 332.242676 169.034332 332.748047 172.216309 332.748047 C 176.034683 332.748047 178.963943 332.018066 181.00415 330.558105 C 183.044357 329.098145 184.064453 326.926941 184.064453 324.044434 C 184.064453 322.434723 183.615234 321.002869 182.716797 319.748779 C 181.818359 318.49469 180.498795 317.287445 178.758057 316.126953 C 177.017319 314.966461 173.470398 313.113464 168.117188 310.567871 C 163.100891 308.209473 159.338715 305.944672 156.830566 303.773438 C 154.322418 301.602203 152.319672 299.075378 150.822266 296.192871 C 149.32486 293.310364 148.576172 289.941254 148.576172 286.085449 C 148.576172 278.823029 151.037491 273.114288 155.960205 268.958984 C 160.882919 264.80368 167.686646 262.726074 176.371582 262.726074 C 180.639175 262.726074 184.71019 263.231445 188.584717 264.242188 C 192.459244 265.25293 196.511536 266.675446 200.741699 268.509766 L 195.126465 282.04248 C 190.746567 280.245605 187.124771 278.991547 184.260986 278.280273 C 181.397202 277.569 178.580261 277.213379 175.810059 277.213379 C 172.515778 277.213379 169.988937 277.980774 168.229492 279.515625 C 166.470047 281.050476 165.590332 283.053223 165.590332 285.523926 C 165.590332 287.058777 165.945953 288.397034 166.657227 289.538818 C 167.3685 290.680603 168.500885 291.784912 170.054443 292.851807 C 171.608002 293.918701 175.285934 295.837219 181.088379 298.607422 C 188.762573 302.276062 194.022125 305.95401 196.867188 309.641357 C 199.71225 313.328705 201.134766 317.848938 201.134766 323.202148 Z M 123.588379 346 L 117.63623 326.458984 L 87.707031 326.458984 L 81.754883 346 L 63 346 L 91.974609 263.568359 L 113.256348 263.568359 L 142.343262 346 Z M 113.480957 311.859375 C 107.977997 294.152588 104.880295 284.138855 104.187744 281.817871 C 103.495193 279.496887 102.999191 277.662598 102.699707 276.314941 C 101.464348 281.106628 97.926788 292.954651 92.086914 311.859375 Z"/>
    </g>
</svg>
