<svg width="1280" height="720" viewBox="0 0 1280 720" fill="none" xmlns="http://www.w3.org/2000/svg">
<g clip-path="url(#clip0_2608_2519)">
<rect width="1280" height="720" fill="url(#paint0_linear_2608_2519)"/>
<g clip-path="url(#clip1_2608_2519)">
<rect width="2000" height="2000" transform="translate(-186 -594)" fill="url(#paint1_linear_2608_2519)"/>
<g filter="url(#filter0_f_2608_2519)">
<ellipse cx="900.56" cy="1713.95" rx="934.464" ry="679.639" transform="rotate(57.1269 900.56 1713.95)" fill="#FF318C"/>
</g>
<g filter="url(#filter1_f_2608_2519)">
<ellipse cx="1360.25" cy="636.95" rx="798.935" ry="724.679" transform="rotate(43.7455 1360.25 636.95)" fill="#6B57FF"/>
</g>
<g filter="url(#filter2_f_2608_2519)">
<ellipse cx="1692.45" cy="-392.233" rx="1279.96" ry="1161" transform="rotate(43.7455 1692.45 -392.233)" fill="#FC801D"/>
</g>
<g filter="url(#filter3_f_2608_2519)">
<ellipse cx="383.56" cy="-228.049" rx="934.464" ry="679.639" transform="rotate(32.7264 383.56 -228.049)" fill="#FF318C"/>
</g>
</g>
<g clip-path="url(#clip2_2608_2519)">
<path d="M1043.47 326.493C1040.76 294.201 1005.79 270.778 965.355 274.174C924.912 277.582 894.324 306.522 897.032 338.814C897.306 342.079 897.92 345.244 898.83 348.311C906.877 375.569 938.802 394.189 975.146 391.133C1010.21 388.187 1037.84 366.04 1042.82 339.155C1043.59 335.033 1043.83 330.791 1043.47 326.493Z" fill="#E1195B"/>
<path d="M1183.43 95.8073C1176.54 91.4437 1166.46 94.6972 1158.24 103.897C1148.9 114.35 1141.54 132.112 1137.97 141.3C1137.97 141.3 1129.28 134.046 1131.48 97.39C1132.44 81.6505 1127.83 70.4503 1114.15 71.0219C1085.44 72.2199 1097.12 143.839 1096.29 143.784C1095.47 143.74 1087.33 134.53 1084.52 122.956C1081.7 111.382 1080.26 82.332 1055.92 93.2353C1028.18 105.667 1072.86 190.201 1072.86 190.201C1072.86 190.201 1060.78 189.563 1045.17 194.751C1029.56 199.95 1031.16 213.579 1035.07 220.855C1037.82 225.988 1046.09 227.56 1064.78 225.593C1083.19 223.647 1088.4 247.29 1109.45 249.85C1113.97 250.4 1117.84 278.912 1112.86 297.058C1107.87 315.205 1100.69 318.601 1088.54 322.195C1076.39 325.789 1070.97 316.172 1070.97 316.172C1070.97 316.172 970.135 86.6515 929.209 97.434C911.854 102.006 917.424 154.424 906.778 202.907C892.318 268.745 882.385 308.764 864.668 334.934C846.963 361.105 819.806 366.369 815.476 396.211C811.145 426.063 829.64 442.759 812.329 475.117C803.241 492.121 783.616 499.595 784 512.224C784.395 524.853 800.401 533.393 807.22 529.975C811.233 527.964 815.41 523.556 818.184 520.259C819.642 510.257 821.407 500.112 823.38 490.011C823.446 489.67 823.512 489.329 823.578 488.988C823.896 487.362 824.225 485.735 824.554 484.108C824.718 483.284 824.893 482.46 825.069 481.624C825.31 480.481 825.54 479.327 825.781 478.184C825.99 477.184 826.209 476.195 826.417 475.194C826.626 474.205 826.834 473.227 827.053 472.238C827.086 472.095 827.119 471.952 827.141 471.809C827.492 470.193 827.853 468.589 828.215 466.984C828.292 466.643 828.369 466.302 828.445 465.962C828.763 464.533 829.092 463.104 829.421 461.686C829.542 461.158 829.662 460.631 829.783 460.103C830.101 458.729 830.419 457.366 830.748 456.004C830.835 455.619 830.934 455.223 831.022 454.838C831.428 453.135 831.833 451.442 832.25 449.749C832.359 449.31 832.469 448.87 832.579 448.431C832.886 447.156 833.204 445.891 833.521 444.627C833.664 444.067 833.807 443.506 833.938 442.935C834.256 441.682 834.563 440.44 834.881 439.198C834.991 438.758 835.1 438.318 835.21 437.879C835.615 436.285 836.021 434.702 836.438 433.131C836.569 432.614 836.701 432.108 836.843 431.592C837.139 430.471 837.424 429.361 837.72 428.261C837.874 427.668 838.027 427.085 838.192 426.503C838.499 425.371 838.795 424.239 839.102 423.117C839.222 422.667 839.343 422.216 839.464 421.766C839.869 420.293 840.264 418.831 840.659 417.38C840.812 416.83 840.966 416.281 841.108 415.731C841.371 414.764 841.645 413.808 841.908 412.863C842.084 412.247 842.248 411.643 842.424 411.038C842.698 410.071 842.972 409.104 843.235 408.147C843.378 407.664 843.509 407.169 843.652 406.686C844.024 405.356 844.408 404.048 844.781 402.762C844.945 402.179 845.11 401.619 845.274 401.047C845.515 400.234 845.746 399.42 845.976 398.629C846.151 398.035 846.327 397.442 846.491 396.848C846.732 396.024 846.973 395.2 847.215 394.386C847.401 393.76 847.587 393.144 847.763 392.529C848.07 391.485 848.377 390.462 848.684 389.451C848.848 388.913 849.002 388.385 849.166 387.857C849.385 387.132 849.605 386.418 849.813 385.714C849.966 385.197 850.12 384.692 850.273 384.186C850.515 383.406 850.745 382.637 850.975 381.878C851.14 381.329 851.315 380.779 851.479 380.251C851.743 379.383 852.006 378.537 852.269 377.701C852.411 377.24 852.554 376.789 852.696 376.328C852.894 375.69 853.091 375.074 853.277 374.459C853.409 374.041 853.541 373.624 853.672 373.217C853.913 372.448 854.144 371.711 854.385 370.975C854.483 370.667 854.582 370.359 854.681 370.051C854.933 369.238 855.185 368.458 855.437 367.699C855.536 367.37 855.645 367.062 855.744 366.743C855.931 366.15 856.128 365.567 856.303 365.006C856.391 364.743 856.479 364.468 856.566 364.204C856.819 363.413 857.071 362.643 857.312 361.907C857.312 361.907 857.312 361.907 857.312 361.896C857.992 359.808 858.595 357.983 859.11 356.444C859.11 356.433 859.11 356.411 859.121 356.4C859.428 355.499 859.691 354.697 859.932 353.993C860.009 353.784 860.075 353.586 860.14 353.389C860.151 353.356 860.162 353.312 860.173 353.279C860.228 353.125 860.272 352.982 860.327 352.839C860.349 352.773 860.371 352.707 860.393 352.641C860.436 352.509 860.48 352.377 860.524 352.246C860.524 352.224 860.546 352.191 860.546 352.169C860.59 352.037 860.634 351.916 860.667 351.806C860.689 351.751 860.7 351.696 860.722 351.641C860.743 351.586 860.765 351.531 860.776 351.476C860.809 351.388 860.831 351.311 860.853 351.245C860.864 351.212 860.875 351.168 860.886 351.135C860.974 350.872 861.028 350.74 861.028 350.74L898.808 348.333C897.898 345.266 897.284 342.101 897.01 338.836C894.302 306.544 924.89 277.604 965.334 274.196C1005.78 270.789 1040.75 294.211 1043.45 326.515C1043.81 330.812 1043.56 335.044 1042.8 339.177H1042.84L1076.5 337.034C1077.21 337.935 1078.12 339.562 1079.18 341.771L1086.36 359.654L1091.09 371.458C1091.85 373.712 1092.61 376.053 1093.39 378.482C1096.56 333.67 1109.41 331.505 1118.59 318.15C1131.06 300.004 1119.84 248.916 1147.97 236.485C1167.31 227.945 1170.01 213.997 1171.78 201.764C1173.56 189.53 1167.19 166.635 1172.38 149.819C1179.66 126.209 1205.1 109.59 1183.39 95.8403L1183.43 95.8073Z" fill="black"/>
<path d="M958.174 588.559C957.834 588.581 957.494 588.624 957.166 588.646C957.505 588.613 957.834 588.581 958.174 588.559Z" fill="white"/>
<path d="M960.784 588.416C960.499 588.416 960.224 588.449 959.939 588.46C960.224 588.449 960.499 588.427 960.784 588.416Z" fill="white"/>
<path d="M1112.27 447.716C1106.33 421.722 1099.55 397.552 1093.42 378.449C1089.07 366.172 1082.72 348.344 1076.52 337.012C1076.51 337.012 1042.83 339.155 1042.81 339.155C1033.05 401.827 915.417 409.928 898.819 348.322L861.039 350.729C860.688 351.729 860.283 352.938 859.932 353.982C842.083 408.147 826.757 463.796 818.194 520.248C809.49 579.898 811.573 634.36 845.405 642.801C865.655 647.857 880.718 635.305 897.251 620.994C899.202 619.313 901.165 617.598 903.171 615.883C903.412 615.674 903.654 615.466 903.895 615.268C904.136 615.059 904.377 614.861 904.618 614.652C904.936 614.377 905.265 614.103 905.583 613.828C905.824 613.619 906.065 613.421 906.318 613.212C906.646 612.938 906.964 612.674 907.293 612.399C907.556 612.179 907.82 611.959 908.094 611.74C908.401 611.487 908.708 611.234 909.015 610.981C909.289 610.761 909.563 610.541 909.837 610.322C910.144 610.069 910.451 609.827 910.758 609.574C911.032 609.354 911.317 609.135 911.591 608.915C911.898 608.673 912.205 608.431 912.523 608.189C912.808 607.97 913.082 607.761 913.367 607.541C913.685 607.299 913.992 607.057 914.31 606.815C914.595 606.607 914.88 606.387 915.165 606.178C915.483 605.936 915.801 605.705 916.119 605.464C916.404 605.255 916.7 605.046 916.985 604.837C917.303 604.606 917.632 604.375 917.961 604.145C918.257 603.936 918.542 603.738 918.838 603.529C919.167 603.298 919.496 603.078 919.824 602.848C920.12 602.65 920.416 602.441 920.723 602.243C921.052 602.023 921.381 601.803 921.721 601.584C922.028 601.386 922.335 601.188 922.642 600.99C922.971 600.781 923.311 600.561 923.64 600.353C923.947 600.155 924.265 599.968 924.572 599.781C924.911 599.572 925.251 599.374 925.591 599.165C925.909 598.979 926.227 598.792 926.534 598.616C926.874 598.418 927.225 598.22 927.575 598.022C927.893 597.847 928.222 597.671 928.54 597.495C928.891 597.308 929.242 597.121 929.593 596.934C929.922 596.758 930.24 596.594 930.568 596.429C930.93 596.242 931.292 596.066 931.654 595.89C931.983 595.725 932.312 595.571 932.641 595.406C933.002 595.231 933.375 595.066 933.737 594.901C934.077 594.747 934.406 594.593 934.745 594.439C935.118 594.274 935.491 594.12 935.864 593.956C936.204 593.813 936.554 593.67 936.894 593.527C937.278 593.373 937.651 593.23 938.034 593.076C938.385 592.944 938.725 592.813 939.076 592.681C939.46 592.538 939.854 592.395 940.249 592.263C940.6 592.142 940.951 592.021 941.302 591.9C941.696 591.768 942.102 591.636 942.508 591.516C942.858 591.406 943.22 591.296 943.571 591.186C943.977 591.065 944.393 590.955 944.81 590.834C945.172 590.735 945.522 590.636 945.884 590.537C946.312 590.427 946.739 590.328 947.156 590.23C947.518 590.142 947.88 590.054 948.241 589.977C948.68 589.878 949.118 589.79 949.557 589.702C949.919 589.625 950.281 589.548 950.653 589.482C951.103 589.394 951.563 589.328 952.024 589.251C952.385 589.196 952.747 589.13 953.109 589.075C953.58 589.01 954.063 588.944 954.545 588.889C954.907 588.845 955.258 588.79 955.62 588.757C956.124 588.702 956.65 588.658 957.165 588.614C957.505 588.581 957.834 588.548 958.174 588.526C958.755 588.482 959.347 588.46 959.939 588.427C960.224 588.416 960.498 588.394 960.783 588.383C961.66 588.35 962.548 588.328 963.447 588.328C991.678 588.328 1009.5 605.617 1027.16 621.731C1028.81 623.236 1030.47 624.742 1032.12 626.215C1033.78 627.688 1035.44 629.139 1037.13 630.546C1037.69 631.018 1038.25 631.48 1038.82 631.942C1039.95 632.865 1041.09 633.766 1042.23 634.634C1042.8 635.074 1043.38 635.503 1043.96 635.931C1045.12 636.778 1046.29 637.602 1047.47 638.393C1049.25 639.58 1051.06 640.691 1052.91 641.724C1056.6 643.779 1060.46 645.483 1064.55 646.736C1065.91 647.154 1067.3 647.516 1068.72 647.813C1069.43 647.967 1070.14 648.11 1070.87 648.231C1072.31 648.483 1073.78 648.67 1075.3 648.791C1076.05 648.857 1076.81 648.901 1077.58 648.934C1081.42 649.088 1085.47 648.835 1089.77 648.099C1090.73 647.934 1091.66 647.725 1092.58 647.494C1092.88 647.417 1093.18 647.34 1093.46 647.252C1094.09 647.077 1094.7 646.89 1095.31 646.692C1095.64 646.582 1095.96 646.472 1096.28 646.362C1096.87 646.142 1097.45 645.912 1098.02 645.67C1098.31 645.549 1098.59 645.439 1098.87 645.318C1099.61 644.977 1100.32 644.615 1101.04 644.23C1101.49 643.988 1101.91 643.724 1102.35 643.46C1102.64 643.296 1102.91 643.12 1103.19 642.944C1103.69 642.625 1104.18 642.284 1104.67 641.944C1104.79 641.856 1104.91 641.768 1105.03 641.68C1139.94 615.883 1129.73 523.963 1112.27 447.705V447.716Z" fill="white"/>
<path d="M930.558 596.473C930.229 596.638 929.911 596.813 929.582 596.978C929.911 596.802 930.229 596.638 930.558 596.473Z" fill="white"/>
<path d="M932.63 595.45C932.301 595.604 931.972 595.769 931.643 595.934C931.972 595.769 932.301 595.615 932.63 595.45Z" fill="white"/>
<path d="M934.735 594.483C934.395 594.637 934.055 594.791 933.726 594.945C934.066 594.791 934.395 594.637 934.735 594.483Z" fill="white"/>
<path d="M936.884 593.571C936.533 593.714 936.193 593.857 935.853 593.999C936.193 593.857 936.544 593.714 936.884 593.571Z" fill="white"/>
<path d="M955.609 588.79C955.247 588.833 954.896 588.877 954.535 588.921C954.896 588.877 955.247 588.822 955.609 588.79Z" fill="white"/>
<path d="M943.56 591.229C943.198 591.339 942.847 591.449 942.497 591.559C942.847 591.449 943.209 591.339 943.56 591.229Z" fill="white"/>
</g>
</g>
<defs>
<filter id="filter0_f_2608_2519" x="-363.049" y="346.541" width="2527.22" height="2734.82" filterUnits="userSpaceOnUse" color-interpolation-filters="sRGB">
<feFlood flood-opacity="0" result="BackgroundImageFix"/>
<feBlend mode="normal" in="SourceGraphic" in2="BackgroundImageFix" result="shape"/>
<feGaussianBlur stdDeviation="250" result="effect1_foregroundBlur_2608_2519"/>
</filter>
<filter id="filter1_f_2608_2519" x="95.9043" y="-624.138" width="2528.69" height="2522.18" filterUnits="userSpaceOnUse" color-interpolation-filters="sRGB">
<feFlood flood-opacity="0" result="BackgroundImageFix"/>
<feBlend mode="normal" in="SourceGraphic" in2="BackgroundImageFix" result="shape"/>
<feGaussianBlur stdDeviation="250" result="effect1_foregroundBlur_2608_2519"/>
</filter>
<filter id="filter2_f_2608_2519" x="67.9033" y="-2011.56" width="3249.09" height="3238.66" filterUnits="userSpaceOnUse" color-interpolation-filters="sRGB">
<feFlood flood-opacity="0" result="BackgroundImageFix"/>
<feBlend mode="normal" in="SourceGraphic" in2="BackgroundImageFix" result="shape"/>
<feGaussianBlur stdDeviation="200" result="effect1_foregroundBlur_2608_2519"/>
</filter>
<filter id="filter3_f_2608_2519" x="-684.405" y="-1191.03" width="2135.93" height="1925.96" filterUnits="userSpaceOnUse" color-interpolation-filters="sRGB">
<feFlood flood-opacity="0" result="BackgroundImageFix"/>
<feBlend mode="normal" in="SourceGraphic" in2="BackgroundImageFix" result="shape"/>
<feGaussianBlur stdDeviation="100" result="effect1_foregroundBlur_2608_2519"/>
</filter>
<linearGradient id="paint0_linear_2608_2519" x1="1.40587e-05" y1="295" x2="1280" y2="311" gradientUnits="userSpaceOnUse">
<stop offset="0.311808" stop-color="#060606"/>
<stop offset="1" stop-color="#3051C7"/>
</linearGradient>
<linearGradient id="paint1_linear_2608_2519" x1="2047" y1="-59.9999" x2="6.13928e-05" y2="2000" gradientUnits="userSpaceOnUse">
<stop stop-color="#6B57FF"/>
<stop offset="1" stop-color="#080042"/>
</linearGradient>
<clipPath id="clip0_2608_2519">
<rect width="1280" height="720" fill="white"/>
</clipPath>
<clipPath id="clip1_2608_2519">
<rect width="2000" height="2000" fill="white" transform="translate(-186 -594)"/>
</clipPath>
<clipPath id="clip2_2608_2519">
<rect width="408" height="578" fill="white" transform="translate(784 71)"/>
</clipPath>
</defs>
</svg>
