<svg width="1280" height="720" viewBox="0 0 1280 720" fill="none" xmlns="http://www.w3.org/2000/svg">
<g clip-path="url(#clip0_2610_2951)">
<rect width="1280" height="720" fill="#060606"/>
<rect width="2109.49" height="494.411" transform="matrix(-0.999897 0.014339 0.014339 0.999897 1488.64 317.646)" fill="#060606"/>
<path d="M1119.86 37.9449L1007.25 483.702C996.475 526.332 1022.32 569.626 1064.98 580.402L1511.01 693.089C1553.67 703.866 1596.98 678.044 1607.74 635.414L1720.36 189.657C1731.13 147.028 1705.28 103.733 1662.63 92.9568L1216.6 -19.7297C1173.94 -30.5063 1130.63 -4.68451 1119.86 37.9449Z" fill="url(#paint0_linear_2610_2951)"/>
<path d="M872.902 116.731L760.287 562.488C749.517 605.118 775.366 648.412 818.021 659.189L1264.05 771.875C1306.71 782.652 1350.02 756.83 1360.79 714.2L1473.4 268.443C1484.17 225.814 1458.32 182.52 1415.67 171.743L969.638 59.0564C926.982 48.2798 883.672 74.1016 872.902 116.731Z" fill="url(#paint1_linear_2610_2951)"/>
<path d="M625.945 195.521L513.33 641.278C502.56 683.908 528.409 727.202 571.064 737.979L1017.09 850.665C1059.75 861.442 1103.06 835.62 1113.83 792.991L1226.45 347.233C1237.22 304.604 1211.37 261.31 1168.71 250.533L722.68 137.846C680.025 127.07 636.715 152.892 625.945 195.521Z" fill="url(#paint2_linear_2610_2951)"/>
<path d="M378.987 274.308L266.372 720.066C255.602 762.695 281.451 805.989 324.106 816.766L770.137 929.452C812.792 940.229 856.102 914.407 866.872 871.778L979.487 426.02C990.257 383.391 964.409 340.097 921.753 329.32L475.722 216.634C433.067 205.857 389.757 231.679 378.987 274.308Z" fill="url(#paint3_linear_2610_2951)"/>
<path d="M132.029 353.098L19.414 798.856C8.64423 841.485 34.4927 884.779 77.1483 895.556L523.179 1008.24C565.834 1019.02 609.144 993.197 619.914 950.568L732.529 504.81C743.299 462.181 717.451 418.887 674.795 408.11L228.764 295.424C186.109 284.647 142.799 310.469 132.029 353.098Z" fill="url(#paint4_linear_2610_2951)"/>
<path d="M-114.927 431.887L-227.542 877.645C-238.312 920.274 -212.464 963.568 -169.808 974.345L276.222 1087.03C318.878 1097.81 362.188 1071.99 372.957 1029.36L485.573 583.599C496.342 540.97 470.494 497.676 427.838 486.899L-18.1921 374.213C-60.8476 363.436 -104.157 389.258 -114.927 431.887Z" fill="url(#paint5_linear_2610_2951)"/>
<path d="M-361.885 510.675L-474.501 956.433C-485.27 999.062 -459.422 1042.36 -416.766 1053.13L29.2642 1165.82C71.9198 1176.6 115.23 1150.77 125.999 1108.14L238.615 662.387C249.384 619.758 223.536 576.464 180.88 565.687L-265.15 453.001C-307.806 442.224 -351.115 468.046 -361.885 510.675Z" fill="url(#paint6_linear_2610_2951)"/>
<path d="M-608.843 589.462L-721.459 1035.22C-732.228 1077.85 -706.38 1121.14 -663.724 1131.92L-217.694 1244.61C-175.038 1255.38 -131.728 1229.56 -120.959 1186.93L-8.34337 741.175C2.42644 698.545 -23.4221 655.251 -66.0776 644.474L-512.108 531.788C-554.764 521.011 -598.073 546.833 -608.843 589.462Z" fill="url(#paint7_linear_2610_2951)"/>
</g>
<defs>
<linearGradient id="paint0_linear_2610_2951" x1="1057.89" y1="248.782" x2="1617.32" y2="390.113" gradientUnits="userSpaceOnUse">
<stop offset="0.125" stop-color="#FF5C00"/>
<stop offset="0.305" stop-color="#FF5C00" stop-opacity="0.8"/>
<stop offset="0.776042" stop-color="#67B05D"/>
<stop offset="1" stop-color="#21D789" stop-opacity="0.71"/>
</linearGradient>
<linearGradient id="paint1_linear_2610_2951" x1="810.935" y1="327.568" x2="1370.36" y2="468.899" gradientUnits="userSpaceOnUse">
<stop offset="0.125" stop-color="#FF5C00"/>
<stop offset="0.305" stop-color="#FF5C00" stop-opacity="0.8"/>
<stop offset="0.776042" stop-color="#67B05D"/>
<stop offset="1" stop-color="#21D789" stop-opacity="0.71"/>
</linearGradient>
<linearGradient id="paint2_linear_2610_2951" x1="563.978" y1="406.358" x2="1123.4" y2="547.689" gradientUnits="userSpaceOnUse">
<stop offset="0.125" stop-color="#FF5C00"/>
<stop offset="0.305" stop-color="#FF5C00" stop-opacity="0.8"/>
<stop offset="0.776042" stop-color="#67B05D"/>
<stop offset="1" stop-color="#21D789" stop-opacity="0.71"/>
</linearGradient>
<linearGradient id="paint3_linear_2610_2951" x1="317.02" y1="485.145" x2="876.444" y2="626.476" gradientUnits="userSpaceOnUse">
<stop offset="0.125" stop-color="#FF5C00"/>
<stop offset="0.305" stop-color="#FF5C00" stop-opacity="0.8"/>
<stop offset="0.776042" stop-color="#67B05D"/>
<stop offset="1" stop-color="#21D789" stop-opacity="0.71"/>
</linearGradient>
<linearGradient id="paint4_linear_2610_2951" x1="70.0622" y1="563.935" x2="629.486" y2="705.266" gradientUnits="userSpaceOnUse">
<stop offset="0.125" stop-color="#FF5C00"/>
<stop offset="0.305" stop-color="#FF5C00" stop-opacity="0.8"/>
<stop offset="0.776042" stop-color="#67B05D"/>
<stop offset="1" stop-color="#21D789" stop-opacity="0.71"/>
</linearGradient>
<linearGradient id="paint5_linear_2610_2951" x1="-176.894" y1="642.724" x2="382.529" y2="784.056" gradientUnits="userSpaceOnUse">
<stop offset="0.125" stop-color="#FF5C00"/>
<stop offset="0.305" stop-color="#FF5C00" stop-opacity="0.8"/>
<stop offset="0.776042" stop-color="#67B05D"/>
<stop offset="1" stop-color="#21D789" stop-opacity="0.71"/>
</linearGradient>
<linearGradient id="paint6_linear_2610_2951" x1="-423.852" y1="721.512" x2="135.571" y2="862.844" gradientUnits="userSpaceOnUse">
<stop offset="0.125" stop-color="#FF5C00"/>
<stop offset="0.305" stop-color="#FF5C00" stop-opacity="0.8"/>
<stop offset="0.776042" stop-color="#67B05D"/>
<stop offset="1" stop-color="#21D789" stop-opacity="0.71"/>
</linearGradient>
<linearGradient id="paint7_linear_2610_2951" x1="-670.81" y1="800.299" x2="-111.387" y2="941.631" gradientUnits="userSpaceOnUse">
<stop offset="0.125" stop-color="#FF5C00"/>
<stop offset="0.305" stop-color="#FF5C00" stop-opacity="0.73"/>
<stop offset="0.776042" stop-color="#67B05D" stop-opacity="0.74"/>
<stop offset="1" stop-color="#21D789" stop-opacity="0.71"/>
</linearGradient>
<clipPath id="clip0_2610_2951">
<rect width="1280" height="720" fill="white"/>
</clipPath>
</defs>
</svg>
